<svg width="78" height="95" fill="none" xmlns="http://www.w3.org/2000/svg"><g filter="url(#a)"><rect width="38.6" height="8.2" rx="4.1" transform="scale(1 -1) rotate(-11 -319 -52)" fill="#B9B9B9"/></g><rect width="38.6" height="8.2" rx="4.1" transform="scale(1 -1) rotate(-11 -312 -35)" fill="#FFC6D1"/><g filter="url(#b)"><rect width="38.6" height="8.2" rx="4.1" transform="scale(1 -1) rotate(-16 -122 -29)" fill="#BFBFBF"/></g><rect width="38.6" height="8.2" rx="4.1" transform="scale(1 -1) rotate(-16 -114 -20)" fill="#7AD0E0"/><g filter="url(#c)"><rect x="43.4" y="90.7" width="38.6" height="8.2" rx="4.1" transform="rotate(-175 43 91)" fill="#BEBEBE"/></g><rect x="40.2" y="89.1" width="38.6" height="8.2" rx="4.1" transform="rotate(-175 40 89)" fill="#FFDE8D"/><g filter="url(#d)"><rect width="38.6" height="8.2" rx="4.1" transform="scale(1 -1) rotate(15 85 20)" fill="#BBB"/></g><rect width="38.6" height="8.2" rx="4.1" transform="scale(1 -1) rotate(15 74 9)" fill="#7AD0E0"/><g filter="url(#e)"><circle cx="69.2" cy="39.9" r="4.4" transform="rotate(1 69 40)" fill="#BBB"/></g><circle cx="66.7" cy="38.2" r="4.4" transform="rotate(1 67 38)" fill="#FFC6D1"/><g filter="url(#f)"><circle cx="69.2" cy="60.8" r="4.4" transform="rotate(1 69 61)" fill="#BBB"/></g><circle cx="66.7" cy="59.2" r="4.4" transform="rotate(1 67 59)" fill="#FFDE8D"/><g filter="url(#g)"><circle cx="69.2" cy="81.8" r="4.4" transform="rotate(1 69 82)" fill="#BBB"/></g><circle cx="66.7" cy="80.1" r="4.4" transform="rotate(1 67 80)" fill="#7AD0E0"/><defs><filter id="a" x=".9" y="49.8" width="46.1" height="21.9" filterUnits="userSpaceOnUse" color-interpolation-filters="sRGB"><feFlood flood-opacity="0" result="BackgroundImageFix"/><feBlend in="SourceGraphic" in2="BackgroundImageFix" result="shape"/><feGaussianBlur stdDeviation="2" result="effect1_foregroundBlur_12_1047"/></filter><filter id="b" x=".3" y="24.3" width="45.4" height="24.7" filterUnits="userSpaceOnUse" color-interpolation-filters="sRGB"><feFlood flood-opacity="0" result="BackgroundImageFix"/><feBlend in="SourceGraphic" in2="BackgroundImageFix" result="shape"/><feGaussianBlur stdDeviation="2" result="effect1_foregroundBlur_12_1047"/></filter><filter id="c" x="1.3" y="75.2" width="46.5" height="19.1" filterUnits="userSpaceOnUse" color-interpolation-filters="sRGB"><feFlood flood-opacity="0" result="BackgroundImageFix"/><feBlend in="SourceGraphic" in2="BackgroundImageFix" result="shape"/><feGaussianBlur stdDeviation="2" result="effect1_foregroundBlur_12_1047"/></filter><filter id="d" x="2.7" y="0" width="45.6" height="23.8" filterUnits="userSpaceOnUse" color-interpolation-filters="sRGB"><feFlood flood-opacity="0" result="BackgroundImageFix"/><feBlend in="SourceGraphic" in2="BackgroundImageFix" result="shape"/><feGaussianBlur stdDeviation="2" result="effect1_foregroundBlur_12_1047"/></filter><filter id="e" x="60.7" y="31.4" width="16.9" height="16.9" filterUnits="userSpaceOnUse" color-interpolation-filters="sRGB"><feFlood flood-opacity="0" result="BackgroundImageFix"/><feBlend in="SourceGraphic" in2="BackgroundImageFix" result="shape"/><feGaussianBlur stdDeviation="2" result="effect1_foregroundBlur_12_1047"/></filter><filter id="f" x="60.7" y="52.4" width="16.9" height="16.9" filterUnits="userSpaceOnUse" color-interpolation-filters="sRGB"><feFlood flood-opacity="0" result="BackgroundImageFix"/><feBlend in="SourceGraphic" in2="BackgroundImageFix" result="shape"/><feGaussianBlur stdDeviation="2" result="effect1_foregroundBlur_12_1047"/></filter><filter id="g" x="60.7" y="73.3" width="16.9" height="16.9" filterUnits="userSpaceOnUse" color-interpolation-filters="sRGB"><feFlood flood-opacity="0" result="BackgroundImageFix"/><feBlend in="SourceGraphic" in2="BackgroundImageFix" result="shape"/><feGaussianBlur stdDeviation="2" result="effect1_foregroundBlur_12_1047"/></filter></defs></svg>