<svg width="1456" height="906" fill="none" xmlns="http://www.w3.org/2000/svg"><g filter="url(#a)"><path fill-rule="evenodd" clip-rule="evenodd" d="M775.2 902H80.18V144H1397.3v299.12c-15.89-6.14-31.87-9.15-47.23-8.36-37.68-4.18-79.04 41.41-120.35 86.96-30.3 33.4-60.58 66.77-89.36 80.48-41.76 19.88-77.64 12.73-109.67.52-80.16-45.11-186.8-59.31-275.31 6.03-68.73 50.74-51.22 176.61 19.83 293.25Z" fill="#BFB4AC"/></g><path fill-rule="evenodd" clip-rule="evenodd" d="M779.06 901.67H84.2V135H1401v302.54c-15.89-6.2-31.86-9.26-47.22-8.46-37.67-4.22-79.02 41.9-120.32 87.96-30.29 33.78-60.56 67.53-89.34 81.4-41.74 20.1-77.62 12.88-109.64.52-80.14-45.62-186.76-59.99-275.24 6.1-68.71 51.32-51.21 178.63 19.82 296.6Z" fill="#F4D6C4"/><g filter="url(#b)"><path fill-rule="evenodd" clip-rule="evenodd" d="M746.5 902H4V11h1447.5v365.74c-47.65-41.82-102.53-65.2-146.73-56.1-41.07 1-75.79 61.08-110.47 121.1-25.44 44.02-50.85 88.01-78.74 108.64-40.45 29.93-80.22 27.15-116.91 17.8-94.85-40.47-211.58-40.44-292.53 50.25-53.36 59.8-29.24 173.5 40.37 283.57Z" fill="#C3AB9C"/></g><path fill-rule="evenodd" clip-rule="evenodd" d="M749.5 900H7V0h1447.5v369.43c-47.65-42.24-102.53-65.85-146.73-56.67-41.07 1.01-75.79 61.7-110.47 122.34-25.44 44.46-50.85 88.9-78.74 109.73-40.45 30.23-80.21 27.42-116.91 17.98-94.85-40.88-211.58-40.85-292.53 50.76-53.36 60.4-29.24 175.24 40.37 286.43Z" fill="#FFE7D8"/><defs><filter id="a" x="76.17" y="140" width="1325.13" height="766" filterUnits="userSpaceOnUse" color-interpolation-filters="sRGB"><feFlood flood-opacity="0" result="BackgroundImageFix"/><feBlend in="SourceGraphic" in2="BackgroundImageFix" result="shape"/><feGaussianBlur stdDeviation="2" result="effect1_foregroundBlur_12_1017"/></filter><filter id="b" x="0" y="7" width="1455.5" height="899" filterUnits="userSpaceOnUse" color-interpolation-filters="sRGB"><feFlood flood-opacity="0" result="BackgroundImageFix"/><feBlend in="SourceGraphic" in2="BackgroundImageFix" result="shape"/><feGaussianBlur stdDeviation="2" result="effect1_foregroundBlur_12_1017"/></filter></defs></svg>