<svg width="53" height="73" fill="none" xmlns="http://www.w3.org/2000/svg"><g filter="url(#a)"><path d="M29 7a3 3 0 0 0-6 0h6Zm-5 61h4l19-20a3 3 0 0 0-4-4L26 61 9 44a3 3 0 1 0-4 4l19 20ZM23 7v58h6V7h-6Z" fill="#B8B8B8"/></g><path d="M26 5a3 3 0 1 0-6 0h6Zm-5 60h4l19-19a3 3 0 1 0-4-4L23 59 6 42a3 3 0 1 0-4 4l19 19ZM20 5v58h6V5h-6Z" fill="#CA9B7C"/><defs><filter id="a" x=".1" y=".4" width="52.2" height="72" filterUnits="userSpaceOnUse" color-interpolation-filters="sRGB"><feFlood flood-opacity="0" result="BackgroundImageFix"/><feBlend in="SourceGraphic" in2="BackgroundImageFix" result="shape"/><feGaussianBlur stdDeviation="2" result="effect1_foregroundBlur_2_1234"/></filter></defs></svg>