<svg width="112" height="16" viewBox="0 0 112 16" fill="none" xmlns="http://www.w3.org/2000/svg">
<path d="M1.47727 8.81818L1.45455 7.15909H1.72727L5.54545 3.27273H7.20455L3.13636 7.38636H3.02273L1.47727 8.81818ZM0.227273 12V0.363636H1.56818V12H0.227273ZM5.77273 12L2.36364 7.68182L3.31818 6.75L7.47727 12H5.77273ZM11.4986 12.2045C10.9455 12.2045 10.4437 12.1004 9.9929 11.892C9.54214 11.6799 9.18419 11.375 8.91903 10.9773C8.65388 10.5758 8.52131 10.0909 8.52131 9.52273C8.52131 9.02273 8.61979 8.61742 8.81676 8.30682C9.01373 7.99242 9.27699 7.74621 9.60653 7.56818C9.93608 7.39015 10.2997 7.25758 10.6974 7.17045C11.099 7.07955 11.5024 7.00758 11.9077 6.95455C12.438 6.88636 12.8679 6.83523 13.1974 6.80114C13.5308 6.76326 13.7732 6.70076 13.9247 6.61364C14.08 6.52652 14.1577 6.375 14.1577 6.15909V6.11364C14.1577 5.55303 14.0043 5.11742 13.6974 4.80682C13.3944 4.49621 12.9342 4.34091 12.3168 4.34091C11.6766 4.34091 11.1747 4.48106 10.8111 4.76136C10.4474 5.04167 10.1918 5.34091 10.044 5.65909L8.77131 5.20455C8.99858 4.67424 9.30161 4.26136 9.6804 3.96591C10.063 3.66667 10.4796 3.45833 10.9304 3.34091C11.3849 3.2197 11.8319 3.15909 12.2713 3.15909C12.5516 3.15909 12.8736 3.19318 13.2372 3.26136C13.6046 3.32576 13.9588 3.46023 14.2997 3.66477C14.6444 3.86932 14.9304 4.17803 15.1577 4.59091C15.3849 5.00379 15.4986 5.55682 15.4986 6.25V12H14.1577V10.8182H14.0895C13.9986 11.0076 13.8471 11.2102 13.6349 11.4261C13.4228 11.642 13.1406 11.8258 12.7884 11.9773C12.4361 12.1288 12.0062 12.2045 11.4986 12.2045ZM11.7031 11C12.2334 11 12.6804 10.8958 13.044 10.6875C13.4115 10.4792 13.688 10.2102 13.8736 9.88068C14.063 9.55114 14.1577 9.20455 14.1577 8.84091V7.61364C14.1009 7.68182 13.9759 7.74432 13.7827 7.80114C13.5933 7.85417 13.3736 7.90151 13.1236 7.94318C12.8774 7.98106 12.6368 8.01515 12.402 8.04545C12.1709 8.07197 11.9834 8.0947 11.8395 8.11364C11.491 8.15909 11.1652 8.23295 10.8622 8.33523C10.563 8.43371 10.3205 8.58333 10.1349 8.78409C9.95313 8.98106 9.86222 9.25 9.86222 9.59091C9.86222 10.0568 10.0346 10.4091 10.3793 10.6477C10.7277 10.8826 11.169 11 11.7031 11ZM19.196 8.81818L19.1733 7.15909H19.446L23.2642 3.27273H24.9233L20.8551 7.38636H20.7415L19.196 8.81818ZM17.946 12V0.363636H19.2869V12H17.946ZM23.4915 12L20.0824 7.68182L21.0369 6.75L25.196 12H23.4915ZM29.2173 12.2045C28.6643 12.2045 28.1624 12.1004 27.7116 11.892C27.2609 11.6799 26.9029 11.375 26.6378 10.9773C26.3726 10.5758 26.2401 10.0909 26.2401 9.52273C26.2401 9.02273 26.3385 8.61742 26.5355 8.30682C26.7325 7.99242 26.9957 7.74621 27.3253 7.56818C27.6548 7.39015 28.0185 7.25758 28.4162 7.17045C28.8177 7.07955 29.2211 7.00758 29.6264 6.95455C30.1567 6.88636 30.5866 6.83523 30.9162 6.80114C31.2495 6.76326 31.492 6.70076 31.6435 6.61364C31.7988 6.52652 31.8764 6.375 31.8764 6.15909V6.11364C31.8764 5.55303 31.723 5.11742 31.4162 4.80682C31.1132 4.49621 30.6529 4.34091 30.0355 4.34091C29.3954 4.34091 28.8935 4.48106 28.5298 4.76136C28.1662 5.04167 27.9105 5.34091 27.7628 5.65909L26.4901 5.20455C26.7173 4.67424 27.0204 4.26136 27.3991 3.96591C27.7817 3.66667 28.1984 3.45833 28.6491 3.34091C29.1037 3.2197 29.5507 3.15909 29.9901 3.15909C30.2704 3.15909 30.5923 3.19318 30.956 3.26136C31.3234 3.32576 31.6776 3.46023 32.0185 3.66477C32.3632 3.86932 32.6491 4.17803 32.8764 4.59091C33.1037 5.00379 33.2173 5.55682 33.2173 6.25V12H31.8764V10.8182H31.8082C31.7173 11.0076 31.5658 11.2102 31.3537 11.4261C31.1416 11.642 30.8594 11.8258 30.5071 11.9773C30.1548 12.1288 29.7249 12.2045 29.2173 12.2045ZM29.4219 11C29.9522 11 30.3991 10.8958 30.7628 10.6875C31.1302 10.4792 31.4067 10.2102 31.5923 9.88068C31.7817 9.55114 31.8764 9.20455 31.8764 8.84091V7.61364C31.8196 7.68182 31.6946 7.74432 31.5014 7.80114C31.312 7.85417 31.0923 7.90151 30.8423 7.94318C30.5961 7.98106 30.3556 8.01515 30.1207 8.04545C29.8897 8.07197 29.7022 8.0947 29.5582 8.11364C29.2098 8.15909 28.884 8.23295 28.581 8.33523C28.2817 8.43371 28.0393 8.58333 27.8537 8.78409C27.6719 8.98106 27.581 9.25 27.581 9.59091C27.581 10.0568 27.7533 10.4091 28.098 10.6477C28.4465 10.8826 28.8878 11 29.4219 11ZM39.2102 12.1818C38.4223 12.1818 37.7311 11.9943 37.1364 11.6193C36.5455 11.2443 36.0833 10.7197 35.75 10.0455C35.4205 9.37121 35.2557 8.58333 35.2557 7.68182C35.2557 6.77273 35.4205 5.97917 35.75 5.30114C36.0833 4.62311 36.5455 4.09659 37.1364 3.72159C37.7311 3.34659 38.4223 3.15909 39.2102 3.15909C39.9981 3.15909 40.6875 3.34659 41.2784 3.72159C41.8731 4.09659 42.3352 4.62311 42.6648 5.30114C42.9981 5.97917 43.1648 6.77273 43.1648 7.68182C43.1648 8.58333 42.9981 9.37121 42.6648 10.0455C42.3352 10.7197 41.8731 11.2443 41.2784 11.6193C40.6875 11.9943 39.9981 12.1818 39.2102 12.1818ZM39.2102 10.9773C39.8087 10.9773 40.3011 10.8239 40.6875 10.517C41.0739 10.2102 41.3598 9.80682 41.5455 9.30682C41.7311 8.80682 41.8239 8.26515 41.8239 7.68182C41.8239 7.09848 41.7311 6.55492 41.5455 6.05114C41.3598 5.54735 41.0739 5.14015 40.6875 4.82955C40.3011 4.51894 39.8087 4.36364 39.2102 4.36364C38.6117 4.36364 38.1193 4.51894 37.733 4.82955C37.3466 5.14015 37.0606 5.54735 36.875 6.05114C36.6894 6.55492 36.5966 7.09848 36.5966 7.68182C36.5966 8.26515 36.6894 8.80682 36.875 9.30682C37.0606 9.80682 37.3466 10.2102 37.733 10.517C38.1193 10.8239 38.6117 10.9773 39.2102 10.9773ZM50.6889 12.0909C50.4086 12.0909 50.1681 11.9905 49.9673 11.7898C49.7666 11.589 49.6662 11.3485 49.6662 11.0682C49.6662 10.7879 49.7666 10.5473 49.9673 10.3466C50.1681 10.1458 50.4086 10.0455 50.6889 10.0455C50.9692 10.0455 51.2098 10.1458 51.4105 10.3466C51.6113 10.5473 51.7116 10.7879 51.7116 11.0682C51.7116 11.2538 51.6643 11.4242 51.5696 11.5795C51.4787 11.7348 51.3556 11.8598 51.2003 11.9545C51.0488 12.0455 50.8783 12.0909 50.6889 12.0909ZM50.6889 5.61364C50.4086 5.61364 50.1681 5.51326 49.9673 5.3125C49.7666 5.11174 49.6662 4.87121 49.6662 4.59091C49.6662 4.31061 49.7666 4.07008 49.9673 3.86932C50.1681 3.66856 50.4086 3.56818 50.6889 3.56818C50.9692 3.56818 51.2098 3.66856 51.4105 3.86932C51.6113 4.07008 51.7116 4.31061 51.7116 4.59091C51.7116 4.77652 51.6643 4.94697 51.5696 5.10227C51.4787 5.25758 51.3556 5.38258 51.2003 5.47727C51.0488 5.56818 50.8783 5.61364 50.6889 5.61364ZM62.1634 12.1818C61.3755 12.1818 60.6842 11.9943 60.0895 11.6193C59.4986 11.2443 59.0365 10.7197 58.7031 10.0455C58.3736 9.37121 58.2088 8.58333 58.2088 7.68182C58.2088 6.77273 58.3736 5.97917 58.7031 5.30114C59.0365 4.62311 59.4986 4.09659 60.0895 3.72159C60.6842 3.34659 61.3755 3.15909 62.1634 3.15909C62.9512 3.15909 63.6406 3.34659 64.2315 3.72159C64.8262 4.09659 65.2884 4.62311 65.6179 5.30114C65.9512 5.97917 66.1179 6.77273 66.1179 7.68182C66.1179 8.58333 65.9512 9.37121 65.6179 10.0455C65.2884 10.7197 64.8262 11.2443 64.2315 11.6193C63.6406 11.9943 62.9512 12.1818 62.1634 12.1818ZM62.1634 10.9773C62.7618 10.9773 63.2543 10.8239 63.6406 10.517C64.027 10.2102 64.313 9.80682 64.4986 9.30682C64.6842 8.80682 64.777 8.26515 64.777 7.68182C64.777 7.09848 64.6842 6.55492 64.4986 6.05114C64.313 5.54735 64.027 5.14015 63.6406 4.82955C63.2543 4.51894 62.7618 4.36364 62.1634 4.36364C61.5649 4.36364 61.0724 4.51894 60.6861 4.82955C60.2997 5.14015 60.0137 5.54735 59.8281 6.05114C59.6425 6.55492 59.5497 7.09848 59.5497 7.68182C59.5497 8.26515 59.6425 8.80682 59.8281 9.30682C60.0137 9.80682 60.2997 10.2102 60.6861 10.517C61.0724 10.8239 61.5649 10.9773 62.1634 10.9773ZM69.5057 6.75V12H68.1648V3.27273H69.4602V4.63636H69.5739C69.7784 4.19318 70.089 3.83712 70.5057 3.56818C70.9223 3.29545 71.4602 3.15909 72.1193 3.15909C72.7102 3.15909 73.2273 3.2803 73.6705 3.52273C74.1136 3.76136 74.4583 4.125 74.7045 4.61364C74.9508 5.09848 75.0739 5.71212 75.0739 6.45455V12H73.733V6.54545C73.733 5.85985 73.5549 5.32576 73.1989 4.94318C72.8428 4.55682 72.3542 4.36364 71.733 4.36364C71.3049 4.36364 70.9223 4.45644 70.5852 4.64205C70.2519 4.82765 69.9886 5.09848 69.7955 5.45455C69.6023 5.81061 69.5057 6.24242 69.5057 6.75ZM78.8651 0.363636V12H77.5241V0.363636H78.8651ZM82.1847 15.2727C81.9574 15.2727 81.7547 15.2538 81.5767 15.2159C81.3987 15.1818 81.2756 15.1477 81.2074 15.1136L81.5483 13.9318C81.8741 14.0152 82.1619 14.0455 82.4119 14.0227C82.6619 14 82.8835 13.8883 83.0767 13.6875C83.2737 13.4905 83.4536 13.1705 83.6165 12.7273L83.8665 12.0455L80.6392 3.27273H82.0938L84.5028 10.2273H84.5938L87.0028 3.27273H88.4574L84.7528 13.2727C84.5862 13.7235 84.3797 14.0966 84.1335 14.392C83.8873 14.6913 83.6013 14.9129 83.2756 15.0568C82.9536 15.2008 82.59 15.2727 82.1847 15.2727ZM96.4091 5.22727L95.2045 5.56818C95.1288 5.36742 95.017 5.17235 94.8693 4.98295C94.7254 4.78977 94.5284 4.63068 94.2784 4.50568C94.0284 4.38068 93.7083 4.31818 93.3182 4.31818C92.7841 4.31818 92.339 4.44129 91.983 4.6875C91.6307 4.92992 91.4545 5.23864 91.4545 5.61364C91.4545 5.94697 91.5758 6.21023 91.8182 6.40341C92.0606 6.59659 92.4394 6.75758 92.9545 6.88636L94.25 7.20455C95.0303 7.39394 95.6117 7.68371 95.9943 8.07386C96.3769 8.46023 96.5682 8.95833 96.5682 9.56818C96.5682 10.0682 96.4242 10.5152 96.1364 10.9091C95.8523 11.303 95.4545 11.6136 94.9432 11.8409C94.4318 12.0682 93.8371 12.1818 93.1591 12.1818C92.2689 12.1818 91.5322 11.9886 90.9489 11.6023C90.3655 11.2159 89.9962 10.6515 89.8409 9.90909L91.1136 9.59091C91.2348 10.0606 91.464 10.4129 91.8011 10.6477C92.142 10.8826 92.5871 11 93.1364 11C93.7614 11 94.2576 10.8674 94.625 10.6023C94.9962 10.3333 95.1818 10.0114 95.1818 9.63636C95.1818 9.33333 95.0758 9.07955 94.8636 8.875C94.6515 8.66667 94.3258 8.51136 93.8864 8.40909L92.4318 8.06818C91.6326 7.87879 91.0455 7.58523 90.6705 7.1875C90.2992 6.78598 90.1136 6.28409 90.1136 5.68182C90.1136 5.18939 90.2519 4.75379 90.5284 4.375C90.8087 3.99621 91.1894 3.69886 91.6705 3.48295C92.1553 3.26705 92.7045 3.15909 93.3182 3.15909C94.1818 3.15909 94.8598 3.34848 95.3523 3.72727C95.8485 4.10606 96.2008 4.60606 96.4091 5.22727ZM104.087 8.43182V3.27273H105.428V12H104.087V10.5227H103.996C103.791 10.9659 103.473 11.3428 103.041 11.6534C102.609 11.9602 102.064 12.1136 101.405 12.1136C100.859 12.1136 100.375 11.9943 99.9503 11.7557C99.526 11.5133 99.1927 11.1496 98.9503 10.6648C98.7079 10.1761 98.5866 9.56061 98.5866 8.81818V3.27273H99.9276V8.72727C99.9276 9.36364 100.106 9.87121 100.462 10.25C100.821 10.6288 101.28 10.8182 101.837 10.8182C102.17 10.8182 102.509 10.733 102.854 10.5625C103.202 10.392 103.494 10.1307 103.729 9.77841C103.967 9.42614 104.087 8.97727 104.087 8.43182ZM111.952 0.363636V12H110.543V1.84091H110.474L107.634 3.72727V2.29545L110.543 0.363636H111.952Z" fill="#45504E"/>
</svg>
