<svg width="795" height="73" fill="none" xmlns="http://www.w3.org/2000/svg"><g filter="url(#a)" fill="#C09DA1"><path d="M11.9 66.9c-1 0-2-.4-2.7-1.1-.7-.7-1-1.6-1-2.7V14.4c0-1.1.3-2 1-2.7.7-.7 1.6-1 2.7-1s2 .4 2.9 1.3L46 53.8V14.4c0-1.1.4-2 1.1-2.7.7-.7 1.6-1 2.7-1 1 0 2 .3 2.7 1 .6.7 1 1.6 1 2.7V63c0 1-.4 2-1 2.7-.7.7-1.6 1-2.7 1a5 5 0 0 1-1.6-.2c-.5-.3-1-.6-1.3-1L15.6 23.8v39.3c0 1-.3 2-1 2.7-.7.7-1.6 1-2.7 1ZM71.7 66.9c-1 0-2-.4-2.7-1.1-.7-.7-1-1.6-1-2.7V14.4c0-1.1.3-2 1-2.7.8-.7 1.7-1 2.7-1 1.1 0 2 .3 2.7 1 .7.7 1 1.6 1 2.7V63c0 1-.3 2-1 2.7-.7.7-1.6 1-2.7 1ZM115 67.6c-3.9 0-7.5-.7-11-2.2a28.4 28.4 0 0 1-14.7-15.3 30.5 30.5 0 0 1 6-31.8 27.8 27.8 0 0 1 29.2-7 27.3 27.3 0 0 1 9 5.7l.4 1 .1 1a3 3 0 0 1-1 2.4c-.6.5-1.4.9-2.3 1a4 4 0 0 1-2.6-1 21.1 21.1 0 0 0-5.6-3.5 19 19 0 0 0-7.5-1.2c-2.8 0-5.5.6-8 1.7a21.5 21.5 0 0 0-12.6 20.3 23.4 23.4 0 0 0 6 15.6 19.5 19.5 0 0 0 21.5 5.2c2.3-.8 4.4-2 6.4-3.5.8-.6 1.7-.9 2.5-.8a3 3 0 0 1 2.2 1c.5.6.8 1.4.8 2.5 0 .4 0 1-.3 1.4a4 4 0 0 1-.8 1.2 28.8 28.8 0 0 1-17.7 6.3ZM149.5 66.9c-1 0-1.9-.4-2.6-1.1-.7-.7-1.1-1.6-1.1-2.7V14.4c0-1.1.4-2 1-2.7.8-.7 1.7-1 2.7-1h32.6c1 0 2 .3 2.7 1 .6.6 1 1.4 1 2.5 0 1-.4 1.8-1 2.4-.7.6-1.6 1-2.7 1h-28.8V35H174c1 0 2 .4 2.6 1 .7.7 1 1.5 1 2.5s-.3 1.9-1 2.5c-.7.6-1.5 1-2.6 1h-20.7v18H182c1 0 2 .3 2.7.9.6.6 1 1.4 1 2.4 0 1.1-.4 2-1 2.6-.7.7-1.6 1-2.7 1h-32.6ZM234 66.9c-1.1 0-2-.4-2.7-1.1-.7-.7-1.1-1.6-1.1-2.7V10.6h7.5v52.5c0 1-.4 2-1 2.7-.8.7-1.7 1-2.8 1Zm-19.4-49.3c-1 0-1.8-.4-2.5-1-.6-.7-1-1.5-1-2.5a3.3 3.3 0 0 1 3.5-3.5h38.6c1 0 1.8.4 2.4 1 .7.7 1 1.5 1 2.5s-.3 1.8-1 2.5c-.6.6-1.4 1-2.4 1h-38.6ZM287.3 67.6a27.4 27.4 0 0 1-20.7-8 27.9 27.9 0 0 1-5.8-9.2c-1.4-3.6-2-7.5-2-11.7 0-4.2.6-8 2-11.6a26 26 0 0 1 14.9-15c3.5-1.5 7.4-2.2 11.6-2.2 4.2 0 8 .7 11.5 2.2a26 26 0 0 1 15 15c1.4 3.5 2.1 7.4 2.1 11.6 0 4.2-.7 8.1-2 11.7a27.3 27.3 0 0 1-6 9.1 27.4 27.4 0 0 1-20.6 8Zm0-6.8c3.1 0 6-.5 8.6-1.6A20.6 20.6 0 0 0 307 47.5c1-2.8 1.6-5.7 1.6-8.8 0-3.1-.5-6-1.6-8.7A19.9 19.9 0 0 0 296 18.3a21.6 21.6 0 0 0-8.6-1.6A20.1 20.1 0 0 0 267.5 30c-1 2.7-1.6 5.6-1.6 8.7a23.6 23.6 0 0 0 6 15.8c2 2 4.2 3.5 6.8 4.7 2.6 1 5.5 1.6 8.6 1.6ZM352.5 66.9c-1 0-2-.4-2.7-1.1-.7-.7-1-1.6-1-2.7V14.4c0-1.1.3-2 1-2.7.7-.7 1.6-1 2.7-1 1.4 0 2.5.6 3.3 2l22.5 45.1H376l22-45.1c.7-1.4 1.8-2 3.3-2 1 0 2 .3 2.6 1 .8.7 1.1 1.6 1.1 2.7V63c0 1-.4 2-1.1 2.7-.7.7-1.6 1-2.6 1s-2-.3-2.7-1c-.7-.7-1-1.6-1-2.7V24.8l1.4-.4L380 62.8a3.7 3.7 0 0 1-3.2 2c-1.6 0-2.8-.8-3.5-2.3L354.8 25l1.4-.3V63c0 1-.3 2-1 2.7-.8.7-1.7 1-2.7 1ZM423.2 66.9c-1 0-2-.4-2.7-1.1-.7-.7-1-1.6-1-2.7V14.4c0-1.1.3-2 1-2.7.8-.7 1.6-1 2.7-1h32.5c1.2 0 2 .3 2.7 1 .7.6 1 1.4 1 2.5 0 1-.3 1.8-1 2.4-.7.6-1.5 1-2.7 1H427V35h20.7c1.1 0 2 .4 2.7 1 .6.7 1 1.5 1 2.5s-.4 1.9-1 2.5c-.7.6-1.6 1-2.7 1H427v18h28.8c1.2 0 2 .3 2.7.9.7.6 1 1.4 1 2.4 0 1.1-.3 2-1 2.6-.7.7-1.5 1-2.7 1h-32.5ZM473.6 66.9c-1 0-2-.4-2.6-1.1-.8-.7-1.1-1.6-1.1-2.7V14.4c0-1.1.3-2 1-2.7.8-.7 1.7-1 2.7-1h32.6c1 0 2 .3 2.6 1 .7.6 1 1.4 1 2.5 0 1-.3 1.8-1 2.4-.6.6-1.5 1-2.6 1h-28.8V35H498c1.1 0 2 .4 2.7 1 .7.7 1 1.5 1 2.5s-.3 1.9-1 2.5c-.7.6-1.6 1-2.7 1h-20.6v18h28.8c1 0 2 .3 2.6.9.7.6 1 1.4 1 2.4 0 1.1-.3 2-1 2.6-.6.7-1.5 1-2.6 1h-32.6ZM537 66.9c-1.1 0-2-.4-2.7-1.1-.8-.7-1.1-1.6-1.1-2.7V10.6h7.5v52.5c0 1-.4 2-1.1 2.7-.7.7-1.6 1-2.7 1Zm-19.4-49.3c-1 0-1.8-.4-2.5-1-.6-.7-1-1.5-1-2.5a3.3 3.3 0 0 1 3.5-3.5h38.5c1 0 1.9.4 2.5 1 .7.7 1 1.5 1 2.5s-.3 1.8-1 2.5c-.6.6-1.5 1-2.5 1h-38.5ZM605.8 66.9c-1 0-1.8-.4-2.6-1.1-.7-.7-1-1.6-1-2.7V46.4l-19.3-30a4 4 0 0 1-.7-2.7c.2-1 .6-1.7 1.2-2.2.8-.6 1.6-.9 2.5-.9a3 3 0 0 1 2 .6l1.3 1.5 18.3 29h-2.9l18.6-29.3a3.9 3.9 0 0 1 3.3-1.8c.9 0 1.6.4 2.2 1 .5.6.9 1.3 1 2.2 0 .9-.2 1.8-.8 2.7l-19.3 29.9V63c0 1-.4 2-1.1 2.7-.7.7-1.6 1-2.7 1ZM659.6 67.6a27.4 27.4 0 0 1-20.7-8 27.9 27.9 0 0 1-5.8-9.2c-1.4-3.6-2-7.5-2-11.7 0-4.2.6-8 2-11.6a26 26 0 0 1 14.9-15c3.5-1.5 7.4-2.2 11.6-2.2 4.2 0 8 .7 11.5 2.2a26 26 0 0 1 15 15c1.4 3.5 2.1 7.4 2.1 11.6 0 4.2-.7 8.1-2 11.7a27.3 27.3 0 0 1-6 9.1 27.4 27.4 0 0 1-20.6 8Zm0-6.8c3.1 0 6-.5 8.6-1.6a20.6 20.6 0 0 0 11.2-11.7c1-2.8 1.6-5.7 1.6-8.8 0-3.1-.5-6-1.6-8.7a19.9 19.9 0 0 0-11.2-11.7 21.6 21.6 0 0 0-8.6-1.6A20.1 20.1 0 0 0 639.8 30c-1 2.7-1.6 5.6-1.6 8.7a23.6 23.6 0 0 0 6 15.8c2 2 4.2 3.5 6.8 4.7 2.6 1 5.5 1.6 8.6 1.6ZM723.5 68c-4.6 0-8.7-.8-12.3-2.5A18.6 18.6 0 0 1 700 48V14.4c0-1.1.4-2 1.1-2.7.7-.7 1.6-1 2.7-1 1 0 2 .3 2.6 1 .8.7 1.1 1.6 1.1 2.7V48c0 2.6.7 5 2 7 1.4 1.9 3.3 3.4 5.7 4.6 2.5 1.1 5.3 1.7 8.4 1.7 3 0 5.7-.6 8-1.7 2.3-1.2 4.1-2.7 5.4-4.7 1.4-2 2-4.3 2-6.9V14.4c0-1.1.4-2 1.1-2.7.8-.7 1.6-1 2.7-1s2 .3 2.7 1c.6.7 1 1.6 1 2.7V48c0 3.9-1 7.4-3 10.4-1.9 3-4.6 5.4-8 7.1a26.8 26.8 0 0 1-12 2.5ZM783.2 53.6c-1 0-2-.4-2.6-1.1-.7-.8-1-1.7-1-2.6V14.4c0-1 .3-2 1-2.7.7-.7 1.6-1 2.6-1s2 .3 2.6 1c.7.7 1 1.6 1 2.7v35.5c0 1-.3 1.9-1 2.6-.8.7-1.6 1-2.6 1Zm0 13.3a5 5 0 0 1-3.5-8.5c1-1 2.2-1.5 3.5-1.5 1.4 0 2.6.5 3.5 1.5 1 1 1.5 2.1 1.5 3.5s-.5 2.6-1.5 3.5c-1 1-2.1 1.5-3.5 1.5Z"/></g><path d="M8.9 61c-1 0-2-.4-2.7-1-.7-.8-1-1.7-1-2.7V8.5c0-1 .3-2 1-2.7.7-.7 1.6-1 2.7-1s2 .4 2.9 1.3L43 48V8.5c0-1 .4-2 1.1-2.7.7-.7 1.6-1 2.7-1 1 0 2 .3 2.7 1 .6.7 1 1.6 1 2.7v48.8c0 1-.4 1.9-1 2.6-.7.7-1.6 1.1-2.7 1.1a5 5 0 0 1-1.6-.3c-.5-.2-1-.6-1.3-1L12.6 17.9v39.4c0 1-.3 1.9-1 2.6-.7.7-1.6 1.1-2.7 1.1ZM68.7 61c-1 0-2-.4-2.7-1-.7-.8-1-1.7-1-2.7V8.5c0-1 .3-2 1-2.7.8-.7 1.7-1 2.7-1 1.1 0 2 .3 2.7 1 .7.7 1 1.6 1 2.7v48.8c0 1-.3 1.9-1 2.6-.7.7-1.6 1.1-2.7 1.1ZM112 61.7c-3.9 0-7.5-.7-11-2.1a28.4 28.4 0 0 1-14.7-15.4 30.5 30.5 0 0 1 6-31.7 27.8 27.8 0 0 1 29.2-7 27.3 27.3 0 0 1 9 5.7l.4 1 .1 1a3 3 0 0 1-1 2.3c-.6.6-1.4 1-2.3 1a4 4 0 0 1-2.6-1 21.1 21.1 0 0 0-5.6-3.5 19 19 0 0 0-7.5-1.2c-2.8 0-5.5.6-8 1.7a21.5 21.5 0 0 0-12.6 20.3 23.4 23.4 0 0 0 6 15.7 19.5 19.5 0 0 0 21.5 5.2c2.3-1 4.4-2 6.4-3.6.8-.6 1.7-.9 2.5-.8a3 3 0 0 1 2.2 1c.5.6.8 1.4.8 2.5 0 .5 0 1-.3 1.4a4 4 0 0 1-.8 1.3 28.8 28.8 0 0 1-17.7 6.2ZM146.5 61c-1 0-1.9-.4-2.6-1-.7-.8-1.1-1.7-1.1-2.7V8.5c0-1 .4-2 1-2.7.8-.7 1.7-1 2.7-1h32.6c1 0 2 .3 2.7 1 .6.6 1 1.4 1 2.5 0 1-.4 1.8-1 2.4-.7.7-1.6 1-2.7 1h-28.8v17.5H171c1 0 2 .3 2.6 1 .7.6 1 1.4 1 2.4s-.3 1.9-1 2.6c-.7.6-1.5.9-2.6.9h-20.7v18H179c1 0 2 .3 2.7 1 .6.5 1 1.4 1 2.4s-.4 1.9-1 2.6c-.7.6-1.6.9-2.7.9h-32.6ZM231 61c-1.1 0-2-.4-2.7-1-.7-.8-1.1-1.7-1.1-2.7V4.8h7.5v52.5c0 1-.4 1.9-1 2.6-.8.7-1.7 1.1-2.8 1.1Zm-19.4-49.3c-1 0-1.8-.3-2.5-1-.6-.6-1-1.5-1-2.5a3.3 3.3 0 0 1 3.5-3.4h38.6c1 0 1.8.3 2.4 1 .7.6 1 1.4 1 2.4s-.3 1.9-1 2.5c-.6.7-1.4 1-2.4 1h-38.6ZM284.3 61.7a27.4 27.4 0 0 1-20.7-8 27.9 27.9 0 0 1-5.8-9.2c-1.4-3.5-2-7.4-2-11.7 0-4.2.6-8 2-11.5a26 26 0 0 1 14.9-15c3.5-1.5 7.4-2.3 11.6-2.3 4.2 0 8 .8 11.5 2.2a26 26 0 0 1 15 15c1.4 3.6 2.1 7.4 2.1 11.6 0 4.3-.7 8.2-2 11.7a27.3 27.3 0 0 1-6 9.2 27.4 27.4 0 0 1-20.6 8Zm0-6.7a21.4 21.4 0 0 0 15.4-6.3 23.6 23.6 0 0 0 6-15.8c0-3.2-.5-6-1.6-8.8A19.9 19.9 0 0 0 293 12.5a21.6 21.6 0 0 0-8.6-1.7c-3.1 0-6 .6-8.6 1.7A20.1 20.1 0 0 0 264.5 24c-1 2.7-1.6 5.6-1.6 8.7a23.6 23.6 0 0 0 6 15.8c2 2 4.2 3.5 6.8 4.7 2.6 1.1 5.5 1.7 8.6 1.7ZM349.5 61c-1 0-2-.4-2.7-1-.7-.8-1-1.7-1-2.7V8.5c0-1 .3-2 1-2.7.7-.7 1.6-1 2.7-1 1.4 0 2.5.6 3.3 2l22.5 45.1H373l22-45.1c.7-1.4 1.8-2 3.3-2 1 0 2 .3 2.6 1 .8.7 1.1 1.6 1.1 2.7v48.8c0 1-.4 1.9-1.1 2.6-.7.7-1.6 1.1-2.6 1.1s-2-.4-2.7-1c-.7-.8-1-1.7-1-2.7V18.9l1.4-.4L377 57a3.7 3.7 0 0 1-3.2 1.8c-1.6 0-2.8-.7-3.5-2.2l-18.6-37.4 1.4-.3v38.4c0 1-.3 1.9-1 2.6-.8.7-1.7 1.1-2.7 1.1ZM420.2 61c-1 0-2-.4-2.7-1-.7-.8-1-1.7-1-2.7V8.5c0-1 .3-2 1-2.7.8-.7 1.6-1 2.7-1h32.5c1.2 0 2 .3 2.7 1 .7.6 1 1.4 1 2.5 0 1-.3 1.8-1 2.4-.7.7-1.5 1-2.7 1H424v17.5h20.7c1.1 0 2 .3 2.7 1 .6.6 1 1.4 1 2.4s-.4 1.9-1 2.6c-.7.6-1.6.9-2.7.9H424v18h28.8c1.2 0 2 .3 2.7 1 .7.5 1 1.4 1 2.4s-.3 1.9-1 2.6c-.7.6-1.5.9-2.7.9h-32.5ZM470.6 61c-1 0-2-.4-2.6-1-.8-.8-1.1-1.7-1.1-2.7V8.5c0-1 .3-2 1-2.7.8-.7 1.7-1 2.7-1h32.6c1 0 2 .3 2.6 1 .7.6 1 1.4 1 2.5 0 1-.3 1.8-1 2.4-.6.7-1.5 1-2.6 1h-28.8v17.5H495c1.1 0 2 .3 2.7 1 .7.6 1 1.4 1 2.4s-.3 1.9-1 2.6c-.7.6-1.6.9-2.7.9h-20.6v18h28.8c1 0 2 .3 2.6 1 .7.5 1 1.4 1 2.4s-.3 1.9-1 2.6c-.6.6-1.5.9-2.6.9h-32.6ZM534 61c-1.1 0-2-.4-2.7-1-.8-.8-1.1-1.7-1.1-2.7V4.8h7.5v52.5c0 1-.4 1.9-1.1 2.6-.7.7-1.6 1.1-2.7 1.1Zm-19.4-49.3c-1 0-1.8-.3-2.5-1-.6-.6-1-1.5-1-2.5a3.3 3.3 0 0 1 3.5-3.4h38.5c1 0 1.9.3 2.5 1 .7.6 1 1.4 1 2.4s-.3 1.9-1 2.5c-.6.7-1.5 1-2.5 1h-38.5ZM602.8 61c-1 0-1.8-.4-2.6-1-.7-.8-1-1.7-1-2.7V40.5l-19.3-29.9a4 4 0 0 1-.7-2.8c.2-1 .6-1.6 1.2-2.2.8-.5 1.6-.8 2.5-.8a3 3 0 0 1 2 .5c.4.4.9.9 1.3 1.6l18.3 29h-2.9l18.6-29.3a3.9 3.9 0 0 1 3.3-1.8c.9 0 1.6.3 2.2.9.5.6.9 1.3 1 2.2 0 .9-.2 1.8-.8 2.7l-19.3 29.9v16.8c0 1-.4 1.9-1.1 2.6-.7.7-1.6 1.1-2.7 1.1ZM656.6 61.7a27.4 27.4 0 0 1-20.7-8 27.9 27.9 0 0 1-5.8-9.2c-1.4-3.5-2-7.4-2-11.7 0-4.2.6-8 2-11.5a26 26 0 0 1 14.9-15c3.5-1.5 7.4-2.3 11.6-2.3 4.2 0 8 .8 11.5 2.2a26 26 0 0 1 15 15c1.4 3.6 2.1 7.4 2.1 11.6 0 4.3-.7 8.2-2 11.7a27.3 27.3 0 0 1-6 9.2 27.4 27.4 0 0 1-20.6 8Zm0-6.7a21.4 21.4 0 0 0 15.4-6.3 23.6 23.6 0 0 0 6-15.8c0-3.2-.5-6-1.6-8.8a19.9 19.9 0 0 0-11.2-11.6 21.6 21.6 0 0 0-8.6-1.7c-3.1 0-6 .6-8.6 1.7A20.1 20.1 0 0 0 636.8 24c-1 2.7-1.6 5.6-1.6 8.7a23.6 23.6 0 0 0 6 15.8c2 2 4.2 3.5 6.8 4.7 2.6 1.1 5.5 1.7 8.6 1.7ZM720.5 62.2c-4.6 0-8.7-.9-12.3-2.6A18.6 18.6 0 0 1 697 42.1V8.5c0-1 .4-2 1.1-2.7.7-.7 1.6-1 2.7-1 1 0 2 .3 2.6 1 .8.7 1.1 1.6 1.1 2.7v33.6c0 2.6.7 5 2 7 1.4 2 3.3 3.5 5.7 4.6 2.5 1.1 5.3 1.7 8.4 1.7 3 0 5.7-.6 8-1.7s4.1-2.7 5.4-4.7c1.4-2 2-4.3 2-6.9V8.5c0-1 .4-2 1.1-2.7.8-.7 1.6-1 2.7-1s2 .3 2.7 1c.6.7 1 1.6 1 2.7v33.6c0 4-1 7.4-3 10.4-1.9 3-4.6 5.4-8 7.1a26.8 26.8 0 0 1-12 2.6ZM780.2 47.7c-1 0-2-.4-2.6-1.1-.7-.8-1-1.6-1-2.6V8.5c0-1 .3-2 1-2.7.7-.7 1.6-1 2.6-1s2 .3 2.6 1c.7.8 1 1.7 1 2.7V44c0 1-.3 1.9-1 2.6-.8.7-1.6 1-2.6 1Zm0 13.3a5 5 0 0 1-3.5-8.5c1-1 2.2-1.5 3.5-1.5 1.4 0 2.6.5 3.5 1.5 1 1 1.5 2.1 1.5 3.5s-.5 2.6-1.5 3.6-2.1 1.4-3.5 1.4Z" fill="#F9FAFB"/><path fill-rule="evenodd" clip-rule="evenodd" d="M3.3 62.7a7.8 7.8 0 0 1-2.1-5.4V8.5A7.6 7.6 0 0 1 8.9.8c2.4 0 4.4 1 6 2.8L39 36V8.5c0-2 .7-4 2.3-5.5A7.6 7.6 0 0 1 47 .8a7.6 7.6 0 0 1 7.7 7.7v48.8c0 2-.7 3.8-2.1 5.3a7.5 7.5 0 0 1-5.6 2.4c-1 0-2-.2-2.9-.5h-.2l-.2-.1c-1-.5-2-1.3-2.7-2.2L16.5 29.8v27.4c0 2-.7 4-2.2 5.4A7.5 7.5 0 0 1 9 65c-2.1 0-4-.8-5.5-2.3Zm8.2-2.8c.8-.7 1.1-1.6 1.1-2.6V17.9L44 59.7c.3.4.8.8 1.3 1a5 5 0 0 0 1.6.3c1 0 2-.4 2.7-1 .6-.8 1-1.7 1-2.7V8.5a3.6 3.6 0 0 0-3.7-3.7c-1 0-2 .3-2.7 1-.7.7-1 1.6-1 2.7V48L11.7 6.1c-.8-.9-1.8-1.3-3-1.3-1 0-1.9.3-2.6 1-.7.7-1 1.6-1 2.7v48.8c0 1 .3 1.9 1 2.6C7 60.6 7.8 61 9 61c1 0 2-.4 2.6-1ZM68.7 65c-2 0-4-.8-5.5-2.3a7.6 7.6 0 0 1-2.2-5.4V8.5c0-2 .7-4 2.3-5.5A7.6 7.6 0 0 1 68.7.8c2 0 4 .7 5.5 2.2a7.5 7.5 0 0 1 2.3 5.5v48.8c0 2-.8 4-2.3 5.4a7.5 7.5 0 0 1-5.5 2.3Zm2.7-5c.7-.8 1-1.7 1-2.7V8.5c0-1-.3-2-1-2.7-.7-.7-1.6-1-2.7-1-1 0-2 .3-2.7 1-.7.7-1 1.6-1 2.7v48.8c0 1 .3 1.9 1 2.6.8.7 1.7 1.1 2.7 1.1 1.1 0 2-.4 2.7-1Zm28.1 3.2c-3.8-1.7-7.2-4-10.1-7-3-3-5.2-6.5-6.8-10.5a34.5 34.5 0 0 1 0-25.6A31.8 31.8 0 0 1 123 1.7c3.2 1.2 6.2 3 9.2 5.4.6.5 1.2 1 1.7 1.8a7.7 7.7 0 0 1 1.3 4.3 7 7 0 0 1-2.3 5.2 7.9 7.9 0 0 1-4.7 2l-.2.1a8 8 0 0 1-5.3-1.8l-.2-.1c-1.5-1.3-3-2.2-4.4-2.9-1.3-.5-3.1-.9-6-.9-2.2 0-4.3.5-6.3 1.4a17.5 17.5 0 0 0-9 9.6 19.4 19.4 0 0 0 0 14.2 17.5 17.5 0 0 0 9 9.6c2 .8 4 1.3 6.3 1.3 2 0 3.8-.3 5.5-1 1.9-.7 3.7-1.7 5.4-3 1.4-1 3.2-1.8 5.2-1.6a7 7 0 0 1 4.7 2.3c1.5 1.5 2 3.4 2 5.2 0 1-.2 2-.5 3h-.1a8 8 0 0 1-1.7 2.5l-.2.1-.1.2a32.8 32.8 0 0 1-20.2 7.1c-4.4 0-8.5-.8-12.5-2.5ZM130 50.3a3 3 0 0 0-2.2-1c-.8 0-1.7.2-2.5.8-2 1.5-4.1 2.7-6.4 3.6a19.5 19.5 0 0 1-21.5-5.2 22.4 22.4 0 0 1-6-15.7 22.7 22.7 0 0 1 6-15.5c2-2 4.1-3.6 6.6-4.8 2.5-1.1 5.2-1.7 8-1.7 3.2 0 5.6.4 7.5 1.2 2 .9 3.8 2 5.6 3.6a4 4 0 0 0 2.6.9c1 0 1.7-.4 2.3-1a3 3 0 0 0 1-2.3l-.1-1c0-.4-.2-.7-.4-1-.2-.4-.5-.7-.9-1a27.3 27.3 0 0 0-8-4.7c-2.7-1-5.9-1.5-9.6-1.5a26.7 26.7 0 0 0-19.8 8.5 28.8 28.8 0 0 0-8 20.3 29.7 29.7 0 0 0 8 20.6c2.6 2.6 5.5 4.7 8.9 6.2a27.8 27.8 0 0 0 20.2.5c3-1 5.8-2.6 8.4-4.6.4-.4.6-.8.8-1.3.2-.4.3-1 .3-1.4 0-1-.3-1.9-.8-2.5Zm51.8 9.8c-.7.6-1.6.9-2.7.9h-32.6c-1 0-1.9-.4-2.6-1-.7-.8-1.1-1.7-1.1-2.7V8.5c0-1 .4-2 1-2.7.8-.7 1.7-1 2.7-1h32.6c1 0 2 .3 2.7 1 .6.6 1 1.4 1 2.5 0 1-.4 1.8-1 2.4-.7.7-1.6 1-2.7 1h-28.8v17.5H171c1 0 2 .3 2.6 1 .7.6 1 1.4 1 2.4s-.3 1.9-1 2.6c-.7.6-1.5.9-2.6.9h-20.7v18H179c1 0 2 .3 2.7 1 .6.5 1 1.4 1 2.4s-.4 1.9-1 2.6Zm-27.5-10H179c1.9 0 3.8.5 5.4 2a7.2 7.2 0 0 1 2.3 5.4c0 2-.7 3.9-2.2 5.4l-.1.1a7.7 7.7 0 0 1-5.4 2h-32.6c-2 0-4-.8-5.4-2.3a7.6 7.6 0 0 1-2.3-5.4V8.5c0-2 .7-4 2.3-5.5a7.6 7.6 0 0 1 5.4-2.2h32.6c2 0 3.9.6 5.4 2.1a7.3 7.3 0 0 1 2.3 5.4c0 2-.8 4-2.3 5.4a7.7 7.7 0 0 1-5.4 2h-24.8v9.5H171c2 0 3.9.6 5.4 2.1a7.2 7.2 0 0 1 2.2 5.3c0 2-.7 4-2.2 5.4a7.7 7.7 0 0 1-5.4 2h-16.7v10ZM211.6.8c-2 0-3.8.7-5.3 2.1a7.3 7.3 0 0 0-2.1 5.3c0 2 .6 3.8 2 5.3l.2.2c1.5 1.4 3.3 2 5.2 2h11.6v41.6a7.6 7.6 0 0 0 7.7 7.7c2.1 0 4-.8 5.5-2.3a7.6 7.6 0 0 0 2.3-5.4V15.7h11.5a7.3 7.3 0 0 0 7.4-7.5c0-2-.7-3.8-2.2-5.3a7.2 7.2 0 0 0-5.2-2.1h-38.6Zm0 4a3.3 3.3 0 0 0-3.5 3.5c0 1 .4 1.8 1 2.4.7.7 1.5 1 2.5 1h15.6v45.6c0 1 .4 1.9 1 2.6.8.7 1.7 1.1 2.7 1.1 1.1 0 2-.4 2.7-1 .7-.8 1-1.7 1-2.7V11.7h15.6a3.3 3.3 0 0 0 3.4-3.5c0-1-.3-1.8-1-2.4-.6-.7-1.4-1-2.4-1h-38.6Zm59.6 58.5c-4-1.6-7.4-3.9-10.4-6.8-2.9-3-5.1-6.5-6.7-10.5-1.6-4-2.4-8.5-2.4-13.2 0-4.6.8-9 2.4-13A31 31 0 0 1 284.3 0a33.7 33.7 0 0 1 23.4 9.4c3 3 5.2 6.4 6.8 10.4a35.7 35.7 0 0 1 0 26.2c-1.6 4-3.8 7.5-6.7 10.5-3 3-6.5 5.2-10.4 6.8-4 1.6-8.4 2.4-13 2.4-4.8 0-9.1-.8-13.2-2.4ZM305 12.2a26 26 0 0 0-9-6A29.7 29.7 0 0 0 284.2 4c-4.2 0-8 .8-11.6 2.2a26 26 0 0 0-14.9 15c-1.4 3.6-2 7.4-2 11.6 0 4.3.6 8.2 2 11.7s3.4 6.6 5.9 9.2c2.5 2.5 5.5 4.5 9 6 3.5 1.3 7.4 2 11.6 2a27.4 27.4 0 0 0 20.6-8c2.6-2.6 4.5-5.7 6-9.2 1.3-3.5 2-7.4 2-11.7 0-4.2-.7-8-2-11.5a26.5 26.5 0 0 0-6-9.1Zm-5.2 5a20 20 0 0 0-6.8-4.7 21.6 21.6 0 0 0-8.6-1.7c-3.1 0-6 .6-8.6 1.7A20.1 20.1 0 0 0 264.5 24c-1 2.7-1.6 5.6-1.6 8.7a23.6 23.6 0 0 0 6 15.8c2 2 4.2 3.5 6.8 4.7 2.6 1.1 5.5 1.7 8.6 1.7a21.4 21.4 0 0 0 15.4-6.3 23.6 23.6 0 0 0 6-15.8c0-3.2-.5-6-1.6-8.8-1-2.7-2.5-5-4.4-7Zm-2.9 28.6c1.6-1.6 2.8-3.5 3.6-5.6V40c.9-2.2 1.3-4.6 1.3-7.3 0-2.6-.4-5-1.3-7.2a16 16 0 0 0-9-9.4c-2.1-1-4.4-1.4-7-1.4-2.7 0-5 .5-7.2 1.4-2 .8-3.9 2.1-5.4 3.7m25 26a17.4 17.4 0 0 1-12.5 5c-2.6 0-5-.4-7-1.3-2.1-1-4-2.2-5.5-3.7a19.6 19.6 0 0 1-4.9-13c0-2.7.5-5.1 1.3-7.3 1-2.2 2.1-4.1 3.6-5.7m81.4 37.4c0 1-.3 1.9-1 2.6-.8.7-1.7 1.1-2.7 1.1-1 0-2-.4-2.7-1-.7-.8-1-1.7-1-2.7V8.5c0-1 .3-2 1-2.7.7-.7 1.6-1 2.7-1 1.4 0 2.5.6 3.3 2L374 49.6 395 6.8c.7-1.4 1.8-2 3.3-2 1 0 2 .3 2.6 1 .8.7 1.1 1.6 1.1 2.7v48.8c0 1-.4 1.9-1.1 2.6-.7.7-1.6 1.1-2.6 1.1s-2-.4-2.7-1c-.7-.8-1-1.7-1-2.7V21.5L377 57a3.7 3.7 0 0 1-3.2 1.8c-1.6 0-2.8-.7-3.5-2.2l-17.2-34.5v35.2Zm4-18.2v18.2a7.6 7.6 0 0 1-7.7 7.7c-2.1 0-4-.8-5.5-2.3a7.6 7.6 0 0 1-2.3-5.4V8.5c0-2 .7-4 2.3-5.5a7.6 7.6 0 0 1 5.5-2.2c3 0 5.3 1.5 6.8 4v.1l17.8 35.6L391.4 5l.1-.1c1.4-2.5 3.8-4 6.8-4 2 0 4 .7 5.4 2.2a7.5 7.5 0 0 1 2.3 5.5v48.8c0 2-.8 4-2.3 5.5a7.5 7.5 0 0 1-5.4 2.2c-2 0-4-.8-5.5-2.3a7.6 7.6 0 0 1-2.3-5.4V38.7L380.6 59l-.1.2a7.7 7.7 0 0 1-6.6 3.6c-1.5 0-3-.3-4.2-1.2a8 8 0 0 1-2.9-3.2L357.2 39Zm98.2 21c-.7.6-1.5.9-2.7.9h-32.5c-1 0-2-.4-2.7-1-.7-.8-1-1.7-1-2.7V8.5c0-1 .3-2 1-2.7.8-.7 1.6-1 2.7-1h32.5c1.2 0 2 .3 2.7 1 .7.6 1 1.4 1 2.5 0 1-.3 1.8-1 2.4-.7.7-1.5 1-2.7 1H424v17.5h20.7c1.1 0 2 .3 2.7 1 .6.6 1 1.4 1 2.4s-.4 1.9-1 2.6c-.7.6-1.6.9-2.7.9H424v18h28.8c1.2 0 2 .3 2.7 1 .7.5 1 1.4 1 2.4s-.3 1.9-1 2.6ZM428 50h24.8c2 0 3.9.5 5.4 2a7.2 7.2 0 0 1 2.3 5.4c0 2-.7 3.9-2.2 5.4v.1a7.7 7.7 0 0 1-5.5 2h-32.5c-2 0-4-.8-5.5-2.3a7.6 7.6 0 0 1-2.2-5.4V8.5c0-2 .7-4 2.3-5.5a7.6 7.6 0 0 1 5.4-2.2h32.5c2 0 4 .6 5.5 2.1a7.3 7.3 0 0 1 2.2 5.4c0 2-.7 4-2.3 5.4a7.7 7.7 0 0 1-5.4 2H428v9.5h16.7c2 0 4 .6 5.4 2.1a7.2 7.2 0 0 1 2.3 5.3c0 2-.7 4-2.2 5.4h-.1a7.7 7.7 0 0 1-5.4 2H428v10Zm78 10c-.7.6-1.6.9-2.7.9h-32.6c-1 0-2-.4-2.6-1-.8-.8-1.1-1.7-1.1-2.7V8.5c0-1 .3-2 1-2.7.8-.7 1.7-1 2.7-1h32.6c1 0 2 .3 2.6 1 .7.6 1 1.4 1 2.5 0 1-.3 1.8-1 2.4-.6.7-1.5 1-2.6 1h-28.8v17.5H495c1.1 0 2 .3 2.7 1 .7.6 1 1.4 1 2.4s-.3 1.9-1 2.6c-.7.6-1.6.9-2.7.9h-20.6v18h28.8c1 0 2 .3 2.6 1 .7.5 1 1.4 1 2.4s-.3 1.9-1 2.6Zm-27.5-10h24.8c1.9 0 3.8.5 5.3 2a7.2 7.2 0 0 1 2.3 5.4c0 2-.6 3.9-2.1 5.4h-.1v.1a7.7 7.7 0 0 1-5.4 2h-32.6c-2 0-4-.8-5.5-2.3a7.6 7.6 0 0 1-2.2-5.4V8.5c0-2 .7-4 2.3-5.5a7.6 7.6 0 0 1 5.4-2.2h32.6a7.6 7.6 0 0 1 5.8 2.5l.3-.4a7.4 7.4 0 0 1 5.3-2.1h38.5c2 0 3.9.6 5.3 2.1a7.2 7.2 0 0 1 2.2 5.3c0 2-.7 3.9-2.2 5.4l-2.8-2.9c.7-.6 1-1.5 1-2.5s-.3-1.8-1-2.4c-.6-.7-1.5-1-2.5-1h-38.5a3.3 3.3 0 0 0-3.5 3.5c0 1 .4 1.8 1 2.4.7.7 1.5 1 2.5 1h15.6v45.6c0 1 .3 1.9 1 2.6.8.7 1.7 1.1 2.7 1.1 1 0 2-.4 2.7-1 .7-.8 1-1.7 1-2.7V11.7h15.5c1 0 1.9-.3 2.5-1l2.8 2.9a7.3 7.3 0 0 1-5.3 2h-11.4v41.7c0 2-.8 4-2.3 5.4A7.6 7.6 0 0 1 534 65c-2 0-4-.8-5.5-2.3a7.6 7.6 0 0 1-2.2-5.4V15.7h-11.6c-1.9 0-3.7-.6-5.2-2l-.1-.1-.1-.1-.2-.3-.5.5a7.7 7.7 0 0 1-5.3 2h-24.8v9.5H495c2 0 4 .6 5.5 2.1a7.2 7.2 0 0 1 2.2 5.3c0 2-.7 4-2.2 5.4a7.7 7.7 0 0 1-5.5 2h-16.6v10Zm128.2-9.6v16.8c0 1-.4 1.9-1.1 2.6-.7.7-1.6 1.1-2.7 1.1-1 0-1.8-.4-2.6-1-.7-.8-1-1.7-1-2.7V40.5l-19.3-29.9a4 4 0 0 1-.7-2.8c.2-1 .6-1.6 1.2-2.2.8-.5 1.6-.8 2.5-.8a3 3 0 0 1 2 .5c.4.4.9.9 1.3 1.6L603 33.6l17.2-27a3.9 3.9 0 0 1 3.3-1.8c.9 0 1.6.3 2.2.9.5.6.9 1.3 1 2.2 0 .9-.2 1.8-.8 2.7l-19.3 29.9Zm22.7-27.7a8 8 0 0 0 1.3-5.3 7.6 7.6 0 0 0-2-4.6 6.8 6.8 0 0 0-5.1-2.1c-1.3 0-2.7.3-4 1a8 8 0 0 0-2.6 2.5L603 26.2 589.6 4.7c-.6-1-1.4-1.9-2.4-2.6a7.8 7.8 0 0 0-9.3.4 7.3 7.3 0 0 0-2.6 4.7 8 8 0 0 0 1.2 5.5l18.7 29v15.6c0 2 .7 4 2.2 5.4a7.5 7.5 0 0 0 5.4 2.3c2.1 0 4-.8 5.5-2.3a7.6 7.6 0 0 0 2.3-5.4V41.7l18.7-29Zm14.2 50.5c-4-1.6-7.4-3.9-10.4-6.8-2.9-3-5.1-6.5-6.7-10.5-1.6-4-2.4-8.5-2.4-13.2 0-4.6.8-9 2.4-13a31 31 0 0 1 17.1-17.3C647.5.8 652 0 656.6 0a33.7 33.7 0 0 1 23.5 9.4c2.9 3 5.2 6.4 6.7 10.4a35.7 35.7 0 0 1 0 26.2c-1.5 4-3.8 7.5-6.7 10.5-3 3-6.5 5.2-10.4 6.8-4 1.6-8.4 2.4-13 2.4-4.7 0-9.1-.8-13.1-2.4Zm33.7-51.1a26 26 0 0 0-9-6A29.7 29.7 0 0 0 656.5 4c-4.2 0-8 .8-11.6 2.2a26 26 0 0 0-14.9 15c-1.4 3.6-2 7.4-2 11.6 0 4.3.6 8.2 2 11.7s3.4 6.6 5.9 9.2c2.5 2.5 5.5 4.5 9 6 3.5 1.3 7.4 2 11.6 2a27.4 27.4 0 0 0 20.6-8c2.6-2.6 4.5-5.7 6-9.2 1.3-3.5 2-7.4 2-11.7 0-4.2-.7-8-2-11.5a26.5 26.5 0 0 0-6-9.1Zm-5.2 5a20 20 0 0 0-6.8-4.7 21.6 21.6 0 0 0-8.6-1.7c-3.1 0-6 .6-8.6 1.7A20.1 20.1 0 0 0 636.8 24c-1 2.7-1.6 5.6-1.6 8.7a23.6 23.6 0 0 0 6 15.8c2 2 4.2 3.5 6.8 4.7 2.6 1.1 5.5 1.7 8.6 1.7a21.4 21.4 0 0 0 15.4-6.3 23.6 23.6 0 0 0 6-15.8c0-3.2-.5-6-1.6-8.8-1-2.7-2.4-5-4.4-7Zm-2.9 28.6c1.6-1.6 2.8-3.5 3.6-5.6V40c.9-2.2 1.3-4.6 1.3-7.3 0-2.6-.4-5-1.3-7.2a16 16 0 0 0-9-9.4c-2.1-1-4.4-1.4-7-1.4-2.7 0-5 .5-7.2 1.4a16.1 16.1 0 0 0-9 9.4c-.8 2.2-1.3 4.6-1.3 7.2a19.6 19.6 0 0 0 5 13c1.4 1.6 3.3 2.9 5.4 3.8 2 .9 4.4 1.4 7 1.4a17.4 17.4 0 0 0 12.5-5.1Zm37.4 17.4a22.6 22.6 0 0 1-13.6-21V8.4c0-2 .7-4 2.3-5.5a7.6 7.6 0 0 1 5.5-2.2c2 0 4 .7 5.5 2.2a7.5 7.5 0 0 1 2.2 5.5v33.6c0 1.9.5 3.4 1.3 4.7 1 1.3 2.3 2.4 4.1 3.3 1.9.8 4 1.3 6.7 1.3 2.5 0 4.6-.5 6.2-1.3 1.8-.8 3-2 3.9-3.3a8.2 8.2 0 0 0 1.4-4.7V8.5c0-2 .7-4 2.3-5.5a7.6 7.6 0 0 1 5.4-2.2 7.6 7.6 0 0 1 7.7 7.7v33.6c0 4.6-1.2 8.8-3.6 12.6a23.8 23.8 0 0 1-9.7 8.5c-4 2-8.6 3-13.6 3-5.1 0-9.8-1-14-3Zm34-10.7c1.9-3 2.9-6.5 2.9-10.4V8.5a3.6 3.6 0 0 0-3.7-3.7c-1 0-2 .3-2.7 1-.7.7-1 1.6-1 2.7v33.6c0 2.6-.7 5-2 7-1.4 2-3.2 3.5-5.5 4.6-2.3 1.1-5 1.7-8 1.7-3.1 0-6-.6-8.4-1.7a14.5 14.5 0 0 1-5.7-4.7c-1.3-2-2-4.3-2-6.9V8.5c0-1-.3-2-1-2.7-.7-.7-1.6-1-2.7-1-1 0-2 .3-2.7 1-.7.7-1 1.6-1 2.7v33.6a18.6 18.6 0 0 0 11.2 17.5c3.6 1.7 7.7 2.6 12.3 2.6 4.4 0 8.4-.9 11.9-2.6 3.4-1.7 6.1-4 8-7.1Zm34-3.4-.6.6a8.8 8.8 0 0 0-2.7 6.3 9 9 0 0 0 15.2 6.4c1.8-1.7 2.8-3.9 2.8-6.4a8.8 8.8 0 0 0-3.3-7c1.3-1.3 2-3 2-5V8.5c0-2-.7-4-2.2-5.4a7.4 7.4 0 0 0-5.5-2.3c-2 0-4 .7-5.5 2.2v.1a7.8 7.8 0 0 0-2.2 5.4V44c0 2 .7 3.7 2 5.1Zm3.8-2a3.7 3.7 0 0 0 3.7 0c.3 0 .5-.3.7-.5.8-.7 1.2-1.6 1.2-2.6V8.5c0-1-.4-2-1-2.7-.8-.7-1.6-1-2.7-1-1 0-2 .3-2.6 1-.7.8-1 1.7-1 2.7V44c0 1 .3 1.8 1 2.6l.7.6Zm4 4.3c-.7-.3-1.4-.4-2-.4a4.7 4.7 0 0 0-3.6 1.5c-1 1-1.5 2.1-1.5 3.5s.5 2.6 1.5 3.6a5 5 0 0 0 7 0c1-1 1.5-2.2 1.5-3.6s-.5-2.5-1.5-3.5c-.4-.5-1-.8-1.5-1Z" fill="#4F9CAA"/><defs><filter id="a" x="4.2" y="5.9" width="788" height="66.1" filterUnits="userSpaceOnUse" color-interpolation-filters="sRGB"><feFlood flood-opacity="0" result="BackgroundImageFix"/><feBlend in="SourceGraphic" in2="BackgroundImageFix" result="shape"/><feGaussianBlur stdDeviation="2" result="effect1_foregroundBlur_65_8"/></filter></defs></svg>