<svg width="125" height="16" viewBox="0 0 125 16" fill="none" xmlns="http://www.w3.org/2000/svg">
<path d="M10.792 0.783999V15.248H12.072V0.783999H10.792ZM8.344 6.576V7.68H11.128V6.576H8.344ZM7.512 1.104V14.512H8.76V1.104H7.512ZM0.312 10.576V11.68H1.256C3.432 11.68 4.888 11.616 6.616 11.248L6.488 10.144C4.808 10.496 3.368 10.576 1.256 10.576H0.312ZM0.312 2.544V11.072H1.624V3.632H5.688V2.544H0.312ZM22.1828 4.768V5.856H25.8308V4.768H22.1828ZM25.0788 0.799999V11.392H26.4068V0.799999H25.0788ZM17.1748 13.84V14.928H26.8068V13.84H17.1748ZM17.1748 10.464V14.4H18.5028V10.464H17.1748ZM18.1988 2.592V3.76C18.1988 5.808 16.7108 7.728 14.5508 8.496L15.2388 9.552C17.6548 8.656 19.2868 6.384 19.2868 3.76V2.592H18.1988ZM18.4548 2.592V3.744C18.4548 6.192 20.0068 8.368 22.3588 9.216L23.0308 8.176C20.9348 7.44 19.5268 5.616 19.5268 3.744V2.592H18.4548ZM14.9668 1.968V3.04H22.6948V1.968H14.9668ZM37.0815 9.728V15.248H38.4415V9.728H37.0815ZM42.0575 9.728V15.248H43.4175V9.728H42.0575ZM33.7215 9.008V10.112H46.8415V9.008H33.7215ZM40.2495 1.36C37.2415 1.36 35.1935 2.576 35.1935 4.512C35.1935 6.432 37.2415 7.664 40.2495 7.664C43.2735 7.664 45.3055 6.432 45.3055 4.512C45.3055 2.576 43.2735 1.36 40.2495 1.36ZM40.2495 2.432C42.4575 2.432 43.9455 3.248 43.9455 4.512C43.9455 5.776 42.4575 6.592 40.2495 6.592C38.0415 6.592 36.5375 5.776 36.5375 4.512C36.5375 3.248 38.0415 2.432 40.2495 2.432ZM52.0883 1.6V3.088C52.0883 5.296 50.6483 7.232 48.4403 8.016L49.1283 9.104C51.6083 8.176 53.1923 5.888 53.1923 3.088V1.6H52.0883ZM52.3283 1.6V3.04C52.3283 5.664 53.8803 7.792 56.2163 8.672L56.9363 7.632C54.8243 6.896 53.4163 5.088 53.4163 3.04V1.6H52.3283ZM59.0163 0.783999V9.344H60.3443V0.783999H59.0163ZM55.5923 9.76C52.6003 9.76 50.7603 10.768 50.7603 12.496C50.7603 14.224 52.6003 15.216 55.5923 15.216C58.5683 15.216 60.4083 14.224 60.4083 12.496C60.4083 10.768 58.5683 9.76 55.5923 9.76ZM55.5923 10.816C57.7683 10.816 59.0963 11.44 59.0963 12.496C59.0963 13.552 57.7683 14.176 55.5923 14.176C53.4163 14.176 52.0883 13.552 52.0883 12.496C52.0883 11.44 53.4163 10.816 55.5923 10.816ZM55.8802 3.84V4.944H59.3043V3.84H55.8802ZM64.807 1.728V2.8H73.847V1.728H64.807ZM63.175 7.936V9.024H76.247V7.936H63.175ZM69.015 8.656V15.264H70.343V8.656H69.015ZM73.223 1.728V2.976C73.223 4.432 73.223 6.112 72.663 8.448L73.975 8.624C74.519 6.176 74.519 4.48 74.519 2.976V1.728H73.223ZM83.1618 1.904V2.992H89.5618V1.904H83.1618ZM85.3378 5.136V8.752H86.6498V5.136H85.3378ZM89.0338 1.904V2.672C89.0338 3.6 89.0338 4.912 88.6658 6.816L89.9618 6.96C90.3458 5.056 90.3458 3.616 90.3458 2.672V1.904H89.0338ZM92.3138 0.783999V11.68H93.6418V0.783999H92.3138ZM93.0338 5.488V6.592H95.7058V5.488H93.0338ZM84.5058 13.84V14.928H94.1058V13.84H84.5058ZM84.5058 10.672V14.176H85.8177V10.672H84.5058ZM82.4258 9.376C84.9698 9.376 88.4258 9.312 91.4338 8.784L91.3378 7.824C88.4098 8.224 84.8578 8.288 82.2818 8.288L82.4258 9.376ZM105.305 3.36V4.448H108.409V3.36H105.305ZM105.305 5.952V7.04H108.409V5.952H105.305ZM97.5285 1.872V2.96H105.145V1.872H97.5285ZM97.2885 8.848C99.6405 8.848 102.889 8.816 105.673 8.368L105.593 7.376C102.889 7.696 99.5125 7.728 97.1445 7.728L97.2885 8.848ZM98.9685 2.72V8.096H100.249V2.72H98.9685ZM102.425 2.72V8.096H103.705V2.72H102.425ZM107.673 0.783999V9.712H109.001V0.783999H107.673ZM104.249 10C101.241 10 99.4165 10.944 99.4165 12.608C99.4165 14.272 101.241 15.216 104.249 15.216C107.241 15.216 109.065 14.272 109.065 12.608C109.065 10.944 107.241 10 104.249 10ZM104.249 11.04C106.441 11.04 107.753 11.616 107.753 12.608C107.753 13.6 106.441 14.192 104.249 14.192C102.057 14.192 100.745 13.6 100.745 12.608C100.745 11.616 102.057 11.04 104.249 11.04ZM111.831 7.904V8.992H124.903V7.904H111.831ZM117.703 5.584V8.352H119.015V5.584H117.703ZM113.479 5.168V6.256H123.383V5.168H113.479ZM113.479 1.44V5.808H114.791V2.512H123.271V1.44H113.479ZM118.343 10.032C115.255 10.032 113.383 10.976 113.383 12.624C113.383 14.304 115.255 15.232 118.343 15.232C121.431 15.232 123.303 14.304 123.303 12.624C123.303 10.976 121.431 10.032 118.343 10.032ZM118.343 11.056C120.615 11.056 121.959 11.632 121.959 12.624C121.959 13.632 120.615 14.192 118.343 14.192C116.087 14.192 114.727 13.632 114.727 12.624C114.727 11.632 116.087 11.056 118.343 11.056Z" fill="#45504E"/>
</svg>
