<svg width="1602" height="860" fill="none" xmlns="http://www.w3.org/2000/svg"><g filter="url(#a)"><path fill-rule="evenodd" clip-rule="evenodd" d="M7 637.2c33.7 48.6 76.9 73.6 122 73.6 35.2 0 69.4-24 99-64.4l.6-.2c8-2.2 14.4 0 20 4.6 23.5 102.4 43.7 187 67 199.5 39.4 21.2 58-25.2 78-75.3 23.8-59.9 49.8-125.2 116.3-87.2 33.9 45.2 62.4 67.9 85.6 73 10.5 3.6 22.4 6.2 36 7.6 70.7 7.2 121.6-44.3 157.9-118.9 3.5-5 7.8-12.5 13.1-21.7 31.4-54.2 95.5-165 207.1-150.8 39 5 82.4 51.1 127.8 99.3 42.3 44.8 86.1 91.3 129.4 108 32.2 17.2 73.4 29.6 127.3 36.3 63 7.8 145.1-23.3 203.9-83.2V5H7v632.2Zm1303-97.1a194.4 194.4 0 0 0 194.4-194.5A194.4 194.4 0 1 0 1310 540Z" fill="#BCBCBC"/></g><path fill-rule="evenodd" clip-rule="evenodd" d="M1 0h1600v634.9c-59.2 60.1-141.7 91.3-205.1 83.5-54.2-6.7-95.7-19.2-128-36.5-43.6-16.7-87.7-63.4-130.1-108.4-45.7-48.3-89.5-94.6-128.5-99.6-112.3-14.3-176.8 97-208.3 151.3-5.3 9.2-9.7 16.8-13.3 21.9C751.3 722 700.1 773.7 629 766.4c-13.6-1.4-25.6-4-36.2-7.7-23.4-5.1-52-27.8-86-73.3-67-38-93.1 27.5-117.1 87.6-20.1 50.4-38.7 96.9-78.4 75.6-23.4-12.5-43.8-97.4-67.4-200.3a21 21 0 0 0-20.1-4.6l-.6.2c-29.7 40.6-64.2 64.7-99.5 64.7-45.4 0-88.8-25.1-122.7-74V0Zm1310.3 538.2a195.4 195.4 0 1 0 .1-390.7 195.4 195.4 0 0 0 0 390.7Z" fill="#F9FAFB"/><defs><filter id="a" x="3" y="1" width="1599" height="858.6" filterUnits="userSpaceOnUse" color-interpolation-filters="sRGB"><feFlood flood-opacity="0" result="BackgroundImageFix"/><feBlend in="SourceGraphic" in2="BackgroundImageFix" result="shape"/><feGaussianBlur stdDeviation="2" result="effect1_foregroundBlur_2_1415"/></filter></defs></svg>