<svg width="1604" height="863" fill="none" xmlns="http://www.w3.org/2000/svg"><g filter="url(#a)"><path fill-rule="evenodd" clip-rule="evenodd" d="M6 639.36c33.74 48.78 77 73.89 122.23 73.89 35.23 0 69.55-24.08 99.18-64.7l.15-.03.41-.12c7.99-2.25 14.44.05 19.99 4.61 23.6 102.81 43.88 187.74 67.16 200.27 39.58 21.29 58.1-25.26 78.12-75.6 23.92-60.12 50-125.65 116.64-87.57 33.89 45.43 62.45 68.16 85.73 73.23 10.56 3.68 22.49 6.3 36.04 7.7 70.9 7.3 121.86-44.4 158.18-119.31 3.5-5.06 7.88-12.63 13.2-21.84 31.41-54.36 95.67-165.6 207.49-151.33 38.96 4.97 82.56 51.3 128.04 99.63 42.31 44.96 86.25 91.66 129.59 108.38 32.28 17.34 73.6 29.81 127.55 36.5 63.2 7.82 145.43-23.36 204.3-83.5V4.67H6v634.69Zm1305.49-97.5c107.52 0 194.69-87.44 194.69-195.3 0-107.87-87.17-195.31-194.69-195.31-107.53 0-194.7 87.44-194.7 195.3 0 107.87 87.17 195.3 194.7 195.3Z" fill="#BCBCBC"/></g><path fill-rule="evenodd" clip-rule="evenodd" d="M0 638.7c33.86 48.77 77.3 73.88 122.68 73.88 35.37 0 69.82-24.08 99.56-64.69l.56-.16c8.02-2.24 14.5.06 20.07 4.62 23.69 102.8 44.05 187.74 67.42 200.26 39.72 21.29 58.3-25.25 78.4-75.6 24.02-60.11 50.19-125.64 117.08-87.57 34.02 45.44 62.68 68.16 86.05 73.23 10.61 3.68 22.58 6.31 36.18 7.7 71.17 7.3 122.32-44.4 158.78-119.3 3.52-5.07 7.91-12.64 13.25-21.84 31.53-54.37 96.03-165.6 208.27-151.34 39.11 4.98 82.87 51.3 128.52 99.64 42.47 44.96 86.58 91.65 130.08 108.38 32.4 17.34 73.88 29.8 128.03 36.49 63.44 7.83 145.98-23.35 205.07-83.5V4H0v634.7Zm1310.4-97.5c107.93 0 195.43-87.45 195.43-195.31 0-107.87-87.5-195.3-195.43-195.3s-195.43 87.43-195.43 195.3c0 107.86 87.5 195.3 195.43 195.3Z" fill="#F9FAFB"/><defs><filter id="a" x="2" y=".67" width="1602" height="861.9" filterUnits="userSpaceOnUse" color-interpolation-filters="sRGB"><feFlood flood-opacity="0" result="BackgroundImageFix"/><feBlend in="SourceGraphic" in2="BackgroundImageFix" result="shape"/><feGaussianBlur stdDeviation="2" result="effect1_foregroundBlur_2_1415"/></filter></defs></svg>