<svg width="1604" height="777" fill="none" xmlns="http://www.w3.org/2000/svg"><g filter="url(#a)"><path fill-rule="evenodd" clip-rule="evenodd" d="M4 525.86c28.98 56.8 69.48 86.17 112.1 86.17 22.31 0 44.19-12.73 64.2-35.1 16.38-11.53 35.83-15.83 63.62 14.9l7.52 11.19.1.15c62.67 93.38 109.78 163.58 193.02 169.1 96.3 0 171.3-82.54 258.62-178.66 34-37.41 69.86-76.89 109.58-114.35.91-.57 1.89-1.2 2.93-1.88l.01-.01.03-.02c12.06-7.82 32.69-21.19 64.26-21.19 54.62 0 90.32 33.45 126.39 67.24l.65.62c23.9 24.4 46.05 50.85 66.21 74.9v.01c28.34 33.84 52.73 62.96 72.48 75.07 110.39 67.66 243.58 20.91 326.83-157.22 55.67 49.68 97.24 49.5 127.45 20.25V84.9l-.83-.67V4H4.01v521.86Zm1307.14 15.3c107.66 0 194.93-87.43 194.93-195.3 0-107.85-87.27-195.29-194.93-195.29-107.66 0-194.93 87.44-194.93 195.3 0 107.86 87.27 195.3 194.93 195.3Z" fill="#BCBCBC"/></g><path fill-rule="evenodd" clip-rule="evenodd" d="M1 521.86c29.05 56.8 69.65 86.17 112.37 86.17 22.38 0 44.31-12.73 64.36-35.1 16.43-11.53 35.93-15.83 63.8 14.9l7.58 11.27.05.07c62.82 93.38 110.05 163.58 193.5 169.1 96.54 0 171.72-82.54 259.27-178.66 34.09-37.41 70.04-76.89 109.86-114.35a234.34 234.34 0 0 0 2.97-1.9c12.1-7.83 32.77-21.2 64.43-21.2 54.75 0 90.54 33.45 126.7 67.24l.64.6c23.97 24.42 46.18 50.87 66.39 74.93 28.42 33.85 52.87 62.96 72.66 75.07 110.67 67.66 244.19 20.91 327.65-157.22 55.81 49.68 97.49 49.5 127.77 20.25V80.9l-.83-.67V0H1v521.86Zm1310.42 15.3c107.92 0 195.41-87.43 195.41-195.3 0-107.85-87.49-195.29-195.41-195.29-107.93 0-195.42 87.44-195.42 195.3 0 107.86 87.49 195.3 195.42 195.3Z" fill="#C6F1EB"/><defs><filter id="a" x="0" y="0" width="1604" height="776.27" filterUnits="userSpaceOnUse" color-interpolation-filters="sRGB"><feFlood flood-opacity="0" result="BackgroundImageFix"/><feBlend in="SourceGraphic" in2="BackgroundImageFix" result="shape"/><feGaussianBlur stdDeviation="2" result="effect1_foregroundBlur_2_1384"/></filter></defs></svg>