<svg width="171" height="16" viewBox="0 0 171 16" fill="none" xmlns="http://www.w3.org/2000/svg">
<path d="M0.409091 12V0.363636H1.75V4.65909H1.86364C1.96212 4.50758 2.09848 4.31439 2.27273 4.07955C2.45076 3.84091 2.70455 3.62879 3.03409 3.44318C3.36742 3.25379 3.81818 3.15909 4.38636 3.15909C5.12121 3.15909 5.76894 3.3428 6.32955 3.71023C6.89015 4.07765 7.32765 4.59848 7.64205 5.27273C7.95644 5.94697 8.11364 6.74242 8.11364 7.65909C8.11364 8.58333 7.95644 9.38447 7.64205 10.0625C7.32765 10.7367 6.89205 11.2595 6.33523 11.6307C5.77841 11.9981 5.13636 12.1818 4.40909 12.1818C3.84848 12.1818 3.39962 12.089 3.0625 11.9034C2.72538 11.714 2.46591 11.5 2.28409 11.2614C2.10227 11.0189 1.96212 10.8182 1.86364 10.6591H1.70455V12H0.409091ZM1.72727 7.63636C1.72727 8.29545 1.82386 8.87689 2.01705 9.38068C2.21023 9.88068 2.49242 10.2727 2.86364 10.5568C3.23485 10.8371 3.68939 10.9773 4.22727 10.9773C4.78788 10.9773 5.25568 10.8295 5.63068 10.5341C6.00947 10.2348 6.29356 9.83333 6.48295 9.32955C6.67614 8.82197 6.77273 8.25758 6.77273 7.63636C6.77273 7.02273 6.67803 6.4697 6.48864 5.97727C6.30303 5.48106 6.02083 5.08902 5.64205 4.80114C5.26705 4.50947 4.79545 4.36364 4.22727 4.36364C3.68182 4.36364 3.22348 4.50189 2.85227 4.77841C2.48106 5.05114 2.20076 5.43371 2.01136 5.92614C1.82197 6.41477 1.72727 6.98485 1.72727 7.63636ZM12.733 12.2045C12.1799 12.2045 11.678 12.1004 11.2273 11.892C10.7765 11.6799 10.4186 11.375 10.1534 10.9773C9.88826 10.5758 9.75568 10.0909 9.75568 9.52273C9.75568 9.02273 9.85417 8.61742 10.0511 8.30682C10.2481 7.99242 10.5114 7.74621 10.8409 7.56818C11.1705 7.39015 11.5341 7.25758 11.9318 7.17045C12.3333 7.07955 12.7367 7.00758 13.142 6.95455C13.6723 6.88636 14.1023 6.83523 14.4318 6.80114C14.7652 6.76326 15.0076 6.70076 15.1591 6.61364C15.3144 6.52652 15.392 6.375 15.392 6.15909V6.11364C15.392 5.55303 15.2386 5.11742 14.9318 4.80682C14.6288 4.49621 14.1686 4.34091 13.5511 4.34091C12.911 4.34091 12.4091 4.48106 12.0455 4.76136C11.6818 5.04167 11.4261 5.34091 11.2784 5.65909L10.0057 5.20455C10.233 4.67424 10.536 4.26136 10.9148 3.96591C11.2973 3.66667 11.714 3.45833 12.1648 3.34091C12.6193 3.2197 13.0663 3.15909 13.5057 3.15909C13.786 3.15909 14.108 3.19318 14.4716 3.26136C14.839 3.32576 15.1932 3.46023 15.5341 3.66477C15.8788 3.86932 16.1648 4.17803 16.392 4.59091C16.6193 5.00379 16.733 5.55682 16.733 6.25V12H15.392V10.8182H15.3239C15.233 11.0076 15.0814 11.2102 14.8693 11.4261C14.6572 11.642 14.375 11.8258 14.0227 11.9773C13.6705 12.1288 13.2405 12.2045 12.733 12.2045ZM12.9375 11C13.4678 11 13.9148 10.8958 14.2784 10.6875C14.6458 10.4792 14.9223 10.2102 15.108 9.88068C15.2973 9.55114 15.392 9.20455 15.392 8.84091V7.61364C15.3352 7.68182 15.2102 7.74432 15.017 7.80114C14.8277 7.85417 14.608 7.90151 14.358 7.94318C14.1117 7.98106 13.8712 8.01515 13.6364 8.04545C13.4053 8.07197 13.2178 8.0947 13.0739 8.11364C12.7254 8.15909 12.3996 8.23295 12.0966 8.33523C11.7973 8.43371 11.5549 8.58333 11.3693 8.78409C11.1875 8.98106 11.0966 9.25 11.0966 9.59091C11.0966 10.0568 11.2689 10.4091 11.6136 10.6477C11.9621 10.8826 12.4034 11 12.9375 11ZM20.5213 0.363636V12H19.1804V0.363636H20.5213ZM26.6364 12.1818C25.7955 12.1818 25.0701 11.9962 24.4602 11.625C23.8542 11.25 23.3864 10.7273 23.0568 10.0568C22.7311 9.38258 22.5682 8.59848 22.5682 7.70455C22.5682 6.81061 22.7311 6.02273 23.0568 5.34091C23.3864 4.6553 23.8447 4.12121 24.4318 3.73864C25.0227 3.35227 25.7121 3.15909 26.5 3.15909C26.9545 3.15909 27.4034 3.23485 27.8466 3.38636C28.2898 3.53788 28.6932 3.78409 29.0568 4.125C29.4205 4.46212 29.7102 4.90909 29.9261 5.46591C30.142 6.02273 30.25 6.70833 30.25 7.52273V8.09091H23.5227V6.93182H28.8864C28.8864 6.43939 28.7879 6 28.5909 5.61364C28.3977 5.22727 28.1212 4.92235 27.7614 4.69886C27.4053 4.47538 26.9848 4.36364 26.5 4.36364C25.9659 4.36364 25.5038 4.49621 25.1136 4.76136C24.7273 5.02273 24.4299 5.36364 24.2216 5.78409C24.0133 6.20455 23.9091 6.6553 23.9091 7.13636V7.90909C23.9091 8.56818 24.0227 9.12689 24.25 9.58523C24.4811 10.0398 24.8011 10.3864 25.2102 10.625C25.6193 10.8598 26.0947 10.9773 26.6364 10.9773C26.9886 10.9773 27.3068 10.928 27.5909 10.8295C27.8788 10.7273 28.1269 10.5758 28.3352 10.375C28.5436 10.1705 28.7045 9.91667 28.8182 9.61364L30.1136 9.97727C29.9773 10.4167 29.7481 10.803 29.4261 11.1364C29.1042 11.4659 28.7064 11.7235 28.233 11.9091C27.7595 12.0909 27.2273 12.1818 26.6364 12.1818ZM33.6307 6.75V12H32.2898V3.27273H33.5852V4.63636H33.6989C33.9034 4.19318 34.214 3.83712 34.6307 3.56818C35.0473 3.29545 35.5852 3.15909 36.2443 3.15909C36.8352 3.15909 37.3523 3.2803 37.7955 3.52273C38.2386 3.76136 38.5833 4.125 38.8295 4.61364C39.0758 5.09848 39.1989 5.71212 39.1989 6.45455V12H37.858V6.54545C37.858 5.85985 37.6799 5.32576 37.3239 4.94318C36.9678 4.55682 36.4792 4.36364 35.858 4.36364C35.4299 4.36364 35.0473 4.45644 34.7102 4.64205C34.3769 4.82765 34.1136 5.09848 33.9205 5.45455C33.7273 5.81061 33.6307 6.24242 33.6307 6.75ZM45.4446 3.27273V4.40909H40.9219V3.27273H45.4446ZM42.2401 1.18182H43.581V9.5C43.581 9.87879 43.6359 10.1629 43.7457 10.3523C43.8594 10.5379 44.0033 10.6629 44.1776 10.7273C44.3556 10.7879 44.5431 10.8182 44.7401 10.8182C44.8878 10.8182 45.009 10.8106 45.1037 10.7955C45.1984 10.7765 45.2741 10.7614 45.331 10.75L45.6037 11.9545C45.5128 11.9886 45.3859 12.0227 45.223 12.0568C45.0601 12.0947 44.8537 12.1136 44.6037 12.1136C44.2249 12.1136 43.8537 12.0322 43.4901 11.8693C43.1302 11.7064 42.831 11.4583 42.5923 11.125C42.3575 10.7917 42.2401 10.3712 42.2401 9.86364V1.18182ZM47.4616 12V3.27273H48.8026V12H47.4616ZM48.1435 1.81818C47.8821 1.81818 47.6567 1.72917 47.4673 1.55114C47.2817 1.37311 47.1889 1.15909 47.1889 0.909091C47.1889 0.659091 47.2817 0.445076 47.4673 0.267045C47.6567 0.089015 47.8821 0 48.1435 0C48.4048 0 48.6283 0.089015 48.8139 0.267045C49.0033 0.445076 49.098 0.659091 49.098 0.909091C49.098 1.15909 49.0033 1.37311 48.8139 1.55114C48.6283 1.72917 48.4048 1.81818 48.1435 1.81818ZM54.9631 12.1591C54.1828 12.1591 53.4934 12.0208 52.8949 11.7443C52.3002 11.464 51.8362 11.0795 51.5028 10.5909C51.1695 10.0985 51.0047 9.53788 51.0085 8.90909C51.0047 8.41667 51.1013 7.96212 51.2983 7.54545C51.4953 7.125 51.7642 6.77462 52.1051 6.49432C52.4498 6.21023 52.8343 6.0303 53.2585 5.95455V5.88636C52.7017 5.74242 52.2585 5.42992 51.929 4.94886C51.5994 4.46401 51.4366 3.91288 51.4403 3.29545C51.4366 2.70455 51.5862 2.17614 51.8892 1.71023C52.1922 1.24432 52.6089 0.876893 53.1392 0.607954C53.6733 0.339015 54.2813 0.204545 54.9631 0.204545C55.6373 0.204545 56.2396 0.339015 56.7699 0.607954C57.3002 0.876893 57.7169 1.24432 58.0199 1.71023C58.3267 2.17614 58.482 2.70455 58.4858 3.29545C58.482 3.91288 58.3134 4.46401 57.9801 4.94886C57.6506 5.42992 57.2131 5.74242 56.6676 5.88636V5.95455C57.0881 6.0303 57.4669 6.21023 57.804 6.49432C58.1411 6.77462 58.41 7.125 58.6108 7.54545C58.8116 7.96212 58.9138 8.41667 58.9176 8.90909C58.9138 9.53788 58.7434 10.0985 58.4062 10.5909C58.0729 11.0795 57.6089 11.464 57.0142 11.7443C56.4233 12.0208 55.7396 12.1591 54.9631 12.1591ZM54.9631 10.9091C55.4896 10.9091 55.9441 10.8239 56.3267 10.6534C56.7093 10.483 57.0047 10.2424 57.2131 9.93182C57.4214 9.62121 57.5275 9.25758 57.5312 8.84091C57.5275 8.40152 57.4138 8.01326 57.1903 7.67614C56.9669 7.33902 56.6619 7.07386 56.2756 6.88068C55.893 6.6875 55.4555 6.59091 54.9631 6.59091C54.4669 6.59091 54.0237 6.6875 53.6335 6.88068C53.2472 7.07386 52.9422 7.33902 52.7188 7.67614C52.4991 8.01326 52.3911 8.40152 52.3949 8.84091C52.3911 9.25758 52.4915 9.62121 52.696 9.93182C52.9044 10.2424 53.2017 10.483 53.5881 10.6534C53.9744 10.8239 54.4328 10.9091 54.9631 10.9091ZM54.9631 5.38636C55.3797 5.38636 55.7491 5.30303 56.071 5.13636C56.3968 4.9697 56.6525 4.73674 56.8381 4.4375C57.0237 4.13826 57.1184 3.78788 57.1222 3.38636C57.1184 2.99242 57.0256 2.64962 56.8438 2.35795C56.6619 2.0625 56.41 1.83523 56.0881 1.67614C55.7661 1.51326 55.3911 1.43182 54.9631 1.43182C54.5275 1.43182 54.1468 1.51326 53.821 1.67614C53.4953 1.83523 53.2434 2.0625 53.0653 2.35795C52.8873 2.64962 52.8002 2.99242 52.804 3.38636C52.8002 3.78788 52.8892 4.13826 53.071 4.4375C53.2566 4.73674 53.5123 4.9697 53.8381 5.13636C54.1638 5.30303 54.5388 5.38636 54.9631 5.38636ZM64.8906 12.1591C64.0346 12.1591 63.3054 11.9261 62.7031 11.4602C62.1009 10.9905 61.6406 10.3106 61.3224 9.42045C61.0043 8.52652 60.8452 7.44697 60.8452 6.18182C60.8452 4.92424 61.0043 3.85038 61.3224 2.96023C61.6444 2.06629 62.1065 1.38447 62.7088 0.914772C63.3149 0.441287 64.0421 0.204545 64.8906 0.204545C65.7391 0.204545 66.4645 0.441287 67.0668 0.914772C67.6728 1.38447 68.1349 2.06629 68.4531 2.96023C68.7751 3.85038 68.9361 4.92424 68.9361 6.18182C68.9361 7.44697 68.777 8.52652 68.4588 9.42045C68.1406 10.3106 67.6804 10.9905 67.0781 11.4602C66.4759 11.9261 65.7467 12.1591 64.8906 12.1591ZM64.8906 10.9091C65.7391 10.9091 66.3982 10.5 66.8679 9.68182C67.3376 8.86364 67.5724 7.69697 67.5724 6.18182C67.5724 5.17424 67.4645 4.31629 67.2486 3.60795C67.0365 2.89962 66.7296 2.35985 66.3281 1.98864C65.9304 1.61742 65.4512 1.43182 64.8906 1.43182C64.0497 1.43182 63.3925 1.84659 62.919 2.67614C62.4455 3.50189 62.2088 4.67045 62.2088 6.18182C62.2088 7.18939 62.3149 8.04545 62.527 8.75C62.7391 9.45455 63.044 9.99053 63.4418 10.358C63.8433 10.7254 64.3262 10.9091 64.8906 10.9091ZM74.8224 12.1591C74.0421 12.1591 73.3527 12.0208 72.7543 11.7443C72.1596 11.464 71.6955 11.0795 71.3622 10.5909C71.0289 10.0985 70.8641 9.53788 70.8679 8.90909C70.8641 8.41667 70.9607 7.96212 71.1577 7.54545C71.3546 7.125 71.6236 6.77462 71.9645 6.49432C72.3092 6.21023 72.6937 6.0303 73.1179 5.95455V5.88636C72.5611 5.74242 72.1179 5.42992 71.7884 4.94886C71.4588 4.46401 71.2959 3.91288 71.2997 3.29545C71.2959 2.70455 71.4455 2.17614 71.7486 1.71023C72.0516 1.24432 72.4683 0.876893 72.9986 0.607954C73.5327 0.339015 74.1406 0.204545 74.8224 0.204545C75.4967 0.204545 76.099 0.339015 76.6293 0.607954C77.1596 0.876893 77.5762 1.24432 77.8793 1.71023C78.1861 2.17614 78.3414 2.70455 78.3452 3.29545C78.3414 3.91288 78.1728 4.46401 77.8395 4.94886C77.5099 5.42992 77.0724 5.74242 76.527 5.88636V5.95455C76.9474 6.0303 77.3262 6.21023 77.6634 6.49432C78.0005 6.77462 78.2694 7.125 78.4702 7.54545C78.6709 7.96212 78.7732 8.41667 78.777 8.90909C78.7732 9.53788 78.6027 10.0985 78.2656 10.5909C77.9323 11.0795 77.4683 11.464 76.8736 11.7443C76.2827 12.0208 75.599 12.1591 74.8224 12.1591ZM74.8224 10.9091C75.349 10.9091 75.8035 10.8239 76.1861 10.6534C76.5687 10.483 76.8641 10.2424 77.0724 9.93182C77.2808 9.62121 77.3868 9.25758 77.3906 8.84091C77.3868 8.40152 77.2732 8.01326 77.0497 7.67614C76.8262 7.33902 76.5213 7.07386 76.1349 6.88068C75.7524 6.6875 75.3149 6.59091 74.8224 6.59091C74.3262 6.59091 73.883 6.6875 73.4929 6.88068C73.1065 7.07386 72.8016 7.33902 72.5781 7.67614C72.3584 8.01326 72.2505 8.40152 72.2543 8.84091C72.2505 9.25758 72.3509 9.62121 72.5554 9.93182C72.7637 10.2424 73.0611 10.483 73.4474 10.6534C73.8338 10.8239 74.2921 10.9091 74.8224 10.9091ZM74.8224 5.38636C75.2391 5.38636 75.6084 5.30303 75.9304 5.13636C76.2562 4.9697 76.5118 4.73674 76.6974 4.4375C76.883 4.13826 76.9777 3.78788 76.9815 3.38636C76.9777 2.99242 76.8849 2.64962 76.7031 2.35795C76.5213 2.0625 76.2694 1.83523 75.9474 1.67614C75.6255 1.51326 75.2505 1.43182 74.8224 1.43182C74.3868 1.43182 74.0062 1.51326 73.6804 1.67614C73.3546 1.83523 73.1027 2.0625 72.9247 2.35795C72.7467 2.64962 72.6596 2.99242 72.6634 3.38636C72.6596 3.78788 72.7486 4.13826 72.9304 4.4375C73.116 4.73674 73.3717 4.9697 73.6974 5.13636C74.0232 5.30303 74.3982 5.38636 74.8224 5.38636ZM87.6818 15.0682C86.5227 15.0682 85.4981 14.9091 84.608 14.5909C83.7178 14.2765 82.9697 13.8125 82.3636 13.1989C81.7576 12.5852 81.2992 11.8333 80.9886 10.9432C80.678 10.053 80.5227 9.03409 80.5227 7.88636C80.5227 6.77651 80.6799 5.78409 80.9943 4.90909C81.3125 4.03409 81.7727 3.29167 82.375 2.68182C82.9811 2.06818 83.7159 1.60038 84.5795 1.27841C85.447 0.956439 86.428 0.795454 87.5227 0.795454C88.5871 0.795454 89.5189 0.969696 90.3182 1.31818C91.1212 1.66288 91.7917 2.13068 92.3295 2.72159C92.8712 3.30871 93.2765 3.9697 93.5455 4.70455C93.8182 5.43939 93.9545 6.19697 93.9545 6.97727C93.9545 7.52651 93.928 8.08333 93.875 8.64773C93.822 9.21212 93.7102 9.73106 93.5398 10.2045C93.3693 10.6742 93.1061 11.053 92.75 11.3409C92.3977 11.6288 91.9205 11.7727 91.3182 11.7727C91.053 11.7727 90.7614 11.7311 90.4432 11.6477C90.125 11.5644 89.8428 11.4261 89.5966 11.233C89.3504 11.0398 89.2045 10.7803 89.1591 10.4545H89.0909C89 10.6742 88.8598 10.8826 88.6705 11.0795C88.4848 11.2765 88.2405 11.4337 87.9375 11.5511C87.6383 11.6686 87.2727 11.7197 86.8409 11.7045C86.3485 11.6856 85.9148 11.5758 85.5398 11.375C85.1648 11.1705 84.8504 10.8939 84.5966 10.5455C84.3466 10.1932 84.1572 9.78598 84.0284 9.32386C83.9034 8.85795 83.8409 8.35606 83.8409 7.81818C83.8409 7.30682 83.9167 6.83901 84.0682 6.41477C84.2197 5.99053 84.4299 5.61932 84.6989 5.30114C84.9716 4.98295 85.2898 4.72917 85.6534 4.53977C86.0208 4.34659 86.4167 4.22727 86.8409 4.18182C87.2197 4.14394 87.5644 4.16098 87.875 4.23295C88.1856 4.30114 88.4413 4.4053 88.642 4.54545C88.8428 4.68182 88.9697 4.83333 89.0227 5H89.0909V4.36364H90.2955V9.5C90.2955 9.81818 90.3845 10.0985 90.5625 10.3409C90.7405 10.5833 91 10.7045 91.3409 10.7045C91.7273 10.7045 92.0227 10.572 92.2273 10.3068C92.4356 10.0417 92.5777 9.63258 92.6534 9.07955C92.733 8.52652 92.7727 7.81818 92.7727 6.95455C92.7727 6.44697 92.7027 5.94697 92.5625 5.45455C92.4261 4.95833 92.2178 4.49432 91.9375 4.0625C91.661 3.63068 91.3106 3.25 90.8864 2.92045C90.4621 2.59091 89.964 2.33333 89.392 2.14773C88.8239 1.95833 88.178 1.86364 87.4545 1.86364C86.5644 1.86364 85.767 2.00189 85.0625 2.27841C84.3617 2.55114 83.7652 2.95076 83.2727 3.47727C82.7841 4 82.411 4.63636 82.1534 5.38636C81.8996 6.13258 81.7727 6.98106 81.7727 7.93182C81.7727 8.89773 81.8996 9.75568 82.1534 10.5057C82.411 11.2557 82.7898 11.8883 83.2898 12.4034C83.7936 12.9186 84.4167 13.3087 85.1591 13.5739C85.9015 13.8428 86.7576 13.9773 87.7273 13.9773C88.1439 13.9773 88.5549 13.9375 88.9602 13.858C89.3655 13.7784 89.7235 13.6913 90.0341 13.5966C90.3447 13.5019 90.5682 13.4318 90.7045 13.3864L91.0227 14.4318C90.7879 14.5303 90.4811 14.6288 90.1023 14.7273C89.7273 14.8258 89.3258 14.9072 88.8977 14.9716C88.4735 15.036 88.0682 15.0682 87.6818 15.0682ZM87.0227 10.5455C87.5303 10.5455 87.9413 10.4432 88.2557 10.2386C88.5701 10.0341 88.7992 9.72538 88.9432 9.3125C89.0871 8.89962 89.1591 8.37879 89.1591 7.75C89.1591 7.11364 89.0795 6.61742 88.9205 6.26136C88.7614 5.9053 88.5265 5.6553 88.2159 5.51136C87.9053 5.36742 87.5227 5.29545 87.0682 5.29545C86.6364 5.29545 86.267 5.40909 85.9602 5.63636C85.6572 5.85985 85.4242 6.15909 85.2614 6.53409C85.1023 6.9053 85.0227 7.31061 85.0227 7.75C85.0227 8.23485 85.0871 8.69129 85.2159 9.11932C85.3447 9.54356 85.5549 9.88826 85.8466 10.1534C86.1383 10.4148 86.5303 10.5455 87.0227 10.5455ZM99.4844 15.4545C98.8366 15.4545 98.2798 15.3712 97.8139 15.2045C97.348 15.0417 96.9598 14.8258 96.6491 14.5568C96.3423 14.2917 96.098 14.0076 95.9162 13.7045L96.9844 12.9545C97.1056 13.1136 97.259 13.2955 97.4446 13.5C97.6302 13.7083 97.884 13.8883 98.206 14.0398C98.5317 14.1951 98.9579 14.2727 99.4844 14.2727C100.189 14.2727 100.77 14.1023 101.229 13.7614C101.687 13.4205 101.916 12.8864 101.916 12.1591V10.3864H101.803C101.704 10.5455 101.564 10.7424 101.382 10.9773C101.204 11.2083 100.946 11.4148 100.609 11.5966C100.276 11.7746 99.8253 11.8636 99.2571 11.8636C98.5526 11.8636 97.92 11.697 97.3594 11.3636C96.8026 11.0303 96.3613 10.5455 96.0355 9.90909C95.7135 9.27273 95.5526 8.5 95.5526 7.59091C95.5526 6.69697 95.7098 5.91856 96.0241 5.25568C96.3385 4.58901 96.776 4.07386 97.3366 3.71023C97.8973 3.3428 98.545 3.15909 99.2798 3.15909C99.848 3.15909 100.299 3.25379 100.632 3.44318C100.969 3.62879 101.227 3.84091 101.405 4.07955C101.587 4.31439 101.727 4.50758 101.825 4.65909H101.962V3.27273H103.257V12.25C103.257 13 103.087 13.6098 102.746 14.0795C102.409 14.553 101.954 14.8996 101.382 15.1193C100.814 15.3428 100.181 15.4545 99.4844 15.4545ZM99.4389 10.6591C99.9768 10.6591 100.431 10.536 100.803 10.2898C101.174 10.0436 101.456 9.68939 101.649 9.22727C101.842 8.76515 101.939 8.21212 101.939 7.56818C101.939 6.93939 101.844 6.38447 101.655 5.90341C101.465 5.42235 101.185 5.04545 100.814 4.77273C100.443 4.5 99.9844 4.36364 99.4389 4.36364C98.8707 4.36364 98.3973 4.50758 98.0185 4.79545C97.6435 5.08333 97.3613 5.4697 97.1719 5.95455C96.9863 6.43939 96.8935 6.97727 96.8935 7.56818C96.8935 8.17424 96.9882 8.71023 97.1776 9.17614C97.3707 9.63826 97.6548 10.0019 98.0298 10.267C98.4086 10.5284 98.8783 10.6591 99.4389 10.6591ZM105.712 12V3.27273H107.007V4.63636H107.121C107.303 4.17045 107.596 3.80871 108.001 3.55114C108.407 3.28977 108.893 3.15909 109.462 3.15909C110.037 3.15909 110.517 3.28977 110.899 3.55114C111.286 3.80871 111.587 4.17045 111.803 4.63636H111.893C112.117 4.18561 112.452 3.82765 112.899 3.5625C113.346 3.29356 113.882 3.15909 114.507 3.15909C115.287 3.15909 115.926 3.40341 116.422 3.89205C116.918 4.37689 117.166 5.13258 117.166 6.15909V12H115.825V6.15909C115.825 5.51515 115.649 5.05492 115.297 4.77841C114.945 4.50189 114.53 4.36364 114.053 4.36364C113.439 4.36364 112.964 4.54924 112.626 4.92045C112.289 5.28788 112.121 5.75379 112.121 6.31818V12H110.757V6.02273C110.757 5.52652 110.596 5.12689 110.274 4.82386C109.952 4.51705 109.537 4.36364 109.03 4.36364C108.681 4.36364 108.356 4.45644 108.053 4.64205C107.753 4.82765 107.511 5.08523 107.325 5.41477C107.143 5.74053 107.053 6.11742 107.053 6.54545V12H105.712ZM122.186 12.2045C121.633 12.2045 121.131 12.1004 120.68 11.892C120.23 11.6799 119.872 11.375 119.607 10.9773C119.341 10.5758 119.209 10.0909 119.209 9.52273C119.209 9.02273 119.307 8.61742 119.504 8.30682C119.701 7.99242 119.964 7.74621 120.294 7.56818C120.624 7.39015 120.987 7.25758 121.385 7.17045C121.786 7.07955 122.19 7.00758 122.595 6.95455C123.125 6.88636 123.555 6.83523 123.885 6.80114C124.218 6.76326 124.461 6.70076 124.612 6.61364C124.768 6.52652 124.845 6.375 124.845 6.15909V6.11364C124.845 5.55303 124.692 5.11742 124.385 4.80682C124.082 4.49621 123.622 4.34091 123.004 4.34091C122.364 4.34091 121.862 4.48106 121.499 4.76136C121.135 5.04167 120.879 5.34091 120.732 5.65909L119.459 5.20455C119.686 4.67424 119.989 4.26136 120.368 3.96591C120.75 3.66667 121.167 3.45833 121.618 3.34091C122.072 3.2197 122.519 3.15909 122.959 3.15909C123.239 3.15909 123.561 3.19318 123.925 3.26136C124.292 3.32576 124.646 3.46023 124.987 3.66477C125.332 3.86932 125.618 4.17803 125.845 4.59091C126.072 5.00379 126.186 5.55682 126.186 6.25V12H124.845V10.8182H124.777C124.686 11.0076 124.535 11.2102 124.322 11.4261C124.11 11.642 123.828 11.8258 123.476 11.9773C123.124 12.1288 122.694 12.2045 122.186 12.2045ZM122.391 11C122.921 11 123.368 10.8958 123.732 10.6875C124.099 10.4792 124.375 10.2102 124.561 9.88068C124.75 9.55114 124.845 9.20455 124.845 8.84091V7.61364C124.788 7.68182 124.663 7.74432 124.47 7.80114C124.281 7.85417 124.061 7.90151 123.811 7.94318C123.565 7.98106 123.324 8.01515 123.089 8.04545C122.858 8.07197 122.671 8.0947 122.527 8.11364C122.179 8.15909 121.853 8.23295 121.55 8.33523C121.25 8.43371 121.008 8.58333 120.822 8.78409C120.641 8.98106 120.55 9.25 120.55 9.59091C120.55 10.0568 120.722 10.4091 121.067 10.6477C121.415 10.8826 121.857 11 122.391 11ZM128.634 12V3.27273H129.974V12H128.634ZM129.315 1.81818C129.054 1.81818 128.829 1.72917 128.639 1.55114C128.454 1.37311 128.361 1.15909 128.361 0.909091C128.361 0.659091 128.454 0.445076 128.639 0.267045C128.829 0.089015 129.054 0 129.315 0C129.577 0 129.8 0.089015 129.986 0.267045C130.175 0.445076 130.27 0.659091 130.27 0.909091C130.27 1.15909 130.175 1.37311 129.986 1.55114C129.8 1.72917 129.577 1.81818 129.315 1.81818ZM133.771 0.363636V12H132.43V0.363636H133.771ZM137.205 12.0909C136.924 12.0909 136.684 11.9905 136.483 11.7898C136.282 11.589 136.182 11.3485 136.182 11.0682C136.182 10.7879 136.282 10.5473 136.483 10.3466C136.684 10.1458 136.924 10.0455 137.205 10.0455C137.485 10.0455 137.725 10.1458 137.926 10.3466C138.127 10.5473 138.227 10.7879 138.227 11.0682C138.227 11.2538 138.18 11.4242 138.085 11.5795C137.994 11.7348 137.871 11.8598 137.716 11.9545C137.564 12.0455 137.394 12.0909 137.205 12.0909ZM144.179 12.1818C143.361 12.1818 142.656 11.9886 142.065 11.6023C141.474 11.2159 141.02 10.6837 140.702 10.0057C140.384 9.32765 140.224 8.55303 140.224 7.68182C140.224 6.79545 140.387 6.01326 140.713 5.33523C141.043 4.65341 141.501 4.12121 142.088 3.73864C142.679 3.35227 143.368 3.15909 144.156 3.15909C144.77 3.15909 145.323 3.27273 145.815 3.5C146.308 3.72727 146.711 4.04545 147.026 4.45455C147.34 4.86364 147.535 5.34091 147.611 5.88636H146.27C146.168 5.48864 145.94 5.13636 145.588 4.82955C145.24 4.51894 144.77 4.36364 144.179 4.36364C143.656 4.36364 143.198 4.5 142.804 4.77273C142.414 5.04167 142.109 5.42235 141.889 5.91477C141.673 6.40341 141.565 6.97727 141.565 7.63636C141.565 8.31061 141.671 8.89773 141.884 9.39773C142.099 9.89773 142.402 10.286 142.793 10.5625C143.187 10.839 143.649 10.9773 144.179 10.9773C144.527 10.9773 144.844 10.9167 145.128 10.7955C145.412 10.6742 145.652 10.5 145.849 10.2727C146.046 10.0455 146.187 9.77273 146.27 9.45455H147.611C147.535 9.9697 147.348 10.4337 147.048 10.8466C146.753 11.2557 146.361 11.5814 145.872 11.8239C145.387 12.0625 144.823 12.1818 144.179 12.1818ZM153.116 12.1818C152.329 12.1818 151.637 11.9943 151.043 11.6193C150.452 11.2443 149.99 10.7197 149.656 10.0455C149.327 9.37121 149.162 8.58333 149.162 7.68182C149.162 6.77273 149.327 5.97917 149.656 5.30114C149.99 4.62311 150.452 4.09659 151.043 3.72159C151.637 3.34659 152.329 3.15909 153.116 3.15909C153.904 3.15909 154.594 3.34659 155.185 3.72159C155.779 4.09659 156.241 4.62311 156.571 5.30114C156.904 5.97917 157.071 6.77273 157.071 7.68182C157.071 8.58333 156.904 9.37121 156.571 10.0455C156.241 10.7197 155.779 11.2443 155.185 11.6193C154.594 11.9943 153.904 12.1818 153.116 12.1818ZM153.116 10.9773C153.715 10.9773 154.207 10.8239 154.594 10.517C154.98 10.2102 155.266 9.80682 155.452 9.30682C155.637 8.80682 155.73 8.26515 155.73 7.68182C155.73 7.09848 155.637 6.55492 155.452 6.05114C155.266 5.54735 154.98 5.14015 154.594 4.82955C154.207 4.51894 153.715 4.36364 153.116 4.36364C152.518 4.36364 152.026 4.51894 151.639 4.82955C151.253 5.14015 150.967 5.54735 150.781 6.05114C150.596 6.55492 150.503 7.09848 150.503 7.68182C150.503 8.26515 150.596 8.80682 150.781 9.30682C150.967 9.80682 151.253 10.2102 151.639 10.517C152.026 10.8239 152.518 10.9773 153.116 10.9773ZM159.118 12V3.27273H160.413V4.63636H160.527C160.709 4.17045 161.002 3.80871 161.408 3.55114C161.813 3.28977 162.3 3.15909 162.868 3.15909C163.444 3.15909 163.923 3.28977 164.305 3.55114C164.692 3.80871 164.993 4.17045 165.209 4.63636H165.3C165.523 4.18561 165.858 3.82765 166.305 3.5625C166.752 3.29356 167.288 3.15909 167.913 3.15909C168.694 3.15909 169.332 3.40341 169.828 3.89205C170.324 4.37689 170.572 5.13258 170.572 6.15909V12H169.232V6.15909C169.232 5.51515 169.055 5.05492 168.703 4.77841C168.351 4.50189 167.936 4.36364 167.459 4.36364C166.845 4.36364 166.37 4.54924 166.033 4.92045C165.696 5.28788 165.527 5.75379 165.527 6.31818V12H164.163V6.02273C164.163 5.52652 164.002 5.12689 163.68 4.82386C163.358 4.51705 162.944 4.36364 162.436 4.36364C162.088 4.36364 161.762 4.45644 161.459 4.64205C161.16 4.82765 160.917 5.08523 160.732 5.41477C160.55 5.74053 160.459 6.11742 160.459 6.54545V12H159.118Z" fill="#45504E"/>
</svg>
