<svg width="91" height="13" viewBox="0 0 91 13" fill="none" xmlns="http://www.w3.org/2000/svg">
<path d="M5.29545 0.363636V12H3.88636V1.84091H3.81818L0.977273 3.72727V2.29545L3.88636 0.363636H5.29545ZM12.3466 0.204545C12.8239 0.208333 13.3011 0.299242 13.7784 0.477272C14.2557 0.655303 14.6913 0.950757 15.0852 1.36364C15.4792 1.77273 15.7955 2.33144 16.0341 3.03977C16.2727 3.74811 16.392 4.63636 16.392 5.70455C16.392 6.73864 16.2936 7.6572 16.0966 8.46023C15.9034 9.25947 15.6231 9.93371 15.2557 10.483C14.892 11.0322 14.4489 11.4489 13.9261 11.733C13.4072 12.017 12.8201 12.1591 12.1648 12.1591C11.5133 12.1591 10.9318 12.0303 10.4205 11.7727C9.91288 11.5114 9.49621 11.1496 9.17045 10.6875C8.84848 10.2216 8.64205 9.68182 8.55114 9.06818H9.9375C10.0625 9.60227 10.3106 10.0436 10.6818 10.392C11.0568 10.7367 11.5511 10.9091 12.1648 10.9091C13.0625 10.9091 13.7708 10.517 14.2898 9.73295C14.8125 8.94886 15.0739 7.84091 15.0739 6.40909H14.983C14.7708 6.72727 14.5189 7.00189 14.2273 7.23295C13.9356 7.46402 13.6117 7.64205 13.2557 7.76705C12.8996 7.89205 12.5208 7.95455 12.1193 7.95455C11.4527 7.95455 10.8409 7.78977 10.2841 7.46023C9.73106 7.12689 9.28788 6.67045 8.95455 6.09091C8.625 5.50758 8.46023 4.84091 8.46023 4.09091C8.46023 3.37879 8.61932 2.72727 8.9375 2.13636C9.25947 1.54167 9.71023 1.06818 10.2898 0.715909C10.8731 0.363636 11.5587 0.193182 12.3466 0.204545ZM12.3466 1.45455C11.8693 1.45455 11.4394 1.57386 11.0568 1.8125C10.678 2.04735 10.3769 2.36553 10.1534 2.76705C9.93371 3.16477 9.82386 3.60606 9.82386 4.09091C9.82386 4.57576 9.92992 5.01705 10.142 5.41477C10.358 5.80871 10.6515 6.12311 11.0227 6.35795C11.3977 6.58902 11.8239 6.70455 12.3011 6.70455C12.661 6.70455 12.9962 6.63447 13.3068 6.49432C13.6174 6.35038 13.8883 6.1553 14.1193 5.90909C14.3542 5.65909 14.5379 5.37689 14.6705 5.0625C14.803 4.74432 14.8693 4.41288 14.8693 4.06818C14.8693 3.61364 14.7595 3.1875 14.5398 2.78977C14.3239 2.39205 14.0246 2.07008 13.642 1.82386C13.2633 1.57765 12.8314 1.45455 12.3466 1.45455ZM22.331 0.204545C22.8082 0.208333 23.2855 0.299242 23.7628 0.477272C24.2401 0.655303 24.6757 0.950757 25.0696 1.36364C25.4635 1.77273 25.7798 2.33144 26.0185 3.03977C26.2571 3.74811 26.3764 4.63636 26.3764 5.70455C26.3764 6.73864 26.2779 7.6572 26.081 8.46023C25.8878 9.25947 25.6075 9.93371 25.2401 10.483C24.8764 11.0322 24.4332 11.4489 23.9105 11.733C23.3916 12.017 22.8045 12.1591 22.1491 12.1591C21.4976 12.1591 20.9162 12.0303 20.4048 11.7727C19.8973 11.5114 19.4806 11.1496 19.1548 10.6875C18.8329 10.2216 18.6264 9.68182 18.5355 9.06818H19.9219C20.0469 9.60227 20.295 10.0436 20.6662 10.392C21.0412 10.7367 21.5355 10.9091 22.1491 10.9091C23.0469 10.9091 23.7552 10.517 24.2741 9.73295C24.7969 8.94886 25.0582 7.84091 25.0582 6.40909H24.9673C24.7552 6.72727 24.5033 7.00189 24.2116 7.23295C23.92 7.46402 23.5961 7.64205 23.2401 7.76705C22.884 7.89205 22.5052 7.95455 22.1037 7.95455C21.437 7.95455 20.8253 7.78977 20.2685 7.46023C19.7154 7.12689 19.2723 6.67045 18.9389 6.09091C18.6094 5.50758 18.4446 4.84091 18.4446 4.09091C18.4446 3.37879 18.6037 2.72727 18.9219 2.13636C19.2438 1.54167 19.6946 1.06818 20.2741 0.715909C20.8575 0.363636 21.5431 0.193182 22.331 0.204545ZM22.331 1.45455C21.8537 1.45455 21.4238 1.57386 21.0412 1.8125C20.6624 2.04735 20.3613 2.36553 20.1378 2.76705C19.9181 3.16477 19.8082 3.60606 19.8082 4.09091C19.8082 4.57576 19.9143 5.01705 20.1264 5.41477C20.3423 5.80871 20.6359 6.12311 21.0071 6.35795C21.3821 6.58902 21.8082 6.70455 22.2855 6.70455C22.6454 6.70455 22.9806 6.63447 23.2912 6.49432C23.6018 6.35038 23.8726 6.1553 24.1037 5.90909C24.3385 5.65909 24.5223 5.37689 24.6548 5.0625C24.7874 4.74432 24.8537 4.41288 24.8537 4.06818C24.8537 3.61364 24.7438 3.1875 24.5241 2.78977C24.3082 2.39205 24.009 2.07008 23.6264 1.82386C23.2476 1.57765 22.8158 1.45455 22.331 1.45455ZM28.6619 12L33.8665 1.70455V1.61364H27.8665V0.363636H35.321V1.68182L30.1392 12H28.6619ZM36.4389 12.0909C36.1586 12.0909 35.9181 11.9905 35.7173 11.7898C35.5166 11.589 35.4162 11.3485 35.4162 11.0682C35.4162 10.7879 35.5166 10.5473 35.7173 10.3466C35.9181 10.1458 36.1586 10.0455 36.4389 10.0455C36.7192 10.0455 36.9598 10.1458 37.1605 10.3466C37.3613 10.5473 37.4616 10.7879 37.4616 11.0682C37.4616 11.2538 37.4143 11.4242 37.3196 11.5795C37.2287 11.7348 37.1056 11.8598 36.9503 11.9545C36.7988 12.0455 36.6283 12.0909 36.4389 12.0909ZM48.1406 12.1591C47.2846 12.1591 46.5554 11.9261 45.9531 11.4602C45.3509 10.9905 44.8906 10.3106 44.5724 9.42045C44.2543 8.52652 44.0952 7.44697 44.0952 6.18182C44.0952 4.92424 44.2543 3.85038 44.5724 2.96023C44.8944 2.06629 45.3565 1.38447 45.9588 0.914772C46.5649 0.441287 47.2921 0.204545 48.1406 0.204545C48.9891 0.204545 49.7145 0.441287 50.3168 0.914772C50.9228 1.38447 51.3849 2.06629 51.7031 2.96023C52.0251 3.85038 52.1861 4.92424 52.1861 6.18182C52.1861 7.44697 52.027 8.52652 51.7088 9.42045C51.3906 10.3106 50.9304 10.9905 50.3281 11.4602C49.7259 11.9261 48.9967 12.1591 48.1406 12.1591ZM48.1406 10.9091C48.9891 10.9091 49.6482 10.5 50.1179 9.68182C50.5876 8.86364 50.8224 7.69697 50.8224 6.18182C50.8224 5.17424 50.7145 4.31629 50.4986 3.60795C50.2865 2.89962 49.9796 2.35985 49.5781 1.98864C49.1804 1.61742 48.7012 1.43182 48.1406 1.43182C47.2997 1.43182 46.6425 1.84659 46.169 2.67614C45.6955 3.50189 45.4588 4.67045 45.4588 6.18182C45.4588 7.18939 45.5649 8.04545 45.777 8.75C45.9891 9.45455 46.294 9.99053 46.6918 10.358C47.0933 10.7254 47.5762 10.9091 48.1406 10.9091ZM58.2088 12.1591C57.7315 12.1515 57.2543 12.0606 56.777 11.8864C56.2997 11.7121 55.8641 11.4186 55.4702 11.0057C55.0762 10.589 54.7599 10.0265 54.5213 9.31818C54.2827 8.60606 54.1634 7.71212 54.1634 6.63636C54.1634 5.60606 54.2599 4.69318 54.4531 3.89773C54.6463 3.09848 54.9266 2.42614 55.294 1.88068C55.6615 1.33144 56.1046 0.914772 56.6236 0.630681C57.1463 0.34659 57.7353 0.204545 58.3906 0.204545C59.0421 0.204545 59.6217 0.335227 60.1293 0.596591C60.6406 0.854166 61.0573 1.21401 61.3793 1.67614C61.7012 2.13826 61.9096 2.67045 62.0043 3.27273H60.6179C60.4891 2.75 60.2391 2.31629 59.8679 1.97159C59.4967 1.62689 59.0043 1.45455 58.3906 1.45455C57.4891 1.45455 56.7789 1.84659 56.2599 2.63068C55.7448 3.41477 55.4853 4.51515 55.4815 5.93182H55.5724C55.7846 5.60985 56.0365 5.33523 56.3281 5.10795C56.6236 4.87689 56.9493 4.69886 57.3054 4.57386C57.6615 4.44886 58.0384 4.38636 58.4361 4.38636C59.1027 4.38636 59.7126 4.55303 60.2656 4.88636C60.8187 5.21591 61.2618 5.67235 61.5952 6.25568C61.9285 6.83523 62.0952 7.5 62.0952 8.25C62.0952 8.9697 61.9342 9.62879 61.6122 10.2273C61.2902 10.822 60.8376 11.2955 60.2543 11.6477C59.6747 11.9962 58.9929 12.1667 58.2088 12.1591ZM58.2088 10.9091C58.6861 10.9091 59.1141 10.7898 59.4929 10.5511C59.8755 10.3125 60.1766 9.99242 60.3963 9.59091C60.6198 9.18939 60.7315 8.74242 60.7315 8.25C60.7315 7.76894 60.6236 7.33144 60.4077 6.9375C60.1955 6.53977 59.902 6.22348 59.527 5.98864C59.1558 5.75379 58.7315 5.63636 58.2543 5.63636C57.8944 5.63636 57.5592 5.70833 57.2486 5.85227C56.938 5.99242 56.6652 6.18561 56.4304 6.43182C56.1993 6.67803 56.0175 6.96023 55.8849 7.27841C55.7524 7.5928 55.6861 7.92424 55.6861 8.27273C55.6861 8.73485 55.794 9.16667 56.0099 9.56818C56.2296 9.9697 56.5289 10.2936 56.9077 10.5398C57.2902 10.786 57.724 10.9091 58.2088 10.9091ZM64.7827 12.0909C64.5024 12.0909 64.2618 11.9905 64.0611 11.7898C63.8603 11.589 63.7599 11.3485 63.7599 11.0682C63.7599 10.7879 63.8603 10.5473 64.0611 10.3466C64.2618 10.1458 64.5024 10.0455 64.7827 10.0455C65.063 10.0455 65.3035 10.1458 65.5043 10.3466C65.705 10.5473 65.8054 10.7879 65.8054 11.0682C65.8054 11.2538 65.758 11.4242 65.6634 11.5795C65.5724 11.7348 65.4493 11.8598 65.294 11.9545C65.1425 12.0455 64.9721 12.0909 64.7827 12.0909ZM76.6207 12.1591C75.8707 12.1591 75.2022 12.0303 74.6151 11.7727C74.0317 11.5152 73.5677 11.1572 73.223 10.6989C72.8821 10.2367 72.6965 9.70076 72.6662 9.09091H74.098C74.1283 9.46591 74.2571 9.78977 74.4844 10.0625C74.7116 10.3314 75.009 10.5398 75.3764 10.6875C75.7438 10.8352 76.151 10.9091 76.598 10.9091C77.098 10.9091 77.5412 10.822 77.9276 10.6477C78.3139 10.4735 78.617 10.2311 78.8366 9.92045C79.0563 9.60985 79.1662 9.25 79.1662 8.84091C79.1662 8.41288 79.0601 8.03598 78.848 7.71023C78.6359 7.38068 78.3253 7.12311 77.9162 6.9375C77.5071 6.75189 77.0071 6.65909 76.4162 6.65909H75.4844V5.40909H76.4162C76.8783 5.40909 77.2836 5.32576 77.6321 5.15909C77.9844 4.99242 78.259 4.75758 78.456 4.45455C78.6567 4.15152 78.7571 3.79545 78.7571 3.38636C78.7571 2.99242 78.67 2.64962 78.4957 2.35795C78.3215 2.06629 78.0753 1.83901 77.7571 1.67614C77.4427 1.51326 77.0715 1.43182 76.6435 1.43182C76.242 1.43182 75.8632 1.50568 75.5071 1.65341C75.1548 1.79735 74.867 2.00758 74.6435 2.28409C74.42 2.55682 74.2988 2.88636 74.2798 3.27273H72.9162C72.9389 2.66288 73.1226 2.12879 73.4673 1.67045C73.812 1.20833 74.2628 0.848484 74.8196 0.590909C75.3802 0.333333 75.9957 0.204545 76.6662 0.204545C77.3859 0.204545 78.0033 0.350378 78.5185 0.642045C79.0336 0.929924 79.4295 1.31061 79.706 1.78409C79.9825 2.25758 80.1207 2.76894 80.1207 3.31818C80.1207 3.97348 79.9484 4.5322 79.6037 4.99432C79.2628 5.45644 78.7988 5.77652 78.2116 5.95455V6.04545C78.9465 6.16667 79.5204 6.47917 79.9332 6.98295C80.3461 7.48295 80.5526 8.10227 80.5526 8.84091C80.5526 9.47348 80.3802 10.0417 80.0355 10.5455C79.6946 11.0455 79.2287 11.4394 78.6378 11.7273C78.0469 12.0152 77.3745 12.1591 76.6207 12.1591ZM86.6719 12.1591C85.8158 12.1591 85.0866 11.9261 84.4844 11.4602C83.8821 10.9905 83.4219 10.3106 83.1037 9.42045C82.7855 8.52652 82.6264 7.44697 82.6264 6.18182C82.6264 4.92424 82.7855 3.85038 83.1037 2.96023C83.4257 2.06629 83.8878 1.38447 84.4901 0.914772C85.0961 0.441287 85.8234 0.204545 86.6719 0.204545C87.5204 0.204545 88.2457 0.441287 88.848 0.914772C89.4541 1.38447 89.9162 2.06629 90.2344 2.96023C90.5563 3.85038 90.7173 4.92424 90.7173 6.18182C90.7173 7.44697 90.5582 8.52652 90.2401 9.42045C89.9219 10.3106 89.4616 10.9905 88.8594 11.4602C88.2571 11.9261 87.5279 12.1591 86.6719 12.1591ZM86.6719 10.9091C87.5204 10.9091 88.1795 10.5 88.6491 9.68182C89.1188 8.86364 89.3537 7.69697 89.3537 6.18182C89.3537 5.17424 89.2457 4.31629 89.0298 3.60795C88.8177 2.89962 88.5109 2.35985 88.1094 1.98864C87.7116 1.61742 87.2325 1.43182 86.6719 1.43182C85.831 1.43182 85.1738 1.84659 84.7003 2.67614C84.2268 3.50189 83.9901 4.67045 83.9901 6.18182C83.9901 7.18939 84.0961 8.04545 84.3082 8.75C84.5204 9.45455 84.8253 9.99053 85.223 10.358C85.6245 10.7254 86.1075 10.9091 86.6719 10.9091Z" fill="#45504E"/>
</svg>
