<svg width="51" height="47" fill="none" xmlns="http://www.w3.org/2000/svg"><mask id="a" fill="#fff"><path fill-rule="evenodd" clip-rule="evenodd" d="M12 46.1A32.7 32.7 0 0 1 0 22.7h50.8C50 32.6 45.5 41 38.8 46H12Z"/></mask><path fill-rule="evenodd" clip-rule="evenodd" d="M12 46.1A32.7 32.7 0 0 1 0 22.7h50.8C50 32.6 45.5 41 38.8 46H12Z" fill="#F5F5F5"/><path d="M0 22.7v-1h-1v1h1ZM12 46l-.6.8.2.2h.4v-1Zm38.8-23.4h1l.1-1h-1v1ZM38.8 46v1h.4l.3-.2-.6-.8ZM-1 22.8c.8 10.1 5.5 19 12.4 24.1l1.2-1.6A31.7 31.7 0 0 1 1 22.6l-2 .2Zm51.8-1.1H0v2h50.8v-2ZM39.5 46.9c6.8-5.2 11.5-14 12.3-24.1l-2-.2c-.7 9.7-5.2 18-11.5 22.7l1.2 1.6Zm-27.5.2h26.9v-2h-27v2Z" fill="#6C7484" mask="url(#a)"/><path fill-rule="evenodd" clip-rule="evenodd" d="M17 43.6a22.6 22.6 0 0 1-9.5-16.7h40.1A25.7 25.7 0 0 1 37 43.6H17Z" fill="#FFC6D1"/><mask id="b" fill="#fff"><path fill-rule="evenodd" clip-rule="evenodd" d="M13.5 43.6c-5.8-4-9.9-11-10.6-19h45c-.7 8-4.8 15-10.6 19H13.5Z"/></mask><path d="M3 24.6v-1H1.7l.1 1.1h1Zm10.5 19-.6.8.3.2h.3v-1Zm34.4-19 1 .1.1-1h-1v1Zm-10.6 19v1h.3l.3-.2-.6-.8ZM2 24.7c.8 8.3 5 15.5 11 19.7l1.2-1.6A24.8 24.8 0 0 1 3.9 24.5l-2 .2Zm46-1H3v2h45v-2ZM38 44.3c6-4.2 10.3-11.4 11-19.7l-2-.2a24.8 24.8 0 0 1-10.1 18.3l1.1 1.6Zm-24.4.2h23.8v-2H13.5v2Z" fill="#6C7484" mask="url(#b)"/><path d="M44.6 31.3c-.3.8-1.2 1.3-2 1a1.5 1.5 0 0 1-1-2 6.1 6.1 0 0 1 2.1-2.5l.5-.1c.1 0 .2 0 .4.4l.2 1c0 .8 0 1.7-.2 2.2ZM36.2 40.1 36 40v-.5l.6-1.4c.5-1 1.3-2.2 1.8-2.8a4 4 0 0 1 1.7-1.2h1c.2.2.4.6.3 1.2 0 .6-.4 1.3-.9 1.9l-.3.4-2.2 2.3c-.5.4-1 .6-1.3.7h-.2l-.3-.5ZM36 40Z" fill="#7AD0E0" stroke="#6C7484"/><path fill-rule="evenodd" clip-rule="evenodd" d="M35.8 4.3c-.8-.5-1.8-.3-2.3.4l-8.8 12.7c-3.4-.9-8 1.8-9.8 4.3-2 2.9-1.6 7.8 1.7 10v.1h.1c3.4 2.3 8.2 1 10.1-1.8 1.7-2.5 2.5-7.7.6-10.7l8.8-12.7c.6-.7.4-1.8-.4-2.3Zm-13.9 27a6 6 0 0 0 3.7-2.2 10.2 10.2 0 0 0 1.2-7.5c-.4 2.2-1.6 4.8-2.7 6.5-1 1.4-2.4 2.7-3.8 3.4l1.6-.1Zm-4.2-7.7c1.1-1.7 3.2-3.7 5.1-4.9l-2.2.6c-2 .8-3.7 2.1-4.5 3.3a6 6 0 0 0-.8 4.1c0 .6.2 1.2.4 1.7.2-1.5 1-3.3 2-4.8Zm-.5 5c-.2 1.3.2 1.9.3 2 .2.1.9.2 2.1-.4a9.8 9.8 0 0 0 3.3-3c.8-1.3 1.8-3.3 2.2-5.1a8 8 0 0 0 .3-2.3v-.5l-.5.1a8 8 0 0 0-2 1.1 18 18 0 0 0-4 4 10 10 0 0 0-1.7 4Z" fill="#6C7484"/></svg>