<svg width="16" height="23" viewBox="0 0 16 23" fill="none" xmlns="http://www.w3.org/2000/svg">
<path fill-rule="evenodd" clip-rule="evenodd" d="M14 7.90378C14 9.4387 13.03 11.5341 11.3584 14.1842C10.7049 15.2203 9.99675 16.2644 9.27288 17.3317L9.27264 17.332C9.10716 17.576 8.94085 17.8212 8.77419 18.0678C8.46682 18.5226 8.15868 18.9816 7.85626 19.4414C6.6692 17.8097 5.47193 16.0858 4.46042 14.3795C2.89792 11.7437 2 9.50267 2 7.90378C2 4.66596 4.66341 2 8 2C11.3366 2 14 4.66596 14 7.90378ZM10.9208 18.4651C10.304 19.3745 9.69173 20.2772 9.12365 21.1608C8.72238 21.7849 8.34316 22.3994 8 23C7.58444 22.4428 7.14929 21.8593 6.70577 21.2562C3.56323 16.9833 0 11.729 0 7.90378C0 3.53864 3.58172 0 8 0C12.4183 0 16 3.53864 16 7.90378C16 10.9766 13.4233 14.7756 10.9208 18.4651ZM8 12C10.2091 12 12 10.2091 12 8C12 5.79086 10.2091 4 8 4C5.79086 4 4 5.79086 4 8C4 10.2091 5.79086 12 8 12Z" fill="#4F9CAA"/>
</svg>
