<svg width="18" height="23" viewBox="0 0 18 23" fill="none" xmlns="http://www.w3.org/2000/svg">
<path d="M9.74247 4.98711C10.129 4.38275 10.8938 4.14335 11.5559 4.41948C12.3483 4.74993 13.077 5.21597 13.7093 5.79669C14.2377 6.28193 14.3412 7.0766 13.9547 7.68096L5.67029 20.6348L2.10674 21.5668L1.45806 17.941L9.74247 4.98711Z" fill="#4F9CAA"/>
<path d="M12.1669 1.19543C12.4664 0.727226 13.0575 0.539786 13.572 0.74992C14.5405 1.14544 15.429 1.71366 16.1942 2.42688C16.6008 2.8058 16.6786 3.42107 16.3792 3.88928L15.2506 5.65396C14.1459 4.35676 12.6793 3.41878 11.0384 2.96011L12.1669 1.19543Z" fill="#4F9CAA"/>
</svg>
