<svg width="112" height="13" viewBox="0 0 112 13" fill="none" xmlns="http://www.w3.org/2000/svg">
<path d="M5 12.1591C4.14394 12.1591 3.41477 11.9261 2.8125 11.4602C2.21023 10.9905 1.75 10.3106 1.43182 9.42045C1.11364 8.52652 0.954545 7.44697 0.954545 6.18182C0.954545 4.92424 1.11364 3.85038 1.43182 2.96023C1.75379 2.06629 2.21591 1.38447 2.81818 0.914772C3.42424 0.441287 4.15152 0.204545 5 0.204545C5.84848 0.204545 6.57386 0.441287 7.17614 0.914772C7.7822 1.38447 8.24432 2.06629 8.5625 2.96023C8.88447 3.85038 9.04545 4.92424 9.04545 6.18182C9.04545 7.44697 8.88636 8.52652 8.56818 9.42045C8.25 10.3106 7.78977 10.9905 7.1875 11.4602C6.58523 11.9261 5.85606 12.1591 5 12.1591ZM5 10.9091C5.84848 10.9091 6.50758 10.5 6.97727 9.68182C7.44697 8.86364 7.68182 7.69697 7.68182 6.18182C7.68182 5.17424 7.57386 4.31629 7.35795 3.60795C7.14583 2.89962 6.83902 2.35985 6.4375 1.98864C6.03977 1.61742 5.56061 1.43182 5 1.43182C4.15909 1.43182 3.50189 1.84659 3.02841 2.67614C2.55492 3.50189 2.31818 4.67045 2.31818 6.18182C2.31818 7.18939 2.42424 8.04545 2.63636 8.75C2.84848 9.45455 3.15341 9.99053 3.55114 10.358C3.95265 10.7254 4.43561 10.9091 5 10.9091ZM15.2955 0.363636V12H13.8864V1.84091H13.8182L10.9773 3.72727V2.29545L13.8864 0.363636H15.2955ZM22.4375 12.1591C21.5814 12.1591 20.8523 11.9261 20.25 11.4602C19.6477 10.9905 19.1875 10.3106 18.8693 9.42045C18.5511 8.52652 18.392 7.44697 18.392 6.18182C18.392 4.92424 18.5511 3.85038 18.8693 2.96023C19.1913 2.06629 19.6534 1.38447 20.2557 0.914772C20.8617 0.441287 21.589 0.204545 22.4375 0.204545C23.286 0.204545 24.0114 0.441287 24.6136 0.914772C25.2197 1.38447 25.6818 2.06629 26 2.96023C26.322 3.85038 26.483 4.92424 26.483 6.18182C26.483 7.44697 26.3239 8.52652 26.0057 9.42045C25.6875 10.3106 25.2273 10.9905 24.625 11.4602C24.0227 11.9261 23.2936 12.1591 22.4375 12.1591ZM22.4375 10.9091C23.286 10.9091 23.9451 10.5 24.4148 9.68182C24.8845 8.86364 25.1193 7.69697 25.1193 6.18182C25.1193 5.17424 25.0114 4.31629 24.7955 3.60795C24.5833 2.89962 24.2765 2.35985 23.875 1.98864C23.4773 1.61742 22.9981 1.43182 22.4375 1.43182C21.5966 1.43182 20.9394 1.84659 20.4659 2.67614C19.9924 3.50189 19.7557 4.67045 19.7557 6.18182C19.7557 7.18939 19.8617 8.04545 20.0739 8.75C20.286 9.45455 20.5909 9.99053 20.9886 10.358C21.3902 10.7254 21.8731 10.9091 22.4375 10.9091ZM33.5057 12L38.7102 1.70455V1.61364H32.7102V0.363636H40.1648V1.68182L34.983 12H33.5057ZM46.3736 0.363636V12H44.9645V1.84091H44.8963L42.0554 3.72727V2.29545L44.9645 0.363636H46.3736ZM53.652 12.1591C52.902 12.1591 52.2334 12.0303 51.6463 11.7727C51.063 11.5152 50.599 11.1572 50.2543 10.6989C49.9134 10.2367 49.7277 9.70076 49.6974 9.09091H51.1293C51.1596 9.46591 51.2884 9.78977 51.5156 10.0625C51.7429 10.3314 52.0402 10.5398 52.4077 10.6875C52.7751 10.8352 53.1823 10.9091 53.6293 10.9091C54.1293 10.9091 54.5724 10.822 54.9588 10.6477C55.3452 10.4735 55.6482 10.2311 55.8679 9.92045C56.0876 9.60985 56.1974 9.25 56.1974 8.84091C56.1974 8.41288 56.0914 8.03598 55.8793 7.71023C55.6671 7.38068 55.3565 7.12311 54.9474 6.9375C54.5384 6.75189 54.0384 6.65909 53.4474 6.65909H52.5156V5.40909H53.4474C53.9096 5.40909 54.3149 5.32576 54.6634 5.15909C55.0156 4.99242 55.2902 4.75758 55.4872 4.45455C55.688 4.15152 55.7884 3.79545 55.7884 3.38636C55.7884 2.99242 55.7012 2.64962 55.527 2.35795C55.3527 2.06629 55.1065 1.83901 54.7884 1.67614C54.474 1.51326 54.1027 1.43182 53.6747 1.43182C53.2732 1.43182 52.8944 1.50568 52.5384 1.65341C52.1861 1.79735 51.8982 2.00758 51.6747 2.28409C51.4512 2.55682 51.33 2.88636 51.3111 3.27273H49.9474C49.9702 2.66288 50.1539 2.12879 50.4986 1.67045C50.8433 1.20833 51.294 0.848484 51.8509 0.590909C52.4115 0.333333 53.027 0.204545 53.6974 0.204545C54.4171 0.204545 55.0346 0.350378 55.5497 0.642045C56.0649 0.929924 56.4607 1.31061 56.7372 1.78409C57.0137 2.25758 57.152 2.76894 57.152 3.31818C57.152 3.97348 56.9796 4.5322 56.6349 4.99432C56.294 5.45644 55.83 5.77652 55.2429 5.95455V6.04545C55.9777 6.16667 56.5516 6.47917 56.9645 6.98295C57.3774 7.48295 57.5838 8.10227 57.5838 8.84091C57.5838 9.47348 57.4115 10.0417 57.0668 10.5455C56.7259 11.0455 56.2599 11.4394 55.669 11.7273C55.0781 12.0152 54.4058 12.1591 53.652 12.1591ZM63.7031 12.1591C62.8471 12.1591 62.1179 11.9261 61.5156 11.4602C60.9134 10.9905 60.4531 10.3106 60.1349 9.42045C59.8168 8.52652 59.6577 7.44697 59.6577 6.18182C59.6577 4.92424 59.8168 3.85038 60.1349 2.96023C60.4569 2.06629 60.919 1.38447 61.5213 0.914772C62.1274 0.441287 62.8546 0.204545 63.7031 0.204545C64.5516 0.204545 65.277 0.441287 65.8793 0.914772C66.4853 1.38447 66.9474 2.06629 67.2656 2.96023C67.5876 3.85038 67.7486 4.92424 67.7486 6.18182C67.7486 7.44697 67.5895 8.52652 67.2713 9.42045C66.9531 10.3106 66.4929 10.9905 65.8906 11.4602C65.2884 11.9261 64.5592 12.1591 63.7031 12.1591ZM63.7031 10.9091C64.5516 10.9091 65.2107 10.5 65.6804 9.68182C66.1501 8.86364 66.3849 7.69697 66.3849 6.18182C66.3849 5.17424 66.277 4.31629 66.0611 3.60795C65.849 2.89962 65.5421 2.35985 65.1406 1.98864C64.7429 1.61742 64.2637 1.43182 63.7031 1.43182C62.8622 1.43182 62.205 1.84659 61.7315 2.67614C61.258 3.50189 61.0213 4.67045 61.0213 6.18182C61.0213 7.18939 61.1274 8.04545 61.3395 8.75C61.5516 9.45455 61.8565 9.99053 62.2543 10.358C62.6558 10.7254 63.1387 10.9091 63.7031 10.9091ZM78.3395 12.1591C77.5895 12.1591 76.9209 12.0303 76.3338 11.7727C75.7505 11.5152 75.2865 11.1572 74.9418 10.6989C74.6009 10.2367 74.4152 9.70076 74.3849 9.09091H75.8168C75.8471 9.46591 75.9759 9.78977 76.2031 10.0625C76.4304 10.3314 76.7277 10.5398 77.0952 10.6875C77.4626 10.8352 77.8698 10.9091 78.3168 10.9091C78.8168 10.9091 79.2599 10.822 79.6463 10.6477C80.0327 10.4735 80.3357 10.2311 80.5554 9.92045C80.7751 9.60985 80.8849 9.25 80.8849 8.84091C80.8849 8.41288 80.7789 8.03598 80.5668 7.71023C80.3546 7.38068 80.044 7.12311 79.6349 6.9375C79.2259 6.75189 78.7259 6.65909 78.1349 6.65909H77.2031V5.40909H78.1349C78.5971 5.40909 79.0024 5.32576 79.3509 5.15909C79.7031 4.99242 79.9777 4.75758 80.1747 4.45455C80.3755 4.15152 80.4759 3.79545 80.4759 3.38636C80.4759 2.99242 80.3887 2.64962 80.2145 2.35795C80.0402 2.06629 79.794 1.83901 79.4759 1.67614C79.1615 1.51326 78.7902 1.43182 78.3622 1.43182C77.9607 1.43182 77.5819 1.50568 77.2259 1.65341C76.8736 1.79735 76.5857 2.00758 76.3622 2.28409C76.1387 2.55682 76.0175 2.88636 75.9986 3.27273H74.6349C74.6577 2.66288 74.8414 2.12879 75.1861 1.67045C75.5308 1.20833 75.9815 0.848484 76.5384 0.590909C77.099 0.333333 77.7145 0.204545 78.3849 0.204545C79.1046 0.204545 79.7221 0.350378 80.2372 0.642045C80.7524 0.929924 81.1482 1.31061 81.4247 1.78409C81.7012 2.25758 81.8395 2.76894 81.8395 3.31818C81.8395 3.97348 81.6671 4.5322 81.3224 4.99432C80.9815 5.45644 80.5175 5.77652 79.9304 5.95455V6.04545C80.6652 6.16667 81.2391 6.47917 81.652 6.98295C82.0649 7.48295 82.2713 8.10227 82.2713 8.84091C82.2713 9.47348 82.099 10.0417 81.7543 10.5455C81.4134 11.0455 80.9474 11.4394 80.3565 11.7273C79.7656 12.0152 79.0933 12.1591 78.3395 12.1591ZM88.527 12.1591C87.777 12.1591 87.1084 12.0303 86.5213 11.7727C85.938 11.5152 85.474 11.1572 85.1293 10.6989C84.7884 10.2367 84.6027 9.70076 84.5724 9.09091H86.0043C86.0346 9.46591 86.1634 9.78977 86.3906 10.0625C86.6179 10.3314 86.9152 10.5398 87.2827 10.6875C87.6501 10.8352 88.0573 10.9091 88.5043 10.9091C89.0043 10.9091 89.4474 10.822 89.8338 10.6477C90.2202 10.4735 90.5232 10.2311 90.7429 9.92045C90.9626 9.60985 91.0724 9.25 91.0724 8.84091C91.0724 8.41288 90.9664 8.03598 90.7543 7.71023C90.5421 7.38068 90.2315 7.12311 89.8224 6.9375C89.4134 6.75189 88.9134 6.65909 88.3224 6.65909H87.3906V5.40909H88.3224C88.7846 5.40909 89.1899 5.32576 89.5384 5.15909C89.8906 4.99242 90.1652 4.75758 90.3622 4.45455C90.563 4.15152 90.6634 3.79545 90.6634 3.38636C90.6634 2.99242 90.5762 2.64962 90.402 2.35795C90.2277 2.06629 89.9815 1.83901 89.6634 1.67614C89.349 1.51326 88.9777 1.43182 88.5497 1.43182C88.1482 1.43182 87.7694 1.50568 87.4134 1.65341C87.0611 1.79735 86.7732 2.00758 86.5497 2.28409C86.3262 2.55682 86.205 2.88636 86.1861 3.27273H84.8224C84.8452 2.66288 85.0289 2.12879 85.3736 1.67045C85.7183 1.20833 86.169 0.848484 86.7259 0.590909C87.2865 0.333333 87.902 0.204545 88.5724 0.204545C89.2921 0.204545 89.9096 0.350378 90.4247 0.642045C90.9399 0.929924 91.3357 1.31061 91.6122 1.78409C91.8887 2.25758 92.027 2.76894 92.027 3.31818C92.027 3.97348 91.8546 4.5322 91.5099 4.99432C91.169 5.45644 90.705 5.77652 90.1179 5.95455V6.04545C90.8527 6.16667 91.4266 6.47917 91.8395 6.98295C92.2524 7.48295 92.4588 8.10227 92.4588 8.84091C92.4588 9.47348 92.2865 10.0417 91.9418 10.5455C91.6009 11.0455 91.1349 11.4394 90.544 11.7273C89.9531 12.0152 89.2808 12.1591 88.527 12.1591ZM95.1463 12L100.351 1.70455V1.61364H94.3509V0.363636H101.805V1.68182L96.6236 12H95.1463ZM107.403 12.1591C106.737 12.1591 106.136 12.0265 105.602 11.7614C105.068 11.4962 104.64 11.1326 104.318 10.6705C103.996 10.2083 103.82 9.68182 103.79 9.09091H105.153C105.206 9.61742 105.445 10.053 105.869 10.3977C106.297 10.7386 106.809 10.9091 107.403 10.9091C107.881 10.9091 108.305 10.7973 108.676 10.5739C109.051 10.3504 109.345 10.0436 109.557 9.65341C109.773 9.25947 109.881 8.81439 109.881 8.31818C109.881 7.81061 109.769 7.35795 109.545 6.96023C109.326 6.55871 109.023 6.24242 108.636 6.01136C108.25 5.7803 107.809 5.66288 107.312 5.65909C106.956 5.6553 106.591 5.71023 106.216 5.82386C105.841 5.93371 105.532 6.07576 105.29 6.25L103.972 6.09091L104.676 0.363636H110.722V1.61364H105.858L105.449 5.04545H105.517C105.756 4.85606 106.055 4.69886 106.415 4.57386C106.775 4.44886 107.15 4.38636 107.54 4.38636C108.252 4.38636 108.886 4.55682 109.443 4.89773C110.004 5.23485 110.443 5.69697 110.761 6.28409C111.083 6.87121 111.244 7.54167 111.244 8.29545C111.244 9.03788 111.078 9.70076 110.744 10.2841C110.415 10.8636 109.96 11.322 109.381 11.6591C108.801 11.9924 108.142 12.1591 107.403 12.1591Z" fill="#45504E"/>
</svg>
