<svg width="92" height="16" viewBox="0 0 92 16" fill="none" xmlns="http://www.w3.org/2000/svg">
<path d="M2.384 10.928V15.056H12.256V10.928H2.384ZM10.96 11.952V14.048H3.696V11.952H10.96ZM1.472 1.968V3.008H13.104V1.968H1.472ZM7.328 3.584C4.336 3.584 2.656 4.288 2.656 5.632C2.656 6.976 4.336 7.68 7.328 7.68C10.304 7.68 12 6.976 12 5.632C12 4.288 10.304 3.584 7.328 3.584ZM7.328 4.512C9.408 4.512 10.576 4.912 10.576 5.632C10.576 6.352 9.408 6.752 7.328 6.752C5.232 6.752 4.064 6.352 4.064 5.632C4.064 4.912 5.232 4.512 7.328 4.512ZM6.672 0.575999V2.64H7.984V0.575999H6.672ZM0.784 8.784V9.824H13.856V8.784H0.784ZM6.672 7.36V9.36H7.984V7.36H6.672ZM26.5908 0.783999V15.248H27.8708V0.783999H26.5908ZM21.8228 6.288V7.456H24.2228V6.288H21.8228ZM23.7908 1.136V14.496H25.0548V1.136H23.7908ZM15.6468 2.608V3.696H22.2548V2.608H15.6468ZM15.5188 11.696C17.3748 11.696 20.3988 11.632 22.6548 11.2L22.5588 10.224C20.3668 10.512 17.2308 10.576 15.3588 10.576L15.5188 11.696ZM16.8307 3.312V10.88H18.0468V3.312H16.8307ZM19.8388 3.312V10.88H21.0548V3.312H19.8388ZM40.7335 0.768V15.264H42.0615V0.768H40.7335ZM34.4295 1.888C32.3015 1.888 30.7655 3.856 30.7655 6.928C30.7655 10.016 32.3015 11.984 34.4295 11.984C36.5735 11.984 38.1095 10.016 38.1095 6.928C38.1095 3.856 36.5735 1.888 34.4295 1.888ZM34.4295 3.088C35.8535 3.088 36.8295 4.592 36.8295 6.928C36.8295 9.28 35.8535 10.816 34.4295 10.816C33.0215 10.816 32.0295 9.28 32.0295 6.928C32.0295 4.592 33.0215 3.088 34.4295 3.088ZM48.7803 2.848V5.2C48.7803 7.696 47.0363 10.416 44.9403 11.408L45.7083 12.464C48.0123 11.328 49.8523 8.256 49.8523 5.2V2.848H48.7803ZM49.0363 2.848V5.2C49.0363 8.208 50.8923 11.024 53.2283 12.112L53.9803 11.056C51.8523 10.144 50.1083 7.648 50.1083 5.2V2.848H49.0363ZM45.4203 2.256V3.376H53.5003V2.256H45.4203ZM55.4523 0.783999V15.248H56.7803V0.783999H55.4523ZM69.967 2.208V2.816C69.967 4.72 67.487 6.384 64.943 6.752L65.455 7.808C68.367 7.312 71.119 5.408 71.119 2.816V2.208H69.967ZM70.303 2.208V2.816C70.303 5.408 73.039 7.312 75.967 7.808L76.463 6.752C73.935 6.384 71.439 4.72 71.439 2.816V2.208H70.303ZM70.015 9.728V15.248H71.327V9.728H70.015ZM64.175 9.024V10.112H77.247V9.024H64.175ZM65.391 1.68V2.752H75.983V1.68H65.391ZM78.8938 12.272V13.376H91.9978V12.272H78.8938ZM84.7178 8.768V12.64H86.0298V8.768H84.7178ZM84.6858 1.744V2.864C84.6858 5.248 81.9498 7.376 79.4058 7.84L79.9658 8.944C82.8778 8.336 85.8378 5.952 85.8378 2.864V1.744H84.6858ZM84.9258 1.744V2.864C84.9258 5.952 87.8858 8.336 90.7978 8.944L91.3738 7.84C88.8298 7.376 86.0778 5.264 86.0778 2.864V1.744H84.9258Z" fill="#45504E"/>
</svg>
