<svg width="253" height="323" fill="none" xmlns="http://www.w3.org/2000/svg"><g filter="url(#a)"><rect x="47.1" y="172.78" width="201.91" height="144.32" rx="50" transform="rotate(.4 47.1 172.78)" fill="#C0959A"/></g><rect x="45.02" y="170" width="201.91" height="144.32" rx="50" transform="rotate(.4 45.02 170)" fill="#ABE3DB"/><path stroke="#56446C" stroke-width="5" d="m.37 113.79 40.29.29M38.15 115.7l.78-110.58M37.16 2.61l100.3.71M135.66 4.95l-1.15 162.87"/><g filter="url(#b)"><rect x="98.16" y="153.37" width="77.18" height="109.27" rx="38.59" transform="rotate(.4 98.16 153.37)" fill="#82ADA7"/></g><rect x="96.29" y="146.13" width="77.18" height="109.27" rx="38.59" transform="rotate(.4 96.29 146.13)" fill="#FDFBF7"/><rect x="129.41" y="164.29" width="12.23" height="32.86" rx="6.11" transform="rotate(.4 129.41 164.29)" fill="#56446C"/><defs><filter id="a" x="42.43" y="169.13" width="210.22" height="153.03" filterUnits="userSpaceOnUse" color-interpolation-filters="sRGB"><feFlood flood-opacity="0" result="BackgroundImageFix"/><feBlend in="SourceGraphic" in2="BackgroundImageFix" result="shape"/><feGaussianBlur stdDeviation="2" result="effect1_foregroundBlur_2_2421"/></filter><filter id="b" x="92.66" y="148.64" width="87.4" height="119.27" filterUnits="userSpaceOnUse" color-interpolation-filters="sRGB"><feFlood flood-opacity="0" result="BackgroundImageFix"/><feBlend in="SourceGraphic" in2="BackgroundImageFix" result="shape"/><feGaussianBlur stdDeviation="2.5" result="effect1_foregroundBlur_2_2421"/></filter></defs></svg>