<svg width="79" height="68" fill="none" xmlns="http://www.w3.org/2000/svg"><g filter="url(#a)"><path d="M11 42c-5-3-7-9-5-14l7-14c2-5 8-7 13-4l52 24-15 32-52-24Z" fill="#C0959A"/></g><path d="M9 36c-5-2-7-8-5-13l7-14c2-5 8-7 13-5l52 25-15 32L9 36Z" fill="#FFFCFF"/><path d="m24 44 16-32 36 17-15 32-37-17Z" fill="#ABE3DB"/><defs><filter id="a" x="4.3" y="7.6" width="74.6" height="59.7" filterUnits="userSpaceOnUse" color-interpolation-filters="sRGB"><feFlood flood-opacity="0" result="BackgroundImageFix"/><feBlend in="SourceGraphic" in2="BackgroundImageFix" result="shape"/><feGaussianBlur stdDeviation=".5" result="effect1_foregroundBlur_2_2721"/></filter></defs></svg>