<svg width="166" height="237" fill="none" xmlns="http://www.w3.org/2000/svg"><g filter="url(#a)"><path fill="#927376" d="m24.08 39.09 124.92.88-1.1 157.04-124.93-.88z"/></g><path fill="#2DA57F" d="m20.11 35.11 124.92.88-1.1 157.04L19 192.15z"/><g filter="url(#b)"><path fill="#1C634C" d="m25.6 36.7 116 .82-1.03 146.33-116-.81z"/></g><path fill="#F8F8F1" d="m24.01 34.32 116 .82-1.03 146.33-116-.81z"/><g filter="url(#c)"><path fill="#BABABA" d="m25.6 34.32 116 .82-1.03 146.33-116-.81z"/></g><path fill="#F8F8F1" d="m24.01 31.14 116 .82-1.03 146.33-116-.81z"/><g filter="url(#d)"><path fill="#BABABA" d="m25.6 31.14 116 .82-1.03 146.33-116-.81z"/></g><path fill="#F8F8F1" d="m24.01 27.95 116 .82-1.03 146.33-116-.81z"/><circle cx="47.7" cy="37.41" r="4.02" transform="rotate(.4 47.7 37.4)" fill="#22255F"/><circle cx="70.08" cy="37.57" r="4.02" transform="rotate(.4 70.08 37.57)" fill="#22255F"/><circle cx="116.33" cy="37.89" r="4.02" transform="rotate(.4 116.33 37.9)" fill="#22255F"/><circle cx="93.2" cy="37.73" r="4.02" transform="rotate(.4 93.2 37.73)" fill="#22255F"/><path stroke="#747474" stroke-width="3" d="m47.98 20.01-.12 16.95M70.29 20.17l-.12 16.95M93.49 20.33l-.12 16.95M116.69 20.49l-.12 16.96"/><g filter="url(#e)"><path fill-rule="evenodd" clip-rule="evenodd" d="m146.14 76.72-1.33.44-28.97 39.24L46 210.85l4.74-1.3h.44l.12-.15.3-.08v4.27l4.95-.78v5.75l97.58-135.18v-3.05l-2.34-3.1-3.6-1.09.11-.14-.27.1-.12-.04-1.77.66Z" fill="#C0959A"/></g><path d="m33.83 230.63 7.32-22.22 10.97 9.25-18.3 12.97Z" fill="#FDDDC0"/><path fill="#FDDDC0" d="m47.12 200.25 10.96 9.35-6.03 8.2-10.97-9.35z"/><path d="m151.95 58.37 3.43-1.28 4.3 1.28 2.57 3.44v3.37L54.4 214.58v-6.35l-5.47.86v-4.72l-6.2 1.7 109.2-147.7Z" fill="#F2AD8B"/><path d="M35.66 223.94h2.58l-.43 3.44-4.3 3.43 2.15-6.87Z" fill="#56446C"/><path d="m38.19 223.99-.43 3.86-4.29 3 4.72-6.86Z" fill="#332E38"/><path d="m151.95 58.31 3.86-1.28-107.33 147.6h-.8l-4.72 1.3L151.95 58.3Z" fill="#FFCDB5"/><path d="M162.25 61.75v3.86L54.12 214.93l.43-5.58v-1.28l107.7-146.32Z" fill="#D08966"/><path d="m44.68 205.5 4.29-1.3v4.73L38.43 223.9h-2.77l9.02-18.42Z" fill="#FFEDDD"/><path d="m40.82 208.74 2.14-2.82 1.72-.43-8.16 16.74 4.3-13.5Z" fill="#fff"/><g filter="url(#f)"><path fill-rule="evenodd" clip-rule="evenodd" d="m135.23 32.72 1.42-.31 1.89-.5.11.05.29-.06-.12.13 3.56 1.56 2.02 3.5.03-.03-.4 3.68L41.61 156.7l-12.8 14.54v-.05l-.3.35.34-1.88-4.65 5.19-9.22-10.04 6.43-7.18.66.73 77.97-86.54 35.19-39.1ZM29.34 166.28l.12-1.07-1.06.05.94 1.02Zm-4.59-5 .04-.32-.29.05.25.27Z" fill="#C0959A"/></g><path d="m6.88 176.29 9.54-21.35 9.98 10.32-19.52 11.03Z" fill="#FDDDC0"/><path fill="#FDDDC0" d="m23.19 147.43 9.96 10.4-6.84 7.55-9.96-10.41z"/><path d="m141.92 16.96 3.55-.93 4.13 1.71 2.22 3.68-.35 3.35L29 162.43l.64-6.32-5.52.3.48-4.7-6.34 1.06L141.92 16.96Z" fill="#4DB2DE"/><path d="m9.39 169.83 2.56.26-.78 3.37-4.62 2.98 2.84-6.6Z" fill="#56446C"/><path d="m12.01 169.92-.85 3.86-4.6 2.66 5.45-6.52Z" fill="#332E38"/><path d="m141.93 16.9 3.97-.9L24.1 151.94l-.8-.09-4.82.8L141.93 16.9Z" fill="#95DAF9"/><path d="m151.82 21.36-.39 3.84L28.66 162.74l1-5.5.13-1.28 122.03-134.6Z" fill="#398AAD"/><path d="m20.23 152.4 4.4-.85-.48 4.7-12 13.82-2.76-.28 10.84-17.4Z" fill="#FFEDDD"/><path d="m16.07 155.23 2.4-2.58 1.76-.26-9.81 15.82 5.65-12.98Z" fill="#fff"/><defs><filter id="a" x="18.98" y="35.09" width="134.02" height="165.92" filterUnits="userSpaceOnUse" color-interpolation-filters="sRGB"><feFlood flood-opacity="0" result="BackgroundImageFix"/><feBlend in="SourceGraphic" in2="BackgroundImageFix" result="shape"/><feGaussianBlur stdDeviation="2" result="effect1_foregroundBlur_2_2459"/></filter><filter id="b" x="20.57" y="32.7" width="125.03" height="155.15" filterUnits="userSpaceOnUse" color-interpolation-filters="sRGB"><feFlood flood-opacity="0" result="BackgroundImageFix"/><feBlend in="SourceGraphic" in2="BackgroundImageFix" result="shape"/><feGaussianBlur stdDeviation="2" result="effect1_foregroundBlur_2_2459"/></filter><filter id="c" x="20.57" y="30.32" width="125.03" height="155.15" filterUnits="userSpaceOnUse" color-interpolation-filters="sRGB"><feFlood flood-opacity="0" result="BackgroundImageFix"/><feBlend in="SourceGraphic" in2="BackgroundImageFix" result="shape"/><feGaussianBlur stdDeviation="2" result="effect1_foregroundBlur_2_2459"/></filter><filter id="d" x="20.57" y="27.14" width="125.03" height="155.15" filterUnits="userSpaceOnUse" color-interpolation-filters="sRGB"><feFlood flood-opacity="0" result="BackgroundImageFix"/><feBlend in="SourceGraphic" in2="BackgroundImageFix" result="shape"/><feGaussianBlur stdDeviation="2" result="effect1_foregroundBlur_2_2459"/></filter><filter id="e" x="42" y="72" width="116.13" height="150.56" filterUnits="userSpaceOnUse" color-interpolation-filters="sRGB"><feFlood flood-opacity="0" result="BackgroundImageFix"/><feBlend in="SourceGraphic" in2="BackgroundImageFix" result="shape"/><feGaussianBlur stdDeviation="2" result="effect1_foregroundBlur_2_2459"/></filter><filter id="f" x="10.98" y="27.9" width="137.45" height="150.96" filterUnits="userSpaceOnUse" color-interpolation-filters="sRGB"><feFlood flood-opacity="0" result="BackgroundImageFix"/><feBlend in="SourceGraphic" in2="BackgroundImageFix" result="shape"/><feGaussianBlur stdDeviation="2" result="effect1_foregroundBlur_2_2459"/></filter></defs></svg>