<svg width="173" height="213" fill="none" xmlns="http://www.w3.org/2000/svg"><g filter="url(#a)"><path d="M6 21 144 7c5 0 10 4 10 9l17 171c1 6-3 11-9 11L25 212 6 21Z" fill="#C0959A"/></g><path d="M0 14 137 1c6-1 11 3 11 9l17 171c0 6-4 11-9 11L19 205 0 14Z" fill="#7AD0E0"/><path fill="#70C1D0" d="M14 14h4l19 191h-4z"/><g filter="url(#b)"><path fill="#5C9DA9" d="m125 2 10-1 19 192-10 1z"/></g><path fill="#7290C4" d="m123 2 10-1 19 192-10 1z"/><path fill="#BDB7AB" d="m43 40 72-7 3 32-72 7z"/><g filter="url(#c)"><path fill="#F9F0E1" d="m43 44 72-7 2 28-71 7z"/></g><defs><filter id="a" x="5.3" y="6.2" width="167" height="206.6" filterUnits="userSpaceOnUse" color-interpolation-filters="sRGB"><feFlood flood-opacity="0" result="BackgroundImageFix"/><feBlend in="SourceGraphic" in2="BackgroundImageFix" result="shape"/><feGaussianBlur stdDeviation=".5" result="effect1_foregroundBlur_2_2713"/></filter><filter id="b" x="123.9" y=".5" width="30.5" height="194.6" filterUnits="userSpaceOnUse" color-interpolation-filters="sRGB"><feFlood flood-opacity="0" result="BackgroundImageFix"/><feBlend in="SourceGraphic" in2="BackgroundImageFix" result="shape"/><feGaussianBlur stdDeviation=".5" result="effect1_foregroundBlur_2_2713"/></filter><filter id="c" x="42.1" y="35.9" width="76.3" height="37.3" filterUnits="userSpaceOnUse" color-interpolation-filters="sRGB"><feFlood flood-opacity="0" result="BackgroundImageFix"/><feBlend in="SourceGraphic" in2="BackgroundImageFix" result="shape"/><feGaussianBlur stdDeviation=".5" result="effect1_foregroundBlur_2_2713"/></filter></defs></svg>