<svg width="588" height="504" fill="none" xmlns="http://www.w3.org/2000/svg"><g filter="url(#a)"><rect x="64.472" y="300.846" width="494.147" height="194.203" rx="10" transform="rotate(.404 64.472 300.846)" fill="#C0959A"/></g><rect x="59.438" y="299.441" width="494.147" height="188.766" rx="10" transform="rotate(.404 59.438 299.441)" fill="#FDFBF7"/><g filter="url(#b)"><path d="M24.705 144.552c-1.427-6.285 3.377-12.26 9.822-12.215l537.648 3.788c6.186.044 10.849 5.636 9.779 11.729l-26.361 150.127a9.998 9.998 0 0 1-9.919 8.27l-477.09-3.361a10 10 0 0 1-9.681-7.785L24.705 144.552Z" fill="#C0959A"/></g><path d="M20.994 140.324c-1.428-6.286 3.376-12.261 9.822-12.215l537.648 3.788c6.186.043 10.848 5.636 9.779 11.729l-26.361 150.126a10 10 0 0 1-9.92 8.271l-477.09-3.361a10 10 0 0 1-9.68-7.785L20.993 140.324Z" fill="#FDFBF7"/><path d="m40.693 144.799 520.134 3.664-27.449 143.389H73.57L40.693 144.799Z" fill="#56446C"/><path fill="#BFDEE7" d="m83.386 327.897 21.646.152-.152 21.647-21.646-.153zM309.261 329.488l21.646.152-.152 21.647-21.646-.153zM196.323 328.692l21.646.152-.152 21.647-21.646-.153z"/><path fill="#C7B17B" d="m422.198 330.284 21.646.152-.152 21.647-21.646-.153z"/><g filter="url(#c)"><path fill="#FFDE8D" d="m422.176 333.452 21.646.152-.13 18.478-21.646-.152z"/></g><path fill="#BFDEE7" d="m139.854 328.294 21.646.152-.152 21.647-21.646-.153zM365.729 329.886l21.646.152-.152 21.647-21.646-.153zM252.792 329.09l21.646.152-.152 21.647-21.646-.153zM478.666 330.682l21.646.152-.152 21.647-21.646-.153zM111.622 328.096l21.646.152-.152 21.647-21.646-.153zM337.496 329.687l21.646.152-.152 21.647-21.646-.153zM224.559 328.892l21.646.152-.152 21.647-21.646-.153zM450.434 330.483l21.646.152-.152 21.647-21.646-.153zM168.09 328.494l21.646.152-.152 21.647-21.646-.153zM393.964 330.085l21.646.152-.152 21.647-21.646-.153zM281.027 329.289l21.646.152-.152 21.647-21.646-.153zM506.902 330.881l21.646.152-.152 21.647-21.646-.153z"/><path fill="#C3AA6C" d="m83.181 357.072 33.881.239-.152 21.646-33.881-.239z"/><g filter="url(#d)"><path fill="#FFDE8D" d="m83.162 359.758 33.881.239-.133 18.96-33.882-.238z"/></g><path fill="#BFDEE7" d="m293.055 358.55 21.646.152-.152 21.647-21.646-.153zM180.119 357.755l21.646.152-.152 21.647-21.646-.153zM405.993 359.347l21.646.152-.152 21.647-21.646-.153zM123.651 357.358l21.646.152-.152 21.647-21.646-.153zM349.526 358.949l21.646.152-.152 21.647-21.646-.153zM236.588 358.153l21.646.152-.152 21.647-21.646-.153zM434.228 359.545l50.822.358-.153 21.647-50.821-.359zM321.29 358.749l21.646.152-.152 21.647-21.646-.153zM208.353 357.955l21.646.152-.152 21.647-21.646-.153zM151.884 357.556l21.646.152-.152 21.647-21.646-.153zM377.759 359.148l21.646.152-.152 21.647-21.646-.153zM264.821 358.352l21.646.152-.152 21.647-21.646-.153zM491.637 359.95l36.705.259-.152 21.646-36.705-.259zM82.982 385.306l42.35.298-.152 21.647-42.35-.299zM301.327 386.844l21.646.152-.152 21.647-21.646-.153zM188.39 386.049l21.646.152-.152 21.647-21.646-.153zM414.265 387.64l21.646.152-.152 21.647-21.646-.153zM131.922 385.651l21.646.152-.152 21.647-21.646-.153zM357.797 387.242l21.646.152-.152 21.647-21.646-.153zM244.859 386.446l21.646.152-.152 21.647-21.646-.153zM329.562 387.043l21.646.152-.152 21.647-21.646-.153zM216.625 386.247l21.646.152-.152 21.647-21.646-.153zM442.499 387.839l29.175.206-.152 21.646-29.175-.206zM160.156 385.85l21.646.152-.152 21.647-21.646-.153zM386.03 387.441l21.646.152-.152 21.647-21.646-.153zM273.093 386.645l21.646.152-.152 21.647-21.646-.153zM82.784 413.54l49.88.351-.152 21.647-49.88-.352zM308.658 415.132l21.646.152-.152 21.647-21.646-.153zM195.721 414.336l21.646.152-.152 21.647-21.646-.153zM421.595 415.927l21.646.152-.152 21.647-21.646-.153zM449.83 416.126l21.646.152-.152 21.647-21.646-.153zM478.062 416.325l21.646.152-.152 21.647-21.646-.153zM139.252 413.938l21.646.152-.152 21.647-21.646-.153zM365.125 415.53l21.646.152-.152 21.647-21.646-.153zM252.189 414.734l21.646.152-.152 21.647-21.646-.153zM336.893 415.33l21.646.152-.152 21.647-21.646-.153zM223.954 414.535l21.646.152-.152 21.647-21.646-.153z"/><path fill-rule="evenodd" clip-rule="evenodd" d="m528.145 388.442-49.881-.352-.152 21.647 28.233.199-.199 28.234 21.646.152.199-28.234h.001l.153-21.646Z" fill="#C7B17B"/><g filter="url(#e)"><path fill-rule="evenodd" clip-rule="evenodd" d="m527.821 391.242-49.034-.345-.131 18.732 27.967.197-.199 28.278 21.065.148.2-28.278.132-18.732Z" fill="#FFDE8D"/></g><path fill="#BFDEE7" d="m167.485 414.137 21.646.152-.152 21.647-21.646-.153zM393.362 415.729l21.646.152-.152 21.647-21.646-.153zM280.423 414.933l21.646.152-.152 21.647-21.646-.153zM82.592 440.833l21.646.153-.152 21.646-21.646-.153z"/><path fill="#C3AA6C" d="m195.528 441.63 134.584.948-.153 21.647-134.583-.949z"/><g filter="url(#f)"><path fill="#FFDE8D" d="m196.516 444.636 132.59.934-.132 18.648-132.59-.934z"/></g><path fill="#BFDEE7" d="m421.402 443.222 21.646.152-.152 21.647-21.646-.153zM139.06 441.232l21.646.152-.152 21.647-21.646-.153zM364.934 442.823l21.646.152-.152 21.647-21.646-.153zM477.872 443.619l21.646.152-.152 21.647-21.646-.153zM110.826 441.034l21.646.152-.152 21.647-21.646-.153zM336.701 442.625l21.646.152-.152 21.647-21.646-.153zM449.638 443.42l21.646.152-.152 21.647-21.646-.153zM167.294 441.431l21.646.152-.152 21.647-21.646-.153zM393.169 443.022l21.646.152-.152 21.647-21.646-.153zM506.106 443.818l21.646.152-.152 21.647-21.646-.153z"/><g filter="url(#g)"><path d="M74.048 288.261h459.749l-.63 3.355H74.717l-.669-3.355Z" fill="#432F5C"/></g><g filter="url(#h)"><path d="M41.43 145.25h1.678L75.57 289.371l-1.638.366L41.43 145.25Z" fill="#432F5C"/></g><path transform="matrix(-.99998 -.00676 -.00734 .99997 51.233 378.215)" stroke="#56446C" stroke-width="5" d="M0-2.5h50.234"/><path transform="rotate(-89.579 192.9 186.075) skewX(.033)" stroke="#56446C" stroke-width="5" d="M0-2.5h376.584"/><path fill="#56446C" d="m25.995 361.722 33.478.226-.195 26.502-33.477-.227z"/><defs><filter id="a" x="58.174" y="295.916" width="505.362" height="207.539" filterUnits="userSpaceOnUse" color-interpolation-filters="sRGB"><feFlood flood-opacity="0" result="BackgroundImageFix"/><feBlend in="SourceGraphic" in2="BackgroundImageFix" result="shape"/><feGaussianBlur stdDeviation="2.5" result="effect1_foregroundBlur_2_2175"/></filter><filter id="b" x="19.453" y="127.337" width="567.655" height="183.914" filterUnits="userSpaceOnUse" color-interpolation-filters="sRGB"><feFlood flood-opacity="0" result="BackgroundImageFix"/><feBlend in="SourceGraphic" in2="BackgroundImageFix" result="shape"/><feGaussianBlur stdDeviation="2.5" result="effect1_foregroundBlur_2_2175"/></filter><filter id="c" x="420.046" y="331.452" width="25.776" height="22.63" filterUnits="userSpaceOnUse" color-interpolation-filters="sRGB"><feFlood flood-opacity="0" result="BackgroundImageFix"/><feBlend in="SourceGraphic" in2="BackgroundImageFix" result="shape"/><feGaussianBlur stdDeviation="1" result="effect1_foregroundBlur_2_2175"/></filter><filter id="d" x="81.028" y="357.758" width="38.015" height="23.2" filterUnits="userSpaceOnUse" color-interpolation-filters="sRGB"><feFlood flood-opacity="0" result="BackgroundImageFix"/><feBlend in="SourceGraphic" in2="BackgroundImageFix" result="shape"/><feGaussianBlur stdDeviation="1" result="effect1_foregroundBlur_2_2175"/></filter><filter id="e" x="476.656" y="388.897" width="53.165" height="51.356" filterUnits="userSpaceOnUse" color-interpolation-filters="sRGB"><feFlood flood-opacity="0" result="BackgroundImageFix"/><feBlend in="SourceGraphic" in2="BackgroundImageFix" result="shape"/><feGaussianBlur stdDeviation="1" result="effect1_foregroundBlur_2_2175"/></filter><filter id="f" x="194.385" y="442.636" width="136.721" height="23.581" filterUnits="userSpaceOnUse" color-interpolation-filters="sRGB"><feFlood flood-opacity="0" result="BackgroundImageFix"/><feBlend in="SourceGraphic" in2="BackgroundImageFix" result="shape"/><feGaussianBlur stdDeviation="1" result="effect1_foregroundBlur_2_2175"/></filter><filter id="g" x="72.048" y="286.261" width="463.749" height="7.356" filterUnits="userSpaceOnUse" color-interpolation-filters="sRGB"><feFlood flood-opacity="0" result="BackgroundImageFix"/><feBlend in="SourceGraphic" in2="BackgroundImageFix" result="shape"/><feGaussianBlur stdDeviation="1" result="effect1_foregroundBlur_2_2175"/></filter><filter id="h" x="39.43" y="143.25" width="38.139" height="148.488" filterUnits="userSpaceOnUse" color-interpolation-filters="sRGB"><feFlood flood-opacity="0" result="BackgroundImageFix"/><feBlend in="SourceGraphic" in2="BackgroundImageFix" result="shape"/><feGaussianBlur stdDeviation="1" result="effect1_foregroundBlur_2_2175"/></filter></defs></svg>