<svg width="1719" height="1004" fill="none" xmlns="http://www.w3.org/2000/svg"><path d="m90 258.9-44-72 83.6.5 65.8 36.5 128.8 117.5-168.6-46L90 259Z" fill="#B9B9B9"/><path d="m23.7 256.5 22.5-81.3 56.8 61.2 18.4 73 2.6 174.2-82-154.2-18.3-73Z" fill="#B9B9B9"/><path d="m108 170-66.2 11.3 31.8-58.6 50-36.3L253 27.6l-95 106-50 36.4Z" fill="#B9B9B9"/><path d="m113 227.6-72.7-42.8 73.9-39 75.2 1.1 169 42.6-170.2 39.2-75.2-1Z" fill="#B9B9B9"/><rect x="411" y="455" width="900" height="542.2" rx="30" transform="rotate(.4 411 455)" fill="#B9B9B9"/><path fill="#BBAAA6" d="M1312 243.8 1432.1 41l256.5 152-120.1 202.7z"/><path d="m85 255-44-72.2 83.6.6 65.8 36.5 128.8 117.5-168.6-46L85 255Z" fill="#A1C2BE"/><path d="m18.7 252.5 22.5-81.3L98 232.4l18.4 73 2.6 174.2-82-154.2-18.3-73Z" fill="#A1C2BE"/><path d="m103 166-66.2 11.3 31.8-58.6 50-36.3L248 23.6l-95 106-50 36.4Z" fill="#A1C2BE"/><path d="m108 223.6-72.7-42.8 73.9-39 75.2 1.1 169 42.6-170.2 39.2-75.2-1Z" fill="#A1C2BE"/><rect x="406" y="451" width="900" height="542.2" rx="30" transform="rotate(.4 406 451)" fill="#FFC6CC"/><path fill="#A87572" d="M1314 230.8 1434.1 28l256.5 152-120.1 202.7z"/><path fill="#996F6C" d="M1355 288.6 1435.4 67l280.2 101.7-80.3 221.5z"/><path fill="#D99C9B" d="m1357.4 277.5 80.4-221.6L1718 157.5l-80.4 221.6z"/></svg>