<svg width="1834" height="1022" fill="none" xmlns="http://www.w3.org/2000/svg"><g filter="url(#a)" fill="#A1C2BE"><path d="m195.91 268.9-43.83-72.06 83.57.55 65.72 36.53L430.2 351.38l-168.55-45.95-65.73-36.53Z"/><path d="m129.67 266.45 22.49-81.29 56.83 61.27 18.4 72.9 2.65 174.32-81.97-154.29-18.4-72.9Z"/><path d="m214.05 179.97-66.2 11.31 31.77-58.6 49.89-36.32 129.45-58.78-95.02 106.07-49.9 36.32Z"/><path d="m218.98 237.62-72.7-42.77 73.89-39.03 75.19 1.1 169.05 42.57-170.25 39.23-75.18-1.1Z"/></g><g filter="url(#b)"><rect x="517" y="465" width="900" height="542.17" rx="30" transform="rotate(.4 517 465)" fill="#FFC6CC"/></g><g filter="url(#c)"><path fill="#A87572" d="M1425 244.8 1545.12 42l256.51 151.93-120.12 202.8z"/></g><g filter="url(#d)"><path fill="#D99C9B" d="m1468.43 291.44 80.39-221.58 280.26 101.66-80.39 221.59z"/></g><defs><filter id="a" x="129.67" y="27.58" width="342.74" height="466.07" filterUnits="userSpaceOnUse" color-interpolation-filters="sRGB"><feFlood flood-opacity="0" result="BackgroundImageFix"/><feColorMatrix in="SourceAlpha" values="0 0 0 0 0 0 0 0 0 0 0 0 0 0 0 0 0 0 127 0" result="hardAlpha"/><feOffset dx="4" dy="-6"/><feGaussianBlur stdDeviation="2"/><feComposite in2="hardAlpha" operator="out"/><feColorMatrix values="0 0 0 0 0 0 0 0 0 0 0 0 0 0 0 0 0 0 0.25 0"/><feBlend in2="BackgroundImageFix" result="effect1_dropShadow_2_2079"/><feBlend in="SourceGraphic" in2="effect1_dropShadow_2_2079" result="shape"/></filter><filter id="b" x="513.39" y="465.21" width="911.38" height="556.07" filterUnits="userSpaceOnUse" color-interpolation-filters="sRGB"><feFlood flood-opacity="0" result="BackgroundImageFix"/><feColorMatrix in="SourceAlpha" values="0 0 0 0 0 0 0 0 0 0 0 0 0 0 0 0 0 0 127 0" result="hardAlpha"/><feOffset dx="4" dy="4"/><feGaussianBlur stdDeviation="2"/><feComposite in2="hardAlpha" operator="out"/><feColorMatrix values="0 0 0 0 0 0 0 0 0 0 0 0 0 0 0 0 0 0 0.25 0"/><feBlend in2="BackgroundImageFix" result="effect1_dropShadow_2_2079"/><feBlend in="SourceGraphic" in2="effect1_dropShadow_2_2079" result="shape"/></filter><filter id="c" x="1425" y="42" width="384.63" height="366.74" filterUnits="userSpaceOnUse" color-interpolation-filters="sRGB"><feFlood flood-opacity="0" result="BackgroundImageFix"/><feColorMatrix in="SourceAlpha" values="0 0 0 0 0 0 0 0 0 0 0 0 0 0 0 0 0 0 127 0" result="hardAlpha"/><feOffset dx="4" dy="8"/><feGaussianBlur stdDeviation="2"/><feComposite in2="hardAlpha" operator="out"/><feColorMatrix values="0 0 0 0 0 0 0 0 0 0 0 0 0 0 0 0 0 0 0.25 0"/><feBlend in2="BackgroundImageFix" result="effect1_dropShadow_2_2079"/><feBlend in="SourceGraphic" in2="effect1_dropShadow_2_2079" result="shape"/></filter><filter id="d" x="1464.43" y="69.86" width="368.64" height="335.25" filterUnits="userSpaceOnUse" color-interpolation-filters="sRGB"><feFlood flood-opacity="0" result="BackgroundImageFix"/><feColorMatrix in="SourceAlpha" values="0 0 0 0 0 0 0 0 0 0 0 0 0 0 0 0 0 0 127 0" result="hardAlpha"/><feOffset dy="8"/><feGaussianBlur stdDeviation="2"/><feComposite in2="hardAlpha" operator="out"/><feColorMatrix values="0 0 0 0 0 0 0 0 0 0 0 0 0 0 0 0 0 0 0.25 0"/><feBlend in2="BackgroundImageFix" result="effect1_dropShadow_2_2079"/><feBlend in="SourceGraphic" in2="effect1_dropShadow_2_2079" result="shape"/></filter></defs></svg>