<svg width="456" height="297" fill="none" xmlns="http://www.w3.org/2000/svg"><g filter="url(#a)"><g filter="url(#b)"><path d="m386.8 164.2 48 8.4a20 20 0 0 1 16.2 23.2l-.7 4a20 20 0 0 1-23.2 16.1l-48-8.4 7.7-43.3Z" fill="#A36970"/></g><path fill="#A36970" d="m196.2 37.7 55.3 9.7-38.4 218-55.3-9.7z"/><rect x="242.1" y="41.9" width="167" height="228.4" rx="20" transform="rotate(10 242 41.9)" fill="#A36970"/><rect x="44.6" y="6" width="167" height="228.4" rx="20" transform="rotate(10 44.6 6)" fill="#A36970"/></g><g filter="url(#c)"><path d="m385 158.2 48 8.4a20 20 0 0 1 16.2 23.2l-.7 4a20 20 0 0 1-23.1 16.1l-48-8.4 7.6-43.3Z" fill="#CC5F75"/></g><path d="m383.3 154.9 48 8.4a20 20 0 0 1 16.2 23.2l-.7 4.3a20 20 0 0 1-23.2 16.2l-48-8.4 7.7-43.7Z" fill="#F6738D"/><path fill="#DC687F" d="m191.5 31.7 55.3 9.7-38.4 218-55.3-9.7z"/><g filter="url(#d)"><rect x="234.6" y="36.6" width="48.2" height="226.4" rx="20" transform="rotate(10 234.6 36.6)" fill="#CC5F75"/></g><g filter="url(#e)"><rect x="356.6" y="58.1" width="48.2" height="226.4" rx="20" transform="rotate(10 356.6 58)" fill="#CC5F75"/></g><rect x="237.3" y="35.9" width="167" height="228.4" rx="20" transform="rotate(10 237.3 35.9)" fill="#F6738D"/><g filter="url(#f)"><rect x="159.8" y="22" width="48.2" height="227.3" rx="20" transform="rotate(10 159.8 22)" fill="#CC5F75"/></g><rect x="39.9" width="167" height="228.4" rx="20" transform="rotate(10 40 0)" fill="#F6738D"/><g filter="url(#g)"><path fill-rule="evenodd" clip-rule="evenodd" d="M221.4 52.3 367.8 78l-33.2 188.3-146.4-25.8 33.2-188.3Zm7.3 18.1c0 1.4-1.2 2.6-2.6 2.6a2.7 2.7 0 0 1-2.7-2.6c0-1.5 1.1-2.6 2.6-2.6s2.7 1.2 2.7 2.6ZM202.8 203c1.5 0 2.7-1.1 2.7-2.6 0-1.4-1.3-2.6-2.7-2.6a2.6 2.6 0 0 0-2.7 2.6c0 1.4 1.2 2.6 2.7 2.6Zm23.3-118.8c0 1.4-1.1 2.6-2.6 2.6a2.7 2.7 0 0 1-2.7-2.7c0-1.4 1.2-2.5 2.6-2.5 1.5 0 2.7 1.2 2.7 2.6Zm-25.9 132.6c1.5 0 2.7-1.2 2.7-2.6 0-1.4-1.2-2.6-2.7-2.6a2.6 2.6 0 0 0-2.7 2.6c0 1.4 1.2 2.6 2.7 2.6Zm23.4-118c0 1.5-1.2 2.6-2.7 2.6a2.7 2.7 0 0 1-2.7-2.6c0-1.4 1.2-2.6 2.7-2.6 1.4 0 2.7 1.2 2.7 2.6Zm-26 132.6c1.5 0 2.7-1.1 2.7-2.5 0-1.5-1.2-2.6-2.7-2.6a2.6 2.6 0 0 0-2.7 2.5c0 1.4 1.2 2.6 2.7 2.6Z" fill="#964757"/></g><g filter="url(#h)" fill="#9A5160"><path d="m56.5 75.3 39 6.9-3.4 19.5-39-7zM47.5 99.5l43.7 7.7-3.4 19.5-43.7-7.7zM319.9 196.4l43.7 7.7-3.4 19.5-43.7-7.7zM328.7 91.6l55.7 9.8-2.6 14.9-55.7-9.8zM325.3 111.1l50.2 8.9-2.6 14.8-50.2-8.8zM33.9 176.7l43.7 7.7-2.4 14-43.8-7.7z"/></g><path fill="#7AD0E0" d="m54 71.9 39 6.9-3.4 19.5-39-6.9z"/><path fill="#F9F0E1" d="m44.9 96.2 43.7 7.7-3.4 19.5-43.7-7.7z"/><path fill="#7290C4" d="m317.3 193 43.7 7.7-3.4 19.5-43.7-7.7z"/><path fill="#F9F0E1" d="m326.2 88.2 55.7 9.8-2.6 14.9-55.7-9.8z"/><path fill="#7AD0E0" d="m322.8 107.7 50.2 8.9-2.6 14.8-50.2-8.8z"/><path fill="#7290C4" d="M31.3 173.3 75 181l-2.4 14-43.8-7.7z"/><g filter="url(#i)"><path fill-rule="evenodd" clip-rule="evenodd" d="m224 52.5 137.4 24.2-32.5 184.1-137.4-24.2 32.5-184Zm6.7 17.7a2.5 2.5 0 1 1-5 0 2.5 2.5 0 0 1 5 0Zm-25.2 129.6a2.5 2.5 0 1 0 0-5 2.5 2.5 0 0 0 0 5Zm22.7-116.2a2.5 2.5 0 1 1-5 0 2.5 2.5 0 0 1 5 0ZM203 213.2a2.5 2.5 0 1 0 0-5 2.5 2.5 0 0 0 0 5ZM225.7 98a2.5 2.5 0 1 1-5 0 2.5 2.5 0 0 1 5 0Zm-25.3 129.5a2.5 2.5 0 1 0 0-5 2.5 2.5 0 0 0 0 5Z" fill="#AAA"/></g><path fill-rule="evenodd" clip-rule="evenodd" d="m223.4 52 137.4 24.2-32.4 184L191 236.2 223.4 52Zm6.8 17.7a2.5 2.5 0 1 1-5 0 2.5 2.5 0 0 1 5 0ZM205 199.2a2.5 2.5 0 1 0 0-5 2.5 2.5 0 0 0 0 5Zm22.7-116a2.5 2.5 0 1 1-5 0 2.5 2.5 0 0 1 5 0Zm-25.3 129.5a2.5 2.5 0 1 0 0-5 2.5 2.5 0 0 0 0 5Zm22.8-115.3a2.5 2.5 0 1 1-5.1 0 2.5 2.5 0 0 1 5 0ZM199.9 227a2.5 2.5 0 1 0 0-5 2.5 2.5 0 0 0 0 5Z" fill="#F8F8F1"/><g filter="url(#j)"><path fill-rule="evenodd" clip-rule="evenodd" d="m223 52.5 137.4 24.2-32.5 184.1-137.4-24.2 32.5-184Zm6.7 17.7a2.5 2.5 0 1 1-5 0 2.5 2.5 0 0 1 5 0Zm-25.2 129.6a2.5 2.5 0 1 0 0-5 2.5 2.5 0 0 0 0 5Zm22.7-116.2a2.5 2.5 0 1 1-5 0 2.5 2.5 0 0 1 5 0ZM202 213.2a2.5 2.5 0 1 0 0-5 2.5 2.5 0 0 0 0 5ZM224.7 98a2.5 2.5 0 1 1-5 0 2.5 2.5 0 0 1 5 0Zm-25.3 129.5a2.5 2.5 0 1 0 0-5 2.5 2.5 0 0 0 0 5Z" fill="#AAA"/></g><path fill-rule="evenodd" clip-rule="evenodd" d="m222.4 52 137.4 24.2-32.4 184L190 236.2 222.4 52Zm6.8 17.7a2.5 2.5 0 1 1-5 0 2.5 2.5 0 0 1 5 0ZM204 199.2a2.5 2.5 0 1 0 0-5 2.5 2.5 0 0 0 0 5Zm22.7-116a2.5 2.5 0 1 1-5 0 2.5 2.5 0 0 1 5 0Zm-25.3 129.5a2.5 2.5 0 1 0 0-5 2.5 2.5 0 0 0 0 5Zm22.8-115.3a2.5 2.5 0 1 1-5.1 0 2.5 2.5 0 0 1 5 0ZM198.9 227a2.5 2.5 0 1 0 0-5 2.5 2.5 0 0 0 0 5Z" fill="#F8F8F1"/><g filter="url(#k)"><path fill-rule="evenodd" clip-rule="evenodd" d="m221.4 51 137.4 24.2-32.4 184L189 235.2 221.4 51Zm6.8 17.7a2.5 2.5 0 1 1-5 0 2.5 2.5 0 0 1 5 0ZM203 198.2a2.5 2.5 0 1 0 0-5 2.5 2.5 0 0 0 0 5Zm22.7-116a2.5 2.5 0 1 1-5 0 2.5 2.5 0 0 1 5 0Zm-25.3 129.5a2.5 2.5 0 1 0 0-5 2.5 2.5 0 0 0 0 5Zm22.8-115.3a2.5 2.5 0 1 1-5.1 0 2.5 2.5 0 0 1 5 0ZM197.9 226a2.5 2.5 0 1 0 0-5 2.5 2.5 0 0 0 0 5Z" fill="#AAA"/></g><path fill-rule="evenodd" clip-rule="evenodd" d="m220.4 50.5 137.3 24.2-32.4 184L188 234.7l32.5-184.1ZM227 68a2.5 2.5 0 1 1-5 0 2.5 2.5 0 0 1 5 0ZM202 197.7a2.5 2.5 0 1 0 0-5 2.5 2.5 0 0 0 0 5Zm22.7-116a2.5 2.5 0 1 1-5 0 2.5 2.5 0 0 1 5 0Zm-25.3 129.5a2.5 2.5 0 1 0 0-5 2.5 2.5 0 0 0 0 5Zm22.8-115.3a2.5 2.5 0 1 1-5 0 2.5 2.5 0 0 1 5 0Zm-25.3 129.6a2.5 2.5 0 1 0 0-5 2.5 2.5 0 0 0 0 5Z" fill="#F8F8F1"/><g filter="url(#l)"><path fill-rule="evenodd" clip-rule="evenodd" d="M214.6 55.1 70 30 38 214.1l144.6 25.2 32-184.2Zm-12.9 14.3c-.5 1.3.3 2.7 1.6 3.2 1.4.5 3-.2 3.4-1.5.5-1.3-.2-2.8-1.6-3.2-1.4-.5-2.9.1-3.4 1.5Zm-20.1 130.4c-1.4-.5-2.1-2-1.6-3.2.4-1.3 2-2 3.3-1.5 1.4.5 2.1 2 1.7 3.2-.5 1.3-2 2-3.4 1.5Zm18-117c-.6 1.4.2 2.8 1.6 3.3 1.3.5 2.9-.2 3.3-1.5.5-1.3-.2-2.7-1.6-3.2-1.4-.5-2.9.2-3.4 1.5Zm-20.2 130.5c-1.4-.4-2.1-1.9-1.6-3.2.5-1.3 2-2 3.4-1.5 1.3.5 2 2 1.6 3.3-.5 1.3-2 2-3.4 1.4ZM197 97.2c-.5 1.3.2 2.7 1.6 3.2 1.4.5 2.9-.1 3.4-1.5.4-1.3-.3-2.7-1.7-3.2-1.3-.5-2.9.2-3.3 1.5Zm-20.2 130.5c-1.4-.5-2.1-2-1.6-3.3.5-1.3 2-2 3.4-1.5s2 2 1.6 3.3c-.5 1.3-2 2-3.4 1.5Z" fill="#964757"/></g><g filter="url(#m)"><path fill-rule="evenodd" clip-rule="evenodd" d="M213.5 49.9 76 26 44 210.1l137.5 24 32-184.2ZM201 64.2a2.5 2.5 0 1 0 4.7 1.7 2.5 2.5 0 0 0-4.7-1.7Zm-20.3 130.5a2.5 2.5 0 1 1 1.7-4.8 2.5 2.5 0 0 1-1.7 4.8Zm18-117a2.5 2.5 0 1 0 4.8 1.7 2.5 2.5 0 0 0-4.7-1.7Zm-20.2 130.5a2.5 2.5 0 1 1 1.7-4.8 2.5 2.5 0 0 1-1.7 4.8ZM196.4 92a2.5 2.5 0 1 0 4.8 1.7 2.5 2.5 0 0 0-4.8-1.7Zm-20.3 130.5a2.5 2.5 0 1 1 1.8-4.8 2.5 2.5 0 0 1-1.8 4.8Z" fill="#CBCBCA"/></g><path fill-rule="evenodd" clip-rule="evenodd" d="M212.5 48.9 75 25 43 209.1l137.5 24 32-184.2ZM200 63.2a2.5 2.5 0 1 0 4.7 1.7 2.5 2.5 0 0 0-4.7-1.7Zm-20.3 130.5a2.5 2.5 0 1 1 1.7-4.8 2.5 2.5 0 0 1-1.7 4.8Zm18-117a2.5 2.5 0 1 0 4.8 1.7 2.5 2.5 0 0 0-4.7-1.7Zm-20.2 130.5a2.5 2.5 0 1 1 1.7-4.8 2.5 2.5 0 0 1-1.7 4.8ZM195.4 91a2.5 2.5 0 1 0 4.8 1.7 2.5 2.5 0 0 0-4.8-1.7Zm-20.2 130.5a2.5 2.5 0 1 1 1.7-4.8 2.5 2.5 0 0 1-1.7 4.8Z" fill="#F8F8F1"/><g filter="url(#n)"><path fill-rule="evenodd" clip-rule="evenodd" d="M213.1 48.4 75.7 24.5l-32 184.2L181 232.6l32-184.2Zm-12.3 14.3a2.5 2.5 0 1 0 4.7 1.7 2.5 2.5 0 0 0-4.7-1.7Zm-20.3 130.5a2.5 2.5 0 1 1 1.7-4.8 2.5 2.5 0 0 1-1.7 4.8Zm18-117a2.5 2.5 0 1 0 4.8 1.8 2.5 2.5 0 0 0-4.7-1.8Zm-20.2 130.5a2.5 2.5 0 1 1 1.7-4.7 2.5 2.5 0 0 1-1.7 4.7Zm17.8-116.1a2.5 2.5 0 1 0 4.7 1.7 2.5 2.5 0 0 0-4.7-1.7ZM175.8 221a2.5 2.5 0 1 1 1.7-4.7 2.5 2.5 0 0 1-1.7 4.7Z" fill="#C3C3C3"/></g><path fill-rule="evenodd" clip-rule="evenodd" d="M212.5 47.9 75 24 43 208.1l137.5 24 32-184.2ZM200 62.2a2.5 2.5 0 1 0 4.7 1.7 2.5 2.5 0 0 0-4.7-1.7Zm-20.3 130.5a2.5 2.5 0 1 1 1.7-4.8 2.5 2.5 0 0 1-1.7 4.8Zm18-117a2.5 2.5 0 1 0 4.8 1.7 2.5 2.5 0 0 0-4.7-1.7Zm-20.2 130.5a2.5 2.5 0 1 1 1.7-4.8 2.5 2.5 0 0 1-1.7 4.8ZM195.4 90a2.5 2.5 0 1 0 4.8 1.7 2.5 2.5 0 0 0-4.8-1.7Zm-20.3 130.5a2.5 2.5 0 1 1 1.8-4.8 2.5 2.5 0 0 1-1.8 4.8Z" fill="#F8F8F1"/><g filter="url(#o)"><path fill-rule="evenodd" clip-rule="evenodd" d="m214.3 49.3-137.5-24-32 184.2 137.5 23.9 32-184.1Zm-12.4 14.3a2.5 2.5 0 1 0 4.8 1.7 2.5 2.5 0 0 0-4.8-1.7ZM181.7 194a2.5 2.5 0 1 1 1.7-4.7 2.5 2.5 0 0 1-1.7 4.7Zm18-117a2.5 2.5 0 1 0 4.8 1.8 2.5 2.5 0 0 0-4.8-1.7Zm-20.2 130.5a2.5 2.5 0 1 1 1.7-4.7 2.5 2.5 0 0 1-1.7 4.7Zm17.8-116.1a2.5 2.5 0 1 0 4.7 1.7 2.5 2.5 0 0 0-4.7-1.7ZM177 221.9a2.5 2.5 0 1 1 1.7-4.8 2.5 2.5 0 0 1-1.7 4.8Z" fill="#C3C3C3"/></g><path fill-rule="evenodd" clip-rule="evenodd" d="M214.4 48.7 77 24 44 208l137.3 24.6 33-184Zm-12.5 14.2a2.5 2.5 0 1 0 4.8 1.8 2.5 2.5 0 0 0-4.8-1.8Zm-21 130.4a2.5 2.5 0 1 1 1.8-4.8 2.5 2.5 0 0 1-1.8 4.8Zm18.8-116.9a2.5 2.5 0 1 0 4.7 1.8 2.5 2.5 0 0 0-4.8-1.8Zm-21 130.4a2.5 2.5 0 1 1 1.7-4.8 2.5 2.5 0 0 1-1.8 4.8Zm18.4-116a2.5 2.5 0 1 0 4.7 1.7 2.5 2.5 0 0 0-4.7-1.8ZM176 221a2.5 2.5 0 1 1 1.7-4.8 2.5 2.5 0 0 1-1.7 4.8Z" fill="#F8F8F1"/><g filter="url(#p)" stroke="#C6C6C6" stroke-width="2"><path d="M225 67.8a10.4 10.4 0 1 0-20.5-3M202.4 195.4a10.4 10.4 0 1 0-20.5-3.6M223 81.8a10.4 10.4 0 0 0-20.6-3M200 209.3a10.4 10.4 0 0 0-20.5-3.5M220.9 95.8a10.4 10.4 0 1 0-20.6-3M197.5 223.3a10.4 10.4 0 1 0-20.4-3.6"/></g><path d="M224.2 67.8a10.4 10.4 0 0 0-20.6-3M201.5 195.4a10.4 10.4 0 1 0-20.4-3.6M222 81.4a10.4 10.4 0 0 0-20.6-3M199.1 209.3a10.4 10.4 0 1 0-20.5-3.5M220 95.8a10.4 10.4 0 0 0-20.5-3M196.7 223.3a10.4 10.4 0 1 0-20.5-3.6" stroke="#747474" stroke-width="2"/><path stroke="#A8A8A8" d="M75.7 61.2 190 81.3M73.1 75.7l114.4 20.1M65.5 119.1l114.3 20.1M70.6 90.1l114.3 20.2M68 104.6l114.4 20.2"/><path stroke="#A8A8A8" stroke-width="2" d="M98.4 41.2 82 134.1"/><path d="M104.8 51s-.1-.1 0-.2v-.2c.4 0 .7-.2 1-.3l.9-.2a6.2 6.2 0 0 1 2 0l.3.1.6.2.4.2a19.4 19.4 0 0 0 .3.2v.4l-.1.2-.1.2h-.5v-.1l.1-.2v-.1c.1-.1 0-.2 0-.2-.2-.2-.3-.3-.5-.3a8 8 0 0 0-.8-.2h-.8a7.2 7.2 0 0 0-2 .3 5.3 5.3 0 0 0-.8.3Zm.8 4.7-.3-.2c-.1-.1-.1-.2 0-.4 0-.2 0-.5.2-.8a20.7 20.7 0 0 1 2.2-3.7h.4v.4a1.7 1.7 0 0 1-.3.4l-.3.3a13.6 13.6 0 0 0-1.9 3.3l.1.2.1.2V55.7h-.2Zm3.8.2h-.2v-.1a.9.9 0 0 1-.6-.5c-.1-.3-.2-.5-.1-.8 0-.2 0-.4.2-.6l.5-.5.6-.3a1.5 1.5 0 0 1 1 0l.1.2v.2h-.4a1 1 0 0 0-.5 0 1.6 1.6 0 0 0-1 .7v.9c0 .2.2.3.3.3h1l.8-.5.2-.3v-.5h-.2a4.3 4.3 0 0 0-.7 0l-.2-.1v-.2c0-.1 0-.2.2-.2a2.6 2.6 0 0 1 .7 0h.2a.7.7 0 0 1 .6.8c0 .2 0 .3-.2.4 0 .2-.2.3-.3.4a3 3 0 0 1-1.3.6 2 2 0 0 1-.7 0Zm4.4.8c-.4 0-.7-.1-1-.3l-.5-.6a1.1 1.1 0 0 1 0-1l.3-.4a5.6 5.6 0 0 1 1.3-.8l.8-.2a2.6 2.6 0 0 1 1.4.1l.2.2v.2a15.3 15.3 0 0 1 1.4-2.3 10.7 10.7 0 0 0 .3-.4c.1-.1.2-.2.3-.1l.3.1v.5h-.2l-.2.2-.2.3a24.1 24.1 0 0 1-1 1.4l-.4 1a5 5 0 0 0-.3.8l-.1.1h-.4v-.2l.1-.3v-.7c0-.2 0-.3-.2-.3h-.1l-.2-.1h-.7l-.6.3a5.1 5.1 0 0 0-1 .7c-.2.1-.3.2-.3.4 0 .1 0 .3.2.5.1.2.4.3.8.4h.2l.8.1h.8l.6-.3.4-.2h.2l.1.2v.2l-.6.3-.6.2a6.2 6.2 0 0 1-2 0Zm4.5.7h-.2a.9.9 0 0 1-.6-.5c-.1-.3-.2-.6-.1-.8 0-.2 0-.4.2-.6l.5-.5.6-.3h1l.1.2v.2h-.4a1 1 0 0 0-.5 0 1.6 1.6 0 0 0-1 .6v1l.3.2h.2c.3.1.5.1.8 0l.8-.4.2-.3v-.5l-.2-.1a4.3 4.3 0 0 0-.7 0h-.2v-.3l.2-.1a2.5 2.5 0 0 1 .7 0h.2a.7.7 0 0 1 .6.8l-.2.4-.3.4a3 3 0 0 1-1.3.6 2 2 0 0 1-.7 0Zm2 2.2c-.2 0-.2-.1-.2-.2l.1-.2a4.8 4.8 0 0 0 1-.9v-.5l.2-.2h.2c.1 0 .2 0 .2.2v.3l-.1.2-.2.3c0 .2-.3.4-.5.5a18.9 18.9 0 0 1-.8.5Z" fill="#000"/><path fill="#CFB9BC" d="m218.4 153.1 59.5 10.5-1 5.6-59.5-10.5z"/><g filter="url(#q)"><path fill="#FFE2E5" d="m218 155.2 59.5 10.5-.6 3.4-59.5-10.4z"/></g><path fill="#CFB9BC" d="M216.4 163.2 327 182.7l-4 23.2-110.7-19.5z"/><g filter="url(#r)"><path fill="#FFE2E5" d="m216.1 165.4 110.6 19.5-3.8 21.4-110.6-19.5z"/></g><path fill="#CFB9BC" d="m210.8 192.7 59.5 10.5-1 5.6-59.5-10.5z"/><g filter="url(#s)"><path fill="#FFE2E5" d="m210.4 194.7 59.5 10.5-.6 3.4-59.5-10.5z"/></g><path fill="#CFB9BC" d="m208.8 202.8 110.6 19.5-4.1 23.2L204.7 226z"/><g filter="url(#t)"><path fill="#FFE2E5" d="M208.5 205 319 224.5l-3.8 21.4-110.6-19.5z"/></g><g filter="url(#u)"><path fill="#ABABAB" d="m291.1 77.4 53 9.3-10.8 61.4-53-9.4z"/></g><path fill="#FCC748" d="m290.4 75.7 53 9.3-10.8 61.4-53-9.4z"/><defs><filter id="a" x="4.2" y="5.2" width="451.1" height="291.5" filterUnits="userSpaceOnUse" color-interpolation-filters="sRGB"><feFlood flood-opacity="0" result="BackgroundImageFix"/><feBlend in="SourceGraphic" in2="BackgroundImageFix" result="shape"/><feGaussianBlur stdDeviation="2" result="effect1_foregroundBlur_55_21"/></filter><filter id="b" x="377.1" y="162.2" width="76.1" height="56.1" filterUnits="userSpaceOnUse" color-interpolation-filters="sRGB"><feFlood flood-opacity="0" result="BackgroundImageFix"/><feBlend in="SourceGraphic" in2="BackgroundImageFix" result="shape"/><feGaussianBlur stdDeviation="1" result="effect1_foregroundBlur_55_21"/></filter><filter id="c" x="375.4" y="156.2" width="76.1" height="56.1" filterUnits="userSpaceOnUse" color-interpolation-filters="sRGB"><feFlood flood-opacity="0" result="BackgroundImageFix"/><feBlend in="SourceGraphic" in2="BackgroundImageFix" result="shape"/><feGaussianBlur stdDeviation="1" result="effect1_foregroundBlur_55_21"/></filter><filter id="d" x="196.5" y="37.7" width="84.4" height="229" filterUnits="userSpaceOnUse" color-interpolation-filters="sRGB"><feFlood flood-opacity="0" result="BackgroundImageFix"/><feBlend in="SourceGraphic" in2="BackgroundImageFix" result="shape"/><feGaussianBlur stdDeviation="1" result="effect1_foregroundBlur_55_21"/></filter><filter id="e" x="318.5" y="59.2" width="84.4" height="229" filterUnits="userSpaceOnUse" color-interpolation-filters="sRGB"><feFlood flood-opacity="0" result="BackgroundImageFix"/><feBlend in="SourceGraphic" in2="BackgroundImageFix" result="shape"/><feGaussianBlur stdDeviation="1" result="effect1_foregroundBlur_55_21"/></filter><filter id="f" x="121.5" y="23.2" width="84.6" height="229.9" filterUnits="userSpaceOnUse" color-interpolation-filters="sRGB"><feFlood flood-opacity="0" result="BackgroundImageFix"/><feBlend in="SourceGraphic" in2="BackgroundImageFix" result="shape"/><feGaussianBlur stdDeviation="1" result="effect1_foregroundBlur_55_21"/></filter><filter id="g" x="186.2" y="50.3" width="183.6" height="218.2" filterUnits="userSpaceOnUse" color-interpolation-filters="sRGB"><feFlood flood-opacity="0" result="BackgroundImageFix"/><feBlend in="SourceGraphic" in2="BackgroundImageFix" result="shape"/><feGaussianBlur stdDeviation="1" result="effect1_foregroundBlur_55_21"/></filter><filter id="h" x="27.4" y="71.3" width="361.1" height="156.4" filterUnits="userSpaceOnUse" color-interpolation-filters="sRGB"><feFlood flood-opacity="0" result="BackgroundImageFix"/><feBlend in="SourceGraphic" in2="BackgroundImageFix" result="shape"/><feGaussianBlur stdDeviation="2" result="effect1_foregroundBlur_55_21"/></filter><filter id="i" x="190.5" y="51.5" width="171.8" height="210.3" filterUnits="userSpaceOnUse" color-interpolation-filters="sRGB"><feFlood flood-opacity="0" result="BackgroundImageFix"/><feBlend in="SourceGraphic" in2="BackgroundImageFix" result="shape"/><feGaussianBlur stdDeviation=".5" result="effect1_foregroundBlur_55_21"/></filter><filter id="j" x="189.5" y="51.5" width="171.8" height="210.3" filterUnits="userSpaceOnUse" color-interpolation-filters="sRGB"><feFlood flood-opacity="0" result="BackgroundImageFix"/><feBlend in="SourceGraphic" in2="BackgroundImageFix" result="shape"/><feGaussianBlur stdDeviation=".5" result="effect1_foregroundBlur_55_21"/></filter><filter id="k" x="188" y="50" width="171.8" height="210.3" filterUnits="userSpaceOnUse" color-interpolation-filters="sRGB"><feFlood flood-opacity="0" result="BackgroundImageFix"/><feBlend in="SourceGraphic" in2="BackgroundImageFix" result="shape"/><feGaussianBlur stdDeviation=".5" result="effect1_foregroundBlur_55_21"/></filter><filter id="l" x="36" y="28" width="180.6" height="213.3" filterUnits="userSpaceOnUse" color-interpolation-filters="sRGB"><feFlood flood-opacity="0" result="BackgroundImageFix"/><feBlend in="SourceGraphic" in2="BackgroundImageFix" result="shape"/><feGaussianBlur stdDeviation="1" result="effect1_foregroundBlur_55_21"/></filter><filter id="m" x="43" y="25" width="171.5" height="210" filterUnits="userSpaceOnUse" color-interpolation-filters="sRGB"><feFlood flood-opacity="0" result="BackgroundImageFix"/><feBlend in="SourceGraphic" in2="BackgroundImageFix" result="shape"/><feGaussianBlur stdDeviation=".5" result="effect1_foregroundBlur_55_21"/></filter><filter id="n" x="42.7" y="23.5" width="171.5" height="210" filterUnits="userSpaceOnUse" color-interpolation-filters="sRGB"><feFlood flood-opacity="0" result="BackgroundImageFix"/><feBlend in="SourceGraphic" in2="BackgroundImageFix" result="shape"/><feGaussianBlur stdDeviation=".5" result="effect1_foregroundBlur_55_21"/></filter><filter id="o" x="43.8" y="24.4" width="171.5" height="210" filterUnits="userSpaceOnUse" color-interpolation-filters="sRGB"><feFlood flood-opacity="0" result="BackgroundImageFix"/><feBlend in="SourceGraphic" in2="BackgroundImageFix" result="shape"/><feGaussianBlur stdDeviation=".5" result="effect1_foregroundBlur_55_21"/></filter><filter id="p" x="174.1" y="52.9" width="54" height="172.5" filterUnits="userSpaceOnUse" color-interpolation-filters="sRGB"><feFlood flood-opacity="0" result="BackgroundImageFix"/><feBlend in="SourceGraphic" in2="BackgroundImageFix" result="shape"/><feGaussianBlur stdDeviation="1" result="effect1_foregroundBlur_55_21"/></filter><filter id="q" x="216.4" y="154.2" width="62.1" height="15.9" filterUnits="userSpaceOnUse" color-interpolation-filters="sRGB"><feFlood flood-opacity="0" result="BackgroundImageFix"/><feBlend in="SourceGraphic" in2="BackgroundImageFix" result="shape"/><feGaussianBlur stdDeviation=".5" result="effect1_foregroundBlur_55_21"/></filter><filter id="r" x="211.3" y="164.4" width="116.4" height="42.9" filterUnits="userSpaceOnUse" color-interpolation-filters="sRGB"><feFlood flood-opacity="0" result="BackgroundImageFix"/><feBlend in="SourceGraphic" in2="BackgroundImageFix" result="shape"/><feGaussianBlur stdDeviation=".5" result="effect1_foregroundBlur_55_21"/></filter><filter id="s" x="208.8" y="193.7" width="62.1" height="15.9" filterUnits="userSpaceOnUse" color-interpolation-filters="sRGB"><feFlood flood-opacity="0" result="BackgroundImageFix"/><feBlend in="SourceGraphic" in2="BackgroundImageFix" result="shape"/><feGaussianBlur stdDeviation=".5" result="effect1_foregroundBlur_55_21"/></filter><filter id="t" x="203.7" y="204" width="116.4" height="42.9" filterUnits="userSpaceOnUse" color-interpolation-filters="sRGB"><feFlood flood-opacity="0" result="BackgroundImageFix"/><feBlend in="SourceGraphic" in2="BackgroundImageFix" result="shape"/><feGaussianBlur stdDeviation=".5" result="effect1_foregroundBlur_55_21"/></filter><filter id="u" x="279.3" y="76.4" width="65.8" height="72.7" filterUnits="userSpaceOnUse" color-interpolation-filters="sRGB"><feFlood flood-opacity="0" result="BackgroundImageFix"/><feBlend in="SourceGraphic" in2="BackgroundImageFix" result="shape"/><feGaussianBlur stdDeviation=".5" result="effect1_foregroundBlur_55_21"/></filter></defs></svg>