<svg xmlns="http://www.w3.org/2000/svg" viewBox="0 0 453 290" xml:space="preserve"><style>.st0{fill:#cc5f75}.st1{fill:#f6738d}.st3{fill-rule:evenodd;clip-rule:evenodd;fill:#964757}.st4{fill:#9a5160}.st5{fill:#7ad0e0}.st6{fill:#f9f0e1}.st7{fill:#7290c4}.st11,.st8,.st9{fill-rule:evenodd;clip-rule:evenodd;fill:#aaa}.st11,.st9{fill:#f8f8f1}.st11{fill:#c3c3c3}.st12,.st13{fill:none;stroke:#c6c6c6;stroke-width:2}.st13{stroke:#747474}.st14{fill:none;stroke:#a8a8a8}.st16{fill:#cfb9bc}.st17{fill:#ffe2e5}</style><path class="st0" d="m384.8 158.2 48 8.5a20 20 0 0 1 16.2 23.2l-.7 3.9a20 20 0 0 1-23.2 16.2l-48-8.5 7.7-43.3z" id="Layer_54"/><path class="st1" d="m383 154.9 48 8.5a20 20 0 0 1 16.2 23.2l-.8 4.3a20 20 0 0 1-23.2 16.2l-48-8.5 7.8-43.7z" id="Layer_53"/><path transform="rotate(-80.01 199.7 145.57)" fill="#dc687f" d="M89 117.5h221.4v56.2H89z" id="Layer_52"/><path class="st0" d="m254 40 8.1 1.4a20 20 0 0 1 16.2 23.2L246 248.2a20 20 0 0 1-23.2 16.2l-8.1-1.4a20 20 0 0 1-16.2-23.2l32.3-183.5c2-10.9 12.3-18.2 23.2-16.3z" id="Layer_51"/><path class="st0" d="m376 61.5 8.1 1.4a20 20 0 0 1 16.2 23.2L368 269.6a20 20 0 0 1-23.2 16.2l-8.1-1.4a20 20 0 0 1-16.2-23.2l32.3-183.5c2-10.8 12.3-18.1 23.2-16.2z" id="Layer_50"/><path class="st1" d="m256.8 39.3 125.1 22a20 20 0 0 1 16.2 23.2l-32.7 185.6a20 20 0 0 1-23.2 16.2l-125.1-22a20 20 0 0 1-16.2-23.2l32.7-185.6a20.07 20.07 0 0 1 23.2-16.2z" id="Layer_49"/><path class="st0" d="m179.2 25.5 8.1 1.4a20 20 0 0 1 16.2 23.2L171 234.6a20 20 0 0 1-23.2 16.2l-8.1-1.4a20 20 0 0 1-16.2-23.2L156 41.7c2-10.8 12.4-18.1 23.2-16.2z" id="Layer_48"/><path class="st1" d="m59.3 3.5 125.1 22a20 20 0 0 1 16.2 23.2l-32.7 185.6a20 20 0 0 1-23.2 16.2l-125.1-22a20 20 0 0 1-16.2-23.2L36.2 19.7A19.94 19.94 0 0 1 59.3 3.5z" id="Layer_47"/><path class="st3" d="m221.1 52.3 146.4 25.8-33.2 188.4-146.4-25.8 33.2-188.4zm7.4 18.1c0 1.4-1.2 2.6-2.7 2.6-1.5 0-2.7-1.2-2.7-2.6 0-1.4 1.2-2.6 2.7-2.6s2.6 1.2 2.7 2.6zm-26 132.6c1.5 0 2.7-1.1 2.7-2.6 0-1.4-1.2-2.6-2.7-2.6a2.6 2.6 0 0 0-2.7 2.6c0 1.4 1.2 2.6 2.7 2.6zm23.4-118.8c0 1.4-1.2 2.6-2.7 2.6s-2.7-1.2-2.7-2.6c0-1.4 1.2-2.6 2.7-2.6 1.4 0 2.7 1.2 2.7 2.6zm-26 132.6c1.5 0 2.7-1.1 2.7-2.6 0-1.4-1.2-2.6-2.7-2.6a2.6 2.6 0 0 0-2.7 2.6c0 1.4 1.2 2.6 2.7 2.6zm23.4-118c0 1.4-1.2 2.6-2.7 2.6-1.5 0-2.7-1.2-2.7-2.6 0-1.4 1.2-2.6 2.7-2.6 1.5 0 2.7 1.2 2.7 2.6zm-26 132.6c1.5 0 2.7-1.1 2.7-2.6 0-1.4-1.2-2.6-2.7-2.6a2.6 2.6 0 0 0-2.7 2.6c.1 1.5 1.3 2.6 2.7 2.6z" id="Layer_46"/><g id="Layer_45"><path transform="rotate(-80.01 74.06 88.45)" class="st4" d="M64.1 68.6h19.8v39.6H64.1z"/><path transform="rotate(-80.01 67.31 113.14)" class="st4" d="M57.4 91h19.8v44.4H57.4z"/><path transform="rotate(-80.01 339.7 210.03)" class="st4" d="M329.8 187.8h19.8v44.4h-19.8z"/><path transform="rotate(-80.01 355.04 103.94)" class="st4" d="M347.5 75.6h15.1v56.6h-15.1z"/><path transform="rotate(-80.01 348.81 122.98)" class="st4" d="M341.3 97.5h15.1v51h-15.1z"/><path transform="rotate(-80.01 54.2 187.51)" class="st4" d="M47.1 165.3h14.2v44.4H47.1z"/></g><path transform="rotate(-80.01 71.53 85.09)" class="st5" d="M61.6 65.3h19.8v39.6H61.6z" id="Layer_44"/><path transform="rotate(-80.01 64.79 109.78)" class="st6" d="M54.9 87.6h19.8V132H54.9z" id="Layer_43"/><path transform="rotate(-80.01 337.18 206.66)" class="st7" d="M327.3 184.5h19.8v44.4h-19.8z" id="Layer_42"/><path transform="rotate(-80.01 352.52 100.58)" class="st6" d="M345 72.3h15.1v56.6H345z" id="Layer_41"/><path transform="rotate(-80.01 346.3 119.6)" class="st5" d="M338.7 94.1h15.1v51h-15.1z" id="Layer_40"/><path transform="rotate(-80.01 51.68 184.15)" class="st7" d="M44.6 162h14.2v44.4H44.6z" id="Layer_39"/><path class="st8" d="m223.7 52.5 137.4 24.2-32.4 184.1-137.4-24.2 32.4-184.1zm6.7 17.7c0 1.4-1.1 2.5-2.5 2.5s-2.5-1.1-2.5-2.5 1.1-2.5 2.5-2.5 2.5 1.1 2.5 2.5zm-25.2 129.6c1.4 0 2.5-1.1 2.5-2.5s-1.1-2.5-2.5-2.5-2.5 1.1-2.5 2.5c0 1.3 1.1 2.5 2.5 2.5zm22.7-116.2c0 1.4-1.1 2.5-2.5 2.5s-2.5-1.1-2.5-2.5 1.1-2.5 2.5-2.5 2.5 1.2 2.5 2.5zm-25.2 129.6c1.4 0 2.5-1.1 2.5-2.5s-1.1-2.5-2.5-2.5-2.5 1.1-2.5 2.5 1.1 2.5 2.5 2.5zM225.4 98c0 1.4-1.1 2.5-2.5 2.5s-2.5-1.1-2.5-2.5 1.1-2.5 2.5-2.5 2.5 1.1 2.5 2.5zm-25.2 129.5c1.4 0 2.5-1.1 2.5-2.5s-1.1-2.5-2.5-2.5-2.5 1.1-2.5 2.5c-.1 1.4 1.1 2.5 2.5 2.5z" id="Layer_38"/><path class="st9" d="m223.2 52 137.4 24.2-32.4 184.1-137.4-24.2L223.2 52zm6.7 17.7c0 1.4-1.1 2.5-2.5 2.5s-2.5-1.1-2.5-2.5 1.1-2.5 2.5-2.5c1.4-.1 2.5 1.1 2.5 2.5zm-25.2 129.5c1.4 0 2.5-1.1 2.5-2.5s-1.1-2.5-2.5-2.5-2.5 1.1-2.5 2.5 1.1 2.5 2.5 2.5zm22.7-116.1c0 1.4-1.1 2.5-2.5 2.5s-2.5-1.1-2.5-2.5 1.1-2.5 2.5-2.5 2.5 1.1 2.5 2.5zm-25.2 129.6c1.4 0 2.5-1.1 2.5-2.5s-1.1-2.5-2.5-2.5-2.5 1.1-2.5 2.5c-.1 1.4 1.1 2.5 2.5 2.5zm22.7-115.3c0 1.4-1.1 2.5-2.5 2.5s-2.5-1.1-2.5-2.5 1.1-2.5 2.5-2.5c1.3 0 2.5 1.1 2.5 2.5zM199.6 227c1.4 0 2.5-1.1 2.5-2.5s-1.1-2.5-2.5-2.5-2.5 1.1-2.5 2.5 1.1 2.5 2.5 2.5z" id="Layer_37"/><path class="st8" d="m222.7 52.5 137.4 24.2-32.4 184.1-137.4-24.2 32.4-184.1zm6.7 17.7c0 1.4-1.1 2.5-2.5 2.5s-2.5-1.1-2.5-2.5 1.1-2.5 2.5-2.5 2.5 1.1 2.5 2.5zm-25.2 129.6c1.4 0 2.5-1.1 2.5-2.5s-1.1-2.5-2.5-2.5-2.5 1.1-2.5 2.5 1.1 2.5 2.5 2.5zm22.7-116.2c0 1.4-1.1 2.5-2.5 2.5s-2.5-1.1-2.5-2.5 1.1-2.5 2.5-2.5 2.5 1.2 2.5 2.5zm-25.2 129.6c1.4 0 2.5-1.1 2.5-2.5s-1.1-2.5-2.5-2.5-2.5 1.1-2.5 2.5 1.1 2.5 2.5 2.5zM224.4 98c0 1.4-1.1 2.5-2.5 2.5s-2.5-1.1-2.5-2.5 1.1-2.5 2.5-2.5c1.4-.1 2.5 1.1 2.5 2.5zm-25.2 129.5c1.4 0 2.5-1.1 2.5-2.5s-1.1-2.5-2.5-2.5-2.5 1.1-2.5 2.5c-.1 1.4 1.1 2.5 2.5 2.5z" id="Layer_36"/><path class="st9" d="m222.2 52 137.4 24.2-32.4 184.1-137.4-24.2L222.2 52zm6.7 17.7c0 1.4-1.1 2.5-2.5 2.5s-2.5-1.1-2.5-2.5 1.1-2.5 2.5-2.5 2.5 1.1 2.5 2.5zm-25.2 129.5c1.4 0 2.5-1.1 2.5-2.5s-1.1-2.5-2.5-2.5-2.5 1.1-2.5 2.5 1.1 2.5 2.5 2.5zm22.7-116.1c0 1.4-1.1 2.5-2.5 2.5s-2.5-1.1-2.5-2.5 1.1-2.5 2.5-2.5 2.5 1.1 2.5 2.5zm-25.2 129.6c1.4 0 2.5-1.1 2.5-2.5s-1.1-2.5-2.5-2.5-2.5 1.1-2.5 2.5c-.1 1.4 1.1 2.5 2.5 2.5zm22.7-115.3c0 1.4-1.1 2.5-2.5 2.5s-2.5-1.1-2.5-2.5 1.1-2.5 2.5-2.5c1.3 0 2.5 1.1 2.5 2.5zM198.6 227c1.4 0 2.5-1.1 2.5-2.5s-1.1-2.5-2.5-2.5-2.5 1.1-2.5 2.5 1.1 2.5 2.5 2.5z" id="Layer_35"/><path class="st8" d="m221.2 51 137.4 24.2-32.4 184.1-137.4-24.2L221.2 51zm6.7 17.7c0 1.4-1.1 2.5-2.5 2.5s-2.5-1.1-2.5-2.5 1.1-2.5 2.5-2.5c1.4-.1 2.5 1.1 2.5 2.5zm-25.2 129.5c1.4 0 2.5-1.1 2.5-2.5s-1.1-2.5-2.5-2.5-2.5 1.1-2.5 2.5 1.1 2.5 2.5 2.5zm22.7-116.1c0 1.4-1.1 2.5-2.5 2.5s-2.5-1.1-2.5-2.5 1.1-2.5 2.5-2.5 2.5 1.1 2.5 2.5zm-25.2 129.6c1.4 0 2.5-1.1 2.5-2.5s-1.1-2.5-2.5-2.5-2.5 1.1-2.5 2.5 1.1 2.5 2.5 2.5zm22.7-115.3c0 1.4-1.1 2.5-2.5 2.5s-2.5-1.1-2.5-2.5 1.1-2.5 2.5-2.5c1.3 0 2.5 1.1 2.5 2.5zM197.6 226c1.4 0 2.5-1.1 2.5-2.5s-1.1-2.5-2.5-2.5-2.5 1.1-2.5 2.5 1.1 2.5 2.5 2.5z" id="Layer_34"/><path class="st9" d="m220.1 50.5 137.4 24.2L325 258.8l-137.4-24.2 32.5-184.1zm6.7 17.6c0 1.4-1.1 2.5-2.5 2.5s-2.5-1.1-2.5-2.5 1.1-2.5 2.5-2.5 2.5 1.2 2.5 2.5zm-25.2 129.6c1.4 0 2.5-1.1 2.5-2.5s-1.1-2.5-2.5-2.5-2.5 1.1-2.5 2.5 1.1 2.5 2.5 2.5zm22.7-116.1c0 1.4-1.1 2.5-2.5 2.5s-2.5-1.1-2.5-2.5 1.1-2.5 2.5-2.5 2.5 1.1 2.5 2.5zm-25.2 129.6c1.4 0 2.5-1.1 2.5-2.5s-1.1-2.5-2.5-2.5-2.5 1.1-2.5 2.5c-.1 1.4 1.1 2.5 2.5 2.5zm22.7-115.3c0 1.4-1.1 2.5-2.5 2.5s-2.5-1.1-2.5-2.5 1.1-2.5 2.5-2.5 2.5 1.1 2.5 2.5zm-25.3 129.6c1.4 0 2.5-1.1 2.5-2.5s-1.1-2.5-2.5-2.5-2.5 1.1-2.5 2.5 1.2 2.5 2.5 2.5z" id="Layer_33"/><path class="st3" d="M214.3 55.1 69.7 30l-32 184.1 144.6 25.1 32-184.1zm-12.9 14.3c-.5 1.3.2 2.8 1.6 3.2 1.4.5 2.9-.2 3.4-1.5s-.2-2.8-1.6-3.2c-1.4-.5-2.9.1-3.4 1.5zm-20.1 130.4c-1.4-.5-2.1-1.9-1.6-3.3.5-1.3 2-2 3.4-1.5s2.1 1.9 1.6 3.3c-.5 1.3-2 2-3.4 1.5zm18-116.9c-.5 1.3.2 2.8 1.6 3.2 1.4.5 2.9-.2 3.4-1.5s-.2-2.8-1.6-3.2c-1.4-.5-3 .2-3.4 1.5zm-20.2 130.4c-1.4-.5-2.1-1.9-1.6-3.2.5-1.3 2-2 3.4-1.5s2.1 1.9 1.6 3.2c-.5 1.4-2 2-3.4 1.5zm17.7-116.1c-.5 1.3.2 2.8 1.6 3.2 1.4.5 2.9-.2 3.4-1.5s-.2-2.8-1.6-3.2c-1.4-.5-2.9.2-3.4 1.5zm-20.2 130.5c-1.4-.5-2.1-1.9-1.6-3.3.5-1.3 2-2 3.4-1.5s2.1 1.9 1.6 3.2c-.5 1.4-2 2-3.4 1.6z" id="Layer_32"/><path d="M213.2 49.9 75.7 26l-32 184.1L181.2 234l32-184.1zm-12.4 14.3c-.5 1.3.2 2.8 1.5 3.2 1.3.5 2.8-.2 3.2-1.5.5-1.3-.2-2.8-1.5-3.2-1.3-.5-2.7.2-3.2 1.5zm-20.2 130.5c-1.3-.5-2-1.9-1.5-3.2.5-1.3 1.9-2 3.2-1.5 1.3.5 2 1.9 1.5 3.2-.5 1.2-1.9 1.9-3.2 1.5zm18-117c-.5 1.3.2 2.8 1.5 3.2 1.3.5 2.8-.2 3.2-1.5.5-1.3-.2-2.8-1.5-3.2-1.3-.5-2.7.2-3.2 1.5zm-20.2 130.5c-1.3-.5-2-1.9-1.5-3.2.5-1.3 1.9-2 3.2-1.5 1.3.5 2 1.9 1.5 3.2-.5 1.3-1.9 1.9-3.2 1.5zM196.1 92c-.5 1.3.2 2.8 1.5 3.2 1.3.5 2.8-.2 3.2-1.5.5-1.3-.2-2.8-1.5-3.2-1.2-.5-2.7.2-3.2 1.5zm-20.2 130.5c-1.3-.5-2-1.9-1.5-3.2.5-1.3 1.9-2 3.2-1.5 1.3.5 2 1.9 1.5 3.2-.5 1.3-1.9 2-3.2 1.5z" fill-rule="evenodd" clip-rule="evenodd" fill="#cbcbca" id="Layer_31"/><path class="st9" d="M212.2 48.9 74.7 25l-32 184.1L180.2 233l32-184.1zm-12.4 14.3c-.5 1.3.2 2.8 1.5 3.2 1.3.5 2.8-.2 3.2-1.5.5-1.3-.2-2.8-1.5-3.2-1.3-.5-2.7.2-3.2 1.5zm-20.2 130.5c-1.3-.5-2-1.9-1.5-3.2.5-1.3 1.9-2 3.2-1.5 1.3.5 2 1.9 1.5 3.2-.5 1.2-1.9 1.9-3.2 1.5zm18-117c-.5 1.3.2 2.8 1.5 3.2 1.3.5 2.8-.2 3.2-1.5.5-1.3-.2-2.8-1.5-3.2-1.3-.5-2.7.2-3.2 1.5zm-20.2 130.5c-1.3-.5-2-1.9-1.5-3.2.5-1.3 1.9-2 3.2-1.5 1.3.5 2 1.9 1.5 3.2-.5 1.3-1.9 1.9-3.2 1.5zM195.1 91c-.5 1.3.2 2.8 1.5 3.2 1.3.5 2.8-.2 3.2-1.5.5-1.3-.2-2.8-1.5-3.2-1.2-.5-2.7.2-3.2 1.5zm-20.2 130.5c-1.3-.5-2-1.9-1.5-3.2.5-1.3 1.9-2 3.2-1.5 1.3.5 2 1.9 1.5 3.2-.5 1.3-1.9 2-3.2 1.5z" id="Layer_30"/><path class="st11" d="M212.9 48.4 75.4 24.5l-32 184.1 137.5 23.9 32-184.1zm-12.4 14.3c-.5 1.3.2 2.8 1.5 3.2 1.3.5 2.8-.2 3.2-1.5.5-1.3-.2-2.8-1.5-3.2-1.3-.5-2.7.2-3.2 1.5zm-20.3 130.5c-1.3-.5-2-1.9-1.5-3.2.5-1.3 1.9-2 3.2-1.5 1.3.5 2 1.9 1.5 3.2-.4 1.3-1.9 2-3.2 1.5zm18.1-117c-.5 1.3.2 2.8 1.5 3.2 1.3.5 2.8-.2 3.2-1.5.5-1.3-.2-2.8-1.5-3.2-1.3-.4-2.7.2-3.2 1.5zM178 206.7c-1.3-.5-2-1.9-1.5-3.2.5-1.3 1.9-2 3.2-1.5 1.3.5 2 1.9 1.5 3.2-.4 1.3-1.9 2-3.2 1.5zm17.8-116.1c-.5 1.3.2 2.8 1.5 3.2 1.3.5 2.8-.2 3.2-1.5.5-1.3-.2-2.8-1.5-3.2-1.3-.5-2.7.1-3.2 1.5zM175.6 221c-1.3-.5-2-1.9-1.5-3.2.5-1.3 1.9-2 3.2-1.5 1.3.5 2 1.9 1.5 3.2-.5 1.3-1.9 2-3.2 1.5z" id="Layer_29"/><path class="st9" d="M212.2 47.9 74.7 24l-32 184.1L180.2 232l32-184.1zm-12.4 14.3c-.5 1.3.2 2.8 1.5 3.2 1.3.5 2.8-.2 3.2-1.5.5-1.3-.2-2.8-1.5-3.2-1.3-.5-2.7.2-3.2 1.5zm-20.2 130.5c-1.3-.5-2-1.9-1.5-3.2.5-1.3 1.9-2 3.2-1.5 1.3.5 2 1.9 1.5 3.2-.5 1.2-1.9 1.9-3.2 1.5zm18-117c-.5 1.3.2 2.8 1.5 3.2 1.3.5 2.8-.2 3.2-1.5.5-1.3-.2-2.8-1.5-3.2-1.3-.5-2.7.2-3.2 1.5zm-20.2 130.5c-1.3-.5-2-1.9-1.5-3.2.5-1.3 1.9-2 3.2-1.5 1.3.5 2 1.9 1.5 3.2-.5 1.3-1.9 1.9-3.2 1.5zM195.1 90c-.5 1.3.2 2.8 1.5 3.2 1.3.5 2.8-.2 3.2-1.5.5-1.3-.2-2.8-1.5-3.2-1.2-.5-2.7.2-3.2 1.5zm-20.2 130.5c-1.3-.5-2-1.9-1.5-3.2.5-1.3 1.9-2 3.2-1.5 1.3.5 2 1.9 1.5 3.2-.5 1.3-1.9 2-3.2 1.5z" id="Layer_28"/><path class="st11" d="M214 49.3 76.6 25.4l-32 184.1L182 233.4l32-184.1zm-12.3 14.3c-.5 1.3.2 2.8 1.5 3.2 1.3.5 2.8-.2 3.2-1.5.5-1.3-.2-2.8-1.5-3.2-1.3-.5-2.8.2-3.2 1.5zM181.4 194c-1.3-.5-2-1.9-1.5-3.2.5-1.3 1.9-2 3.2-1.5 1.3.5 2 1.9 1.5 3.2-.4 1.3-1.9 2-3.2 1.5zm18.1-116.9c-.5 1.3.2 2.8 1.5 3.2 1.3.5 2.8-.2 3.2-1.5.5-1.3-.2-2.8-1.5-3.2-1.3-.5-2.8.2-3.2 1.5zm-20.3 130.4c-1.3-.5-2-1.9-1.5-3.2.5-1.3 1.9-2 3.2-1.5 1.3.5 2 1.9 1.5 3.2-.4 1.3-1.9 2-3.2 1.5zM197 91.4c-.5 1.3.2 2.8 1.5 3.2 1.3.5 2.8-.2 3.2-1.5.5-1.3-.2-2.8-1.5-3.2-1.3-.5-2.8.2-3.2 1.5zm-20.3 130.5c-1.3-.5-2-1.9-1.5-3.2.5-1.3 1.9-2 3.2-1.5 1.3.5 2 1.9 1.5 3.2-.4 1.2-1.9 1.9-3.2 1.5z" id="Layer_27"/><path class="st9" d="M214.1 48.7 76.8 24 43.7 208 181 232.6l33.1-183.9zm-12.5 14.2c-.5 1.3.2 2.8 1.5 3.2 1.3.5 2.8-.2 3.2-1.5.5-1.3-.2-2.8-1.5-3.2-1.2-.5-2.7.2-3.2 1.5zm-21 130.4c-1.3-.5-2-1.9-1.5-3.2.5-1.3 1.9-2 3.2-1.5 1.3.5 2 1.9 1.5 3.2-.4 1.3-1.9 1.9-3.2 1.5zm18.8-116.9c-.5 1.3.2 2.8 1.5 3.2 1.3.5 2.8-.2 3.2-1.5.5-1.3-.2-2.8-1.5-3.2-1.3-.5-2.7.2-3.2 1.5zm-21 130.4c-1.3-.5-2-1.9-1.5-3.2.5-1.3 1.9-2 3.2-1.5 1.3.5 2 1.9 1.5 3.2-.5 1.3-1.9 1.9-3.2 1.5zm18.4-116.1c-.5 1.3.2 2.8 1.5 3.2 1.3.5 2.8-.2 3.2-1.5.5-1.3-.2-2.8-1.5-3.2-1.3-.5-2.7.2-3.2 1.5zm-21 130.4c-1.3-.5-2-1.9-1.5-3.2.5-1.3 1.9-2 3.2-1.5 1.3.5 2 1.9 1.5 3.2-.4 1.3-1.9 1.9-3.2 1.5z" id="Layer_26"/><g id="Layer_25"><path class="st12" d="M224.7 67.8c.8-5.7-3.1-10.9-8.8-11.8-5.7-.8-10.9 3.1-11.8 8.8M202.1 195.4c1-5.6-2.8-11-8.4-12-5.6-1-11 2.8-12 8.4M222.7 81.8c.8-5.7-3.1-10.9-8.8-11.8-5.7-.8-10.9 3.1-11.8 8.8M199.7 209.3c1-5.6-2.8-11-8.4-12s-11 2.8-12 8.4M220.6 95.8c.8-5.7-3.1-10.9-8.8-11.8-5.7-.8-10.9 3.1-11.8 8.8M197.2 223.3a10.35 10.35 0 1 0-20.4-3.6"/></g><path class="st13" d="M223.9 67.8c.8-5.7-3.1-10.9-8.8-11.8-5.7-.8-10.9 3.1-11.8 8.8" id="Layer_24"/><path class="st13" d="M201.3 195.4c1-5.6-2.8-11-8.4-12-5.6-1-11 2.8-12 8.4" id="Layer_23"/><path class="st13" d="M221.6 81.4c.8-5.7-3.1-10.9-8.8-11.8-5.7-.8-10.9 3.1-11.8 8.8" id="Layer_22"/><path class="st13" d="M198.8 209.3a10.35 10.35 0 1 0-20.4-3.6" id="Layer_21"/><path class="st13" d="M219.8 95.8c.8-5.7-3.1-10.9-8.8-11.8-5.7-.8-10.9 3.1-11.8 8.8" id="Layer_20"/><path class="st13" d="M196.4 223.3a10.35 10.35 0 1 0-20.4-3.6" id="Layer_19"/><path class="st14" d="m75.4 61.2 114.3 20.1" id="Layer_18"/><path class="st14" d="m72.8 75.7 114.4 20.1" id="Layer_17"/><path class="st14" d="m65.2 119.1 114.3 20.1" id="Layer_16"/><path class="st14" d="m70.3 90.1 114.3 20.2" id="Layer_15"/><path class="st14" d="m67.7 104.6 114.4 20.2" id="Layer_14"/><path fill="none" stroke="#a8a8a8" stroke-width="2" d="m98.1 41.2-16.3 92.9" id="Layer_13"/><path d="M104.5 51.1c0-.1 0-.1 0 0-.1-.1-.1-.2-.1-.2 0-.1.1-.1.1-.2l.9-.3c.3-.1.6-.2.9-.2h1c.4 0 .7.1 1 .1l.3.1c.2 0 .4.1.6.1.2.1.3.1.5.3l.1.1c.1 0 .1.1.1.2v.4c0 .1 0 .1-.1.2 0 .1-.1.1-.1.2-.1.1-.1.1-.2.1h-.1c-.1 0-.1 0-.1-.1v-.1c0-.1 0-.2.1-.2 0-.1.1-.1.1-.1s0-.1-.1-.2-.3-.2-.5-.3c-.2-.1-.5-.1-.7-.2-.2 0-.5-.1-.8 0-.3 0-.6 0-1 .1-.3.1-.7.1-1 .2-.3-.3-.6-.2-.9 0zm.8 4.6c-.1 0-.2-.1-.3-.2-.1-.1-.1-.2 0-.4s.2-.5.3-.8c.1-.3.3-.6.5-1 .2-.3.4-.7.6-1 .2-.3.4-.7.6-1 .2-.3.4-.5.5-.7.1-.1.2-.1.3-.1.1 0 .1 0 .1.1 0 0 .1.1 0 .2 0 0 0 .1-.1.2 0 .1-.1.2-.1.3 0 .1-.1.2-.1.2l-.3.3c-.1.1-.2.2-.3.4-.4.6-.8 1.2-1 1.7-.3.5-.4.9-.5 1.3v.2c0 .1.1.1.1.2s.1.1 0 .2c0 .1-.1.1-.1.1-.1-.2-.1-.2-.2-.2zm3.8.2h-.2c-.3-.1-.5-.2-.6-.5-.1-.3-.1-.5-.1-.8 0-.2.1-.4.2-.6.1-.2.3-.4.5-.5.2-.1.4-.3.6-.3.2-.1.5-.1.7 0 .1 0 .2.1.3.1.1 0 .1.1.1.2s0 .1-.1.1h-.8c-.2.1-.3.1-.5.3-.2.1-.3.3-.4.4-.1.1-.1.3-.1.4v.5c.1.2.2.3.3.3h.2c.3.1.6 0 .9-.1.3-.1.5-.3.7-.4.1-.1.2-.2.2-.3 0-.1.1-.2.1-.2 0-.1 0-.2-.1-.3-.1-.1-.1-.1-.2-.1h-.7c-.1 0-.1 0-.2-.1v-.2c0-.1.1-.2.2-.2H111c.2 0 .4.1.5.3.1.2.1.3.1.5 0 .1-.1.3-.2.4-.1.1-.2.3-.4.4-.1.1-.3.3-.5.4-.2.1-.4.2-.7.3h-.7zm4.4.8c-.4-.1-.7-.2-.9-.4-.2-.2-.4-.4-.5-.6-.1-.2-.1-.5-.1-.7 0-.1.1-.2.1-.4l.3-.3c.1-.1.3-.3.5-.4.2-.1.5-.3.7-.4.3-.1.5-.2.8-.2.3-.1.6-.1.9 0 .2 0 .4.1.5.1l.2.2c0 .1.1.1.1.2.1-.2.3-.5.4-.7.2-.3.3-.5.4-.7.1-.2.3-.4.3-.5.1-.1.1-.2.2-.3.1-.1.1-.2.2-.3l.1-.1c.1-.1.2-.1.3-.1.1 0 .2.1.2.1.1.1.1.2.1.3 0 .1-.1.1-.1.2l-.1.1c-.1 0-.1.1-.2.2s-.1.2-.2.2c-.1.2-.3.4-.4.6-.2.2-.3.5-.5.8-.2.3-.3.6-.5.9-.1.3-.3.6-.3.9 0 0 0 .1-.1.1h-.1c-.1 0-.1 0-.2-.1-.1 0-.1-.1 0-.2 0-.1.1-.2.1-.3 0-.1.1-.2.1-.3v-.5c0-.1-.1-.2-.2-.3 0 0-.1-.1-.2-.1H114.5c-.2.1-.5.1-.7.3-.2.1-.4.2-.6.4-.2.1-.3.3-.4.4-.1.1-.2.2-.2.4s0 .3.2.5c.1.2.4.3.8.4h.2c.3 0 .6.1.9 0 .3 0 .6-.1.8-.1.2 0 .4-.1.5-.2.2-.1.3-.1.4-.2h.2c.1 0 .1 0 .1.1 0 0 .1.1 0 .2 0 .1-.1.1-.1.2-.1.1-.3.2-.5.3-.2.1-.4.2-.6.2-.3.1-.6.1-1 .1-.4.1-.7.1-1 0zm4.5.7h-.2c-.3-.1-.5-.2-.6-.5-.1-.3-.1-.5-.1-.8 0-.2.1-.4.2-.6.1-.2.3-.4.5-.5.2-.1.4-.3.6-.3.2-.1.5-.1.7 0 .1 0 .2.1.3.1.1 0 .1.1.1.2s0 .1-.1.1h-.8c-.2.1-.3.1-.5.3-.2.1-.3.3-.4.4-.1.1-.1.3-.1.4v.5c.1.2.2.3.3.3h.2c.3.1.6 0 .9-.1.3-.1.5-.3.7-.4.1-.1.2-.2.2-.3 0-.1.1-.2.1-.2 0-.1 0-.2-.1-.3-.1-.1-.1-.1-.2-.1h-.7c-.1 0-.1 0-.2-.1v-.2c0-.1.1-.2.2-.2H119.9c.2 0 .4.1.5.3.1.2.1.3.1.5 0 .1-.1.3-.2.4-.1.1-.2.3-.4.4-.1.1-.3.3-.5.4-.2.1-.4.2-.7.3-.2.1-.4.1-.7 0zm2 2.2c-.1 0-.2-.1-.1-.2 0-.1 0-.1.1-.2.2-.2.4-.3.6-.5.2-.1.3-.3.4-.4.1-.1.1-.2.1-.3V57.7c0-.1 0-.1.1-.2h.2c.1 0 .2.1.2.2v.3c0 .1 0 .2-.1.3 0 .1-.1.2-.1.3-.1.2-.3.4-.5.5-.2.2-.4.3-.6.4-.2.1-.3.1-.3.1z" id="Layer_12"/><path transform="rotate(-80.01 247.37 161.18)" class="st16" d="M244.5 131h5.7v60.4h-5.7z" id="Layer_11"/><path transform="rotate(-80.01 247.14 162.11)" class="st17" d="M245.4 131.9h3.5v60.4h-3.5z" id="Layer_10"/><path transform="rotate(-80.01 269.4 184.61)" class="st16" d="M257.6 128.4h23.6v112.3h-23.6z" id="Layer_9"/><path transform="rotate(-80.01 269.24 185.87)" class="st17" d="M258.4 129.7h21.7V242h-21.7z" id="Layer_8"/><path transform="rotate(-80.01 239.8 200.73)" class="st16" d="M237 170.5h5.7v60.4H237z" id="Layer_7"/><path transform="rotate(-80.01 239.57 201.66)" class="st17" d="M237.8 171.5h3.5v60.4h-3.5z" id="Layer_6"/><path transform="rotate(-80.01 261.83 224.16)" class="st16" d="M250 168h23.6v112.3H250z" id="Layer_5"/><path transform="rotate(-80.01 261.67 225.42)" class="st17" d="M250.8 169.2h21.7v112.3h-21.7z" id="Layer_4"/><path transform="rotate(-80.01 311.94 112.76)" fill="#ababab" d="M280.8 85.9h62.3v53.8h-62.3z" id="Layer_3"/><path transform="rotate(-80.01 311.26 111.08)" fill="#fcc748" d="M280.1 84.2h62.3V138h-62.3z" id="Layer_2"/></svg>