<svg width="286" height="328" fill="none" xmlns="http://www.w3.org/2000/svg"><g filter="url(#a)"><path fill="#C0959A" d="M3.88 54.82 217.6 2.32 284 272.65l-213.73 52.5z"/></g><path fill="#E8EEEE" d="M0 52.5 213.73 0l66.4 270.33-213.73 52.5z"/><g filter="url(#b)"><path fill="#A9A9A9" d="M40.06 29.87 260 31.42l-1.96 278.18-219.94-1.55z"/></g><path fill="#FBFBF9" d="m36.96 26 219.94 1.55-1.96 278.18L35 304.18z"/><circle cx="157.32" cy="89.5" r="7.39" transform="rotate(.4 157.32 89.5)" fill="#E8EEEE"/><circle cx="157.12" cy="117.32" r="7.39" transform="rotate(.4 157.12 117.32)" fill="#E8EEEE"/><circle cx="156.92" cy="145.14" r="7.39" transform="rotate(.4 156.92 145.14)" fill="#E8EEEE"/><path fill="#BCC1C1" d="m57.25 40.55 182.56 1.29-.15 20.86L57.1 61.4z"/><g filter="url(#c)"><path fill="#E8EEEE" d="m59.4 43.13 180.78 1.27-.14 19.24-180.78-1.27z"/></g><path fill="#E8EEEE" d="m56.29 176.16 115.62.81-.13 17.4-115.61-.82zM55.88 235.28l182.56 1.29-.06 7.82-182.56-1.29zM56.09 205.72l182.56 1.29-.06 7.82-182.56-1.29zM55.67 264.83l182.56 1.29-.06 7.82-182.56-1.29zM55.77 250.05l182.56 1.29-.06 7.82-182.56-1.29z"/><path fill="#C5AD72" d="m55.98 220.5 182.56 1.29-.06 7.82-182.56-1.29z"/><g filter="url(#d)"><path fill="#F0D38B" d="m55.97 222.31 182.56 1.29-.05 6.19-182.55-1.29z"/></g><path fill="#E8EEEE" d="m55.56 279.61 182.56 1.29-.06 7.82-182.56-1.29z"/><path fill="#C5AD72" d="m172.58 82.22 53.9.38-.04 6.09-53.9-.38z"/><g filter="url(#e)"><path fill="#F0D38B" d="m172.57 83.95 53.9.38-.03 4.36-53.9-.38z"/></g><path fill="#E8EEEE" d="m172.39 110.04 53.9.38-.04 6.09-53.9-.38zM172.19 137.85l53.9.38-.04 6.09-53.9-.38z"/><path fill="#C5AD72" d="m172.53 90.04 63.46.45-.04 6.09-63.46-.45z"/><g filter="url(#f)"><path fill="#F0D38B" d="m172.51 91.89 63.46.45-.03 4.24-63.46-.45z"/></g><path fill="#E8EEEE" d="m172.33 117.86 31.3.22-.04 6.09-31.3-.22zM172.13 145.68l42.6.3-.04 6.09-42.6-.3z"/><circle cx="94.67" cy="115.89" r="42.62" fill="#E8EEEE"/><path d="m94.92 113.32.3-42.37 22.15 1.53 22 24.57-5.97 44.63-15.7 6.8-22.78-35.16Z" fill="#F0D38B"/><g filter="url(#g)"><path fill-rule="evenodd" clip-rule="evenodd" d="M95.92 159.05c24.55 0 44.44-19.37 44.43-43.27 0-23.9-19.9-43.28-44.44-43.28-24.55 0-44.44 19.37-44.44 43.27 0 23.9 19.9 43.28 44.45 43.28Zm-.29-4.47c22.03.16 40-17.1 40.15-38.55.15-21.45-17.58-38.96-39.6-39.11-22.02-.16-40 17.1-40.15 38.55-.15 21.44 17.58 38.96 39.6 39.11Z" fill="#B0B4B4"/></g><g filter="url(#h)"><circle cx="95.88" cy="118.53" r="30.43" transform="rotate(.4 95.88 118.53)" fill="#B6B9B9"/></g><path fill-rule="evenodd" clip-rule="evenodd" d="M144.27 70.17h-96.1v91.44h96.1V70.17Zm-7.99 44.58a40.42 40.42 0 1 1-80.85 0 40.42 40.42 0 0 1 80.85 0Zm-8.46.2a31.93 31.93 0 1 1-63.86-.45 31.93 31.93 0 0 1 63.86.45Z" fill="#FBFBF9"/><defs><filter id="a" x="1.88" y=".33" width="284.12" height="326.82" filterUnits="userSpaceOnUse" color-interpolation-filters="sRGB"><feFlood flood-opacity="0" result="BackgroundImageFix"/><feBlend in="SourceGraphic" in2="BackgroundImageFix" result="shape"/><feGaussianBlur stdDeviation="1" result="effect1_foregroundBlur_2_2402"/></filter><filter id="b" x="36.1" y="27.87" width="225.9" height="283.74" filterUnits="userSpaceOnUse" color-interpolation-filters="sRGB"><feFlood flood-opacity="0" result="BackgroundImageFix"/><feBlend in="SourceGraphic" in2="BackgroundImageFix" result="shape"/><feGaussianBlur stdDeviation="1" result="effect1_foregroundBlur_2_2402"/></filter><filter id="c" x="58.26" y="42.13" width="182.91" height="22.52" filterUnits="userSpaceOnUse" color-interpolation-filters="sRGB"><feFlood flood-opacity="0" result="BackgroundImageFix"/><feBlend in="SourceGraphic" in2="BackgroundImageFix" result="shape"/><feGaussianBlur stdDeviation=".5" result="effect1_foregroundBlur_2_2402"/></filter><filter id="d" x="54.92" y="221.31" width="184.6" height="9.48" filterUnits="userSpaceOnUse" color-interpolation-filters="sRGB"><feFlood flood-opacity="0" result="BackgroundImageFix"/><feBlend in="SourceGraphic" in2="BackgroundImageFix" result="shape"/><feGaussianBlur stdDeviation=".5" result="effect1_foregroundBlur_2_2402"/></filter><filter id="e" x="171.54" y="82.95" width="55.93" height="6.74" filterUnits="userSpaceOnUse" color-interpolation-filters="sRGB"><feFlood flood-opacity="0" result="BackgroundImageFix"/><feBlend in="SourceGraphic" in2="BackgroundImageFix" result="shape"/><feGaussianBlur stdDeviation=".5" result="effect1_foregroundBlur_2_2402"/></filter><filter id="f" x="171.48" y="90.89" width="65.49" height="6.68" filterUnits="userSpaceOnUse" color-interpolation-filters="sRGB"><feFlood flood-opacity="0" result="BackgroundImageFix"/><feBlend in="SourceGraphic" in2="BackgroundImageFix" result="shape"/><feGaussianBlur stdDeviation=".5" result="effect1_foregroundBlur_2_2402"/></filter><filter id="g" x="50.47" y="71.5" width="90.88" height="88.55" filterUnits="userSpaceOnUse" color-interpolation-filters="sRGB"><feFlood flood-opacity="0" result="BackgroundImageFix"/><feBlend in="SourceGraphic" in2="BackgroundImageFix" result="shape"/><feGaussianBlur stdDeviation=".5" result="effect1_foregroundBlur_2_2402"/></filter><filter id="h" x="64.46" y="87.11" width="62.86" height="62.86" filterUnits="userSpaceOnUse" color-interpolation-filters="sRGB"><feFlood flood-opacity="0" result="BackgroundImageFix"/><feBlend in="SourceGraphic" in2="BackgroundImageFix" result="shape"/><feGaussianBlur stdDeviation=".5" result="effect1_foregroundBlur_2_2402"/></filter></defs></svg>