<svg width="189" height="188" fill="none" xmlns="http://www.w3.org/2000/svg"><g filter="url(#a)"><ellipse cx="95.5" cy="94.2" rx="87.9" ry="88.3" transform="rotate(.4 95.5 94.2)" fill="#BBABA7"/></g><ellipse cx="88.5" cy="90.9" rx="87.9" ry="88.3" transform="rotate(.4 88.5 91)" fill="#7290C4"/><g filter="url(#b)"><path fill="#4D6183" d="m146.1 86.8 30.5.2-.2 24.8-30.5-.2z"/></g><g filter="url(#c)"><circle cx="94.3" cy="97.1" r="57.1" transform="rotate(.4 94.3 97)" fill="#4D6183"/></g><circle cx="88.5" cy="90.5" r="57.1" transform="rotate(.4 88.5 90.5)" fill="#FDFBF7"/><path d="m143.7 81 31 .2a4 4 0 0 1 3.9 4l-.1 16.8a4 4 0 0 1-4 4l-31-.2.2-24.8Z" fill="#FDFBF7"/><circle cx="88.4" cy="91.3" r="52.1" transform="rotate(.4 88.4 91.3)" fill="#634E4C"/><g filter="url(#d)"><circle cx="91.5" cy="95.9" r="46.9" transform="rotate(.4 91.5 96)" fill="#846765"/></g><defs><filter id="a" x="2.6" y=".9" width="185.8" height="186.6" filterUnits="userSpaceOnUse" color-interpolation-filters="sRGB"><feFlood flood-opacity="0" result="BackgroundImageFix"/><feBlend in="SourceGraphic" in2="BackgroundImageFix" result="shape"/><feGaussianBlur stdDeviation="2.5" result="effect1_foregroundBlur_2_2403"/></filter><filter id="b" x="141" y="81.8" width="40.7" height="35" filterUnits="userSpaceOnUse" color-interpolation-filters="sRGB"><feFlood flood-opacity="0" result="BackgroundImageFix"/><feBlend in="SourceGraphic" in2="BackgroundImageFix" result="shape"/><feGaussianBlur stdDeviation="2.5" result="effect1_foregroundBlur_2_2403"/></filter><filter id="c" x="32.2" y="35" width="124.1" height="124.1" filterUnits="userSpaceOnUse" color-interpolation-filters="sRGB"><feFlood flood-opacity="0" result="BackgroundImageFix"/><feBlend in="SourceGraphic" in2="BackgroundImageFix" result="shape"/><feGaussianBlur stdDeviation="2.5" result="effect1_foregroundBlur_2_2403"/></filter><filter id="d" x="39.6" y="44" width="103.8" height="103.8" filterUnits="userSpaceOnUse" color-interpolation-filters="sRGB"><feFlood flood-opacity="0" result="BackgroundImageFix"/><feBlend in="SourceGraphic" in2="BackgroundImageFix" result="shape"/><feGaussianBlur stdDeviation="2.5" result="effect1_foregroundBlur_2_2403"/></filter></defs></svg>