<svg width="314" height="149" fill="none" xmlns="http://www.w3.org/2000/svg"><path stroke="#BCCAE3" stroke-width="5" d="M0 2.5h280"/><g filter="url(#a)"><path fill="#BB576B" d="M141 34h153v95H141z"/></g><g filter="url(#b)"><path fill="#8E8E8A" d="M47 34h94v95H47z"/></g><path fill="#7290C4" stroke="#6A7589" stroke-width="5" d="M13.5 5.5H277v90H13.5z"/><path d="M142.4 60a1.2 1.2 0 0 1-1.2-1.5l1.3-6.3L144 46c.1-.4.4-.8.7-1 .4-.4.8-.5 1.2-.5l1.3-.1 2.1-.1c2 0 3.5.5 4.7 1.4 1.2 1 1.8 2.4 1.8 4.3 0 1.4-.3 2.8-1 4.1a13 13 0 0 1-2.7 3.6c-1 .8-2 1.4-3 1.8-1.2.3-2.3.5-3.4.5h-3.2Zm2.2-2.8h1.7c1.1 0 2-.3 2.7-.6.7-.4 1.4-.9 2-1.6.5-.7 1-1.5 1.2-2.3.3-.7.4-1.5.4-2.2 0-1-.3-2-1-2.4-.7-.6-1.7-.9-3.3-.9l-1.6.1-.7 3.2-.8 4-.6 2.7Zm22 3a796.5 796.5 0 0 1-9.6-.4c-.2-.2-.4-.4-.4-.6-.1-.3-.2-.6-.1-.9l1.3-6.2a68.8 68.8 0 0 1 1.8-6.7 2 2 0 0 1 1.6-1 209.4 209.4 0 0 1 8.7 0c.4 0 .7 0 1 .4.2.3.3.6.2 1-.1.4-.3.8-.7 1.1-.3.3-.7.5-1.1.5h-7.4l-.8 3.1h6.6c.4 0 .7.1 1 .4.2.3.3.7.2 1.1-.1.4-.3.8-.7 1.1-.4.3-.8.4-1.2.4h-6.5l-.7 3.5h7.5c.4 0 .7.2 1 .5.2.3.2.7.1 1.1 0 .4-.3.8-.6 1-.4.4-.8.5-1.2.5Zm9.3 0c-1.7 0-3-.3-3.9-1a3.6 3.6 0 0 1-1.3-3c0-.8.2-1.4.6-1.8.4-.5.8-.7 1.3-.7.4 0 .6.1.9.3.2.2.4.5.4.9l-.1.8v.4c0 .4.2.7.6.9.4.2 1 .3 1.8.3.5 0 1 0 1.5-.2s.9-.4 1.2-.7c.3-.3.4-.6.4-1a1 1 0 0 0-.3-.7 3 3 0 0 0-1.1-.7l-.9-.3a643.4 643.4 0 0 0-1.7-.7c-2.2-.9-3.3-2.2-3.3-4 0-.8.3-1.6.8-2.3a6.8 6.8 0 0 1 5.3-2.5c1.5 0 2.8.3 3.8 1 1 .8 1.5 1.9 1.5 3.2 0 .7-.2 1.3-.5 1.7-.3.4-.7.6-1.2.6s-.8-.2-1.1-.4c-.3-.2-.4-.5-.4-1v-.7l-.2-.5c-.2-.3-.6-.5-1-.7-.5-.2-1-.3-1.6-.3-.7 0-1.3.1-1.7.4-.4.3-.6.7-.6 1 0 .4.2.7.5 1a11.4 11.4 0 0 0 2.3 1l2.2 1c.8.4 1.4.9 1.8 1.4.4.5.6 1.2.6 2 0 1-.4 2-1 2.8-.7.8-1.5 1.4-2.5 1.9-1 .4-2 .7-3 .7Zm8.9 0c-.4 0-.8-.2-1-.5-.3-.3-.4-.6-.3-1 .1-.4.3-.8.6-1 .3-.4.7-.5 1-.6.6-2.6 1.3-5.8 2-9.7-.3 0-.5-.3-.7-.5-.2-.3-.2-.6-.1-1 0-.4.3-.8.6-1.1.4-.3.8-.4 1.2-.4h2.5c.4 0 .8.1 1 .4.2.4.3.7.2 1.1 0 .4-.3.7-.6 1a2 2 0 0 1-1 .5l-2 9.6c.4 0 .6.3.8.5.2.3.3.6.2 1 0 .4-.3.8-.7 1.1-.3.3-.7.5-1.1.5h-2.6Zm19.4-2.6c-1 .8-1.9 1.5-2.9 1.9a7.2 7.2 0 0 1-5.6.1 5.8 5.8 0 0 1-3.5-3.7c-.3-1.1-.3-2.2 0-3.4a9 9 0 0 1 1.2-3.2c.6-1 1.4-1.8 2.3-2.6 1-.8 2-1.4 3-1.8 1-.4 2.2-.6 3.3-.6a6 6 0 0 1 4.4 2.2 5.6 5.6 0 0 1 .7 1l.3.6v1.1a2 2 0 0 1-.8 1c-.4.3-.8.4-1.2.3-.4 0-.7-.2-.9-.6l-.3-.5-.2-.5-.3-.4-.2-.3-.4-.3c-.9-.5-1.8-.7-2.8-.5-1 .2-2 .6-2.8 1.4-1 .8-1.7 1.7-2 2.7-.5 1-.5 2-.3 3 .3 1 .9 1.6 1.7 2a4 4 0 0 0 2.6.5 5 5 0 0 0 2.7-1.4c.4-.3.6-.6.7-.8l.1-.3h-2.4c-.4 0-.8 0-1-.3-.3-.3-.3-.7-.3-1 .1-.5.3-.9.6-1.2.4-.3.8-.5 1.2-.5h4c.5 0 .8.1 1 .4.3.3.4.7.3 1.2l-.1.5a9.3 9.3 0 0 1-.6 2 7 7 0 0 1-1.5 2Zm15 2.4c-.5.1-1 0-1.2-.5-.8-1.2-1.6-2.9-2.7-5.2-1-2.3-1.9-3.8-2.4-4.7a883.3 883.3 0 0 1-1.7 9c-.1.4-.3.8-.7 1-.4.4-.8.5-1.2.5-.4 0-.7-.1-1-.4-.2-.3-.3-.7-.2-1.1l1.2-6.3c.5-2.9 1-5 1.4-6.5 0-.5.3-.8.7-1.1.4-.3.8-.4 1.2-.4l.5.1c.3 0 .5.3.7.5a256.2 256.2 0 0 1 4.5 7.7l.7 1.5a379 379 0 0 0 1.8-8.3c0-.4.3-.8.6-1 .4-.4.8-.5 1.2-.5.5 0 .8 0 1 .4.3.3.3.6.3 1L221 58.5a2 2 0 0 1-1.8 1.5Z" fill="#484848"/><defs><filter id="a" x="121" y="14" width="193" height="135" filterUnits="userSpaceOnUse" color-interpolation-filters="sRGB"><feFlood flood-opacity="0" result="BackgroundImageFix"/><feBlend in="SourceGraphic" in2="BackgroundImageFix" result="shape"/><feGaussianBlur stdDeviation="10" result="effect1_foregroundBlur_12_569"/></filter><filter id="b" x="27" y="14" width="134" height="135" filterUnits="userSpaceOnUse" color-interpolation-filters="sRGB"><feFlood flood-opacity="0" result="BackgroundImageFix"/><feBlend in="SourceGraphic" in2="BackgroundImageFix" result="shape"/><feGaussianBlur stdDeviation="10" result="effect1_foregroundBlur_12_569"/></filter></defs></svg>