<svg width="339" height="145" fill="none" xmlns="http://www.w3.org/2000/svg"><g filter="url(#a)"><path fill="#B8566A" d="M129 30h190v95H129z"/></g><g filter="url(#b)"><path fill="#8E8E8A" d="M56 30h75v95H56z"/></g><path fill="#7AD0E0" stroke="#768C8F" stroke-width="5" d="M2.5 5.5h303.8v90H2.5z"/><path stroke="#A5F1FF" stroke-width="5" d="M2 2.5h307"/><path d="M167.4 56.4a2 2 0 0 1-.7 1.1c-.4.3-.8.5-1.2.4-.4 0-.8-.1-1-.4-.2-.3-.3-.7-.2-1.1l1.8-8.5a92.3 92.3 0 0 0-4.2 4.4 2 2 0 0 1-1.1.6c-.4.1-.8 0-1-.2h-.2l-.3-.5-2.5-4.2a396.7 396.7 0 0 1-1.8 8.4c0 .4-.3.8-.7 1-.3.4-.7.5-1.1.5-.5 0-.8-.1-1-.4-.3-.3-.4-.7-.3-1.1a1756 1756 0 0 0 3.1-13.8 2 2 0 0 1 1.2-.5h.6c.4.1.7.3.9.7l3.6 6.1c2-2.2 4-4.2 6-6 .5-.5 1-.7 1.6-.7.4 0 .7.2 1 .5.2.3.3.7.2 1a175.8 175.8 0 0 0-2.7 12.7ZM178 58c-1.3 0-2.5-.3-3.6-.8a6.2 6.2 0 0 1-3.4-5.7c0-1.7.5-3.3 1.3-4.7A8.8 8.8 0 0 1 181 42l.8.2.6.2a30.7 30.7 0 0 1 1.6.6c.8.6 1.5 1.4 2 2.4a9 9 0 0 1-.5 7.8 9.5 9.5 0 0 1-3.3 3.4 7.8 7.8 0 0 1-4.3 1.3Zm.5-3c1 0 1.8-.2 2.6-.8.8-.5 1.4-1.2 1.9-2a5.4 5.4 0 0 0 .2-5c-.3-.8-.7-1.3-1.2-1.6l-1-.3a10.5 10.5 0 0 0-.7-.2h-1c-.9 0-1.7.2-2.5.8-.8.5-1.5 1.2-2 2.2-.4.9-.6 1.8-.6 2.8 0 1.4.3 2.4 1 3.1.8.7 2 1 3.3 1Zm14 3.1h-1.6l-1.8-.1h-.2c-.2 0-.5 0-.7-.2-.4-.2-.6-.6-.6-1v-.4l.2-.3.8-3.7a115.7 115.7 0 0 0 1.5-8.2c0-.4.2-.8.5-1a2 2 0 0 1 1-.7l.9-.2 2.7-.1c2 0 3.6.3 4.6 1 1 .7 1.5 1.7 1.5 3 0 .7-.2 1.4-.6 2-.4.7-.9 1-1.4 1.3a3 3 0 0 1 1.5 1.1c.3.5.4 1 .4 1.7 0 1-.2 1.7-.5 2.4-.5.7-1.2 1.4-2.1 2a11 11 0 0 1-6.2 1.4Zm1.3-3 2-.2c.6-.1 1-.3 1.4-.5.4-.2.6-.5.7-.7.2-.2.2-.5.2-.9 0-.7-.6-1.1-1.7-1.2l-2.2-.1h-2.4l-.8 3.5h2.8Zm1-6.6c1 0 1.8-.1 2.5-.5.6-.3.9-.7.9-1.2 0-.4-.3-.7-.9-1-.5-.3-1.3-.4-2.3-.4h-2l-.2 1-.3 2 2.3.1Zm8.7 9.6c-.4 0-.7-.2-1-.4-.2-.3-.3-.7-.3-1.1.1-.4.3-.7.6-1 .3-.3.7-.5 1-.6.6-2.5 1.3-5.8 2-9.7-.2 0-.5-.2-.7-.5-.2-.3-.2-.6-.1-1 0-.4.3-.8.7-1 .3-.4.7-.5 1.2-.5h2.4c.5 0 .8.2 1 .5.2.3.3.7.2 1 0 .4-.2.8-.5 1a2 2 0 0 1-1 .6l-2 9.6c.3 0 .6.2.7.5.2.2.3.6.2 1 0 .4-.3.7-.6 1-.4.3-.8.5-1.2.5h-2.6Zm8.5 0c-.5 0-.8-.2-1-.6-.3-.3-.4-.7-.3-1.1l1.2-6.4 1.3-6.2a1.9 1.9 0 0 1 1.8-1.5c.4 0 .7 0 1 .3.2.2.3.5.3.9v.3l-1.2 5.8-1 5.5h6c.4 0 .7.1 1 .3l.3.9c0 .4-.2.9-.5 1.2-.4.4-.8.5-1.4.5H212Zm21.3 0a796.5 796.5 0 0 1-9.6-.4c-.2-.1-.3-.4-.4-.6v-.9l1.2-6.2a68.8 68.8 0 0 1 1.8-6.7 2 2 0 0 1 1.6-1 209.4 209.4 0 0 1 8.7 0c.4 0 .8 0 1 .4.2.3.3.6.2 1 0 .5-.3.8-.6 1.1-.4.3-.8.5-1.2.5H228.7l-.8 3.2h6.5c.4 0 .8 0 1 .4.2.3.3.6.2 1 0 .5-.3.8-.6 1.1-.4.3-.8.5-1.2.5h-6.5l-.8 3.5h7.5c.4 0 .8.2 1 .4.2.3.3.7.2 1.1 0 .5-.3.8-.7 1.1-.3.3-.7.4-1.2.4Z" fill="#484848"/><defs><filter id="a" x="109" y="10" width="230" height="135" filterUnits="userSpaceOnUse" color-interpolation-filters="sRGB"><feFlood flood-opacity="0" result="BackgroundImageFix"/><feBlend in="SourceGraphic" in2="BackgroundImageFix" result="shape"/><feGaussianBlur stdDeviation="10" result="effect1_foregroundBlur_12_562"/></filter><filter id="b" x="36" y="10" width="115" height="135" filterUnits="userSpaceOnUse" color-interpolation-filters="sRGB"><feFlood flood-opacity="0" result="BackgroundImageFix"/><feBlend in="SourceGraphic" in2="BackgroundImageFix" result="shape"/><feGaussianBlur stdDeviation="10" result="effect1_foregroundBlur_12_562"/></filter></defs></svg>