<svg width="301" height="142" fill="none" xmlns="http://www.w3.org/2000/svg"><g filter="url(#a)"><path fill="#BB576B" d="M20 33h261v89H20z"/></g><path fill="#F8F8F1" stroke="#D3C2A5" stroke-width="5" d="M17.5 4.5h248v90h-248z"/><path stroke="#F8F8F1" stroke-width="5" d="M20 2.5h248"/><path d="M159.3 60c-.4 0-.8 0-1-.3a1 1 0 0 1-.4-1 322.5 322.5 0 0 0-.5-12.8c0-.4.2-.8.5-1.1a2 2 0 0 1 1.1-.7c.4 0 .8 0 1.1.2.3.3.5.6.5 1l.3 8.4a481 481 0 0 1 6-9.3l.9-.3c.3 0 .6.2.9.4.2.2.4.9.4 2l.6 4.5.3 2.9 1.7-3.7 2.5-5a2 2 0 0 1 1-1c.4-.2.8-.2 1.1 0 .4 0 .7.3.8.7V46a70.6 70.6 0 0 0-3.8 7.6l-1.4 2.7-1.2 2.4A2.1 2.1 0 0 1 169 60l-1-.1a1 1 0 0 1-.6-.9 102.5 102.5 0 0 1-1.2-8.7l-5.2 8.7c-.2.4-.4.6-.8.8-.3.2-.7.3-1 .2Zm27.2 0a796.7 796.7 0 0 1-9.6-.4c-.2-.1-.4-.4-.4-.6-.1-.3-.2-.6 0-.9l1.2-6.2a68.8 68.8 0 0 1 1.8-6.7c.1-.3.4-.6.6-.7.3-.2.7-.3 1-.3a210.8 210.8 0 0 1 8.7 0c.4 0 .7 0 1 .4.2.3.3.6.2 1-.1.5-.3.8-.7 1.1-.3.3-.7.5-1.1.5h-7.4l-.7 3.1h6.5c.4 0 .7.2 1 .5.2.3.3.6.2 1 0 .5-.3.8-.7 1.1-.4.3-.7.5-1.2.5h-6.5l-.7 3.5h7.5c.4 0 .7.1 1 .4.2.3.2.7.2 1.1-.1.4-.4.8-.7 1.1-.4.3-.8.4-1.2.4Zm9 0h-1.6l-1.8-.1h-.2c-.2 0-.4 0-.6-.2-.4-.2-.6-.6-.6-1v-.4l.1-.3.8-3.7a115.6 115.6 0 0 0 1.5-8.2c0-.4.3-.8.6-1a2 2 0 0 1 1-.7l.8-.2 2.7-.1c2 0 3.6.3 4.6 1 1 .7 1.5 1.7 1.5 3 0 .7-.2 1.4-.6 2-.4.7-.8 1-1.4 1.3a3 3 0 0 1 1.5 1.1c.3.5.5 1 .5 1.7 0 1-.2 1.7-.6 2.4-.4.7-1.1 1.4-2 2a11 11 0 0 1-6.2 1.4Zm1.4-3 2-.2 1.3-.5c.4-.2.7-.5.8-.7l.2-.9c0-.7-.6-1.1-1.8-1.3h-4.6l-.7 3.5H196.9Zm1-6.6c1 0 1.8-.1 2.4-.5.6-.3 1-.7 1-1.2 0-.4-.4-.8-1-1-.5-.3-1.2-.4-2.3-.4h-2l-.1 1-.4 2 2.4.1Z" fill="#484848"/><defs><filter id="a" x="0" y="13" width="301" height="129" filterUnits="userSpaceOnUse" color-interpolation-filters="sRGB"><feFlood flood-opacity="0" result="BackgroundImageFix"/><feBlend in="SourceGraphic" in2="BackgroundImageFix" result="shape"/><feGaussianBlur stdDeviation="10" result="effect1_foregroundBlur_12_556"/></filter></defs></svg>