<svg width="304" height="264" fill="none" xmlns="http://www.w3.org/2000/svg"><path d="M130.58 13.49v2.14h1.48V13.5h-1.48Zm.75-4.5c-1.6 0-2.81 1.04-2.81 2.5 0 1.47 1.22 2.51 2.81 2.51 1.6 0 2.8-1.04 2.8-2.5 0-1.47-1.2-2.51-2.8-2.51Zm0 1.25c.78 0 1.38.45 1.38 1.26 0 .79-.6 1.26-1.38 1.26-.78 0-1.37-.47-1.37-1.26 0-.8.6-1.26 1.37-1.26Zm3.76-1.86V18.6h1.47V8.38h-1.47Zm-6.82 8.18c1.76 0 4.16-.03 6.37-.47l-.1-1.05c-2.15.32-4.65.34-6.44.34l.17 1.18Zm17.47-6.7v1.18h1.76V9.86h-1.76Zm0 2.2v1.2h1.76v-1.2h-1.76Zm-1.01-3.67v6.46h1.46V8.4h-1.46Zm-1.85 6.57c-2.1 0-3.42.67-3.42 1.82 0 1.13 1.32 1.8 3.42 1.8 2.1 0 3.42-.67 3.42-1.8 0-1.15-1.32-1.82-3.42-1.82Zm0 1.1c1.29 0 1.97.23 1.97.72 0 .48-.68.71-1.97.71s-1.97-.23-1.97-.71c0-.49.68-.72 1.97-.72Zm-4.7-6.7v1.13h5.99V9.36h-6Zm3 1.48c-1.49 0-2.51.73-2.51 1.82 0 1.1 1.02 1.83 2.5 1.83s2.5-.73 2.5-1.83c0-1.09-1.02-1.82-2.5-1.82Zm0 1.06c.64 0 1.1.27 1.1.76 0 .5-.46.76-1.1.76-.66 0-1.1-.26-1.1-.76s.44-.76 1.1-.76Zm-.74-3.57v1.64h1.46V8.33h-1.46Zm10.22.6v.9c0 1.4-.72 2.78-2.46 3.34l.76 1.17c2-.67 2.92-2.46 2.92-4.5v-.92h-1.22Zm.3 0v.84c0 1.98.82 3.62 2.7 4.27l.76-1.15a3.1 3.1 0 0 1-2.28-3.12v-.85h-1.17Zm4.4-.54v5.97h1.46V8.39h-1.47Zm-2 6.23c-2.15 0-3.48.74-3.48 1.98 0 1.25 1.33 1.98 3.48 1.98 2.16 0 3.49-.73 3.49-1.98 0-1.24-1.33-1.98-3.49-1.98Zm0 1.13c1.33 0 2.04.28 2.04.85s-.7.86-2.04.86c-1.32 0-2.02-.29-2.02-.86 0-.57.7-.85 2.02-.85Zm.13-5.5v1.18h2.07v-1.19h-2.06ZM159 13.6c0-.97.13-1.86.39-2.67.26-.82.66-1.58 1.19-2.27h1.59c-.2.26-.4.57-.57.94a10.6 10.6 0 0 0-.87 4 9.6 9.6 0 0 0 .7 3.62c.22.54.47.98.74 1.33h-1.59a7.38 7.38 0 0 1-1.2-2.27 8.84 8.84 0 0 1-.38-2.68Zm4.17 4v-8h5.39V11h-3.7v1.9h3.42v1.4h-3.42v1.9h3.71v1.4h-5.4Zm9.5-4c0 .97-.12 1.87-.38 2.68a7.3 7.3 0 0 1-1.2 2.27h-1.58c.2-.26.39-.58.56-.95a8.57 8.57 0 0 0 .77-2.6 9.23 9.23 0 0 0-.6-5.02 5.38 5.38 0 0 0-.73-1.32h1.59c.53.7.93 1.45 1.19 2.27.26.81.39 1.7.39 2.67ZM46.95 39.32v5.63h.92v-5.63h-.92Zm.66 2.42v.76h1.73v-.76H47.6Zm-3.4-1.78v.4c0 1.83-1.5 3.27-4.07 3.97l.36.73c2.92-.8 4.67-2.6 4.67-5.1h-.97Zm-3.64 0v.73h4.14v-.73h-4.14Zm1.04 5.46v3.71h6.26v-3.7H41.6Zm5.35.74v2.22h-4.45v-2.22h4.45Zm10.11-6.84v5.83h.91v-5.83h-.9Zm.66 2.5v.78h1.73v-.77h-1.73Zm-3.4-1.86v.4c0 1.83-1.5 3.27-4.08 3.97l.38.72c2.9-.8 4.65-2.59 4.65-5.1h-.96Zm-3.64 0v.73h4.14v-.73h-4.14Zm.84 5.65v.74h5.54v2.91h.91v-3.65h-6.45Zm9.48-1.2a8.47 8.47 0 0 1 1.48-5h.82c-.19.25-.36.57-.53.95a11.73 11.73 0 0 0-.82 4.05 10.2 10.2 0 0 0 .67 3.66c.2.55.43.99.68 1.33h-.81a8.48 8.48 0 0 1-1.49-5Zm8.16-2c-.05-.4-.24-.7-.57-.93a2.19 2.19 0 0 0-1.23-.33c-.35 0-.66.06-.92.18-.27.11-.47.27-.62.47a1.13 1.13 0 0 0-.07 1.23c.1.15.24.28.4.38.16.1.33.18.5.25l.5.15.8.22c.22.05.45.13.7.23.26.1.5.22.74.39a1.82 1.82 0 0 1 .82 1.58c0 .43-.11.83-.34 1.17-.23.35-.55.63-.99.84-.43.2-.95.3-1.56.3-.58 0-1.07-.09-1.49-.27a2.2 2.2 0 0 1-1.39-1.93h1c.03.3.13.55.3.75.19.2.41.34.69.44.27.1.57.14.89.14.37 0 .7-.06 1-.18.29-.12.52-.3.7-.5.17-.23.25-.48.25-.77a.94.94 0 0 0-.22-.65c-.15-.17-.35-.3-.59-.4-.24-.11-.5-.2-.78-.28l-.99-.28a3.67 3.67 0 0 1-1.48-.77 1.69 1.69 0 0 1-.55-1.31c0-.45.12-.84.36-1.17.25-.34.58-.6.99-.78.41-.2.88-.29 1.39-.29.51 0 .97.1 1.37.28.4.18.72.43.95.75.24.32.37.68.38 1.08h-.94Zm4.48 2a8.4 8.4 0 0 1-1.48 5h-.81c.19-.26.36-.58.52-.96a11.4 11.4 0 0 0 .82-4.05 10.2 10.2 0 0 0-.66-3.66c-.2-.55-.43-1-.68-1.34h.81c.48.7.84 1.46 1.1 2.29.26.82.39 1.73.39 2.71ZM265.9 128.19v1.78a5.25 5.25 0 0 1-2.56 4.45l.56.73c1.57-.84 2.76-2.98 2.76-5.18v-1.78h-.75Zm.17 0v1.78c0 2.13 1.16 4.17 2.7 5l.56-.73a5.02 5.02 0 0 1-2.52-4.27v-1.78h-.74Zm4.13-.86v9.94h.92v-9.94h-.92Zm.7 4.02v.77h1.85v-.77h-1.85Zm3.64-3.03v.76h6.4v-.76h-6.4Zm-.94 6.8v.76h8.98v-.75h-8.98Zm3.48-3.55v3.93h.92v-3.93h-.92Zm3.52-3.25v.99c0 1.19 0 2.58-.37 4.48l.91.13c.37-2.02.37-3.38.37-4.61v-1h-.9Zm3.74 4.1a8.5 8.5 0 0 1 1.48-5h.81c-.18.25-.36.57-.52.95a11.55 11.55 0 0 0-.82 4.05 10.2 10.2 0 0 0 .66 3.66c.2.54.44.99.69 1.33h-.82a8.49 8.49 0 0 1-1.48-5Zm3.34-3.15v-.86h6v.86h-2.51v7.14h-.97v-7.14h-2.52Zm9.34 3.14a8.36 8.36 0 0 1-1.48 5h-.81c.18-.25.36-.57.52-.95a9.08 9.08 0 0 0 .71-2.63 9.84 9.84 0 0 0-.07-3.3 10.9 10.9 0 0 0-.49-1.78c-.2-.55-.42-1-.67-1.34h.8c.48.7.85 1.46 1.1 2.29.26.82.4 1.73.4 2.71ZM229.67 46.84v.75h5.31v-.75h-5.3Zm-.16 4.93c1.69 0 4.02-.05 6-.36l-.06-.68c-1.95.24-4.32.26-6.05.27l.1.77Zm1.14-4.37v3.75h.88V47.4h-.88Zm2.46 0v3.75h.88V47.4h-.88Zm3.06-1.47v7.33h.92v-7.33h-.92Zm.63 3.01v.77h1.76v-.77h-1.76Zm-5.9 5.95v.75h6.64v-.75h-6.65Zm0-2.34v2.54h.9v-2.54h-.9Zm15.4-6.64v7.2h.9v-7.2h-.9Zm.63 2.96v.76h1.75v-.76h-1.75Zm-6.99 1.73v.76h.77c2.1 0 3.27-.06 4.63-.35l-.1-.74c-1.33.28-2.48.33-4.53.33h-.77Zm0-3.83V51h.9v-3.49h3.5v-.75h-4.4Zm1.07 8.12v.75h6.65v-.75H241Zm0-2.5v2.85h.91V52.4h-.9Zm9.22-1.39a8.46 8.46 0 0 1 1.48-5h.82c-.19.26-.36.58-.53.96a11.75 11.75 0 0 0-.82 4.05 10.2 10.2 0 0 0 .67 3.66c.2.55.43 1 .68 1.33h-.81a8.48 8.48 0 0 1-1.49-5Zm6.85-4h.97v5.72c0 .51-.1.95-.28 1.3-.2.36-.45.63-.8.82a2.5 2.5 0 0 1-1.2.27c-.44 0-.83-.08-1.17-.23a1.88 1.88 0 0 1-1.1-1.75h.95c0 .23.06.42.17.6.12.16.27.29.47.38.2.1.42.14.68.14.28 0 .51-.05.7-.17.2-.12.35-.29.45-.52.1-.23.16-.5.16-.84V47Zm4.75 4a8.4 8.4 0 0 1-1.48 5h-.81c.18-.25.36-.57.52-.95a11.15 11.15 0 0 0 .82-4.05 10.2 10.2 0 0 0-.66-3.66c-.2-.55-.43-1-.68-1.34h.8c.49.7.85 1.46 1.1 2.29.26.83.4 1.73.4 2.71ZM135.71 246.14v9.94h.88v-9.94h-.88Zm-1.67 4.05v.75h1.91v-.75h-1.91Zm-.58-3.83v9.22h.85v-9.22h-.85Zm-4.82.98v5.74h.91v-5.74h-.91Zm0 5.38v.79h.64c1.06 0 2.2-.05 3.56-.32l-.1-.8c-1.3.26-2.44.33-3.47.33h-.63Zm17.08-4.86v.75h1.73v-.75h-1.73Zm0 2.12v.76h1.73v-.76h-1.73Zm-.64-3.84v6.4h.91v-6.4h-.9Zm-2.21 6.49c-2 0-3.23.63-3.23 1.72 0 1.09 1.23 1.71 3.23 1.71 2.01 0 3.23-.63 3.23-1.71 0-1.1-1.22-1.72-3.23-1.72Zm0 .7c1.46 0 2.34.38 2.34 1.02 0 .65-.88 1-2.34 1-1.45 0-2.33-.35-2.33-1 0-.64.88-1.02 2.33-1.02Zm-4.56-6.07v.73h5.87v-.73h-5.88Zm2.93 1.23c-1.43 0-2.39.69-2.39 1.75 0 1.08.96 1.76 2.4 1.76 1.41 0 2.37-.68 2.37-1.76 0-1.06-.96-1.75-2.38-1.75Zm0 .7c.9 0 1.5.41 1.5 1.05 0 .65-.6 1.07-1.5 1.07-.91 0-1.52-.42-1.52-1.07 0-.64.6-1.05 1.52-1.05Zm-.46-3.14v1.62h.91v-1.62h-.91Zm10.12.65v1.02c0 1.52-1 2.85-2.5 3.4l.46.74a4.3 4.3 0 0 0 2.8-4.14v-1.02h-.76Zm.16 0v1c0 1.8 1.07 3.26 2.68 3.86l.5-.71a3.42 3.42 0 0 1-2.43-3.16v-.99h-.75Zm4.6-.56v5.89h.91v-5.89h-.9Zm-2.35 6.17c-2.06 0-3.32.7-3.32 1.88 0 1.19 1.26 1.87 3.32 1.87 2.04 0 3.3-.68 3.3-1.87s-1.26-1.88-3.3-1.88Zm0 .73c1.5 0 2.4.43 2.4 1.15 0 .73-.9 1.16-2.4 1.16s-2.41-.43-2.41-1.16c0-.72.91-1.15 2.4-1.15Zm.2-4.8v.76h2.35v-.76h-2.35Zm5.63 2.99a8.46 8.46 0 0 1 1.48-5h.82a5 5 0 0 0-.53.95 11.57 11.57 0 0 0-.82 4.05 10.2 10.2 0 0 0 .67 3.66c.2.55.43 1 .68 1.34h-.81a8.47 8.47 0 0 1-1.49-5Zm4.75-4v8h-.96v-8h.96Zm3.79 4c0 .98-.13 1.89-.39 2.72a8.4 8.4 0 0 1-1.1 2.28h-.8c.18-.26.36-.58.52-.96a11.13 11.13 0 0 0 .82-4.05 10.2 10.2 0 0 0-.67-3.66c-.2-.55-.43-.99-.68-1.33h.82c.47.7.84 1.45 1.1 2.28.25.83.38 1.73.38 2.72ZM227.34 218.46v.64c0 1.28-.74 2.6-2.43 3.16l.75 1.13c1.95-.63 2.89-2.37 2.89-4.3v-.63h-1.21Zm.3 0v.64c0 1.84.92 3.5 2.83 4.11l.75-1.13c-1.66-.53-2.38-1.77-2.38-2.98v-.64h-1.2Zm4.22-1.04v6.13h1.47v-6.13h-1.47Zm-5.48 6.59v1.16h5.48v2.43h1.47V224h-6.95Zm-1.09-6v1.16h5.55V218h-5.55Zm10.14.14v1.18h4.36v-1.18h-4.36Zm1.26 2.38v2.55h1.45v-2.55h-1.45Zm2.53-2.38v.64c0 .7 0 1.59-.22 2.84l1.42.15c.24-1.26.24-2.27.24-2.99v-.64h-1.44Zm2.43-.73v7.62h1.47v-7.62h-1.47Zm.89 3.1v1.2h1.8v-1.2h-1.8Zm-6.22 5.74v1.17h7.12v-1.17h-7.12Zm0-1.9v2.26h1.47v-2.26h-1.47Zm-1.35-.69c1.75 0 4.12-.04 6.22-.43l-.1-1.04c-2.04.29-4.49.32-6.25.32l.13 1.16Zm10.72-1.05c0-.97.13-1.86.39-2.67.26-.82.66-1.57 1.2-2.27h1.58c-.2.26-.4.57-.57.95a10.65 10.65 0 0 0-.87 4 9.6 9.6 0 0 0 .7 3.61c.23.54.47.98.74 1.33h-1.59a7.39 7.39 0 0 1-1.19-2.27 8.84 8.84 0 0 1-.39-2.68Zm10.86-4v8h-1.46l-3.48-5.03h-.06v5.03h-1.7v-8h1.5l3.45 5.03h.07v-5.03h1.68Zm4.17 4c0 .97-.13 1.87-.39 2.68a7.33 7.33 0 0 1-1.19 2.27h-1.59c.2-.26.4-.57.57-.95a8.61 8.61 0 0 0 .76-2.6 9.23 9.23 0 0 0-.08-3.26 9.5 9.5 0 0 0-.52-1.75 5.36 5.36 0 0 0-.73-1.33h1.6c.53.7.92 1.45 1.18 2.27.26.81.4 1.7.4 2.67ZM7 126.1v5.68h1.46v-5.67H7Zm1.05 2.22v1.2h1.76v-1.2H8.05Zm-3.98-1.63v.73c0 1.52-1.24 2.82-3.74 3.45l.57 1.15c3.04-.79 4.73-2.63 4.73-5.33H4.07Zm-3.26 0v1.15h4.14v-1.15H.81Zm1.04 5.5v4h6.6v-4h-6.6Zm5.17 1.15v1.69H3.29v-1.69h3.73Zm9.06-4.77v1.19h1.94v-1.19h-1.94Zm1.54-2.46v6.05h1.46v-6.05h-1.46Zm-1.99 6.27c-2.16 0-3.49.73-3.49 1.97s1.33 1.95 3.49 1.95 3.49-.71 3.49-1.96c0-1.23-1.33-1.96-3.49-1.96Zm0 1.1c1.33 0 2.04.28 2.04.87 0 .57-.7.84-2.04.84-1.32 0-2.02-.27-2.02-.84 0-.59.7-.86 2.02-.86Zm-2.72-6.35v.64c0 1.3-.72 2.66-2.4 3.23l.74 1.16c1.95-.66 2.85-2.45 2.85-4.4v-.63h-1.19Zm.31 0v.64c0 1.81.87 3.5 2.76 4.13l.72-1.15c-1.6-.54-2.3-1.78-2.3-2.98v-.64h-1.18Zm-2.32-.4v1.16h5.48v-1.17H10.9Zm10.37 4.58c0-.97.13-1.86.39-2.67.26-.82.65-1.57 1.19-2.27h1.59c-.2.26-.4.57-.57.95a10.56 10.56 0 0 0-.87 4 9.6 9.6 0 0 0 .7 3.61c.22.54.47.98.74 1.33h-1.6a7.4 7.4 0 0 1-1.18-2.27 8.85 8.85 0 0 1-.39-2.68Zm4.16 4v-8h5.3v1.4h-3.6v1.9h3.25v1.4h-3.25v3.3h-1.7Zm9.21-4c0 .97-.13 1.87-.39 2.68a7.34 7.34 0 0 1-1.19 2.27h-1.59c.2-.26.4-.57.57-.95a8.6 8.6 0 0 0 .76-2.6 9.21 9.21 0 0 0-.08-3.26 9.57 9.57 0 0 0-.51-1.75 5.37 5.37 0 0 0-.74-1.33h1.6c.53.7.92 1.45 1.18 2.27.26.81.4 1.7.4 2.67ZM45.94 217.43v7.31h1.47v-7.31h-1.47Zm-5.31 8.83v1.17h7.04v-1.17h-7.04Zm0-2.25v2.72h1.46v-2.72h-1.46Zm1.24-5.94c-1.56 0-2.77 1.07-2.77 2.58 0 1.5 1.2 2.59 2.77 2.59 1.56 0 2.76-1.1 2.76-2.59 0-1.5-1.2-2.59-2.76-2.59Zm0 1.26c.75 0 1.33.48 1.33 1.32 0 .82-.58 1.3-1.33 1.3-.76 0-1.34-.47-1.34-1.3 0-.84.58-1.32 1.34-1.32Zm9.58-1.45v.98c0 1.28-.71 2.6-2.43 3.15l.71 1.16c2-.64 2.93-2.39 2.93-4.31v-.98h-1.21Zm.3 0v.98c0 1.89.9 3.52 2.85 4.13l.71-1.14c-1.66-.5-2.36-1.74-2.36-3v-.97h-1.2Zm-1.17 6.06v1.16h5.48v2.5h1.47v-3.66h-6.95Zm5.48-6.52v6.07h1.47v-6.07h-1.47Zm3.71 5.2c0-.97.13-1.86.39-2.67a7.4 7.4 0 0 1 1.2-2.27h1.58c-.2.26-.39.57-.56.95a10.6 10.6 0 0 0-.87 4 9.6 9.6 0 0 0 .7 3.61c.22.54.46.98.73 1.33h-1.59a7.38 7.38 0 0 1-1.19-2.27 8.85 8.85 0 0 1-.39-2.68Zm4.17 4v-8h3.16c.6 0 1.12.12 1.55.35.42.23.75.55.97.96.23.4.34.87.34 1.4 0 .53-.11 1-.34 1.41-.23.4-.56.72-1 .95-.43.23-.95.34-1.57.34h-2.01v-1.36h1.74c.32 0 .6-.05.8-.16.22-.12.38-.28.48-.48.1-.2.16-.43.16-.7 0-.26-.05-.5-.16-.7-.1-.2-.26-.35-.48-.46a1.74 1.74 0 0 0-.8-.16h-1.15v6.61h-1.7Zm9.9-4c0 .97-.14 1.87-.4 2.68a7.31 7.31 0 0 1-1.18 2.27h-1.6c.2-.26.4-.57.57-.95a8.71 8.71 0 0 0 .76-2.6 9.24 9.24 0 0 0-.6-5.01 5.37 5.37 0 0 0-.72-1.33h1.59c.53.7.93 1.45 1.18 2.27.26.81.4 1.7.4 2.67Z" fill="#45504E"/><path d="M56.6 94.81h.01l14.73-37.92 37.7-16.05 37.71-16.06 36.1 13.93h.01l39.91 16.68 16.06 37.71 16.06 37.7-15.9 39.75-14.72 36.28-37.7 16.05-37.71 16.06-36.95-14.27-39.07-16.34-16.06-37.7-16.05-37.7L56.6 94.8Z" stroke="#859C98"/><path d="m98.88 112.67 7.87-20.24 20.12-8.57 20.12-8.57 19.26 7.43 21.31 8.9 8.57 20.13 8.57 20.13-8.48 21.21-7.86 19.36-20.12 8.57-20.13 8.57-19.71-7.62-20.86-8.72-8.57-20.12L90.41 133l8.47-20.34Z" stroke="#A8B7B4"/><path fill-rule="evenodd" clip-rule="evenodd" d="m148.4 131.74 74.5-75.88-.72-.7-74.5 75.88-75.87-74.27-.7.72 75.87 74.26-74.7 76.1.7.7 74.72-76.1 76.11 74.5.7-.71-76.11-74.5Z" fill="#74817E"/><path fill-rule="evenodd" clip-rule="evenodd" d="m148.14 131.36-.65-106.34h-1l.65 106.35-106.17.81v1l106.18-.81.65 106.63h1l-.66-106.64 106.5-.82v-1l-106.5.82Z" fill="#74817E"/><path d="m107.94 92.45 39.42-38.97 39.86 38.97 2.69 39.41 14.33 55.54-56.88 2.24-64.05 8.51-4.93-66.29 29.56-39.41Z" stroke="#000"/><circle cx="147.81" cy="53.03" r="3.98" fill="#F6738D" stroke="#000"/><circle cx="147.81" cy="189.19" r="2.69" fill="#45504E"/><circle cx="189.91" cy="131.86" r="2.69" fill="#45504E"/><circle cx="187.22" cy="92.45" r="2.69" fill="#45504E"/><circle cx="107.5" cy="92.45" r="2.69" fill="#45504E"/><circle cx="78.83" cy="131.86" r="3.98" fill="#F6738D" stroke="#000"/><circle cx="83.31" cy="198.15" r="3.98" fill="#F6738D" stroke="#000"/><circle cx="204.24" cy="187.4" r="3.98" fill="#F6738D" stroke="#000"/></svg>