<svg width="52" height="43" fill="none" xmlns="http://www.w3.org/2000/svg"><rect x=".5" y="9.9" width="50.2" height="32.3" rx="4.5" fill="#F5F5F5" stroke="#6C7484"/><path fill="#CAEDF4" d="M20 16.7h27.5v21.7H20z"/><path stroke="#A4A4A4" d="M15.9 13.8h31.5v24.3H15.9z"/><circle cx="7.9" cy="26.3" r="4.1" stroke="#FFC6D1"/><circle cx="7.9" cy="26.3" r="4.9" stroke="#A4A4A4"/><circle cx="7.9" cy="26.3" r="2.4" fill="#F5F5F5" stroke="#A4A4A4"/><path fill="#CAEDF4" stroke="#A4A4A4" d="M3.5 32.9h4.1v1.5H3.5zM8.1 32.9h4.1v1.5H8.1z"/><path fill="#FFC6D1" stroke="#A4A4A4" d="M3.5 14.4h4.1v1.5H3.5zM8.1 14.4h4.1v1.5H8.1z"/><path fill="#CAEDF4" stroke="#A4A4A4" d="M3.5 36h4.1v1.5H3.5zM8.1 36h4.1v1.5H8.1z"/><path fill="#FFC6D1" stroke="#A4A4A4" d="M3.5 17.5h4.1V19H3.5zM8.1 17.5h4.1V19H8.1z"/><path d="m39.8 2.3 2.2.9-8.5 21.6-2.1 2.4V24l8.4-21.7Z" fill="#F5F5F5" stroke="#6C7484"/><path d="m40.5 2.8 1.2.4-8.4 21.4-.7-.4h-.4l8.3-21.4Z" fill="#7AD0E0"/><path stroke="#6C7484" d="m31 23.4 3 1.2"/><path fill="#9F9F9F" stroke="#6C7484" stroke-width=".6" d="m39.6 2.2 2.5 1-.2.5-2.5-1z"/><path d="M40.8 1.4a.6.6 0 0 1 1 .4l-.2.5-1-.4.2-.5Z" fill="#F5F5F5" stroke="#6C7484"/></svg>