<svg width="1602" height="629" fill="none" xmlns="http://www.w3.org/2000/svg"><g filter="url(#a)"><path fill-rule="evenodd" clip-rule="evenodd" d="M2.67 461.64C36.47 496.87 79.84 515 125.17 515c36.98 0 72.96-19.06 103.58-50.92 2.47-.54 5.13-1.1 7.97-1.67 13.33-2.7 22.41 3.7 30.12 11.61 26.5 63.47 67.5 118.47 151.1 142.25C547.06 653 601.37 581.04 658.5 505.34c49.15-65.12 100.4-133 203.14-136.84 100.71 8.47 138 53.65 179.9 104.39 43.02 52.1 90.87 110.05 217.18 140.18 185.05 44.13 289.71-133.21 340.61-291.54V4.17H2.67v457.47Zm876.93-320.3.2-.28.16-.23h-.5l.08.3.06.22Zm430.75 400.33c107.7 0 195.01-87.5 195.01-195.42 0-107.93-87.31-195.42-195.01-195.42-107.7 0-195.01 87.5-195.01 195.42 0 107.93 87.31 195.42 195.01 195.42Z" fill="#BCBCBC"/></g><path fill-rule="evenodd" clip-rule="evenodd" d="M1 457.48c33.87 35.22 77.34 53.35 122.76 53.35 37.06 0 73.11-19.06 103.8-50.92a673.2 673.2 0 0 1 7.98-1.66c13.36-2.7 22.46 3.7 30.19 11.6 26.54 63.47 67.63 118.47 151.4 142.25 129.4 36.73 183.83-35.23 241.08-110.93 49.25-65.12 100.6-133 203.55-136.83 100.93 8.46 138.3 53.64 180.29 104.38 43.1 52.1 91.06 110.06 217.62 140.18 185.45 44.14 290.32-133.2 341.33-291.54V0H1v457.48Zm878.76-320.3.19-.26.17-.25h-.5l.09.29.05.22Zm431.66 400.32c107.92 0 195.41-87.5 195.41-195.42 0-107.92-87.49-195.41-195.41-195.41-107.93 0-195.42 87.49-195.42 195.41 0 107.93 87.49 195.42 195.42 195.42Z" fill="#FFD1D6"/><path d="M1 240h580.2l36.37 43H1v-43ZM673 283h-43.02l-36.7-43h41.13L673 283Z" fill="#FAF2F4"/><defs><filter id="a" x=".67" y="2.17" width="1600.67" height="625.99" filterUnits="userSpaceOnUse" color-interpolation-filters="sRGB"><feFlood flood-opacity="0" result="BackgroundImageFix"/><feBlend in="SourceGraphic" in2="BackgroundImageFix" result="shape"/><feGaussianBlur stdDeviation="1" result="effect1_foregroundBlur_12_525"/></filter></defs></svg>