<svg width="1600" height="368" fill="none" xmlns="http://www.w3.org/2000/svg"><path fill-rule="evenodd" clip-rule="evenodd" d="m0 324.26.91.35v37.85H1600V116.18c-29.04-26.75-69.61-40.58-112.29-40.58-22.38 0-44.31 6-64.36 16.56-16.43 5.44-35.93 7.47-63.79-7.03l-7.64-5.35C1289.1 35.72 1241.87 2.6 1158.41 0c-96.53 0-171.72 38.94-259.26 84.29-34.08 17.65-70.04 36.27-109.86 53.95l-2.97.9c-12.1 3.69-32.78 10-64.43 10-25.24 0-42.3-1.32-56.78-4.23-51.88-15.34-98.12-41.31-136.95-63.13-28.42-15.97-52.87-29.7-72.66-35.42-110.67-31.92-244.2-9.86-327.65 74.18C72 97.08 30.3 97.18 0 111.02v213.24Z" fill="#FFC6D1"/><g filter="url(#a)"><path fill-rule="evenodd" clip-rule="evenodd" d="M125.46 136.74c-45.25 0-88.55 8.11-122.29 23.87v204.7H1597v-142c-50.81-70.85-155.28-150.2-340.01-130.45-126.08 13.48-173.85 39.41-216.79 62.72-41.82 22.7-79.05 42.92-179.59 46.7-102.56-1.7-153.7-32.08-202.77-61.22-57.03-33.87-111.25-66.07-240.14-49.63-83.45 10.64-124.38 35.25-150.82 63.64-7.7 3.54-16.76 6.4-30.07 5.2-2.84-.26-5.49-.5-7.96-.75a247.13 247.13 0 0 0-103.4-22.78Zm753.28 167.31-.2-.12-.13.23h.5l-.17-.1Z" fill="#97ADB1"/></g><path fill-rule="evenodd" clip-rule="evenodd" d="M122.76 139.07c-45.42 0-88.89 8.11-122.76 23.87v204.7h1600v-142c-51.01-70.85-155.88-150.2-341.33-130.45-126.56 13.48-174.52 39.41-217.62 62.72-41.99 22.7-79.36 42.92-180.29 46.7-102.96-1.7-154.3-32.08-203.55-61.22-57.25-33.87-111.68-66.07-241.07-49.64C332.36 104.4 291.27 129 264.73 157.4c-7.73 3.54-16.83 6.4-30.19 5.2-2.84-.26-5.5-.5-7.99-.75a248.89 248.89 0 0 0-103.79-22.78Zm756.37 167.42-.37-.23-.08.14-.05.09h.5Z" fill="#7AD0E0"/><defs><filter id="a" x="1.17" y="85" width="1597.83" height="282.31" filterUnits="userSpaceOnUse" color-interpolation-filters="sRGB"><feFlood flood-opacity="0" result="BackgroundImageFix"/><feBlend in="SourceGraphic" in2="BackgroundImageFix" result="shape"/><feGaussianBlur stdDeviation="1" result="effect1_foregroundBlur_2_1458"/></filter></defs></svg>