<svg width="46" height="40" fill="none" xmlns="http://www.w3.org/2000/svg"><path fill="#F5F5F5" stroke="#6C7484" stroke-width=".9" d="M2.3 23.1h.9v2.8h-.9zM43.5 23.1h.9v2.8h-.9z"/><mask id="a" fill="#fff"><path fill-rule="evenodd" clip-rule="evenodd" d="M42 23h3.4C43.9 10.8 36 1.4 22.9 1.4 10 1.3 2.2 10.7.8 23.1h3.7C6.2 12.2 12.2 4.4 22.8 4.4 33.6 4.4 40.3 12 42 23Z"/></mask><path fill-rule="evenodd" clip-rule="evenodd" d="M42 23h3.4C43.9 10.8 36 1.4 22.9 1.4 10 1.3 2.2 10.7.8 23.1h3.7C6.2 12.2 12.2 4.4 22.8 4.4 33.6 4.4 40.3 12 42 23Z" fill="#FFC6D1"/><path d="M45.4 23v1h1v-1h-1ZM42 23l-1 .2.2.9h.8v-1ZM.8 23h-1l-.1 1h1v-1Zm3.7 0v1h.9l.1-.8-1-.1Zm40.9-1H42v2h3.4v-2ZM22.9 2.4a20 20 0 0 1 14.9 6c3.6 3.7 5.9 8.9 6.6 14.9l2-.3c-.8-6.3-3.2-12-7.2-16A22 22 0 0 0 23 .3v2ZM1.8 23.2c.7-6 2.9-11.2 6.4-15 3.5-3.6 8.4-5.9 14.7-5.9v-2C16.1.3 10.7 2.8 6.7 7c-3.9 4-6.2 9.7-6.9 16l2 .3ZM4.5 22H.8v2h3.7v-2Zm1 1.1c.8-5.3 2.7-9.7 5.5-12.9 2.9-3 6.7-5 11.8-5v-2c-5.6 0-10 2.2-13.3 5.7a26.2 26.2 0 0 0-6 14l2 .2ZM22.8 5.4c5.1 0 9.2 1.8 12.3 5 3 3 5.1 7.5 6 12.8l2-.3c-1-5.6-3.1-10.5-6.6-14a18.8 18.8 0 0 0-13.7-5.5v2Z" fill="#6C7484" mask="url(#a)"/><rect x="1.3" y="25.9" width="2.4" height="11.5" rx="1.2" fill="#FFC6D1" stroke="#6C7484"/><path fill="#D9D9D9" stroke="#6C7484" d="M4.2 27.9h1.6v7.7H4.2z"/><path d="M6 27c0-1.3 1-2.4 2.2-2.6V39A2.6 2.6 0 0 1 6 36.5V27Z" fill="#FFC6D1" stroke="#6C7484"/><path d="M8.6 24.3h1.5c.8 0 1.5.7 1.5 1.5v11.9c0 .8-.7 1.5-1.5 1.5H8.6V24.3Z" fill="#D9D9D9" stroke="#6C7484"/><rect x="-.5" y=".5" width="2.4" height="11.5" rx="1.2" transform="matrix(-1 0 0 1 44.4 25.4)" fill="#FFC6D1" stroke="#6C7484"/><path fill="#D9D9D9" stroke="#6C7484" d="M42 28h-1.6v7.6H42z"/><path d="M40.1 27c0-1.3-.9-2.4-2.1-2.6V39a2.6 2.6 0 0 0 2.1-2.6V27Z" fill="#FFC6D1" stroke="#6C7484"/><path d="M37.5 24.3h-1.4c-.8 0-1.5.7-1.5 1.5v11.9c0 .8.7 1.5 1.5 1.5h1.4V24.3Z" fill="#D9D9D9" stroke="#6C7484"/><mask id="b" fill="#fff"><path fill-rule="evenodd" clip-rule="evenodd" d="m32 2.4-1.5 4h-.2c-1.8-.8-4.1-1.3-7-1.3-3.1 0-5.6.4-7.6 1.2l-1.5-4.1C16.8 1 19.7.5 23 .5c3.3 0 6.3.7 9 1.9Z"/></mask><path fill-rule="evenodd" clip-rule="evenodd" d="m32 2.4-1.5 4h-.2c-1.8-.8-4.1-1.3-7-1.3-3.1 0-5.6.4-7.6 1.2l-1.5-4.1C16.8 1 19.7.5 23 .5c3.3 0 6.3.7 9 1.9Z" fill="#F5F5F5"/><path d="m32 2.4.9.3.3-.9-.8-.3-.4.9Zm-1.5 4v1h.7l.2-.6-1-.4Zm-.2 0-.4 1h.4v-1Zm-14.6 0-.9.3.4 1 1-.5-.5-.9Zm-1.5-4.2-.4-1-.9.4.4 1 1-.4ZM31 2l-1.5 4 1.9.8 1.5-4L31 2Zm-.7 5.4h.2v-2h-.2v2Zm-7-1.3c2.8 0 5 .4 6.6 1.2l.8-1.8c-2-1-4.4-1.4-7.3-1.4v2Zm-7.2 1.1c1.8-.7 4.2-1.1 7.3-1.1V4c-3.3 0-6 .4-8 1.3l.7 1.8Zm-2.8-4.7 1.5 4.2 1.9-.7-1.5-4.2-2 .7Zm9.6-3c-3.3 0-6.3.6-9 1.8l.7 1.8c2.5-1 5.2-1.6 8.3-1.6v-2Zm9.5 2c-3-1.3-6.1-2-9.5-2v2c3.1 0 6 .6 8.6 1.8l.9-1.8Z" fill="#6C7484" mask="url(#b)"/><mask id="c" fill="#fff"><path fill-rule="evenodd" clip-rule="evenodd" d="M37 6.4a5.2 5.2 0 0 0-2.9 9.7v3.7l3.3-3h2.1a5.2 5.2 0 1 0 0-10.4h-2.6Z"/></mask><path fill-rule="evenodd" clip-rule="evenodd" d="M37 6.4a5.2 5.2 0 0 0-2.9 9.7v3.7l3.3-3h2.1a5.2 5.2 0 1 0 0-10.4h-2.6Z" fill="#7AD0E0"/><path d="M34.1 16v1h3.5l-3-1.8-.5.9Zm0 0v-1h-1v1h1Zm0 3.8h-1V22l1.7-1.4-.7-.8Zm3.3-3v-1H37l-.2.3.6.8Zm-4.7-5.2c0-2.3 2-4.2 4.2-4.2v-2a6.2 6.2 0 0 0-6.2 6.2h2Zm2 3.6c-1.2-.7-2-2-2-3.6h-2c0 2.3 1.2 4.2 2.9 5.3l1-1.7Zm-.6-.1v2-2Zm-1 1v3.7h2v-3.7h-2Zm1.7 4.5 3.3-3-1.3-1.5-3.3 3 1.3 1.5Zm4.7-4.7h-2v2h2v-2Zm4.2-4.3c0 2.4-1.9 4.3-4.2 4.3v2c3.4 0 6.2-2.8 6.2-6.3h-2Zm-4.2-4.2c2.3 0 4.2 1.9 4.2 4.2h2c0-3.4-2.8-6.2-6.2-6.2v2Zm-2.6 0h2.6v-2h-2.6v2Z" fill="#6C7484" mask="url(#c)"/><path fill-rule="evenodd" clip-rule="evenodd" d="M40 12.5c-.2 0-.4 0-.6.2-.4.2-.6.7-.4 1 .2.4.7.4 1.1.2.4-.3.6-.7.5-1V9h-.3l-3 1-.6.1v3.1l-.4.2c-.4.2-.6.7-.4 1 .1.4.7.4 1.1.2.4-.3.7-.7.5-1l-.1-.2v-1.6l2.6-.9v1.7Zm0-2.9-2.6.8v.6l2.6-.8v-.6Z" fill="#F5F5F5"/></svg>