<svg width="839" height="244" fill="none" xmlns="http://www.w3.org/2000/svg"><mask id="a" maskUnits="userSpaceOnUse" x="4" y="30" width="817" height="193" fill="#000"><path fill="#fff" d="M4 30h817v193H4z"/><path d="M28.2 84c-1 0-1.7-.3-2.4-1-.6-.6-1-1.4-1-2.3V34h6.7v46.7c0 1-.3 1.7-1 2.3-.6.7-1.4 1-2.3 1ZM11 40.2c-.9 0-1.6-.3-2.2-.9-.6-.6-.8-1.3-.8-2.2a3 3 0 0 1 3-3h34.3c.9 0 1.6.2 2.1.8.6.6 1 1.3 1 2.2a3 3 0 0 1-3 3H10.9ZM58.3 71.3c-.9 0-1.7-.3-2.3-1-.6-.6-1-1.4-1-2.3V37.3c0-1 .4-1.8 1-2.4.6-.6 1.4-.9 2.3-.9 1 0 1.8.3 2.4 1 .6.5.9 1.3.9 2.3V68c0 1-.3 1.7-.9 2.4-.6.6-1.4.9-2.4.9ZM84.6 84c-.9 0-1.7-.3-2.3-1-.6-.6-1-1.4-1-2.3V65.1c0-2.5-.4-4.5-1.3-6a8.2 8.2 0 0 0-3.6-3.4c-1.5-.8-3.2-1.1-5.2-1.1-1.8 0-3.4.3-4.9 1a9 9 0 0 0-3.4 3 7 7 0 0 0-1.3 4.2h-4a13.4 13.4 0 0 1 7.3-12.3c2.2-1.2 4.8-1.8 7.6-1.8 3 0 5.5.6 7.9 1.9 2.3 1.2 4.1 3 5.5 5.5a18 18 0 0 1 2 9v15.7c0 1-.3 1.7-1 2.4-.6.6-1.3.9-2.3.9Zm-26.3 0c-.9 0-1.7-.3-2.3-1-.6-.6-1-1.4-1-2.3V52.3c0-1 .4-1.8 1-2.4.6-.6 1.4-1 2.3-1 1 0 1.8.4 2.4 1 .6.6.9 1.4.9 2.4v28.5c0 1-.3 1.7-.9 2.4-.6.6-1.4.9-2.4.9ZM113.4 84.3c-3.2 0-6-.8-8.4-2.3a17.2 17.2 0 0 1-8-15.5 17.4 17.4 0 0 1 17.7-17.8 17.1 17.1 0 0 1 15.2 8.7c1.5 2.7 2.3 5.8 2.3 9.1h-2.5c0 3.4-.7 6.4-2.1 9.1a15.6 15.6 0 0 1-14.2 8.6Zm1.2-5.8c2.2 0 4.1-.5 5.9-1.5 1.7-1.1 3-2.5 4-4.3 1-1.9 1.5-4 1.5-6.2 0-2.3-.5-4.3-1.5-6.1a10.9 10.9 0 0 0-9.9-5.9 11.3 11.3 0 0 0-10 5.9c-.9 1.8-1.4 3.8-1.4 6.1s.5 4.3 1.5 6.2a12 12 0 0 0 4.1 4.3c1.8 1 3.7 1.5 5.8 1.5Zm14.4 5.6c-1 0-1.8-.3-2.4-1-.6-.6-.9-1.4-.9-2.3V71l1.2-6.8 5.3 2.3v14.3c0 1-.3 1.7-1 2.4-.5.6-1.3.9-2.2.9ZM171.5 84c-1 0-1.7-.2-2.4-.8-.5-.7-.8-1.5-.8-2.4V65.1c0-2.5-.5-4.5-1.4-6a8.2 8.2 0 0 0-3.6-3.4c-1.5-.8-3.3-1.1-5.2-1.1-1.8 0-3.4.3-4.9 1a9 9 0 0 0-3.4 3 7 7 0 0 0-1.3 4.2h-4a13.4 13.4 0 0 1 7.2-12.3c2.3-1.2 4.8-1.8 7.7-1.8 2.9 0 5.5.6 7.8 1.9 2.4 1.2 4.2 3 5.5 5.5a18 18 0 0 1 2 9v15.7c0 1-.2 1.7-.9 2.4-.6.6-1.3.9-2.3.9Zm-26.3 0c-1 0-1.7-.2-2.4-.8-.6-.7-.9-1.5-.9-2.4V52.3c0-1 .3-1.8 1-2.4.6-.6 1.4-1 2.3-1 1 0 1.8.4 2.4 1 .6.6.9 1.4.9 2.4v28.5c0 1-.3 1.7-1 2.4-.5.6-1.3.9-2.3.9ZM191.7 71.2l-4-4.4 19.7-17.5a2.8 2.8 0 0 1 4.2.2c.6.6.8 1.3.8 2.1a3 3 0 0 1-1 2l-19.7 17.6Zm-3 12.8c-1 0-1.7-.3-2.3-.8-.6-.6-.8-1.4-.8-2.3V37.2c0-1 .3-1.7.8-2.3.6-.6 1.4-.9 2.3-.9 1 0 1.7.3 2.2 1 .6.5 1 1.2 1 2.2v43.7c0 .9-.4 1.7-1 2.3a3 3 0 0 1-2.2.8Zm22.9-.3a3 3 0 0 1-2.3.7c-.9 0-1.5-.4-2.1-1.1l-13-16 4.5-4.3L212 79.4c.6.7.8 1.4.7 2.2 0 .8-.4 1.5-1.1 2ZM256.4 84c-1 0-1.7-.3-2.3-1-.7-.6-1-1.4-1-2.3v-15l-17-26.5c-.6-.9-.8-1.7-.7-2.5a3 3 0 0 1 1-2c.7-.4 1.4-.7 2.2-.7.8 0 1.3.2 1.8.5.4.3.8.8 1.2 1.4l16.2 25.8h-2.5l16.5-26a3.5 3.5 0 0 1 3-1.7c.7 0 1.4.3 1.9.8.5.6.8 1.2.9 2 0 .8-.2 1.6-.7 2.4l-17.2 26.6v14.9c0 1-.3 1.7-1 2.3-.6.7-1.4 1-2.3 1ZM293.1 84.3a17 17 0 0 1-17.7-17.7c0-3.6.8-6.6 2.3-9.3 1.5-2.7 3.6-4.8 6.3-6.3 2.6-1.5 5.7-2.3 9.1-2.3 3.4 0 6.5.8 9.1 2.3a16 16 0 0 1 6.2 6.3 18 18 0 0 1 2.3 9.2c0 3.5-.7 6.6-2.2 9.2a16.5 16.5 0 0 1-15.4 8.6Zm0-5.8a10.5 10.5 0 0 0 9.9-5.8c1-1.8 1.5-3.8 1.5-6.2 0-2.3-.5-4.4-1.5-6.2-1-1.8-2.3-3.2-4-4.3-1.7-1-3.6-1.5-5.9-1.5-2.2 0-4.1.5-5.9 1.5-1.7 1-3 2.5-4 4.3-1 1.8-1.5 3.9-1.5 6.2 0 2.4.5 4.4 1.5 6.2a11 11 0 0 0 10 5.8ZM335.2 84.3c-3 0-5.6-.6-8-1.8a14.1 14.1 0 0 1-5.5-5.6c-1.3-2.4-2-5.4-2-9V52.2c0-1 .3-1.7 1-2.3.6-.7 1.4-1 2.3-1 1 0 1.7.3 2.3 1a3 3 0 0 1 1 2.3v15.7c0 2.4.4 4.4 1.3 6a8.6 8.6 0 0 0 3.7 3.4 12 12 0 0 0 10 0 9 9 0 0 0 3.5-2.9 7.2 7.2 0 0 0 1.2-4.2h4a13.8 13.8 0 0 1-7.3 12.2 15.4 15.4 0 0 1-7.5 2Zm14.1-.3c-1 0-1.7-.3-2.4-.9-.6-.6-.9-1.4-.9-2.4V52.2c0-1 .3-1.8 1-2.4.6-.6 1.4-.9 2.3-.9 1 0 1.8.3 2.4 1 .6.5.9 1.3.9 2.3v28.5c0 1-.3 1.8-1 2.4-.5.6-1.3.9-2.3.9ZM382.8 84c-1 0-1.8-.3-2.4-1-.6-.6-1-1.4-1-2.3V37.3a3 3 0 0 1 1-2.3c.6-.7 1.4-1 2.4-1h28.9c1 0 1.8.3 2.4 1 .6.5.8 1.2.8 2.2 0 .8-.2 1.6-.8 2.1-.6.6-1.4.9-2.4.9H386v15.5h18.4c1 0 1.7.3 2.3 1 .6.5 1 1.2 1 2a3 3 0 0 1-1 2.3c-.6.6-1.4.9-2.3.9H386v18.8c0 1-.3 1.7-1 2.3-.6.7-1.4 1-2.3 1ZM438.7 84.3A17 17 0 0 1 421 66.6c0-3.6.8-6.6 2.3-9.3 1.5-2.7 3.6-4.8 6.2-6.3 2.7-1.5 5.7-2.3 9.2-2.3 3.4 0 6.4.8 9 2.3a16 16 0 0 1 6.3 6.3 18 18 0 0 1 2.3 9.2c0 3.5-.8 6.6-2.2 9.2a16.5 16.5 0 0 1-15.4 8.6Zm0-5.8a10.5 10.5 0 0 0 9.9-5.8c1-1.8 1.4-3.8 1.4-6.2 0-2.3-.5-4.4-1.4-6.2-1-1.8-2.3-3.2-4-4.3-1.7-1-3.7-1.5-6-1.5-2.1 0-4 .5-5.8 1.5-1.7 1-3 2.5-4 4.3-1 1.8-1.5 3.9-1.5 6.2 0 2.4.5 4.4 1.5 6.2a11 11 0 0 0 9.9 5.8ZM469.1 62.1c0-2.5.7-4.8 1.9-6.8a14 14 0 0 1 12.2-6.7c2.5 0 4.4.4 5.7 1.3 1.2.8 1.7 1.8 1.4 3-.1.5-.4 1-.7 1.3-.4.3-.8.5-1.3.6h-1.5a18 18 0 0 0-7.4-.2c-2.1.5-3.9 1.4-5.1 2.6a6.7 6.7 0 0 0-1.9 5h-3.3Zm.1 21.9c-1 0-1.8-.3-2.4-.8-.5-.5-.8-1.3-.8-2.4V52.2c0-1 .3-1.8.8-2.4.6-.5 1.4-.8 2.4-.8s1.9.3 2.4.8.8 1.3.8 2.4v28.6c0 1-.3 1.8-.8 2.4-.5.5-1.3.8-2.4.8ZM527.1 84c-.7 0-1.4-.2-2-.7-.6-.5-1-1.1-1.3-2L511 38.7c-.5-1.4-.4-2.5 0-3.3.5-.9 1.3-1.3 2.5-1.3.7 0 1.3.2 2 .7.5.3 1 1 1.2 1.8l11.2 39h-1.4L537 37c.1-.6.5-1.2 1.1-1.6.6-.4 1.3-.6 2-.6.8 0 1.4.1 2 .5.6.4 1 1 1.2 1.6l10.4 38.8h-1.2l11.2-39.4c.5-1.5 1.5-2.2 3.3-2.2 1.2 0 2 .5 2.3 1.4.3 1 .3 2 0 3.2l-12.9 42.7c-.3.8-.7 1.5-1.3 2a3 3 0 0 1-2 .7c-.8 0-1.5-.3-2.1-.8-.6-.5-1-1.1-1.2-1.8l-10.3-39.8h1.5l-10.4 39.7c-.3.8-.8 1.5-1.4 2a3 3 0 0 1-2 .7ZM583.5 84.3c-3.1 0-6-.8-8.4-2.3a17.2 17.2 0 0 1-8-15.5 17.4 17.4 0 0 1 17.7-17.8 17.1 17.1 0 0 1 15.2 8.7c1.6 2.7 2.4 5.8 2.4 9.1h-2.5c0 3.4-.8 6.4-2.2 9.1a15.6 15.6 0 0 1-14.2 8.6Zm1.3-5.8c2.1 0 4-.5 5.8-1.5 1.7-1.1 3-2.5 4-4.3 1-1.9 1.5-4 1.5-6.2 0-2.3-.5-4.3-1.5-6.1a10.9 10.9 0 0 0-9.8-5.9 11.3 11.3 0 0 0-10 5.9c-1 1.8-1.4 3.8-1.4 6.1s.5 4.3 1.4 6.2A12 12 0 0 0 579 77c1.8 1 3.7 1.5 5.9 1.5Zm14.3 5.6c-1 0-1.7-.3-2.4-1-.6-.6-.9-1.4-.9-2.3V71l1.2-6.8 5.4 2.3v14.3c0 1-.4 1.7-1 2.4-.6.6-1.4.9-2.3.9ZM624.8 84a10.6 10.6 0 0 1-9.8-6c-1-2-1.5-4-1.5-6.4V41c0-1 .3-1.8 1-2.3.5-.6 1.3-1 2.2-1 1 0 1.8.4 2.3 1 .6.5 1 1.3 1 2.3v30.5c0 1.7.4 3.1 1.4 4.3.9 1.1 2 1.7 3.4 1.7h2.2c.8 0 1.4.3 1.9.9.6.6.8 1.4.8 2.3 0 1-.3 1.7-1 2.3a4 4 0 0 1-2.7.9h-1.2Zm-14.2-28.2a3 3 0 0 1-2.2-.8c-.5-.5-.8-1.1-.8-2 0-.8.3-1.4.8-2a3 3 0 0 1 2.2-.7h14.8a3 3 0 0 1 2.2.7c.5.6.8 1.2.8 2 0 .9-.3 1.5-.8 2a3 3 0 0 1-2.2.8h-14.8ZM653.6 84.3c-3.4 0-6.4-.8-9.1-2.3a17.5 17.5 0 0 1-6.3-6.4 18.4 18.4 0 0 1-2.2-9c0-3.5.7-6.6 2.2-9.3a16 16 0 0 1 6.2-6.3c2.6-1.5 5.5-2.3 9-2.3a16 16 0 0 1 12.5 5.8c.6.7.8 1.4.6 2.1-.2.7-.6 1.4-1.4 2-.6.4-1.3.5-2 .4-.7-.2-1.4-.6-2-1.2-2-2.2-4.7-3.3-7.8-3.3a10.8 10.8 0 0 0-9.7 5.7c-.9 1.8-1.4 3.9-1.4 6.3a11.5 11.5 0 0 0 5.4 10.4 13.3 13.3 0 0 0 9.9 1c1.2-.3 2.2-.9 3.2-1.6.7-.6 1.4-.9 2-1 .8 0 1.4.2 2 .6a3 3 0 0 1 1.2 2c.1.8-.2 1.5-.7 2-3.1 3-7 4.4-11.6 4.4ZM679.5 71.3c-1 0-1.8-.3-2.4-1-.6-.6-.9-1.4-.9-2.3V37.3c0-1 .3-1.8.9-2.4.6-.6 1.4-.9 2.4-.9s1.7.3 2.3 1c.6.5 1 1.3 1 2.3V68c0 1-.4 1.7-1 2.4-.6.6-1.4.9-2.3.9ZM705.8 84c-1 0-1.8-.3-2.4-1-.6-.6-.9-1.4-.9-2.3V65.1c0-2.5-.4-4.5-1.3-6a8.2 8.2 0 0 0-3.7-3.4c-1.5-.8-3.2-1.1-5.2-1.1-1.8 0-3.4.3-4.8 1a9 9 0 0 0-3.5 3 7 7 0 0 0-1.3 4.2h-4a13.4 13.4 0 0 1 7.3-12.3c2.3-1.2 4.8-1.8 7.6-1.8 3 0 5.6.6 7.9 1.9 2.3 1.2 4.2 3 5.5 5.5a18 18 0 0 1 2 9v15.7c0 1-.3 1.7-1 2.4-.5.6-1.3.9-2.2.9Zm-26.3 0c-1 0-1.8-.3-2.4-1-.6-.6-.9-1.4-.9-2.3V52.3c0-1 .3-1.8.9-2.4.6-.6 1.4-1 2.4-1s1.7.4 2.3 1c.6.6 1 1.4 1 2.4v28.5c0 1-.4 1.7-1 2.4-.6.6-1.4.9-2.3.9ZM723.8 84c-1 0-1.7-.3-2.4-.9-.6-.6-.9-1.4-.9-2.4V52.3c0-1 .3-1.8 1-2.4.6-.6 1.4-1 2.3-1 1 0 1.8.4 2.4 1 .6.6.9 1.4.9 2.4v28.4c0 1-.3 1.8-1 2.4-.5.6-1.3.9-2.3.9Zm0-40.7c-1.2 0-2.2-.4-3-1.2a4.2 4.2 0 0 1-1.2-3 4 4 0 0 1 1.2-3 4.1 4.1 0 0 1 6 0 4.1 4.1 0 0 1 0 6 4 4 0 0 1-3 1.2ZM768.8 84c-1 0-1.8-.2-2.4-.8-.6-.7-.9-1.5-.9-2.4V65.1c0-2.5-.4-4.5-1.3-6a8.2 8.2 0 0 0-3.7-3.4c-1.5-.8-3.2-1.1-5.2-1.1-1.8 0-3.4.3-4.8 1a9 9 0 0 0-3.5 3 7 7 0 0 0-1.3 4.2h-4a13.4 13.4 0 0 1 7.3-12.3c2.3-1.2 4.8-1.8 7.6-1.8 3 0 5.6.6 7.9 1.9 2.3 1.2 4.2 3 5.5 5.5a18 18 0 0 1 2 9v15.7c0 1-.3 1.7-1 2.4-.5.6-1.3.9-2.2.9Zm-26.3 0c-1 0-1.8-.2-2.4-.8-.6-.7-.9-1.5-.9-2.4V52.3c0-1 .3-1.8.9-2.4.6-.6 1.4-1 2.4-1s1.7.4 2.3 1c.6.6 1 1.4 1 2.4v28.5c0 1-.4 1.7-1 2.4-.6.6-1.4.9-2.3.9ZM797.4 84.3c-3.2 0-6-.8-8.5-2.3a16.3 16.3 0 0 1-5.8-6.3 19.6 19.6 0 0 1-2-9.2c0-3.5.7-6.5 2.2-9.2 1.5-2.7 3.6-4.8 6.2-6.3 2.7-1.5 5.7-2.3 9.2-2.3 3.4 0 6.4.8 9 2.3a16 16 0 0 1 6.3 6.3 18 18 0 0 1 2.3 9.2h-3.8c0 3.5-.6 6.6-2 9.2a13.8 13.8 0 0 1-13.1 8.5Zm1.2 14.2c-3 0-5.9-.6-8.5-1.8a18 18 0 0 1-6.8-5.2c-.5-.7-.7-1.5-.6-2.3a3 3 0 0 1 1.3-1.8c.7-.5 1.5-.7 2.3-.5.9.2 1.6.6 2 1.3 1.2 1.4 2.7 2.5 4.4 3.4a14 14 0 0 0 6 1.2c2 0 4-.5 5.6-1.5 1.8-1 3.2-2.4 4.2-4.4 1-1.9 1.5-4.2 1.5-7v-9l2.1-5.7 4.2 1.3v13.9c0 3.3-.8 6.4-2.2 9.1a17 17 0 0 1-15.5 9Zm0-20a10.5 10.5 0 0 0 9.9-5.8c1-1.8 1.5-3.8 1.5-6.2 0-2.3-.5-4.4-1.5-6.2-.9-1.8-2.2-3.2-4-4.3-1.6-1-3.6-1.5-5.8-1.5-2.2 0-4.2.5-5.9 1.5-1.7 1-3 2.5-4 4.3-1 1.8-1.5 3.9-1.5 6.2 0 2.4.5 4.4 1.5 6.2a11 11 0 0 0 9.9 5.8ZM16.7 204c-1 0-1.7-.3-2.3-1-.7-.6-1-1.4-1-2.3v-43.4a3 3 0 0 1 1-2.3c.6-.7 1.4-1 2.3-1 1.3 0 2.3.6 3 1.8l20 40.1h-2l19.5-40a3.2 3.2 0 0 1 3-1.9c.9 0 1.6.3 2.3 1a3 3 0 0 1 1 2.3v43.4c0 1-.4 1.7-1 2.3-.7.7-1.5 1-2.4 1-1 0-1.7-.3-2.3-1-.7-.6-1-1.4-1-2.3v-34.1l1.3-.4-16.8 34.2a3.3 3.3 0 0 1-2.9 1.7c-1.4 0-2.4-.7-3-2l-16.6-33.2 1.3-.3v34c0 1-.4 1.8-1 2.4-.6.7-1.4 1-2.4 1ZM91.3 204c-1 0-1.7-.3-2.4-1-.6-.6-1-1.4-1-2.3v-15l-17-26.5c-.6-.9-.8-1.7-.6-2.5a3 3 0 0 1 1-2c.7-.4 1.4-.7 2.2-.7.7 0 1.3.2 1.8.5.4.3.8.8 1.2 1.4l16.2 25.8h-2.5l16.5-26a3.5 3.5 0 0 1 3-1.7c.7 0 1.3.3 1.8.8.6.6.8 1.2 1 2 0 .8-.2 1.6-.7 2.4l-17.2 26.6v14.9c0 1-.3 1.7-1 2.3-.6.7-1.4 1-2.3 1ZM141.2 204c-1 0-1.7-.3-2.3-1-.7-.6-1-1.4-1-2.3v-43.4a3 3 0 0 1 1-2.3c.6-.7 1.4-1 2.3-1H154c3.2 0 6 .7 8.5 2.1 2.5 1.4 4.4 3.4 5.8 6a17 17 0 0 1 2.1 8.5c0 3.1-.7 5.9-2.1 8.3a14.5 14.5 0 0 1-5.8 5.7c-2.4 1.4-5.3 2-8.5 2h-9.4v14c0 1-.4 1.8-1 2.4a3 3 0 0 1-2.4 1Zm3.4-23.5h9.4c2 0 3.7-.4 5.2-1.3 1.5-.8 2.7-2 3.5-3.5.9-1.5 1.3-3.2 1.3-5.1 0-2-.4-3.8-1.3-5.4a9.5 9.5 0 0 0-8.7-5h-9.4v20.3ZM191.8 204.3a17 17 0 0 1-17.7-17.7c0-3.6.7-6.6 2.2-9.3 1.6-2.7 3.7-4.8 6.3-6.3 2.7-1.5 5.7-2.3 9.2-2.3 3.4 0 6.4.8 9 2.3a16 16 0 0 1 6.3 6.3 18 18 0 0 1 2.3 9.2c0 3.5-.8 6.6-2.3 9.2a16.5 16.5 0 0 1-15.3 8.6Zm0-5.8a10.5 10.5 0 0 0 9.9-5.8c.9-1.8 1.4-3.8 1.4-6.2 0-2.3-.5-4.4-1.5-6.2-1-1.8-2.2-3.2-4-4.3-1.7-1-3.6-1.5-5.8-1.5-2.3 0-4.2.5-6 1.5-1.6 1-3 2.5-4 4.3-1 1.8-1.4 3.9-1.4 6.2 0 2.4.5 4.4 1.4 6.2a11 11 0 0 0 10 5.8ZM222.2 182.1c0-2.5.6-4.8 1.9-6.8a14 14 0 0 1 12.1-6.7c2.6 0 4.5.4 5.7 1.3 1.3.8 1.8 1.8 1.5 3-.1.5-.4 1-.8 1.3-.3.3-.7.5-1.2.6H240a18 18 0 0 0-7.4-.2c-2.2.5-3.9 1.4-5.2 2.6a6.7 6.7 0 0 0-1.8 5h-3.3Zm0 21.9c-1 0-1.7-.3-2.3-.8-.6-.5-.8-1.3-.8-2.4v-28.6c0-1 .3-1.8.8-2.4.6-.5 1.3-.8 2.4-.8 1 0 1.8.3 2.3.8.6.5.9 1.3.9 2.4v28.6c0 1-.3 1.8-.9 2.4-.5.5-1.3.8-2.3.8ZM263 204a10.6 10.6 0 0 1-9.9-6c-1-2-1.4-4-1.4-6.4V161c0-1 .3-1.8.9-2.3.6-.6 1.3-1 2.3-1 1 0 1.7.4 2.3 1 .6.5.9 1.3.9 2.3v30.5c0 1.7.4 3.1 1.4 4.3 1 1.1 2 1.7 3.4 1.7h2.2c.8 0 1.4.3 2 .9.5.6.8 1.4.8 2.3 0 1-.4 1.7-1.1 2.3a4 4 0 0 1-2.7.9h-1.2Zm-14.3-28.2a3 3 0 0 1-2.2-.8c-.5-.5-.8-1.1-.8-2 0-.8.3-1.4.8-2a3 3 0 0 1 2.2-.7h14.8a3 3 0 0 1 2.2.7c.5.6.8 1.2.8 2 0 .9-.3 1.5-.8 2a3 3 0 0 1-2.2.8h-14.8ZM279.7 204c-.8 0-1.6-.3-2.2-.9a3 3 0 0 1-1-2.4v-31.5c0-3 .6-5.8 1.8-8 1.3-2.3 3-4 5.1-5.3 2.2-1.2 4.7-1.9 7.6-1.9 1 0 1.7.3 2.3.8.6.6 1 1.3 1 2.2 0 .8-.4 1.5-1 2-.6.6-1.4.9-2.3.9-1.6 0-3 .4-4.2 1a7.7 7.7 0 0 0-2.8 3.1 10 10 0 0 0-1 4.5v32.2c0 1-.2 1.8-.8 2.4-.6.6-1.5.9-2.5.9Zm-6-28.2a3 3 0 0 1-2.1-.8c-.6-.5-.8-1.1-.8-2 0-.8.2-1.4.8-2a3 3 0 0 1 2.2-.7h15.8a3 3 0 0 1 2.2.7c.5.6.8 1.2.8 2 0 .9-.3 1.5-.8 2a3 3 0 0 1-2.2.8h-15.8ZM314 204.3a17 17 0 0 1-17.7-17.7c0-3.6.8-6.6 2.3-9.3 1.5-2.7 3.6-4.8 6.3-6.3 2.6-1.5 5.7-2.3 9.1-2.3 3.4 0 6.4.8 9.1 2.3a16 16 0 0 1 6.2 6.3 18 18 0 0 1 2.3 9.2c0 3.5-.7 6.6-2.2 9.2a16.5 16.5 0 0 1-15.4 8.6Zm0-5.8a10.5 10.5 0 0 0 9.9-5.8c1-1.8 1.4-3.8 1.4-6.2 0-2.3-.5-4.4-1.4-6.2-1-1.8-2.3-3.2-4-4.3-1.7-1-3.7-1.5-5.9-1.5s-4.2.5-5.9 1.5c-1.7 1-3 2.5-4 4.3-1 1.8-1.5 3.9-1.5 6.2 0 2.4.5 4.4 1.5 6.2a11 11 0 0 0 10 5.8ZM349.6 204c-1.8 0-3.5-.5-5-1.5-1.4-1-2.5-2.4-3.3-4.2-.9-1.8-1.3-3.8-1.3-6.1v-35c0-1 .3-1.7 1-2.3.5-.6 1.3-.9 2.2-.9 1 0 1.7.3 2.3 1 .6.5 1 1.3 1 2.2v35c0 1.5.2 2.8.8 3.9.6 1 1.4 1.5 2.3 1.5h1.6c.9 0 1.6.3 2 .9.6.6 1 1.4 1 2.3 0 1-.5 1.7-1.3 2.3-.8.6-1.8.9-3.1.9h-.2ZM364.4 204c-1 0-1.7-.3-2.4-.9-.6-.6-.9-1.4-.9-2.4v-28.4c0-1 .3-1.8 1-2.4.6-.6 1.4-1 2.3-1 1 0 1.8.4 2.4 1 .6.6.9 1.4.9 2.4v28.4c0 1-.3 1.8-1 2.4-.5.6-1.3.9-2.3.9Zm0-40.7c-1.1 0-2.1-.4-3-1.2a4.2 4.2 0 0 1-1.2-3 4 4 0 0 1 1.2-3 4.1 4.1 0 0 1 6 0 4.1 4.1 0 0 1 0 6 4 4 0 0 1-3 1.2ZM395.7 204.3a17 17 0 0 1-17.7-17.7c0-3.6.8-6.6 2.3-9.3 1.5-2.7 3.6-4.8 6.2-6.3 2.7-1.5 5.7-2.3 9.2-2.3 3.4 0 6.4.8 9 2.3a16 16 0 0 1 6.3 6.3 18 18 0 0 1 2.3 9.2c0 3.5-.8 6.6-2.2 9.2a16.5 16.5 0 0 1-15.4 8.6Zm0-5.8a10.5 10.5 0 0 0 9.9-5.8c1-1.8 1.4-3.8 1.4-6.2 0-2.3-.5-4.4-1.4-6.2-1-1.8-2.3-3.2-4-4.3-1.7-1-3.7-1.5-6-1.5-2.1 0-4 .5-5.8 1.5-1.7 1-3 2.5-4 4.3-1 1.8-1.5 3.9-1.5 6.2 0 2.4.5 4.4 1.5 6.2a11 11 0 0 0 9.9 5.8ZM441.9 177.9a4.4 4.4 0 0 1-3.1-7.6c.8-.9 1.9-1.3 3-1.3 1.3 0 2.4.4 3.2 1.3.9.9 1.3 2 1.3 3.2a4.4 4.4 0 0 1-4.4 4.4Zm.7 27.1a4.4 4.4 0 0 1-3.1-7.5c.9-1 1.9-1.4 3-1.4 1.3 0 2.4.5 3.2 1.4.9.8 1.3 1.9 1.3 3.1a4.4 4.4 0 0 1-4.4 4.4ZM453.4 219c-1 0-1.7-.3-2.3-1-.6-.6-1-1.4-1-2.4 0-.5.2-1 .4-1.6a71.2 71.2 0 0 0 6.8-27.5c0-9.1-2.2-18.3-6.7-27.4-.2-.4-.4-1-.4-1.6 0-1 .3-1.8.9-2.4.6-.7 1.4-1 2.3-1 1.4 0 2.5.7 3.1 2.2a71.2 71.2 0 0 1 7.2 30.2c0 5-.6 10.1-1.8 15.1-1.2 5-3 10.1-5.4 15.2-.4.8-.8 1.4-1.3 1.7-.5.3-1 .5-1.8.5Z"/></mask><path d="M28.2 84c-1 0-1.7-.3-2.4-1-.6-.6-1-1.4-1-2.3V34h6.7v46.7c0 1-.3 1.7-1 2.3-.6.7-1.4 1-2.3 1ZM11 40.2c-.9 0-1.6-.3-2.2-.9-.6-.6-.8-1.3-.8-2.2a3 3 0 0 1 3-3h34.3c.9 0 1.6.2 2.1.8.6.6 1 1.3 1 2.2a3 3 0 0 1-3 3H10.9ZM58.3 71.3c-.9 0-1.7-.3-2.3-1-.6-.6-1-1.4-1-2.3V37.3c0-1 .4-1.8 1-2.4.6-.6 1.4-.9 2.3-.9 1 0 1.8.3 2.4 1 .6.5.9 1.3.9 2.3V68c0 1-.3 1.7-.9 2.4-.6.6-1.4.9-2.4.9ZM84.6 84c-.9 0-1.7-.3-2.3-1-.6-.6-1-1.4-1-2.3V65.1c0-2.5-.4-4.5-1.3-6a8.2 8.2 0 0 0-3.6-3.4c-1.5-.8-3.2-1.1-5.2-1.1-1.8 0-3.4.3-4.9 1a9 9 0 0 0-3.4 3 7 7 0 0 0-1.3 4.2h-4a13.4 13.4 0 0 1 7.3-12.3c2.2-1.2 4.8-1.8 7.6-1.8 3 0 5.5.6 7.9 1.9 2.3 1.2 4.1 3 5.5 5.5a18 18 0 0 1 2 9v15.7c0 1-.3 1.7-1 2.4-.6.6-1.3.9-2.3.9Zm-26.3 0c-.9 0-1.7-.3-2.3-1-.6-.6-1-1.4-1-2.3V52.3c0-1 .4-1.8 1-2.4.6-.6 1.4-1 2.3-1 1 0 1.8.4 2.4 1 .6.6.9 1.4.9 2.4v28.5c0 1-.3 1.7-.9 2.4-.6.6-1.4.9-2.4.9ZM113.4 84.3c-3.2 0-6-.8-8.4-2.3a17.2 17.2 0 0 1-8-15.5 17.4 17.4 0 0 1 17.7-17.8 17.1 17.1 0 0 1 15.2 8.7c1.5 2.7 2.3 5.8 2.3 9.1h-2.5c0 3.4-.7 6.4-2.1 9.1a15.6 15.6 0 0 1-14.2 8.6Zm1.2-5.8c2.2 0 4.1-.5 5.9-1.5 1.7-1.1 3-2.5 4-4.3 1-1.9 1.5-4 1.5-6.2 0-2.3-.5-4.3-1.5-6.1a10.9 10.9 0 0 0-9.9-5.9 11.3 11.3 0 0 0-10 5.9c-.9 1.8-1.4 3.8-1.4 6.1s.5 4.3 1.5 6.2a12 12 0 0 0 4.1 4.3c1.8 1 3.7 1.5 5.8 1.5Zm14.4 5.6c-1 0-1.8-.3-2.4-1-.6-.6-.9-1.4-.9-2.3V71l1.2-6.8 5.3 2.3v14.3c0 1-.3 1.7-1 2.4-.5.6-1.3.9-2.2.9ZM171.5 84c-1 0-1.7-.2-2.4-.8-.5-.7-.8-1.5-.8-2.4V65.1c0-2.5-.5-4.5-1.4-6a8.2 8.2 0 0 0-3.6-3.4c-1.5-.8-3.3-1.1-5.2-1.1-1.8 0-3.4.3-4.9 1a9 9 0 0 0-3.4 3 7 7 0 0 0-1.3 4.2h-4a13.4 13.4 0 0 1 7.2-12.3c2.3-1.2 4.8-1.8 7.7-1.8 2.9 0 5.5.6 7.8 1.9 2.4 1.2 4.2 3 5.5 5.5a18 18 0 0 1 2 9v15.7c0 1-.2 1.7-.9 2.4-.6.6-1.3.9-2.3.9Zm-26.3 0c-1 0-1.7-.2-2.4-.8-.6-.7-.9-1.5-.9-2.4V52.3c0-1 .3-1.8 1-2.4.6-.6 1.4-1 2.3-1 1 0 1.8.4 2.4 1 .6.6.9 1.4.9 2.4v28.5c0 1-.3 1.7-1 2.4-.5.6-1.3.9-2.3.9ZM191.7 71.2l-4-4.4 19.7-17.5a2.8 2.8 0 0 1 4.2.2c.6.6.8 1.3.8 2.1a3 3 0 0 1-1 2l-19.7 17.6Zm-3 12.8c-1 0-1.7-.3-2.3-.8-.6-.6-.8-1.4-.8-2.3V37.2c0-1 .3-1.7.8-2.3.6-.6 1.4-.9 2.3-.9 1 0 1.7.3 2.2 1 .6.5 1 1.2 1 2.2v43.7c0 .9-.4 1.7-1 2.3a3 3 0 0 1-2.2.8Zm22.9-.3a3 3 0 0 1-2.3.7c-.9 0-1.5-.4-2.1-1.1l-13-16 4.5-4.3L212 79.4c.6.7.8 1.4.7 2.2 0 .8-.4 1.5-1.1 2ZM256.4 84c-1 0-1.7-.3-2.3-1-.7-.6-1-1.4-1-2.3v-15l-17-26.5c-.6-.9-.8-1.7-.7-2.5a3 3 0 0 1 1-2c.7-.4 1.4-.7 2.2-.7.8 0 1.3.2 1.8.5.4.3.8.8 1.2 1.4l16.2 25.8h-2.5l16.5-26a3.5 3.5 0 0 1 3-1.7c.7 0 1.4.3 1.9.8.5.6.8 1.2.9 2 0 .8-.2 1.6-.7 2.4l-17.2 26.6v14.9c0 1-.3 1.7-1 2.3-.6.7-1.4 1-2.3 1ZM293.1 84.3a17 17 0 0 1-17.7-17.7c0-3.6.8-6.6 2.3-9.3 1.5-2.7 3.6-4.8 6.3-6.3 2.6-1.5 5.7-2.3 9.1-2.3 3.4 0 6.5.8 9.1 2.3a16 16 0 0 1 6.2 6.3 18 18 0 0 1 2.3 9.2c0 3.5-.7 6.6-2.2 9.2a16.5 16.5 0 0 1-15.4 8.6Zm0-5.8a10.5 10.5 0 0 0 9.9-5.8c1-1.8 1.5-3.8 1.5-6.2 0-2.3-.5-4.4-1.5-6.2-1-1.8-2.3-3.2-4-4.3-1.7-1-3.6-1.5-5.9-1.5-2.2 0-4.1.5-5.9 1.5-1.7 1-3 2.5-4 4.3-1 1.8-1.5 3.9-1.5 6.2 0 2.4.5 4.4 1.5 6.2a11 11 0 0 0 10 5.8ZM335.2 84.3c-3 0-5.6-.6-8-1.8a14.1 14.1 0 0 1-5.5-5.6c-1.3-2.4-2-5.4-2-9V52.2c0-1 .3-1.7 1-2.3.6-.7 1.4-1 2.3-1 1 0 1.7.3 2.3 1a3 3 0 0 1 1 2.3v15.7c0 2.4.4 4.4 1.3 6a8.6 8.6 0 0 0 3.7 3.4 12 12 0 0 0 10 0 9 9 0 0 0 3.5-2.9 7.2 7.2 0 0 0 1.2-4.2h4a13.8 13.8 0 0 1-7.3 12.2 15.4 15.4 0 0 1-7.5 2Zm14.1-.3c-1 0-1.7-.3-2.4-.9-.6-.6-.9-1.4-.9-2.4V52.2c0-1 .3-1.8 1-2.4.6-.6 1.4-.9 2.3-.9 1 0 1.8.3 2.4 1 .6.5.9 1.3.9 2.3v28.5c0 1-.3 1.8-1 2.4-.5.6-1.3.9-2.3.9ZM382.8 84c-1 0-1.8-.3-2.4-1-.6-.6-1-1.4-1-2.3V37.3a3 3 0 0 1 1-2.3c.6-.7 1.4-1 2.4-1h28.9c1 0 1.8.3 2.4 1 .6.5.8 1.2.8 2.2 0 .8-.2 1.6-.8 2.1-.6.6-1.4.9-2.4.9H386v15.5h18.4c1 0 1.7.3 2.3 1 .6.5 1 1.2 1 2a3 3 0 0 1-1 2.3c-.6.6-1.4.9-2.3.9H386v18.8c0 1-.3 1.7-1 2.3-.6.7-1.4 1-2.3 1ZM438.7 84.3A17 17 0 0 1 421 66.6c0-3.6.8-6.6 2.3-9.3 1.5-2.7 3.6-4.8 6.2-6.3 2.7-1.5 5.7-2.3 9.2-2.3 3.4 0 6.4.8 9 2.3a16 16 0 0 1 6.3 6.3 18 18 0 0 1 2.3 9.2c0 3.5-.8 6.6-2.2 9.2a16.5 16.5 0 0 1-15.4 8.6Zm0-5.8a10.5 10.5 0 0 0 9.9-5.8c1-1.8 1.4-3.8 1.4-6.2 0-2.3-.5-4.4-1.4-6.2-1-1.8-2.3-3.2-4-4.3-1.7-1-3.7-1.5-6-1.5-2.1 0-4 .5-5.8 1.5-1.7 1-3 2.5-4 4.3-1 1.8-1.5 3.9-1.5 6.2 0 2.4.5 4.4 1.5 6.2a11 11 0 0 0 9.9 5.8ZM469.1 62.1c0-2.5.7-4.8 1.9-6.8a14 14 0 0 1 12.2-6.7c2.5 0 4.4.4 5.7 1.3 1.2.8 1.7 1.8 1.4 3-.1.5-.4 1-.7 1.3-.4.3-.8.5-1.3.6h-1.5a18 18 0 0 0-7.4-.2c-2.1.5-3.9 1.4-5.1 2.6a6.7 6.7 0 0 0-1.9 5h-3.3Zm.1 21.9c-1 0-1.8-.3-2.4-.8-.5-.5-.8-1.3-.8-2.4V52.2c0-1 .3-1.8.8-2.4.6-.5 1.4-.8 2.4-.8s1.9.3 2.4.8.8 1.3.8 2.4v28.6c0 1-.3 1.8-.8 2.4-.5.5-1.3.8-2.4.8ZM527.1 84c-.7 0-1.4-.2-2-.7-.6-.5-1-1.1-1.3-2L511 38.7c-.5-1.4-.4-2.5 0-3.3.5-.9 1.3-1.3 2.5-1.3.7 0 1.3.2 2 .7.5.3 1 1 1.2 1.8l11.2 39h-1.4L537 37c.1-.6.5-1.2 1.1-1.6.6-.4 1.3-.6 2-.6.8 0 1.4.1 2 .5.6.4 1 1 1.2 1.6l10.4 38.8h-1.2l11.2-39.4c.5-1.5 1.5-2.2 3.3-2.2 1.2 0 2 .5 2.3 1.4.3 1 .3 2 0 3.2l-12.9 42.7c-.3.8-.7 1.5-1.3 2a3 3 0 0 1-2 .7c-.8 0-1.5-.3-2.1-.8-.6-.5-1-1.1-1.2-1.8l-10.3-39.8h1.5l-10.4 39.7c-.3.8-.8 1.5-1.4 2a3 3 0 0 1-2 .7ZM583.5 84.3c-3.1 0-6-.8-8.4-2.3a17.2 17.2 0 0 1-8-15.5 17.4 17.4 0 0 1 17.7-17.8 17.1 17.1 0 0 1 15.2 8.7c1.6 2.7 2.4 5.8 2.4 9.1h-2.5c0 3.4-.8 6.4-2.2 9.1a15.6 15.6 0 0 1-14.2 8.6Zm1.3-5.8c2.1 0 4-.5 5.8-1.5 1.7-1.1 3-2.5 4-4.3 1-1.9 1.5-4 1.5-6.2 0-2.3-.5-4.3-1.5-6.1a10.9 10.9 0 0 0-9.8-5.9 11.3 11.3 0 0 0-10 5.9c-1 1.8-1.4 3.8-1.4 6.1s.5 4.3 1.4 6.2A12 12 0 0 0 579 77c1.8 1 3.7 1.5 5.9 1.5Zm14.3 5.6c-1 0-1.7-.3-2.4-1-.6-.6-.9-1.4-.9-2.3V71l1.2-6.8 5.4 2.3v14.3c0 1-.4 1.7-1 2.4-.6.6-1.4.9-2.3.9ZM624.8 84a10.6 10.6 0 0 1-9.8-6c-1-2-1.5-4-1.5-6.4V41c0-1 .3-1.8 1-2.3.5-.6 1.3-1 2.2-1 1 0 1.8.4 2.3 1 .6.5 1 1.3 1 2.3v30.5c0 1.7.4 3.1 1.4 4.3.9 1.1 2 1.7 3.4 1.7h2.2c.8 0 1.4.3 1.9.9.6.6.8 1.4.8 2.3 0 1-.3 1.7-1 2.3a4 4 0 0 1-2.7.9h-1.2Zm-14.2-28.2a3 3 0 0 1-2.2-.8c-.5-.5-.8-1.1-.8-2 0-.8.3-1.4.8-2a3 3 0 0 1 2.2-.7h14.8a3 3 0 0 1 2.2.7c.5.6.8 1.2.8 2 0 .9-.3 1.5-.8 2a3 3 0 0 1-2.2.8h-14.8ZM653.6 84.3c-3.4 0-6.4-.8-9.1-2.3a17.5 17.5 0 0 1-6.3-6.4 18.4 18.4 0 0 1-2.2-9c0-3.5.7-6.6 2.2-9.3a16 16 0 0 1 6.2-6.3c2.6-1.5 5.5-2.3 9-2.3a16 16 0 0 1 12.5 5.8c.6.7.8 1.4.6 2.1-.2.7-.6 1.4-1.4 2-.6.4-1.3.5-2 .4-.7-.2-1.4-.6-2-1.2-2-2.2-4.7-3.3-7.8-3.3a10.8 10.8 0 0 0-9.7 5.7c-.9 1.8-1.4 3.9-1.4 6.3a11.5 11.5 0 0 0 5.4 10.4 13.3 13.3 0 0 0 9.9 1c1.2-.3 2.2-.9 3.2-1.6.7-.6 1.4-.9 2-1 .8 0 1.4.2 2 .6a3 3 0 0 1 1.2 2c.1.8-.2 1.5-.7 2-3.1 3-7 4.4-11.6 4.4ZM679.5 71.3c-1 0-1.8-.3-2.4-1-.6-.6-.9-1.4-.9-2.3V37.3c0-1 .3-1.8.9-2.4.6-.6 1.4-.9 2.4-.9s1.7.3 2.3 1c.6.5 1 1.3 1 2.3V68c0 1-.4 1.7-1 2.4-.6.6-1.4.9-2.3.9ZM705.8 84c-1 0-1.8-.3-2.4-1-.6-.6-.9-1.4-.9-2.3V65.1c0-2.5-.4-4.5-1.3-6a8.2 8.2 0 0 0-3.7-3.4c-1.5-.8-3.2-1.1-5.2-1.1-1.8 0-3.4.3-4.8 1a9 9 0 0 0-3.5 3 7 7 0 0 0-1.3 4.2h-4a13.4 13.4 0 0 1 7.3-12.3c2.3-1.2 4.8-1.8 7.6-1.8 3 0 5.6.6 7.9 1.9 2.3 1.2 4.2 3 5.5 5.5a18 18 0 0 1 2 9v15.7c0 1-.3 1.7-1 2.4-.5.6-1.3.9-2.2.9Zm-26.3 0c-1 0-1.8-.3-2.4-1-.6-.6-.9-1.4-.9-2.3V52.3c0-1 .3-1.8.9-2.4.6-.6 1.4-1 2.4-1s1.7.4 2.3 1c.6.6 1 1.4 1 2.4v28.5c0 1-.4 1.7-1 2.4-.6.6-1.4.9-2.3.9ZM723.8 84c-1 0-1.7-.3-2.4-.9-.6-.6-.9-1.4-.9-2.4V52.3c0-1 .3-1.8 1-2.4.6-.6 1.4-1 2.3-1 1 0 1.8.4 2.4 1 .6.6.9 1.4.9 2.4v28.4c0 1-.3 1.8-1 2.4-.5.6-1.3.9-2.3.9Zm0-40.7c-1.2 0-2.2-.4-3-1.2a4.2 4.2 0 0 1-1.2-3 4 4 0 0 1 1.2-3 4.1 4.1 0 0 1 6 0 4.1 4.1 0 0 1 0 6 4 4 0 0 1-3 1.2ZM768.8 84c-1 0-1.8-.2-2.4-.8-.6-.7-.9-1.5-.9-2.4V65.1c0-2.5-.4-4.5-1.3-6a8.2 8.2 0 0 0-3.7-3.4c-1.5-.8-3.2-1.1-5.2-1.1-1.8 0-3.4.3-4.8 1a9 9 0 0 0-3.5 3 7 7 0 0 0-1.3 4.2h-4a13.4 13.4 0 0 1 7.3-12.3c2.3-1.2 4.8-1.8 7.6-1.8 3 0 5.6.6 7.9 1.9 2.3 1.2 4.2 3 5.5 5.5a18 18 0 0 1 2 9v15.7c0 1-.3 1.7-1 2.4-.5.6-1.3.9-2.2.9Zm-26.3 0c-1 0-1.8-.2-2.4-.8-.6-.7-.9-1.5-.9-2.4V52.3c0-1 .3-1.8.9-2.4.6-.6 1.4-1 2.4-1s1.7.4 2.3 1c.6.6 1 1.4 1 2.4v28.5c0 1-.4 1.7-1 2.4-.6.6-1.4.9-2.3.9ZM797.4 84.3c-3.2 0-6-.8-8.5-2.3a16.3 16.3 0 0 1-5.8-6.3 19.6 19.6 0 0 1-2-9.2c0-3.5.7-6.5 2.2-9.2 1.5-2.7 3.6-4.8 6.2-6.3 2.7-1.5 5.7-2.3 9.2-2.3 3.4 0 6.4.8 9 2.3a16 16 0 0 1 6.3 6.3 18 18 0 0 1 2.3 9.2h-3.8c0 3.5-.6 6.6-2 9.2a13.8 13.8 0 0 1-13.1 8.5Zm1.2 14.2c-3 0-5.9-.6-8.5-1.8a18 18 0 0 1-6.8-5.2c-.5-.7-.7-1.5-.6-2.3a3 3 0 0 1 1.3-1.8c.7-.5 1.5-.7 2.3-.5.9.2 1.6.6 2 1.3 1.2 1.4 2.7 2.5 4.4 3.4a14 14 0 0 0 6 1.2c2 0 4-.5 5.6-1.5 1.8-1 3.2-2.4 4.2-4.4 1-1.9 1.5-4.2 1.5-7v-9l2.1-5.7 4.2 1.3v13.9c0 3.3-.8 6.4-2.2 9.1a17 17 0 0 1-15.5 9Zm0-20a10.5 10.5 0 0 0 9.9-5.8c1-1.8 1.5-3.8 1.5-6.2 0-2.3-.5-4.4-1.5-6.2-.9-1.8-2.2-3.2-4-4.3-1.6-1-3.6-1.5-5.8-1.5-2.2 0-4.2.5-5.9 1.5-1.7 1-3 2.5-4 4.3-1 1.8-1.5 3.9-1.5 6.2 0 2.4.5 4.4 1.5 6.2a11 11 0 0 0 9.9 5.8ZM16.7 204c-1 0-1.7-.3-2.3-1-.7-.6-1-1.4-1-2.3v-43.4a3 3 0 0 1 1-2.3c.6-.7 1.4-1 2.3-1 1.3 0 2.3.6 3 1.8l20 40.1h-2l19.5-40a3.2 3.2 0 0 1 3-1.9c.9 0 1.6.3 2.3 1a3 3 0 0 1 1 2.3v43.4c0 1-.4 1.7-1 2.3-.7.7-1.5 1-2.4 1-1 0-1.7-.3-2.3-1-.7-.6-1-1.4-1-2.3v-34.1l1.3-.4-16.8 34.2a3.3 3.3 0 0 1-2.9 1.7c-1.4 0-2.4-.7-3-2l-16.6-33.2 1.3-.3v34c0 1-.4 1.8-1 2.4-.6.7-1.4 1-2.4 1ZM91.3 204c-1 0-1.7-.3-2.4-1-.6-.6-1-1.4-1-2.3v-15l-17-26.5c-.6-.9-.8-1.7-.6-2.5a3 3 0 0 1 1-2c.7-.4 1.4-.7 2.2-.7.7 0 1.3.2 1.8.5.4.3.8.8 1.2 1.4l16.2 25.8h-2.5l16.5-26a3.5 3.5 0 0 1 3-1.7c.7 0 1.3.3 1.8.8.6.6.8 1.2 1 2 0 .8-.2 1.6-.7 2.4l-17.2 26.6v14.9c0 1-.3 1.7-1 2.3-.6.7-1.4 1-2.3 1ZM141.2 204c-1 0-1.7-.3-2.3-1-.7-.6-1-1.4-1-2.3v-43.4a3 3 0 0 1 1-2.3c.6-.7 1.4-1 2.3-1H154c3.2 0 6 .7 8.5 2.1 2.5 1.4 4.4 3.4 5.8 6a17 17 0 0 1 2.1 8.5c0 3.1-.7 5.9-2.1 8.3a14.5 14.5 0 0 1-5.8 5.7c-2.4 1.4-5.3 2-8.5 2h-9.4v14c0 1-.4 1.8-1 2.4a3 3 0 0 1-2.4 1Zm3.4-23.5h9.4c2 0 3.7-.4 5.2-1.3 1.5-.8 2.7-2 3.5-3.5.9-1.5 1.3-3.2 1.3-5.1 0-2-.4-3.8-1.3-5.4a9.5 9.5 0 0 0-8.7-5h-9.4v20.3ZM191.8 204.3a17 17 0 0 1-17.7-17.7c0-3.6.7-6.6 2.2-9.3 1.6-2.7 3.7-4.8 6.3-6.3 2.7-1.5 5.7-2.3 9.2-2.3 3.4 0 6.4.8 9 2.3a16 16 0 0 1 6.3 6.3 18 18 0 0 1 2.3 9.2c0 3.5-.8 6.6-2.3 9.2a16.5 16.5 0 0 1-15.3 8.6Zm0-5.8a10.5 10.5 0 0 0 9.9-5.8c.9-1.8 1.4-3.8 1.4-6.2 0-2.3-.5-4.4-1.5-6.2-1-1.8-2.2-3.2-4-4.3-1.7-1-3.6-1.5-5.8-1.5-2.3 0-4.2.5-6 1.5-1.6 1-3 2.5-4 4.3-1 1.8-1.4 3.9-1.4 6.2 0 2.4.5 4.4 1.4 6.2a11 11 0 0 0 10 5.8ZM222.2 182.1c0-2.5.6-4.8 1.9-6.8a14 14 0 0 1 12.1-6.7c2.6 0 4.5.4 5.7 1.3 1.3.8 1.8 1.8 1.5 3-.1.5-.4 1-.8 1.3-.3.3-.7.5-1.2.6H240a18 18 0 0 0-7.4-.2c-2.2.5-3.9 1.4-5.2 2.6a6.7 6.7 0 0 0-1.8 5h-3.3Zm0 21.9c-1 0-1.7-.3-2.3-.8-.6-.5-.8-1.3-.8-2.4v-28.6c0-1 .3-1.8.8-2.4.6-.5 1.3-.8 2.4-.8 1 0 1.8.3 2.3.8.6.5.9 1.3.9 2.4v28.6c0 1-.3 1.8-.9 2.4-.5.5-1.3.8-2.3.8ZM263 204a10.6 10.6 0 0 1-9.9-6c-1-2-1.4-4-1.4-6.4V161c0-1 .3-1.8.9-2.3.6-.6 1.3-1 2.3-1 1 0 1.7.4 2.3 1 .6.5.9 1.3.9 2.3v30.5c0 1.7.4 3.1 1.4 4.3 1 1.1 2 1.7 3.4 1.7h2.2c.8 0 1.4.3 2 .9.5.6.8 1.4.8 2.3 0 1-.4 1.7-1.1 2.3a4 4 0 0 1-2.7.9h-1.2Zm-14.3-28.2a3 3 0 0 1-2.2-.8c-.5-.5-.8-1.1-.8-2 0-.8.3-1.4.8-2a3 3 0 0 1 2.2-.7h14.8a3 3 0 0 1 2.2.7c.5.6.8 1.2.8 2 0 .9-.3 1.5-.8 2a3 3 0 0 1-2.2.8h-14.8ZM279.7 204c-.8 0-1.6-.3-2.2-.9a3 3 0 0 1-1-2.4v-31.5c0-3 .6-5.8 1.8-8 1.3-2.3 3-4 5.1-5.3 2.2-1.2 4.7-1.9 7.6-1.9 1 0 1.7.3 2.3.8.6.6 1 1.3 1 2.2 0 .8-.4 1.5-1 2-.6.6-1.4.9-2.3.9-1.6 0-3 .4-4.2 1a7.7 7.7 0 0 0-2.8 3.1 10 10 0 0 0-1 4.5v32.2c0 1-.2 1.8-.8 2.4-.6.6-1.5.9-2.5.9Zm-6-28.2a3 3 0 0 1-2.1-.8c-.6-.5-.8-1.1-.8-2 0-.8.2-1.4.8-2a3 3 0 0 1 2.2-.7h15.8a3 3 0 0 1 2.2.7c.5.6.8 1.2.8 2 0 .9-.3 1.5-.8 2a3 3 0 0 1-2.2.8h-15.8ZM314 204.3a17 17 0 0 1-17.7-17.7c0-3.6.8-6.6 2.3-9.3 1.5-2.7 3.6-4.8 6.3-6.3 2.6-1.5 5.7-2.3 9.1-2.3 3.4 0 6.4.8 9.1 2.3a16 16 0 0 1 6.2 6.3 18 18 0 0 1 2.3 9.2c0 3.5-.7 6.6-2.2 9.2a16.5 16.5 0 0 1-15.4 8.6Zm0-5.8a10.5 10.5 0 0 0 9.9-5.8c1-1.8 1.4-3.8 1.4-6.2 0-2.3-.5-4.4-1.4-6.2-1-1.8-2.3-3.2-4-4.3-1.7-1-3.7-1.5-5.9-1.5s-4.2.5-5.9 1.5c-1.7 1-3 2.5-4 4.3-1 1.8-1.5 3.9-1.5 6.2 0 2.4.5 4.4 1.5 6.2a11 11 0 0 0 10 5.8ZM349.6 204c-1.8 0-3.5-.5-5-1.5-1.4-1-2.5-2.4-3.3-4.2-.9-1.8-1.3-3.8-1.3-6.1v-35c0-1 .3-1.7 1-2.3.5-.6 1.3-.9 2.2-.9 1 0 1.7.3 2.3 1 .6.5 1 1.3 1 2.2v35c0 1.5.2 2.8.8 3.9.6 1 1.4 1.5 2.3 1.5h1.6c.9 0 1.6.3 2 .9.6.6 1 1.4 1 2.3 0 1-.5 1.7-1.3 2.3-.8.6-1.8.9-3.1.9h-.2ZM364.4 204c-1 0-1.7-.3-2.4-.9-.6-.6-.9-1.4-.9-2.4v-28.4c0-1 .3-1.8 1-2.4.6-.6 1.4-1 2.3-1 1 0 1.8.4 2.4 1 .6.6.9 1.4.9 2.4v28.4c0 1-.3 1.8-1 2.4-.5.6-1.3.9-2.3.9Zm0-40.7c-1.1 0-2.1-.4-3-1.2a4.2 4.2 0 0 1-1.2-3 4 4 0 0 1 1.2-3 4.1 4.1 0 0 1 6 0 4.1 4.1 0 0 1 0 6 4 4 0 0 1-3 1.2ZM395.7 204.3a17 17 0 0 1-17.7-17.7c0-3.6.8-6.6 2.3-9.3 1.5-2.7 3.6-4.8 6.2-6.3 2.7-1.5 5.7-2.3 9.2-2.3 3.4 0 6.4.8 9 2.3a16 16 0 0 1 6.3 6.3 18 18 0 0 1 2.3 9.2c0 3.5-.8 6.6-2.2 9.2a16.5 16.5 0 0 1-15.4 8.6Zm0-5.8a10.5 10.5 0 0 0 9.9-5.8c1-1.8 1.4-3.8 1.4-6.2 0-2.3-.5-4.4-1.4-6.2-1-1.8-2.3-3.2-4-4.3-1.7-1-3.7-1.5-6-1.5-2.1 0-4 .5-5.8 1.5-1.7 1-3 2.5-4 4.3-1 1.8-1.5 3.9-1.5 6.2 0 2.4.5 4.4 1.5 6.2a11 11 0 0 0 9.9 5.8ZM441.9 177.9a4.4 4.4 0 0 1-3.1-7.6c.8-.9 1.9-1.3 3-1.3 1.3 0 2.4.4 3.2 1.3.9.9 1.3 2 1.3 3.2a4.4 4.4 0 0 1-4.4 4.4Zm.7 27.1a4.4 4.4 0 0 1-3.1-7.5c.9-1 1.9-1.4 3-1.4 1.3 0 2.4.5 3.2 1.4.9.8 1.3 1.9 1.3 3.1a4.4 4.4 0 0 1-4.4 4.4ZM453.4 219c-1 0-1.7-.3-2.3-1-.6-.6-1-1.4-1-2.4 0-.5.2-1 .4-1.6a71.2 71.2 0 0 0 6.8-27.5c0-9.1-2.2-18.3-6.7-27.4-.2-.4-.4-1-.4-1.6 0-1 .3-1.8.9-2.4.6-.7 1.4-1 2.3-1 1.4 0 2.5.7 3.1 2.2a71.2 71.2 0 0 1 7.2 30.2c0 5-.6 10.1-1.8 15.1-1.2 5-3 10.1-5.4 15.2-.4.8-.8 1.4-1.3 1.7-.5.3-1 .5-1.8.5Z" fill="#1C1617"/><path d="M28.2 84c-1 0-1.7-.3-2.4-1-.6-.6-1-1.4-1-2.3V34h6.7v46.7c0 1-.3 1.7-1 2.3-.6.7-1.4 1-2.3 1ZM11 40.2c-.9 0-1.6-.3-2.2-.9-.6-.6-.8-1.3-.8-2.2a3 3 0 0 1 3-3h34.3c.9 0 1.6.2 2.1.8.6.6 1 1.3 1 2.2a3 3 0 0 1-3 3H10.9ZM58.3 71.3c-.9 0-1.7-.3-2.3-1-.6-.6-1-1.4-1-2.3V37.3c0-1 .4-1.8 1-2.4.6-.6 1.4-.9 2.3-.9 1 0 1.8.3 2.4 1 .6.5.9 1.3.9 2.3V68c0 1-.3 1.7-.9 2.4-.6.6-1.4.9-2.4.9ZM84.6 84c-.9 0-1.7-.3-2.3-1-.6-.6-1-1.4-1-2.3V65.1c0-2.5-.4-4.5-1.3-6a8.2 8.2 0 0 0-3.6-3.4c-1.5-.8-3.2-1.1-5.2-1.1-1.8 0-3.4.3-4.9 1a9 9 0 0 0-3.4 3 7 7 0 0 0-1.3 4.2h-4a13.4 13.4 0 0 1 7.3-12.3c2.2-1.2 4.8-1.8 7.6-1.8 3 0 5.5.6 7.9 1.9 2.3 1.2 4.1 3 5.5 5.5a18 18 0 0 1 2 9v15.7c0 1-.3 1.7-1 2.4-.6.6-1.3.9-2.3.9Zm-26.3 0c-.9 0-1.7-.3-2.3-1-.6-.6-1-1.4-1-2.3V52.3c0-1 .4-1.8 1-2.4.6-.6 1.4-1 2.3-1 1 0 1.8.4 2.4 1 .6.6.9 1.4.9 2.4v28.5c0 1-.3 1.7-.9 2.4-.6.6-1.4.9-2.4.9ZM113.4 84.3c-3.2 0-6-.8-8.4-2.3a17.2 17.2 0 0 1-8-15.5 17.4 17.4 0 0 1 17.7-17.8 17.1 17.1 0 0 1 15.2 8.7c1.5 2.7 2.3 5.8 2.3 9.1h-2.5c0 3.4-.7 6.4-2.1 9.1a15.6 15.6 0 0 1-14.2 8.6Zm1.2-5.8c2.2 0 4.1-.5 5.9-1.5 1.7-1.1 3-2.5 4-4.3 1-1.9 1.5-4 1.5-6.2 0-2.3-.5-4.3-1.5-6.1a10.9 10.9 0 0 0-9.9-5.9 11.3 11.3 0 0 0-10 5.9c-.9 1.8-1.4 3.8-1.4 6.1s.5 4.3 1.5 6.2a12 12 0 0 0 4.1 4.3c1.8 1 3.7 1.5 5.8 1.5Zm14.4 5.6c-1 0-1.8-.3-2.4-1-.6-.6-.9-1.4-.9-2.3V71l1.2-6.8 5.3 2.3v14.3c0 1-.3 1.7-1 2.4-.5.6-1.3.9-2.2.9ZM171.5 84c-1 0-1.7-.2-2.4-.8-.5-.7-.8-1.5-.8-2.4V65.1c0-2.5-.5-4.5-1.4-6a8.2 8.2 0 0 0-3.6-3.4c-1.5-.8-3.3-1.1-5.2-1.1-1.8 0-3.4.3-4.9 1a9 9 0 0 0-3.4 3 7 7 0 0 0-1.3 4.2h-4a13.4 13.4 0 0 1 7.2-12.3c2.3-1.2 4.8-1.8 7.7-1.8 2.9 0 5.5.6 7.8 1.9 2.4 1.2 4.2 3 5.5 5.5a18 18 0 0 1 2 9v15.7c0 1-.2 1.7-.9 2.4-.6.6-1.3.9-2.3.9Zm-26.3 0c-1 0-1.7-.2-2.4-.8-.6-.7-.9-1.5-.9-2.4V52.3c0-1 .3-1.8 1-2.4.6-.6 1.4-1 2.3-1 1 0 1.8.4 2.4 1 .6.6.9 1.4.9 2.4v28.5c0 1-.3 1.7-1 2.4-.5.6-1.3.9-2.3.9ZM191.7 71.2l-4-4.4 19.7-17.5a2.8 2.8 0 0 1 4.2.2c.6.6.8 1.3.8 2.1a3 3 0 0 1-1 2l-19.7 17.6Zm-3 12.8c-1 0-1.7-.3-2.3-.8-.6-.6-.8-1.4-.8-2.3V37.2c0-1 .3-1.7.8-2.3.6-.6 1.4-.9 2.3-.9 1 0 1.7.3 2.2 1 .6.5 1 1.2 1 2.2v43.7c0 .9-.4 1.7-1 2.3a3 3 0 0 1-2.2.8Zm22.9-.3a3 3 0 0 1-2.3.7c-.9 0-1.5-.4-2.1-1.1l-13-16 4.5-4.3L212 79.4c.6.7.8 1.4.7 2.2 0 .8-.4 1.5-1.1 2ZM256.4 84c-1 0-1.7-.3-2.3-1-.7-.6-1-1.4-1-2.3v-15l-17-26.5c-.6-.9-.8-1.7-.7-2.5a3 3 0 0 1 1-2c.7-.4 1.4-.7 2.2-.7.8 0 1.3.2 1.8.5.4.3.8.8 1.2 1.4l16.2 25.8h-2.5l16.5-26a3.5 3.5 0 0 1 3-1.7c.7 0 1.4.3 1.9.8.5.6.8 1.2.9 2 0 .8-.2 1.6-.7 2.4l-17.2 26.6v14.9c0 1-.3 1.7-1 2.3-.6.7-1.4 1-2.3 1ZM293.1 84.3a17 17 0 0 1-17.7-17.7c0-3.6.8-6.6 2.3-9.3 1.5-2.7 3.6-4.8 6.3-6.3 2.6-1.5 5.7-2.3 9.1-2.3 3.4 0 6.5.8 9.1 2.3a16 16 0 0 1 6.2 6.3 18 18 0 0 1 2.3 9.2c0 3.5-.7 6.6-2.2 9.2a16.5 16.5 0 0 1-15.4 8.6Zm0-5.8a10.5 10.5 0 0 0 9.9-5.8c1-1.8 1.5-3.8 1.5-6.2 0-2.3-.5-4.4-1.5-6.2-1-1.8-2.3-3.2-4-4.3-1.7-1-3.6-1.5-5.9-1.5-2.2 0-4.1.5-5.9 1.5-1.7 1-3 2.5-4 4.3-1 1.8-1.5 3.9-1.5 6.2 0 2.4.5 4.4 1.5 6.2a11 11 0 0 0 10 5.8ZM335.2 84.3c-3 0-5.6-.6-8-1.8a14.1 14.1 0 0 1-5.5-5.6c-1.3-2.4-2-5.4-2-9V52.2c0-1 .3-1.7 1-2.3.6-.7 1.4-1 2.3-1 1 0 1.7.3 2.3 1a3 3 0 0 1 1 2.3v15.7c0 2.4.4 4.4 1.3 6a8.6 8.6 0 0 0 3.7 3.4 12 12 0 0 0 10 0 9 9 0 0 0 3.5-2.9 7.2 7.2 0 0 0 1.2-4.2h4a13.8 13.8 0 0 1-7.3 12.2 15.4 15.4 0 0 1-7.5 2Zm14.1-.3c-1 0-1.7-.3-2.4-.9-.6-.6-.9-1.4-.9-2.4V52.2c0-1 .3-1.8 1-2.4.6-.6 1.4-.9 2.3-.9 1 0 1.8.3 2.4 1 .6.5.9 1.3.9 2.3v28.5c0 1-.3 1.8-1 2.4-.5.6-1.3.9-2.3.9ZM382.8 84c-1 0-1.8-.3-2.4-1-.6-.6-1-1.4-1-2.3V37.3a3 3 0 0 1 1-2.3c.6-.7 1.4-1 2.4-1h28.9c1 0 1.8.3 2.4 1 .6.5.8 1.2.8 2.2 0 .8-.2 1.6-.8 2.1-.6.6-1.4.9-2.4.9H386v15.5h18.4c1 0 1.7.3 2.3 1 .6.5 1 1.2 1 2a3 3 0 0 1-1 2.3c-.6.6-1.4.9-2.3.9H386v18.8c0 1-.3 1.7-1 2.3-.6.7-1.4 1-2.3 1ZM438.7 84.3A17 17 0 0 1 421 66.6c0-3.6.8-6.6 2.3-9.3 1.5-2.7 3.6-4.8 6.2-6.3 2.7-1.5 5.7-2.3 9.2-2.3 3.4 0 6.4.8 9 2.3a16 16 0 0 1 6.3 6.3 18 18 0 0 1 2.3 9.2c0 3.5-.8 6.6-2.2 9.2a16.5 16.5 0 0 1-15.4 8.6Zm0-5.8a10.5 10.5 0 0 0 9.9-5.8c1-1.8 1.4-3.8 1.4-6.2 0-2.3-.5-4.4-1.4-6.2-1-1.8-2.3-3.2-4-4.3-1.7-1-3.7-1.5-6-1.5-2.1 0-4 .5-5.8 1.5-1.7 1-3 2.5-4 4.3-1 1.8-1.5 3.9-1.5 6.2 0 2.4.5 4.4 1.5 6.2a11 11 0 0 0 9.9 5.8ZM469.1 62.1c0-2.5.7-4.8 1.9-6.8a14 14 0 0 1 12.2-6.7c2.5 0 4.4.4 5.7 1.3 1.2.8 1.7 1.8 1.4 3-.1.5-.4 1-.7 1.3-.4.3-.8.5-1.3.6h-1.5a18 18 0 0 0-7.4-.2c-2.1.5-3.9 1.4-5.1 2.6a6.7 6.7 0 0 0-1.9 5h-3.3Zm.1 21.9c-1 0-1.8-.3-2.4-.8-.5-.5-.8-1.3-.8-2.4V52.2c0-1 .3-1.8.8-2.4.6-.5 1.4-.8 2.4-.8s1.9.3 2.4.8.8 1.3.8 2.4v28.6c0 1-.3 1.8-.8 2.4-.5.5-1.3.8-2.4.8ZM527.1 84c-.7 0-1.4-.2-2-.7-.6-.5-1-1.1-1.3-2L511 38.7c-.5-1.4-.4-2.5 0-3.3.5-.9 1.3-1.3 2.5-1.3.7 0 1.3.2 2 .7.5.3 1 1 1.2 1.8l11.2 39h-1.4L537 37c.1-.6.5-1.2 1.1-1.6.6-.4 1.3-.6 2-.6.8 0 1.4.1 2 .5.6.4 1 1 1.2 1.6l10.4 38.8h-1.2l11.2-39.4c.5-1.5 1.5-2.2 3.3-2.2 1.2 0 2 .5 2.3 1.4.3 1 .3 2 0 3.2l-12.9 42.7c-.3.8-.7 1.5-1.3 2a3 3 0 0 1-2 .7c-.8 0-1.5-.3-2.1-.8-.6-.5-1-1.1-1.2-1.8l-10.3-39.8h1.5l-10.4 39.7c-.3.8-.8 1.5-1.4 2a3 3 0 0 1-2 .7ZM583.5 84.3c-3.1 0-6-.8-8.4-2.3a17.2 17.2 0 0 1-8-15.5 17.4 17.4 0 0 1 17.7-17.8 17.1 17.1 0 0 1 15.2 8.7c1.6 2.7 2.4 5.8 2.4 9.1h-2.5c0 3.4-.8 6.4-2.2 9.1a15.6 15.6 0 0 1-14.2 8.6Zm1.3-5.8c2.1 0 4-.5 5.8-1.5 1.7-1.1 3-2.5 4-4.3 1-1.9 1.5-4 1.5-6.2 0-2.3-.5-4.3-1.5-6.1a10.9 10.9 0 0 0-9.8-5.9 11.3 11.3 0 0 0-10 5.9c-1 1.8-1.4 3.8-1.4 6.1s.5 4.3 1.4 6.2A12 12 0 0 0 579 77c1.8 1 3.7 1.5 5.9 1.5Zm14.3 5.6c-1 0-1.7-.3-2.4-1-.6-.6-.9-1.4-.9-2.3V71l1.2-6.8 5.4 2.3v14.3c0 1-.4 1.7-1 2.4-.6.6-1.4.9-2.3.9ZM624.8 84a10.6 10.6 0 0 1-9.8-6c-1-2-1.5-4-1.5-6.4V41c0-1 .3-1.8 1-2.3.5-.6 1.3-1 2.2-1 1 0 1.8.4 2.3 1 .6.5 1 1.3 1 2.3v30.5c0 1.7.4 3.1 1.4 4.3.9 1.1 2 1.7 3.4 1.7h2.2c.8 0 1.4.3 1.9.9.6.6.8 1.4.8 2.3 0 1-.3 1.7-1 2.3a4 4 0 0 1-2.7.9h-1.2Zm-14.2-28.2a3 3 0 0 1-2.2-.8c-.5-.5-.8-1.1-.8-2 0-.8.3-1.4.8-2a3 3 0 0 1 2.2-.7h14.8a3 3 0 0 1 2.2.7c.5.6.8 1.2.8 2 0 .9-.3 1.5-.8 2a3 3 0 0 1-2.2.8h-14.8ZM653.6 84.3c-3.4 0-6.4-.8-9.1-2.3a17.5 17.5 0 0 1-6.3-6.4 18.4 18.4 0 0 1-2.2-9c0-3.5.7-6.6 2.2-9.3a16 16 0 0 1 6.2-6.3c2.6-1.5 5.5-2.3 9-2.3a16 16 0 0 1 12.5 5.8c.6.7.8 1.4.6 2.1-.2.7-.6 1.4-1.4 2-.6.4-1.3.5-2 .4-.7-.2-1.4-.6-2-1.2-2-2.2-4.7-3.3-7.8-3.3a10.8 10.8 0 0 0-9.7 5.7c-.9 1.8-1.4 3.9-1.4 6.3a11.5 11.5 0 0 0 5.4 10.4 13.3 13.3 0 0 0 9.9 1c1.2-.3 2.2-.9 3.2-1.6.7-.6 1.4-.9 2-1 .8 0 1.4.2 2 .6a3 3 0 0 1 1.2 2c.1.8-.2 1.5-.7 2-3.1 3-7 4.4-11.6 4.4ZM679.5 71.3c-1 0-1.8-.3-2.4-1-.6-.6-.9-1.4-.9-2.3V37.3c0-1 .3-1.8.9-2.4.6-.6 1.4-.9 2.4-.9s1.7.3 2.3 1c.6.5 1 1.3 1 2.3V68c0 1-.4 1.7-1 2.4-.6.6-1.4.9-2.3.9ZM705.8 84c-1 0-1.8-.3-2.4-1-.6-.6-.9-1.4-.9-2.3V65.1c0-2.5-.4-4.5-1.3-6a8.2 8.2 0 0 0-3.7-3.4c-1.5-.8-3.2-1.1-5.2-1.1-1.8 0-3.4.3-4.8 1a9 9 0 0 0-3.5 3 7 7 0 0 0-1.3 4.2h-4a13.4 13.4 0 0 1 7.3-12.3c2.3-1.2 4.8-1.8 7.6-1.8 3 0 5.6.6 7.9 1.9 2.3 1.2 4.2 3 5.5 5.5a18 18 0 0 1 2 9v15.7c0 1-.3 1.7-1 2.4-.5.6-1.3.9-2.2.9Zm-26.3 0c-1 0-1.8-.3-2.4-1-.6-.6-.9-1.4-.9-2.3V52.3c0-1 .3-1.8.9-2.4.6-.6 1.4-1 2.4-1s1.7.4 2.3 1c.6.6 1 1.4 1 2.4v28.5c0 1-.4 1.7-1 2.4-.6.6-1.4.9-2.3.9ZM723.8 84c-1 0-1.7-.3-2.4-.9-.6-.6-.9-1.4-.9-2.4V52.3c0-1 .3-1.8 1-2.4.6-.6 1.4-1 2.3-1 1 0 1.8.4 2.4 1 .6.6.9 1.4.9 2.4v28.4c0 1-.3 1.8-1 2.4-.5.6-1.3.9-2.3.9Zm0-40.7c-1.2 0-2.2-.4-3-1.2a4.2 4.2 0 0 1-1.2-3 4 4 0 0 1 1.2-3 4.1 4.1 0 0 1 6 0 4.1 4.1 0 0 1 0 6 4 4 0 0 1-3 1.2ZM768.8 84c-1 0-1.8-.2-2.4-.8-.6-.7-.9-1.5-.9-2.4V65.1c0-2.5-.4-4.5-1.3-6a8.2 8.2 0 0 0-3.7-3.4c-1.5-.8-3.2-1.1-5.2-1.1-1.8 0-3.4.3-4.8 1a9 9 0 0 0-3.5 3 7 7 0 0 0-1.3 4.2h-4a13.4 13.4 0 0 1 7.3-12.3c2.3-1.2 4.8-1.8 7.6-1.8 3 0 5.6.6 7.9 1.9 2.3 1.2 4.2 3 5.5 5.5a18 18 0 0 1 2 9v15.7c0 1-.3 1.7-1 2.4-.5.6-1.3.9-2.2.9Zm-26.3 0c-1 0-1.8-.2-2.4-.8-.6-.7-.9-1.5-.9-2.4V52.3c0-1 .3-1.8.9-2.4.6-.6 1.4-1 2.4-1s1.7.4 2.3 1c.6.6 1 1.4 1 2.4v28.5c0 1-.4 1.7-1 2.4-.6.6-1.4.9-2.3.9ZM797.4 84.3c-3.2 0-6-.8-8.5-2.3a16.3 16.3 0 0 1-5.8-6.3 19.6 19.6 0 0 1-2-9.2c0-3.5.7-6.5 2.2-9.2 1.5-2.7 3.6-4.8 6.2-6.3 2.7-1.5 5.7-2.3 9.2-2.3 3.4 0 6.4.8 9 2.3a16 16 0 0 1 6.3 6.3 18 18 0 0 1 2.3 9.2h-3.8c0 3.5-.6 6.6-2 9.2a13.8 13.8 0 0 1-13.1 8.5Zm1.2 14.2c-3 0-5.9-.6-8.5-1.8a18 18 0 0 1-6.8-5.2c-.5-.7-.7-1.5-.6-2.3a3 3 0 0 1 1.3-1.8c.7-.5 1.5-.7 2.3-.5.9.2 1.6.6 2 1.3 1.2 1.4 2.7 2.5 4.4 3.4a14 14 0 0 0 6 1.2c2 0 4-.5 5.6-1.5 1.8-1 3.2-2.4 4.2-4.4 1-1.9 1.5-4.2 1.5-7v-9l2.1-5.7 4.2 1.3v13.9c0 3.3-.8 6.4-2.2 9.1a17 17 0 0 1-15.5 9Zm0-20a10.5 10.5 0 0 0 9.9-5.8c1-1.8 1.5-3.8 1.5-6.2 0-2.3-.5-4.4-1.5-6.2-.9-1.8-2.2-3.2-4-4.3-1.6-1-3.6-1.5-5.8-1.5-2.2 0-4.2.5-5.9 1.5-1.7 1-3 2.5-4 4.3-1 1.8-1.5 3.9-1.5 6.2 0 2.4.5 4.4 1.5 6.2a11 11 0 0 0 9.9 5.8ZM16.7 204c-1 0-1.7-.3-2.3-1-.7-.6-1-1.4-1-2.3v-43.4a3 3 0 0 1 1-2.3c.6-.7 1.4-1 2.3-1 1.3 0 2.3.6 3 1.8l20 40.1h-2l19.5-40a3.2 3.2 0 0 1 3-1.9c.9 0 1.6.3 2.3 1a3 3 0 0 1 1 2.3v43.4c0 1-.4 1.7-1 2.3-.7.7-1.5 1-2.4 1-1 0-1.7-.3-2.3-1-.7-.6-1-1.4-1-2.3v-34.1l1.3-.4-16.8 34.2a3.3 3.3 0 0 1-2.9 1.7c-1.4 0-2.4-.7-3-2l-16.6-33.2 1.3-.3v34c0 1-.4 1.8-1 2.4-.6.7-1.4 1-2.4 1ZM91.3 204c-1 0-1.7-.3-2.4-1-.6-.6-1-1.4-1-2.3v-15l-17-26.5c-.6-.9-.8-1.7-.6-2.5a3 3 0 0 1 1-2c.7-.4 1.4-.7 2.2-.7.7 0 1.3.2 1.8.5.4.3.8.8 1.2 1.4l16.2 25.8h-2.5l16.5-26a3.5 3.5 0 0 1 3-1.7c.7 0 1.3.3 1.8.8.6.6.8 1.2 1 2 0 .8-.2 1.6-.7 2.4l-17.2 26.6v14.9c0 1-.3 1.7-1 2.3-.6.7-1.4 1-2.3 1ZM141.2 204c-1 0-1.7-.3-2.3-1-.7-.6-1-1.4-1-2.3v-43.4a3 3 0 0 1 1-2.3c.6-.7 1.4-1 2.3-1H154c3.2 0 6 .7 8.5 2.1 2.5 1.4 4.4 3.4 5.8 6a17 17 0 0 1 2.1 8.5c0 3.1-.7 5.9-2.1 8.3a14.5 14.5 0 0 1-5.8 5.7c-2.4 1.4-5.3 2-8.5 2h-9.4v14c0 1-.4 1.8-1 2.4a3 3 0 0 1-2.4 1Zm3.4-23.5h9.4c2 0 3.7-.4 5.2-1.3 1.5-.8 2.7-2 3.5-3.5.9-1.5 1.3-3.2 1.3-5.1 0-2-.4-3.8-1.3-5.4a9.5 9.5 0 0 0-8.7-5h-9.4v20.3ZM191.8 204.3a17 17 0 0 1-17.7-17.7c0-3.6.7-6.6 2.2-9.3 1.6-2.7 3.7-4.8 6.3-6.3 2.7-1.5 5.7-2.3 9.2-2.3 3.4 0 6.4.8 9 2.3a16 16 0 0 1 6.3 6.3 18 18 0 0 1 2.3 9.2c0 3.5-.8 6.6-2.3 9.2a16.5 16.5 0 0 1-15.3 8.6Zm0-5.8a10.5 10.5 0 0 0 9.9-5.8c.9-1.8 1.4-3.8 1.4-6.2 0-2.3-.5-4.4-1.5-6.2-1-1.8-2.2-3.2-4-4.3-1.7-1-3.6-1.5-5.8-1.5-2.3 0-4.2.5-6 1.5-1.6 1-3 2.5-4 4.3-1 1.8-1.4 3.9-1.4 6.2 0 2.4.5 4.4 1.4 6.2a11 11 0 0 0 10 5.8ZM222.2 182.1c0-2.5.6-4.8 1.9-6.8a14 14 0 0 1 12.1-6.7c2.6 0 4.5.4 5.7 1.3 1.3.8 1.8 1.8 1.5 3-.1.5-.4 1-.8 1.3-.3.3-.7.5-1.2.6H240a18 18 0 0 0-7.4-.2c-2.2.5-3.9 1.4-5.2 2.6a6.7 6.7 0 0 0-1.8 5h-3.3Zm0 21.9c-1 0-1.7-.3-2.3-.8-.6-.5-.8-1.3-.8-2.4v-28.6c0-1 .3-1.8.8-2.4.6-.5 1.3-.8 2.4-.8 1 0 1.8.3 2.3.8.6.5.9 1.3.9 2.4v28.6c0 1-.3 1.8-.9 2.4-.5.5-1.3.8-2.3.8ZM263 204a10.6 10.6 0 0 1-9.9-6c-1-2-1.4-4-1.4-6.4V161c0-1 .3-1.8.9-2.3.6-.6 1.3-1 2.3-1 1 0 1.7.4 2.3 1 .6.5.9 1.3.9 2.3v30.5c0 1.7.4 3.1 1.4 4.3 1 1.1 2 1.7 3.4 1.7h2.2c.8 0 1.4.3 2 .9.5.6.8 1.4.8 2.3 0 1-.4 1.7-1.1 2.3a4 4 0 0 1-2.7.9h-1.2Zm-14.3-28.2a3 3 0 0 1-2.2-.8c-.5-.5-.8-1.1-.8-2 0-.8.3-1.4.8-2a3 3 0 0 1 2.2-.7h14.8a3 3 0 0 1 2.2.7c.5.6.8 1.2.8 2 0 .9-.3 1.5-.8 2a3 3 0 0 1-2.2.8h-14.8ZM279.7 204c-.8 0-1.6-.3-2.2-.9a3 3 0 0 1-1-2.4v-31.5c0-3 .6-5.8 1.8-8 1.3-2.3 3-4 5.1-5.3 2.2-1.2 4.7-1.9 7.6-1.9 1 0 1.7.3 2.3.8.6.6 1 1.3 1 2.2 0 .8-.4 1.5-1 2-.6.6-1.4.9-2.3.9-1.6 0-3 .4-4.2 1a7.7 7.7 0 0 0-2.8 3.1 10 10 0 0 0-1 4.5v32.2c0 1-.2 1.8-.8 2.4-.6.6-1.5.9-2.5.9Zm-6-28.2a3 3 0 0 1-2.1-.8c-.6-.5-.8-1.1-.8-2 0-.8.2-1.4.8-2a3 3 0 0 1 2.2-.7h15.8a3 3 0 0 1 2.2.7c.5.6.8 1.2.8 2 0 .9-.3 1.5-.8 2a3 3 0 0 1-2.2.8h-15.8ZM314 204.3a17 17 0 0 1-17.7-17.7c0-3.6.8-6.6 2.3-9.3 1.5-2.7 3.6-4.8 6.3-6.3 2.6-1.5 5.7-2.3 9.1-2.3 3.4 0 6.4.8 9.1 2.3a16 16 0 0 1 6.2 6.3 18 18 0 0 1 2.3 9.2c0 3.5-.7 6.6-2.2 9.2a16.5 16.5 0 0 1-15.4 8.6Zm0-5.8a10.5 10.5 0 0 0 9.9-5.8c1-1.8 1.4-3.8 1.4-6.2 0-2.3-.5-4.4-1.4-6.2-1-1.8-2.3-3.2-4-4.3-1.7-1-3.7-1.5-5.9-1.5s-4.2.5-5.9 1.5c-1.7 1-3 2.5-4 4.3-1 1.8-1.5 3.9-1.5 6.2 0 2.4.5 4.4 1.5 6.2a11 11 0 0 0 10 5.8ZM349.6 204c-1.8 0-3.5-.5-5-1.5-1.4-1-2.5-2.4-3.3-4.2-.9-1.8-1.3-3.8-1.3-6.1v-35c0-1 .3-1.7 1-2.3.5-.6 1.3-.9 2.2-.9 1 0 1.7.3 2.3 1 .6.5 1 1.3 1 2.2v35c0 1.5.2 2.8.8 3.9.6 1 1.4 1.5 2.3 1.5h1.6c.9 0 1.6.3 2 .9.6.6 1 1.4 1 2.3 0 1-.5 1.7-1.3 2.3-.8.6-1.8.9-3.1.9h-.2ZM364.4 204c-1 0-1.7-.3-2.4-.9-.6-.6-.9-1.4-.9-2.4v-28.4c0-1 .3-1.8 1-2.4.6-.6 1.4-1 2.3-1 1 0 1.8.4 2.4 1 .6.6.9 1.4.9 2.4v28.4c0 1-.3 1.8-1 2.4-.5.6-1.3.9-2.3.9Zm0-40.7c-1.1 0-2.1-.4-3-1.2a4.2 4.2 0 0 1-1.2-3 4 4 0 0 1 1.2-3 4.1 4.1 0 0 1 6 0 4.1 4.1 0 0 1 0 6 4 4 0 0 1-3 1.2ZM395.7 204.3a17 17 0 0 1-17.7-17.7c0-3.6.8-6.6 2.3-9.3 1.5-2.7 3.6-4.8 6.2-6.3 2.7-1.5 5.7-2.3 9.2-2.3 3.4 0 6.4.8 9 2.3a16 16 0 0 1 6.3 6.3 18 18 0 0 1 2.3 9.2c0 3.5-.8 6.6-2.2 9.2a16.5 16.5 0 0 1-15.4 8.6Zm0-5.8a10.5 10.5 0 0 0 9.9-5.8c1-1.8 1.4-3.8 1.4-6.2 0-2.3-.5-4.4-1.4-6.2-1-1.8-2.3-3.2-4-4.3-1.7-1-3.7-1.5-6-1.5-2.1 0-4 .5-5.8 1.5-1.7 1-3 2.5-4 4.3-1 1.8-1.5 3.9-1.5 6.2 0 2.4.5 4.4 1.5 6.2a11 11 0 0 0 9.9 5.8ZM441.9 177.9a4.4 4.4 0 0 1-3.1-7.6c.8-.9 1.9-1.3 3-1.3 1.3 0 2.4.4 3.2 1.3.9.9 1.3 2 1.3 3.2a4.4 4.4 0 0 1-4.4 4.4Zm.7 27.1a4.4 4.4 0 0 1-3.1-7.5c.9-1 1.9-1.4 3-1.4 1.3 0 2.4.5 3.2 1.4.9.8 1.3 1.9 1.3 3.1a4.4 4.4 0 0 1-4.4 4.4ZM453.4 219c-1 0-1.7-.3-2.3-1-.6-.6-1-1.4-1-2.4 0-.5.2-1 .4-1.6a71.2 71.2 0 0 0 6.8-27.5c0-9.1-2.2-18.3-6.7-27.4-.2-.4-.4-1-.4-1.6 0-1 .3-1.8.9-2.4.6-.7 1.4-1 2.3-1 1.4 0 2.5.7 3.1 2.2a71.2 71.2 0 0 1 7.2 30.2c0 5-.6 10.1-1.8 15.1-1.2 5-3 10.1-5.4 15.2-.4.8-.8 1.4-1.3 1.7-.5.3-1 .5-1.8.5Z" stroke="#000" stroke-width="8" mask="url(#a)"/><path d="M25.2 81c-1 0-1.7-.3-2.4-1-.6-.6-1-1.4-1-2.3V31h6.7v46.7c0 1-.3 1.7-1 2.3-.6.7-1.4 1-2.3 1ZM8 37.2c-.9 0-1.6-.3-2.2-.9-.6-.6-.8-1.3-.8-2.2a3 3 0 0 1 3-3h34.3c.9 0 1.6.2 2.1.8.6.6 1 1.3 1 2.2a3 3 0 0 1-3 3H7.9ZM55.3 68.3c-.9 0-1.7-.3-2.3-1-.6-.6-1-1.4-1-2.3V34.3c0-1 .4-1.8 1-2.4.6-.6 1.4-.9 2.3-.9 1 0 1.8.3 2.4 1 .6.5.9 1.3.9 2.3V65c0 1-.3 1.7-.9 2.4-.6.6-1.4.9-2.4.9ZM81.6 81c-.9 0-1.7-.3-2.3-1-.6-.6-1-1.4-1-2.3V62.1c0-2.5-.4-4.5-1.3-6a8.2 8.2 0 0 0-3.6-3.4c-1.5-.8-3.2-1.1-5.2-1.1-1.8 0-3.4.3-4.9 1a9 9 0 0 0-3.4 3 7 7 0 0 0-1.3 4.2h-4a13.4 13.4 0 0 1 7.3-12.3c2.2-1.2 4.8-1.8 7.6-1.8 3 0 5.5.6 7.9 1.9 2.3 1.2 4.1 3 5.5 5.5a18 18 0 0 1 2 9v15.7c0 1-.3 1.7-1 2.4-.6.6-1.3.9-2.3.9Zm-26.3 0c-.9 0-1.7-.3-2.3-1-.6-.6-1-1.4-1-2.3V49.3c0-1 .4-1.8 1-2.4.6-.6 1.4-1 2.3-1 1 0 1.8.4 2.4 1 .6.6.9 1.4.9 2.4v28.5c0 1-.3 1.7-.9 2.4-.6.6-1.4.9-2.4.9ZM110.4 81.3c-3.2 0-6-.8-8.4-2.3a17.2 17.2 0 0 1-8-15.5 17.4 17.4 0 0 1 17.7-17.8 17.1 17.1 0 0 1 15.2 8.7c1.5 2.7 2.3 5.8 2.3 9.1h-2.5c0 3.4-.7 6.4-2.1 9.1a15.6 15.6 0 0 1-14.2 8.6Zm1.2-5.8c2.2 0 4.1-.5 5.9-1.5 1.7-1.1 3-2.5 4-4.3 1-1.9 1.5-4 1.5-6.2 0-2.3-.5-4.3-1.5-6.1a10.9 10.9 0 0 0-9.9-5.9 11.3 11.3 0 0 0-10 5.9c-.9 1.8-1.4 3.8-1.4 6.1s.5 4.3 1.5 6.2a12 12 0 0 0 4.1 4.3c1.8 1 3.7 1.5 5.8 1.5Zm14.4 5.6c-1 0-1.8-.3-2.4-1-.6-.6-.9-1.4-.9-2.3V68l1.2-6.8 5.3 2.3v14.3c0 1-.3 1.7-1 2.4-.5.6-1.3.9-2.2.9ZM168.5 81c-1 0-1.7-.2-2.4-.8-.5-.7-.8-1.5-.8-2.4V62.1c0-2.5-.5-4.5-1.4-6a8.2 8.2 0 0 0-3.6-3.4c-1.5-.8-3.3-1.1-5.2-1.1-1.8 0-3.4.3-4.9 1a9 9 0 0 0-3.4 3 7 7 0 0 0-1.3 4.2h-4a13.4 13.4 0 0 1 7.2-12.3c2.3-1.2 4.8-1.8 7.7-1.8 2.9 0 5.5.6 7.8 1.9 2.4 1.2 4.2 3 5.5 5.5a18 18 0 0 1 2 9v15.7c0 1-.2 1.7-.9 2.4-.6.6-1.3.9-2.3.9Zm-26.3 0c-1 0-1.7-.2-2.4-.8-.6-.7-.9-1.5-.9-2.4V49.3c0-1 .3-1.8 1-2.4.6-.6 1.4-1 2.3-1 1 0 1.8.4 2.4 1 .6.6.9 1.4.9 2.4v28.5c0 1-.3 1.7-1 2.4-.5.6-1.3.9-2.3.9ZM188.7 68.2l-4-4.4 19.7-17.5a2.8 2.8 0 0 1 4.2.2c.6.6.8 1.3.8 2.1a3 3 0 0 1-1 2l-19.7 17.6Zm-3 12.8c-1 0-1.7-.3-2.3-.8-.6-.6-.8-1.4-.8-2.3V34.2c0-1 .3-1.7.8-2.3.6-.6 1.4-.9 2.3-.9 1 0 1.7.3 2.2 1 .6.5 1 1.2 1 2.2v43.7c0 .9-.4 1.7-1 2.3a3 3 0 0 1-2.2.8Zm22.9-.3a3 3 0 0 1-2.3.7c-.9 0-1.5-.4-2.1-1.1l-13-16 4.5-4.3L209 76.4c.6.7.8 1.4.7 2.2 0 .8-.4 1.5-1.1 2ZM253.4 81c-1 0-1.7-.3-2.3-1-.7-.6-1-1.4-1-2.3v-15l-17-26.5c-.6-.9-.8-1.7-.7-2.5a3 3 0 0 1 1-2c.7-.4 1.4-.7 2.2-.7.8 0 1.3.2 1.8.5.4.3.8.8 1.2 1.4l16.2 25.8h-2.5l16.5-26a3.5 3.5 0 0 1 3-1.7c.7 0 1.4.3 1.9.8.5.6.8 1.2.9 2 0 .8-.2 1.6-.7 2.4l-17.2 26.6v14.9c0 1-.3 1.7-1 2.3-.6.7-1.4 1-2.3 1ZM290.1 81.3a17 17 0 0 1-17.7-17.7c0-3.6.8-6.6 2.3-9.3 1.5-2.7 3.6-4.8 6.3-6.3 2.6-1.5 5.7-2.3 9.1-2.3 3.4 0 6.5.8 9.1 2.3a16 16 0 0 1 6.2 6.3 18 18 0 0 1 2.3 9.2c0 3.5-.7 6.6-2.2 9.2a16.5 16.5 0 0 1-15.4 8.6Zm0-5.8a10.5 10.5 0 0 0 9.9-5.8c1-1.8 1.5-3.8 1.5-6.2 0-2.3-.5-4.4-1.5-6.2-1-1.8-2.3-3.2-4-4.3-1.7-1-3.6-1.5-5.9-1.5-2.2 0-4.1.5-5.9 1.5-1.7 1-3 2.5-4 4.3-1 1.8-1.5 3.9-1.5 6.2 0 2.4.5 4.4 1.5 6.2a11 11 0 0 0 10 5.8ZM332.2 81.3c-3 0-5.6-.6-8-1.8a14.1 14.1 0 0 1-5.5-5.6c-1.3-2.4-2-5.4-2-9V49.2c0-1 .3-1.7 1-2.3.6-.7 1.4-1 2.3-1 1 0 1.7.3 2.3 1a3 3 0 0 1 1 2.3v15.7c0 2.4.4 4.4 1.3 6a8.6 8.6 0 0 0 3.7 3.4 12 12 0 0 0 10 0 9 9 0 0 0 3.5-2.9 7.2 7.2 0 0 0 1.2-4.2h4a13.8 13.8 0 0 1-7.3 12.2 15.4 15.4 0 0 1-7.5 2Zm14.1-.3c-1 0-1.7-.3-2.4-.9-.6-.6-.9-1.4-.9-2.4V49.2c0-1 .3-1.8 1-2.4.6-.6 1.4-.9 2.3-.9 1 0 1.8.3 2.4 1 .6.5.9 1.3.9 2.3v28.5c0 1-.3 1.8-1 2.4-.5.6-1.3.9-2.3.9ZM379.8 81c-1 0-1.8-.3-2.4-1-.6-.6-1-1.4-1-2.3V34.3a3 3 0 0 1 1-2.3c.6-.7 1.4-1 2.4-1h28.9c1 0 1.8.3 2.4 1 .6.5.8 1.2.8 2.2 0 .8-.2 1.6-.8 2.1-.6.6-1.4.9-2.4.9H383v15.5h18.4c1 0 1.7.3 2.3 1 .6.5 1 1.2 1 2a3 3 0 0 1-1 2.3c-.6.6-1.4.9-2.3.9H383v18.8c0 1-.3 1.7-1 2.3-.6.7-1.4 1-2.3 1ZM435.7 81.3A17 17 0 0 1 418 63.6c0-3.6.8-6.6 2.3-9.3 1.5-2.7 3.6-4.8 6.2-6.3 2.7-1.5 5.7-2.3 9.2-2.3 3.4 0 6.4.8 9 2.3a16 16 0 0 1 6.3 6.3 18 18 0 0 1 2.3 9.2c0 3.5-.8 6.6-2.2 9.2a16.5 16.5 0 0 1-15.4 8.6Zm0-5.8a10.5 10.5 0 0 0 9.9-5.8c1-1.8 1.4-3.8 1.4-6.2 0-2.3-.5-4.4-1.4-6.2-1-1.8-2.3-3.2-4-4.3-1.7-1-3.7-1.5-6-1.5-2.1 0-4 .5-5.8 1.5-1.7 1-3 2.5-4 4.3-1 1.8-1.5 3.9-1.5 6.2 0 2.4.5 4.4 1.5 6.2a11 11 0 0 0 9.9 5.8ZM466.1 59.1c0-2.5.7-4.8 1.9-6.8a14 14 0 0 1 12.2-6.7c2.5 0 4.4.4 5.7 1.3 1.2.8 1.7 1.8 1.4 3-.1.5-.4 1-.7 1.3-.4.3-.8.5-1.3.6h-1.5a18 18 0 0 0-7.4-.2c-2.1.5-3.9 1.4-5.1 2.6a6.7 6.7 0 0 0-1.9 5h-3.3Zm.1 21.9c-1 0-1.8-.3-2.4-.8-.5-.5-.8-1.3-.8-2.4V49.2c0-1 .3-1.8.8-2.4.6-.5 1.4-.8 2.4-.8s1.9.3 2.4.8.8 1.3.8 2.4v28.6c0 1-.3 1.8-.8 2.4-.5.5-1.3.8-2.4.8ZM524.1 81c-.7 0-1.4-.2-2-.7-.6-.5-1-1.1-1.3-2L508 35.7c-.5-1.4-.4-2.5 0-3.3.5-.9 1.3-1.3 2.5-1.3.7 0 1.3.2 2 .7.5.3 1 1 1.2 1.8l11.2 39h-1.4L534 34c.1-.6.5-1.2 1.1-1.6.6-.4 1.3-.6 2-.6.8 0 1.4.1 2 .5.6.4 1 1 1.2 1.6l10.4 38.8h-1.2l11.2-39.4c.5-1.5 1.5-2.2 3.3-2.2 1.2 0 2 .5 2.3 1.4.3 1 .3 2 0 3.2l-12.9 42.7c-.3.8-.7 1.5-1.3 2a3 3 0 0 1-2 .7c-.8 0-1.5-.3-2.1-.8-.6-.5-1-1.1-1.2-1.8l-10.3-39.8h1.5l-10.4 39.7c-.3.8-.8 1.5-1.4 2a3 3 0 0 1-2 .7ZM580.5 81.3c-3.1 0-6-.8-8.4-2.3a17.2 17.2 0 0 1-8-15.5 17.4 17.4 0 0 1 17.7-17.8 17.1 17.1 0 0 1 15.2 8.7c1.6 2.7 2.4 5.8 2.4 9.1h-2.5c0 3.4-.8 6.4-2.2 9.1a15.6 15.6 0 0 1-14.2 8.6Zm1.3-5.8c2.1 0 4-.5 5.8-1.5 1.7-1.1 3-2.5 4-4.3 1-1.9 1.5-4 1.5-6.2 0-2.3-.5-4.3-1.5-6.1a10.9 10.9 0 0 0-9.8-5.9 11.3 11.3 0 0 0-10 5.9c-1 1.8-1.4 3.8-1.4 6.1s.5 4.3 1.4 6.2A12 12 0 0 0 576 74c1.8 1 3.7 1.5 5.9 1.5Zm14.3 5.6c-1 0-1.7-.3-2.4-1-.6-.6-.9-1.4-.9-2.3V68l1.2-6.8 5.4 2.3v14.3c0 1-.4 1.7-1 2.4-.6.6-1.4.9-2.3.9ZM621.8 81a10.6 10.6 0 0 1-9.8-6c-1-2-1.5-4-1.5-6.4V38c0-1 .3-1.8 1-2.3.5-.6 1.3-1 2.2-1 1 0 1.8.4 2.3 1 .6.5 1 1.3 1 2.3v30.5c0 1.7.4 3.1 1.4 4.3.9 1.1 2 1.7 3.4 1.7h2.2c.8 0 1.4.3 1.9.9.6.6.8 1.4.8 2.3 0 1-.3 1.7-1 2.3a4 4 0 0 1-2.7.9h-1.2Zm-14.2-28.2a3 3 0 0 1-2.2-.8c-.5-.5-.8-1.1-.8-2 0-.8.3-1.4.8-2a3 3 0 0 1 2.2-.7h14.8a3 3 0 0 1 2.2.7c.5.6.8 1.2.8 2 0 .9-.3 1.5-.8 2a3 3 0 0 1-2.2.8h-14.8ZM650.6 81.3c-3.4 0-6.4-.8-9.1-2.3a17.5 17.5 0 0 1-6.3-6.4 18.4 18.4 0 0 1-2.2-9c0-3.5.7-6.6 2.2-9.3a16 16 0 0 1 6.2-6.3c2.6-1.5 5.5-2.3 9-2.3a16 16 0 0 1 12.5 5.8c.6.7.8 1.4.6 2.1-.2.7-.6 1.4-1.4 2-.6.4-1.3.5-2 .4-.7-.2-1.4-.6-2-1.2-2-2.2-4.7-3.3-7.8-3.3a10.8 10.8 0 0 0-9.7 5.7c-.9 1.8-1.4 3.9-1.4 6.3a11.5 11.5 0 0 0 5.4 10.4 13.3 13.3 0 0 0 9.9 1c1.2-.3 2.2-.9 3.2-1.6.7-.6 1.4-.9 2-1 .8 0 1.4.2 2 .6a3 3 0 0 1 1.2 2c.1.8-.2 1.5-.7 2-3.1 3-7 4.4-11.6 4.4ZM676.5 68.3c-1 0-1.8-.3-2.4-1-.6-.6-.9-1.4-.9-2.3V34.3c0-1 .3-1.8.9-2.4.6-.6 1.4-.9 2.4-.9s1.7.3 2.3 1c.6.5 1 1.3 1 2.3V65c0 1-.4 1.7-1 2.4-.6.6-1.4.9-2.3.9ZM702.8 81c-1 0-1.8-.3-2.4-1-.6-.6-.9-1.4-.9-2.3V62.1c0-2.5-.4-4.5-1.3-6a8.2 8.2 0 0 0-3.7-3.4c-1.5-.8-3.2-1.1-5.2-1.1-1.8 0-3.4.3-4.8 1a9 9 0 0 0-3.5 3 7 7 0 0 0-1.3 4.2h-4a13.4 13.4 0 0 1 7.3-12.3c2.3-1.2 4.8-1.8 7.6-1.8 3 0 5.6.6 7.9 1.9 2.3 1.2 4.2 3 5.5 5.5a18 18 0 0 1 2 9v15.7c0 1-.3 1.7-1 2.4-.5.6-1.3.9-2.2.9Zm-26.3 0c-1 0-1.8-.3-2.4-1-.6-.6-.9-1.4-.9-2.3V49.3c0-1 .3-1.8.9-2.4.6-.6 1.4-1 2.4-1s1.7.4 2.3 1c.6.6 1 1.4 1 2.4v28.5c0 1-.4 1.7-1 2.4-.6.6-1.4.9-2.3.9ZM720.8 81c-1 0-1.7-.3-2.4-.9-.6-.6-.9-1.4-.9-2.4V49.3c0-1 .3-1.8 1-2.4.6-.6 1.4-1 2.3-1 1 0 1.8.4 2.4 1 .6.6.9 1.4.9 2.4v28.4c0 1-.3 1.8-1 2.4-.5.6-1.3.9-2.3.9Zm0-40.7c-1.2 0-2.2-.4-3-1.2a4.2 4.2 0 0 1-1.2-3 4 4 0 0 1 1.2-3 4.1 4.1 0 0 1 6 0 4.1 4.1 0 0 1 0 6 4 4 0 0 1-3 1.2ZM765.8 81c-1 0-1.8-.2-2.4-.8-.6-.7-.9-1.5-.9-2.4V62.1c0-2.5-.4-4.5-1.3-6a8.2 8.2 0 0 0-3.7-3.4c-1.5-.8-3.2-1.1-5.2-1.1-1.8 0-3.4.3-4.8 1a9 9 0 0 0-3.5 3 7 7 0 0 0-1.3 4.2h-4a13.4 13.4 0 0 1 7.3-12.3c2.3-1.2 4.8-1.8 7.6-1.8 3 0 5.6.6 7.9 1.9 2.3 1.2 4.2 3 5.5 5.5a18 18 0 0 1 2 9v15.7c0 1-.3 1.7-1 2.4-.5.6-1.3.9-2.2.9Zm-26.3 0c-1 0-1.8-.2-2.4-.8-.6-.7-.9-1.5-.9-2.4V49.3c0-1 .3-1.8.9-2.4.6-.6 1.4-1 2.4-1s1.7.4 2.3 1c.6.6 1 1.4 1 2.4v28.5c0 1-.4 1.7-1 2.4-.6.6-1.4.9-2.3.9ZM794.4 81.3c-3.2 0-6-.8-8.5-2.3a16.3 16.3 0 0 1-5.8-6.3 19.6 19.6 0 0 1-2-9.2c0-3.5.7-6.5 2.2-9.2 1.5-2.7 3.6-4.8 6.2-6.3 2.7-1.5 5.7-2.3 9.2-2.3 3.4 0 6.4.8 9 2.3a16 16 0 0 1 6.3 6.3 18 18 0 0 1 2.3 9.2h-3.8c0 3.5-.6 6.6-2 9.2a13.8 13.8 0 0 1-13.1 8.5Zm1.2 14.2c-3 0-5.9-.6-8.5-1.8a18 18 0 0 1-6.8-5.2c-.5-.7-.7-1.5-.6-2.3a3 3 0 0 1 1.3-1.8c.7-.5 1.5-.7 2.3-.5.9.2 1.6.6 2 1.3 1.2 1.4 2.7 2.5 4.4 3.4a14 14 0 0 0 6 1.2c2 0 4-.5 5.6-1.5 1.8-1 3.2-2.4 4.2-4.4 1-1.9 1.5-4.2 1.5-7v-9l2.1-5.7 4.2 1.3v13.9c0 3.3-.8 6.4-2.2 9.1a17 17 0 0 1-15.5 9Zm0-20a10.5 10.5 0 0 0 9.9-5.8c1-1.8 1.5-3.8 1.5-6.2 0-2.3-.5-4.4-1.5-6.2-.9-1.8-2.2-3.2-4-4.3-1.6-1-3.6-1.5-5.8-1.5-2.2 0-4.2.5-5.9 1.5-1.7 1-3 2.5-4 4.3-1 1.8-1.5 3.9-1.5 6.2 0 2.4.5 4.4 1.5 6.2a11 11 0 0 0 9.9 5.8ZM13.7 201c-1 0-1.7-.3-2.3-1-.7-.6-1-1.4-1-2.3v-43.4a3 3 0 0 1 1-2.3c.6-.7 1.4-1 2.3-1 1.3 0 2.3.6 3 1.8l20 40.1h-2l19.5-40a3.2 3.2 0 0 1 3-1.9c.9 0 1.6.3 2.3 1a3 3 0 0 1 1 2.3v43.4c0 1-.4 1.7-1 2.3-.7.7-1.5 1-2.4 1-1 0-1.7-.3-2.3-1-.7-.6-1-1.4-1-2.3v-34.1l1.3-.4-16.8 34.2a3.3 3.3 0 0 1-2.9 1.7c-1.4 0-2.4-.7-3-2l-16.6-33.2 1.3-.3v34c0 1-.4 1.8-1 2.4-.6.7-1.4 1-2.4 1ZM88.3 201c-1 0-1.7-.3-2.4-1-.6-.6-1-1.4-1-2.3v-15l-17-26.5c-.6-.9-.8-1.7-.6-2.5a3 3 0 0 1 1-2c.7-.4 1.4-.7 2.2-.7.7 0 1.3.2 1.8.5.4.3.8.8 1.2 1.4l16.2 25.8h-2.5l16.5-26a3.5 3.5 0 0 1 3-1.7c.7 0 1.3.3 1.8.8.6.6.8 1.2 1 2 0 .8-.2 1.6-.7 2.4l-17.2 26.6v14.9c0 1-.3 1.7-1 2.3-.6.7-1.4 1-2.3 1ZM138.2 201c-1 0-1.7-.3-2.3-1-.7-.6-1-1.4-1-2.3v-43.4a3 3 0 0 1 1-2.3c.6-.7 1.4-1 2.3-1H151c3.2 0 6 .7 8.5 2.1 2.5 1.4 4.4 3.4 5.8 6a17 17 0 0 1 2.1 8.5c0 3.1-.7 5.9-2.1 8.3a14.5 14.5 0 0 1-5.8 5.7c-2.4 1.4-5.3 2-8.5 2h-9.4v14c0 1-.4 1.8-1 2.4a3 3 0 0 1-2.4 1Zm3.4-23.5h9.4c2 0 3.7-.4 5.2-1.3 1.5-.8 2.7-2 3.5-3.5.9-1.5 1.3-3.2 1.3-5.1 0-2-.4-3.8-1.3-5.4a9.5 9.5 0 0 0-8.7-5h-9.4v20.3ZM188.8 201.3a17 17 0 0 1-17.7-17.7c0-3.6.7-6.6 2.2-9.3 1.6-2.7 3.7-4.8 6.3-6.3 2.7-1.5 5.7-2.3 9.2-2.3 3.4 0 6.4.8 9 2.3a16 16 0 0 1 6.3 6.3 18 18 0 0 1 2.3 9.2c0 3.5-.8 6.6-2.3 9.2a16.5 16.5 0 0 1-15.3 8.6Zm0-5.8a10.5 10.5 0 0 0 9.9-5.8c.9-1.8 1.4-3.8 1.4-6.2 0-2.3-.5-4.4-1.5-6.2-1-1.8-2.2-3.2-4-4.3-1.7-1-3.6-1.5-5.8-1.5-2.3 0-4.2.5-6 1.5-1.6 1-3 2.5-4 4.3-1 1.8-1.4 3.9-1.4 6.2 0 2.4.5 4.4 1.4 6.2a11 11 0 0 0 10 5.8ZM219.2 179.1c0-2.5.6-4.8 1.9-6.8a14 14 0 0 1 12.1-6.7c2.6 0 4.5.4 5.7 1.3 1.3.8 1.8 1.8 1.5 3-.1.5-.4 1-.8 1.3-.3.3-.7.5-1.2.6H237a18 18 0 0 0-7.4-.2c-2.2.5-3.9 1.4-5.2 2.6a6.7 6.7 0 0 0-1.8 5h-3.3Zm0 21.9c-1 0-1.7-.3-2.3-.8-.6-.5-.8-1.3-.8-2.4v-28.6c0-1 .3-1.8.8-2.4.6-.5 1.3-.8 2.4-.8 1 0 1.8.3 2.3.8.6.5.9 1.3.9 2.4v28.6c0 1-.3 1.8-.9 2.4-.5.5-1.3.8-2.3.8ZM260 201a10.6 10.6 0 0 1-9.9-6c-1-2-1.4-4-1.4-6.4V158c0-1 .3-1.8.9-2.3.6-.6 1.3-1 2.3-1 1 0 1.7.4 2.3 1 .6.5.9 1.3.9 2.3v30.5c0 1.7.4 3.1 1.4 4.3 1 1.1 2 1.7 3.4 1.7h2.2c.8 0 1.4.3 2 .9.5.6.8 1.4.8 2.3 0 1-.4 1.7-1.1 2.3a4 4 0 0 1-2.7.9h-1.2Zm-14.3-28.2a3 3 0 0 1-2.2-.8c-.5-.5-.8-1.1-.8-2 0-.8.3-1.4.8-2a3 3 0 0 1 2.2-.7h14.8a3 3 0 0 1 2.2.7c.5.6.8 1.2.8 2 0 .9-.3 1.5-.8 2a3 3 0 0 1-2.2.8h-14.8ZM276.7 201c-.8 0-1.6-.3-2.2-.9a3 3 0 0 1-1-2.4v-31.5c0-3 .6-5.8 1.8-8 1.3-2.3 3-4 5.1-5.3 2.2-1.2 4.7-1.9 7.6-1.9 1 0 1.7.3 2.3.8.6.6 1 1.3 1 2.2 0 .8-.4 1.5-1 2-.6.6-1.4.9-2.3.9-1.6 0-3 .4-4.2 1a7.7 7.7 0 0 0-2.8 3.1 10 10 0 0 0-1 4.5v32.2c0 1-.2 1.8-.8 2.4-.6.6-1.5.9-2.5.9Zm-6-28.2a3 3 0 0 1-2.1-.8c-.6-.5-.8-1.1-.8-2 0-.8.2-1.4.8-2a3 3 0 0 1 2.2-.7h15.8a3 3 0 0 1 2.2.7c.5.6.8 1.2.8 2 0 .9-.3 1.5-.8 2a3 3 0 0 1-2.2.8h-15.8ZM311 201.3a17 17 0 0 1-17.7-17.7c0-3.6.8-6.6 2.3-9.3 1.5-2.7 3.6-4.8 6.3-6.3 2.6-1.5 5.7-2.3 9.1-2.3 3.4 0 6.4.8 9.1 2.3a16 16 0 0 1 6.2 6.3 18 18 0 0 1 2.3 9.2c0 3.5-.7 6.6-2.2 9.2a16.5 16.5 0 0 1-15.4 8.6Zm0-5.8a10.5 10.5 0 0 0 9.9-5.8c1-1.8 1.4-3.8 1.4-6.2 0-2.3-.5-4.4-1.4-6.2-1-1.8-2.3-3.2-4-4.3-1.7-1-3.7-1.5-5.9-1.5s-4.2.5-5.9 1.5c-1.7 1-3 2.5-4 4.3-1 1.8-1.5 3.9-1.5 6.2 0 2.4.5 4.4 1.5 6.2a11 11 0 0 0 10 5.8ZM346.6 201c-1.8 0-3.5-.5-5-1.5-1.4-1-2.5-2.4-3.3-4.2-.9-1.8-1.3-3.8-1.3-6.1v-35c0-1 .3-1.7 1-2.3.5-.6 1.3-.9 2.2-.9 1 0 1.7.3 2.3 1 .6.5 1 1.3 1 2.2v35c0 1.5.2 2.8.8 3.9.6 1 1.4 1.5 2.3 1.5h1.6c.9 0 1.6.3 2 .9.6.6 1 1.4 1 2.3 0 1-.5 1.7-1.3 2.3-.8.6-1.8.9-3.1.9h-.2ZM361.4 201c-1 0-1.7-.3-2.4-.9-.6-.6-.9-1.4-.9-2.4v-28.4c0-1 .3-1.8 1-2.4.6-.6 1.4-1 2.3-1 1 0 1.8.4 2.4 1 .6.6.9 1.4.9 2.4v28.4c0 1-.3 1.8-1 2.4-.5.6-1.3.9-2.3.9Zm0-40.7c-1.1 0-2.1-.4-3-1.2a4.2 4.2 0 0 1-1.2-3 4 4 0 0 1 1.2-3 4.1 4.1 0 0 1 6 0 4.1 4.1 0 0 1 0 6 4 4 0 0 1-3 1.2ZM392.7 201.3a17 17 0 0 1-17.7-17.7c0-3.6.8-6.6 2.3-9.3 1.5-2.7 3.6-4.8 6.2-6.3 2.7-1.5 5.7-2.3 9.2-2.3 3.4 0 6.4.8 9 2.3a16 16 0 0 1 6.3 6.3 18 18 0 0 1 2.3 9.2c0 3.5-.8 6.6-2.2 9.2a16.5 16.5 0 0 1-15.4 8.6Zm0-5.8a10.5 10.5 0 0 0 9.9-5.8c1-1.8 1.4-3.8 1.4-6.2 0-2.3-.5-4.4-1.4-6.2-1-1.8-2.3-3.2-4-4.3-1.7-1-3.7-1.5-6-1.5-2.1 0-4 .5-5.8 1.5-1.7 1-3 2.5-4 4.3-1 1.8-1.5 3.9-1.5 6.2 0 2.4.5 4.4 1.5 6.2a11 11 0 0 0 9.9 5.8ZM438.9 174.9a4.4 4.4 0 0 1-3.1-7.6c.8-.9 1.9-1.3 3-1.3 1.3 0 2.4.4 3.2 1.3.9.9 1.3 2 1.3 3.2a4.4 4.4 0 0 1-4.4 4.4Zm.7 27.1a4.4 4.4 0 0 1-3.1-7.5c.9-1 1.9-1.4 3-1.4 1.3 0 2.4.5 3.2 1.4.9.8 1.3 1.9 1.3 3.1a4.4 4.4 0 0 1-4.4 4.4ZM450.4 216c-1 0-1.7-.3-2.3-1-.6-.6-1-1.4-1-2.4 0-.5.2-1 .4-1.6a71.2 71.2 0 0 0 6.8-27.5c0-9.1-2.2-18.3-6.7-27.4-.2-.4-.4-1-.4-1.6 0-1 .3-1.8.9-2.4.6-.7 1.4-1 2.3-1 1.4 0 2.5.7 3.1 2.2a71.2 71.2 0 0 1 7.2 30.2c0 5-.6 10.1-1.8 15.1-1.2 5-3 10.1-5.4 15.2-.4.8-.8 1.4-1.3 1.7-.5.3-1 .5-1.8.5Z" fill="#F9FAFB"/><mask id="b" maskUnits="userSpaceOnUse" x="1" y="27" width="817" height="193" fill="#000"><path fill="#fff" d="M1 27h817v193H1z"/><path d="M25.2 81c-1 0-1.7-.3-2.4-1-.6-.6-1-1.4-1-2.3V31h6.7v46.7c0 1-.3 1.7-1 2.3-.6.7-1.4 1-2.3 1ZM8 37.2c-.9 0-1.6-.3-2.2-.9-.6-.6-.8-1.3-.8-2.2a3 3 0 0 1 3-3h34.3c.9 0 1.6.2 2.1.8.6.6 1 1.3 1 2.2a3 3 0 0 1-3 3H7.9ZM55.3 68.3c-.9 0-1.7-.3-2.3-1-.6-.6-1-1.4-1-2.3V34.3c0-1 .4-1.8 1-2.4.6-.6 1.4-.9 2.3-.9 1 0 1.8.3 2.4 1 .6.5.9 1.3.9 2.3V65c0 1-.3 1.7-.9 2.4-.6.6-1.4.9-2.4.9ZM81.6 81c-.9 0-1.7-.3-2.3-1-.6-.6-1-1.4-1-2.3V62.1c0-2.5-.4-4.5-1.3-6a8.2 8.2 0 0 0-3.6-3.4c-1.5-.8-3.2-1.1-5.2-1.1-1.8 0-3.4.3-4.9 1a9 9 0 0 0-3.4 3 7 7 0 0 0-1.3 4.2h-4a13.4 13.4 0 0 1 7.3-12.3c2.2-1.2 4.8-1.8 7.6-1.8 3 0 5.5.6 7.9 1.9 2.3 1.2 4.1 3 5.5 5.5a18 18 0 0 1 2 9v15.7c0 1-.3 1.7-1 2.4-.6.6-1.3.9-2.3.9Zm-26.3 0c-.9 0-1.7-.3-2.3-1-.6-.6-1-1.4-1-2.3V49.3c0-1 .4-1.8 1-2.4.6-.6 1.4-1 2.3-1 1 0 1.8.4 2.4 1 .6.6.9 1.4.9 2.4v28.5c0 1-.3 1.7-.9 2.4-.6.6-1.4.9-2.4.9ZM110.4 81.3c-3.2 0-6-.8-8.4-2.3a17.2 17.2 0 0 1-8-15.5 17.4 17.4 0 0 1 17.7-17.8 17.1 17.1 0 0 1 15.2 8.7c1.5 2.7 2.3 5.8 2.3 9.1h-2.5c0 3.4-.7 6.4-2.1 9.1a15.6 15.6 0 0 1-14.2 8.6Zm1.2-5.8c2.2 0 4.1-.5 5.9-1.5 1.7-1.1 3-2.5 4-4.3 1-1.9 1.5-4 1.5-6.2 0-2.3-.5-4.3-1.5-6.1a10.9 10.9 0 0 0-9.9-5.9 11.3 11.3 0 0 0-10 5.9c-.9 1.8-1.4 3.8-1.4 6.1s.5 4.3 1.5 6.2a12 12 0 0 0 4.1 4.3c1.8 1 3.7 1.5 5.8 1.5Zm14.4 5.6c-1 0-1.8-.3-2.4-1-.6-.6-.9-1.4-.9-2.3V68l1.2-6.8 5.3 2.3v14.3c0 1-.3 1.7-1 2.4-.5.6-1.3.9-2.2.9ZM168.5 81c-1 0-1.7-.2-2.4-.8-.5-.7-.8-1.5-.8-2.4V62.1c0-2.5-.5-4.5-1.4-6a8.2 8.2 0 0 0-3.6-3.4c-1.5-.8-3.3-1.1-5.2-1.1-1.8 0-3.4.3-4.9 1a9 9 0 0 0-3.4 3 7 7 0 0 0-1.3 4.2h-4a13.4 13.4 0 0 1 7.2-12.3c2.3-1.2 4.8-1.8 7.7-1.8 2.9 0 5.5.6 7.8 1.9 2.4 1.2 4.2 3 5.5 5.5a18 18 0 0 1 2 9v15.7c0 1-.2 1.7-.9 2.4-.6.6-1.3.9-2.3.9Zm-26.3 0c-1 0-1.7-.2-2.4-.8-.6-.7-.9-1.5-.9-2.4V49.3c0-1 .3-1.8 1-2.4.6-.6 1.4-1 2.3-1 1 0 1.8.4 2.4 1 .6.6.9 1.4.9 2.4v28.5c0 1-.3 1.7-1 2.4-.5.6-1.3.9-2.3.9ZM188.7 68.2l-4-4.4 19.7-17.5a2.8 2.8 0 0 1 4.2.2c.6.6.8 1.3.8 2.1a3 3 0 0 1-1 2l-19.7 17.6Zm-3 12.8c-1 0-1.7-.3-2.3-.8-.6-.6-.8-1.4-.8-2.3V34.2c0-1 .3-1.7.8-2.3.6-.6 1.4-.9 2.3-.9 1 0 1.7.3 2.2 1 .6.5 1 1.2 1 2.2v43.7c0 .9-.4 1.7-1 2.3a3 3 0 0 1-2.2.8Zm22.9-.3a3 3 0 0 1-2.3.7c-.9 0-1.5-.4-2.1-1.1l-13-16 4.5-4.3L209 76.4c.6.7.8 1.4.7 2.2 0 .8-.4 1.5-1.1 2ZM253.4 81c-1 0-1.7-.3-2.3-1-.7-.6-1-1.4-1-2.3v-15l-17-26.5c-.6-.9-.8-1.7-.7-2.5a3 3 0 0 1 1-2c.7-.4 1.4-.7 2.2-.7.8 0 1.3.2 1.8.5.4.3.8.8 1.2 1.4l16.2 25.8h-2.5l16.5-26a3.5 3.5 0 0 1 3-1.7c.7 0 1.4.3 1.9.8.5.6.8 1.2.9 2 0 .8-.2 1.6-.7 2.4l-17.2 26.6v14.9c0 1-.3 1.7-1 2.3-.6.7-1.4 1-2.3 1ZM290.1 81.3a17 17 0 0 1-17.7-17.7c0-3.6.8-6.6 2.3-9.3 1.5-2.7 3.6-4.8 6.3-6.3 2.6-1.5 5.7-2.3 9.1-2.3 3.4 0 6.5.8 9.1 2.3a16 16 0 0 1 6.2 6.3 18 18 0 0 1 2.3 9.2c0 3.5-.7 6.6-2.2 9.2a16.5 16.5 0 0 1-15.4 8.6Zm0-5.8a10.5 10.5 0 0 0 9.9-5.8c1-1.8 1.5-3.8 1.5-6.2 0-2.3-.5-4.4-1.5-6.2-1-1.8-2.3-3.2-4-4.3-1.7-1-3.6-1.5-5.9-1.5-2.2 0-4.1.5-5.9 1.5-1.7 1-3 2.5-4 4.3-1 1.8-1.5 3.9-1.5 6.2 0 2.4.5 4.4 1.5 6.2a11 11 0 0 0 10 5.8ZM332.2 81.3c-3 0-5.6-.6-8-1.8a14.1 14.1 0 0 1-5.5-5.6c-1.3-2.4-2-5.4-2-9V49.2c0-1 .3-1.7 1-2.3.6-.7 1.4-1 2.3-1 1 0 1.7.3 2.3 1a3 3 0 0 1 1 2.3v15.7c0 2.4.4 4.4 1.3 6a8.6 8.6 0 0 0 3.7 3.4 12 12 0 0 0 10 0 9 9 0 0 0 3.5-2.9 7.2 7.2 0 0 0 1.2-4.2h4a13.8 13.8 0 0 1-7.3 12.2 15.4 15.4 0 0 1-7.5 2Zm14.1-.3c-1 0-1.7-.3-2.4-.9-.6-.6-.9-1.4-.9-2.4V49.2c0-1 .3-1.8 1-2.4.6-.6 1.4-.9 2.3-.9 1 0 1.8.3 2.4 1 .6.5.9 1.3.9 2.3v28.5c0 1-.3 1.8-1 2.4-.5.6-1.3.9-2.3.9ZM379.8 81c-1 0-1.8-.3-2.4-1-.6-.6-1-1.4-1-2.3V34.3a3 3 0 0 1 1-2.3c.6-.7 1.4-1 2.4-1h28.9c1 0 1.8.3 2.4 1 .6.5.8 1.2.8 2.2 0 .8-.2 1.6-.8 2.1-.6.6-1.4.9-2.4.9H383v15.5h18.4c1 0 1.7.3 2.3 1 .6.5 1 1.2 1 2a3 3 0 0 1-1 2.3c-.6.6-1.4.9-2.3.9H383v18.8c0 1-.3 1.7-1 2.3-.6.7-1.4 1-2.3 1ZM435.7 81.3A17 17 0 0 1 418 63.6c0-3.6.8-6.6 2.3-9.3 1.5-2.7 3.6-4.8 6.2-6.3 2.7-1.5 5.7-2.3 9.2-2.3 3.4 0 6.4.8 9 2.3a16 16 0 0 1 6.3 6.3 18 18 0 0 1 2.3 9.2c0 3.5-.8 6.6-2.2 9.2a16.5 16.5 0 0 1-15.4 8.6Zm0-5.8a10.5 10.5 0 0 0 9.9-5.8c1-1.8 1.4-3.8 1.4-6.2 0-2.3-.5-4.4-1.4-6.2-1-1.8-2.3-3.2-4-4.3-1.7-1-3.7-1.5-6-1.5-2.1 0-4 .5-5.8 1.5-1.7 1-3 2.5-4 4.3-1 1.8-1.5 3.9-1.5 6.2 0 2.4.5 4.4 1.5 6.2a11 11 0 0 0 9.9 5.8ZM466.1 59.1c0-2.5.7-4.8 1.9-6.8a14 14 0 0 1 12.2-6.7c2.5 0 4.4.4 5.7 1.3 1.2.8 1.7 1.8 1.4 3-.1.5-.4 1-.7 1.3-.4.3-.8.5-1.3.6h-1.5a18 18 0 0 0-7.4-.2c-2.1.5-3.9 1.4-5.1 2.6a6.7 6.7 0 0 0-1.9 5h-3.3Zm.1 21.9c-1 0-1.8-.3-2.4-.8-.5-.5-.8-1.3-.8-2.4V49.2c0-1 .3-1.8.8-2.4.6-.5 1.4-.8 2.4-.8s1.9.3 2.4.8.8 1.3.8 2.4v28.6c0 1-.3 1.8-.8 2.4-.5.5-1.3.8-2.4.8ZM524.1 81c-.7 0-1.4-.2-2-.7-.6-.5-1-1.1-1.3-2L508 35.7c-.5-1.4-.4-2.5 0-3.3.5-.9 1.3-1.3 2.5-1.3.7 0 1.3.2 2 .7.5.3 1 1 1.2 1.8l11.2 39h-1.4L534 34c.1-.6.5-1.2 1.1-1.6.6-.4 1.3-.6 2-.6.8 0 1.4.1 2 .5.6.4 1 1 1.2 1.6l10.4 38.8h-1.2l11.2-39.4c.5-1.5 1.5-2.2 3.3-2.2 1.2 0 2 .5 2.3 1.4.3 1 .3 2 0 3.2l-12.9 42.7c-.3.8-.7 1.5-1.3 2a3 3 0 0 1-2 .7c-.8 0-1.5-.3-2.1-.8-.6-.5-1-1.1-1.2-1.8l-10.3-39.8h1.5l-10.4 39.7c-.3.8-.8 1.5-1.4 2a3 3 0 0 1-2 .7ZM580.5 81.3c-3.1 0-6-.8-8.4-2.3a17.2 17.2 0 0 1-8-15.5 17.4 17.4 0 0 1 17.7-17.8 17.1 17.1 0 0 1 15.2 8.7c1.6 2.7 2.4 5.8 2.4 9.1h-2.5c0 3.4-.8 6.4-2.2 9.1a15.6 15.6 0 0 1-14.2 8.6Zm1.3-5.8c2.1 0 4-.5 5.8-1.5 1.7-1.1 3-2.5 4-4.3 1-1.9 1.5-4 1.5-6.2 0-2.3-.5-4.3-1.5-6.1a10.9 10.9 0 0 0-9.8-5.9 11.3 11.3 0 0 0-10 5.9c-1 1.8-1.4 3.8-1.4 6.1s.5 4.3 1.4 6.2A12 12 0 0 0 576 74c1.8 1 3.7 1.5 5.9 1.5Zm14.3 5.6c-1 0-1.7-.3-2.4-1-.6-.6-.9-1.4-.9-2.3V68l1.2-6.8 5.4 2.3v14.3c0 1-.4 1.7-1 2.4-.6.6-1.4.9-2.3.9ZM621.8 81a10.6 10.6 0 0 1-9.8-6c-1-2-1.5-4-1.5-6.4V38c0-1 .3-1.8 1-2.3.5-.6 1.3-1 2.2-1 1 0 1.8.4 2.3 1 .6.5 1 1.3 1 2.3v30.5c0 1.7.4 3.1 1.4 4.3.9 1.1 2 1.7 3.4 1.7h2.2c.8 0 1.4.3 1.9.9.6.6.8 1.4.8 2.3 0 1-.3 1.7-1 2.3a4 4 0 0 1-2.7.9h-1.2Zm-14.2-28.2a3 3 0 0 1-2.2-.8c-.5-.5-.8-1.1-.8-2 0-.8.3-1.4.8-2a3 3 0 0 1 2.2-.7h14.8a3 3 0 0 1 2.2.7c.5.6.8 1.2.8 2 0 .9-.3 1.5-.8 2a3 3 0 0 1-2.2.8h-14.8ZM650.6 81.3c-3.4 0-6.4-.8-9.1-2.3a17.5 17.5 0 0 1-6.3-6.4 18.4 18.4 0 0 1-2.2-9c0-3.5.7-6.6 2.2-9.3a16 16 0 0 1 6.2-6.3c2.6-1.5 5.5-2.3 9-2.3a16 16 0 0 1 12.5 5.8c.6.7.8 1.4.6 2.1-.2.7-.6 1.4-1.4 2-.6.4-1.3.5-2 .4-.7-.2-1.4-.6-2-1.2-2-2.2-4.7-3.3-7.8-3.3a10.8 10.8 0 0 0-9.7 5.7c-.9 1.8-1.4 3.9-1.4 6.3a11.5 11.5 0 0 0 5.4 10.4 13.3 13.3 0 0 0 9.9 1c1.2-.3 2.2-.9 3.2-1.6.7-.6 1.4-.9 2-1 .8 0 1.4.2 2 .6a3 3 0 0 1 1.2 2c.1.8-.2 1.5-.7 2-3.1 3-7 4.4-11.6 4.4ZM676.5 68.3c-1 0-1.8-.3-2.4-1-.6-.6-.9-1.4-.9-2.3V34.3c0-1 .3-1.8.9-2.4.6-.6 1.4-.9 2.4-.9s1.7.3 2.3 1c.6.5 1 1.3 1 2.3V65c0 1-.4 1.7-1 2.4-.6.6-1.4.9-2.3.9ZM702.8 81c-1 0-1.8-.3-2.4-1-.6-.6-.9-1.4-.9-2.3V62.1c0-2.5-.4-4.5-1.3-6a8.2 8.2 0 0 0-3.7-3.4c-1.5-.8-3.2-1.1-5.2-1.1-1.8 0-3.4.3-4.8 1a9 9 0 0 0-3.5 3 7 7 0 0 0-1.3 4.2h-4a13.4 13.4 0 0 1 7.3-12.3c2.3-1.2 4.8-1.8 7.6-1.8 3 0 5.6.6 7.9 1.9 2.3 1.2 4.2 3 5.5 5.5a18 18 0 0 1 2 9v15.7c0 1-.3 1.7-1 2.4-.5.6-1.3.9-2.2.9Zm-26.3 0c-1 0-1.8-.3-2.4-1-.6-.6-.9-1.4-.9-2.3V49.3c0-1 .3-1.8.9-2.4.6-.6 1.4-1 2.4-1s1.7.4 2.3 1c.6.6 1 1.4 1 2.4v28.5c0 1-.4 1.7-1 2.4-.6.6-1.4.9-2.3.9ZM720.8 81c-1 0-1.7-.3-2.4-.9-.6-.6-.9-1.4-.9-2.4V49.3c0-1 .3-1.8 1-2.4.6-.6 1.4-1 2.3-1 1 0 1.8.4 2.4 1 .6.6.9 1.4.9 2.4v28.4c0 1-.3 1.8-1 2.4-.5.6-1.3.9-2.3.9Zm0-40.7c-1.2 0-2.2-.4-3-1.2a4.2 4.2 0 0 1-1.2-3 4 4 0 0 1 1.2-3 4.1 4.1 0 0 1 6 0 4.1 4.1 0 0 1 0 6 4 4 0 0 1-3 1.2ZM765.8 81c-1 0-1.8-.2-2.4-.8-.6-.7-.9-1.5-.9-2.4V62.1c0-2.5-.4-4.5-1.3-6a8.2 8.2 0 0 0-3.7-3.4c-1.5-.8-3.2-1.1-5.2-1.1-1.8 0-3.4.3-4.8 1a9 9 0 0 0-3.5 3 7 7 0 0 0-1.3 4.2h-4a13.4 13.4 0 0 1 7.3-12.3c2.3-1.2 4.8-1.8 7.6-1.8 3 0 5.6.6 7.9 1.9 2.3 1.2 4.2 3 5.5 5.5a18 18 0 0 1 2 9v15.7c0 1-.3 1.7-1 2.4-.5.6-1.3.9-2.2.9Zm-26.3 0c-1 0-1.8-.2-2.4-.8-.6-.7-.9-1.5-.9-2.4V49.3c0-1 .3-1.8.9-2.4.6-.6 1.4-1 2.4-1s1.7.4 2.3 1c.6.6 1 1.4 1 2.4v28.5c0 1-.4 1.7-1 2.4-.6.6-1.4.9-2.3.9ZM794.4 81.3c-3.2 0-6-.8-8.5-2.3a16.3 16.3 0 0 1-5.8-6.3 19.6 19.6 0 0 1-2-9.2c0-3.5.7-6.5 2.2-9.2 1.5-2.7 3.6-4.8 6.2-6.3 2.7-1.5 5.7-2.3 9.2-2.3 3.4 0 6.4.8 9 2.3a16 16 0 0 1 6.3 6.3 18 18 0 0 1 2.3 9.2h-3.8c0 3.5-.6 6.6-2 9.2a13.8 13.8 0 0 1-13.1 8.5Zm1.2 14.2c-3 0-5.9-.6-8.5-1.8a18 18 0 0 1-6.8-5.2c-.5-.7-.7-1.5-.6-2.3a3 3 0 0 1 1.3-1.8c.7-.5 1.5-.7 2.3-.5.9.2 1.6.6 2 1.3 1.2 1.4 2.7 2.5 4.4 3.4a14 14 0 0 0 6 1.2c2 0 4-.5 5.6-1.5 1.8-1 3.2-2.4 4.2-4.4 1-1.9 1.5-4.2 1.5-7v-9l2.1-5.7 4.2 1.3v13.9c0 3.3-.8 6.4-2.2 9.1a17 17 0 0 1-15.5 9Zm0-20a10.5 10.5 0 0 0 9.9-5.8c1-1.8 1.5-3.8 1.5-6.2 0-2.3-.5-4.4-1.5-6.2-.9-1.8-2.2-3.2-4-4.3-1.6-1-3.6-1.5-5.8-1.5-2.2 0-4.2.5-5.9 1.5-1.7 1-3 2.5-4 4.3-1 1.8-1.5 3.9-1.5 6.2 0 2.4.5 4.4 1.5 6.2a11 11 0 0 0 9.9 5.8ZM13.7 201c-1 0-1.7-.3-2.3-1-.7-.6-1-1.4-1-2.3v-43.4a3 3 0 0 1 1-2.3c.6-.7 1.4-1 2.3-1 1.3 0 2.3.6 3 1.8l20 40.1h-2l19.5-40a3.2 3.2 0 0 1 3-1.9c.9 0 1.6.3 2.3 1a3 3 0 0 1 1 2.3v43.4c0 1-.4 1.7-1 2.3-.7.7-1.5 1-2.4 1-1 0-1.7-.3-2.3-1-.7-.6-1-1.4-1-2.3v-34.1l1.3-.4-16.8 34.2a3.3 3.3 0 0 1-2.9 1.7c-1.4 0-2.4-.7-3-2l-16.6-33.2 1.3-.3v34c0 1-.4 1.8-1 2.4-.6.7-1.4 1-2.4 1ZM88.3 201c-1 0-1.7-.3-2.4-1-.6-.6-1-1.4-1-2.3v-15l-17-26.5c-.6-.9-.8-1.7-.6-2.5a3 3 0 0 1 1-2c.7-.4 1.4-.7 2.2-.7.7 0 1.3.2 1.8.5.4.3.8.8 1.2 1.4l16.2 25.8h-2.5l16.5-26a3.5 3.5 0 0 1 3-1.7c.7 0 1.3.3 1.8.8.6.6.8 1.2 1 2 0 .8-.2 1.6-.7 2.4l-17.2 26.6v14.9c0 1-.3 1.7-1 2.3-.6.7-1.4 1-2.3 1ZM138.2 201c-1 0-1.7-.3-2.3-1-.7-.6-1-1.4-1-2.3v-43.4a3 3 0 0 1 1-2.3c.6-.7 1.4-1 2.3-1H151c3.2 0 6 .7 8.5 2.1 2.5 1.4 4.4 3.4 5.8 6a17 17 0 0 1 2.1 8.5c0 3.1-.7 5.9-2.1 8.3a14.5 14.5 0 0 1-5.8 5.7c-2.4 1.4-5.3 2-8.5 2h-9.4v14c0 1-.4 1.8-1 2.4a3 3 0 0 1-2.4 1Zm3.4-23.5h9.4c2 0 3.7-.4 5.2-1.3 1.5-.8 2.7-2 3.5-3.5.9-1.5 1.3-3.2 1.3-5.1 0-2-.4-3.8-1.3-5.4a9.5 9.5 0 0 0-8.7-5h-9.4v20.3ZM188.8 201.3a17 17 0 0 1-17.7-17.7c0-3.6.7-6.6 2.2-9.3 1.6-2.7 3.7-4.8 6.3-6.3 2.7-1.5 5.7-2.3 9.2-2.3 3.4 0 6.4.8 9 2.3a16 16 0 0 1 6.3 6.3 18 18 0 0 1 2.3 9.2c0 3.5-.8 6.6-2.3 9.2a16.5 16.5 0 0 1-15.3 8.6Zm0-5.8a10.5 10.5 0 0 0 9.9-5.8c.9-1.8 1.4-3.8 1.4-6.2 0-2.3-.5-4.4-1.5-6.2-1-1.8-2.2-3.2-4-4.3-1.7-1-3.6-1.5-5.8-1.5-2.3 0-4.2.5-6 1.5-1.6 1-3 2.5-4 4.3-1 1.8-1.4 3.9-1.4 6.2 0 2.4.5 4.4 1.4 6.2a11 11 0 0 0 10 5.8ZM219.2 179.1c0-2.5.6-4.8 1.9-6.8a14 14 0 0 1 12.1-6.7c2.6 0 4.5.4 5.7 1.3 1.3.8 1.8 1.8 1.5 3-.1.5-.4 1-.8 1.3-.3.3-.7.5-1.2.6H237a18 18 0 0 0-7.4-.2c-2.2.5-3.9 1.4-5.2 2.6a6.7 6.7 0 0 0-1.8 5h-3.3Zm0 21.9c-1 0-1.7-.3-2.3-.8-.6-.5-.8-1.3-.8-2.4v-28.6c0-1 .3-1.8.8-2.4.6-.5 1.3-.8 2.4-.8 1 0 1.8.3 2.3.8.6.5.9 1.3.9 2.4v28.6c0 1-.3 1.8-.9 2.4-.5.5-1.3.8-2.3.8ZM260 201a10.6 10.6 0 0 1-9.9-6c-1-2-1.4-4-1.4-6.4V158c0-1 .3-1.8.9-2.3.6-.6 1.3-1 2.3-1 1 0 1.7.4 2.3 1 .6.5.9 1.3.9 2.3v30.5c0 1.7.4 3.1 1.4 4.3 1 1.1 2 1.7 3.4 1.7h2.2c.8 0 1.4.3 2 .9.5.6.8 1.4.8 2.3 0 1-.4 1.7-1.1 2.3a4 4 0 0 1-2.7.9h-1.2Zm-14.3-28.2a3 3 0 0 1-2.2-.8c-.5-.5-.8-1.1-.8-2 0-.8.3-1.4.8-2a3 3 0 0 1 2.2-.7h14.8a3 3 0 0 1 2.2.7c.5.6.8 1.2.8 2 0 .9-.3 1.5-.8 2a3 3 0 0 1-2.2.8h-14.8ZM276.7 201c-.8 0-1.6-.3-2.2-.9a3 3 0 0 1-1-2.4v-31.5c0-3 .6-5.8 1.8-8 1.3-2.3 3-4 5.1-5.3 2.2-1.2 4.7-1.9 7.6-1.9 1 0 1.7.3 2.3.8.6.6 1 1.3 1 2.2 0 .8-.4 1.5-1 2-.6.6-1.4.9-2.3.9-1.6 0-3 .4-4.2 1a7.7 7.7 0 0 0-2.8 3.1 10 10 0 0 0-1 4.5v32.2c0 1-.2 1.8-.8 2.4-.6.6-1.5.9-2.5.9Zm-6-28.2a3 3 0 0 1-2.1-.8c-.6-.5-.8-1.1-.8-2 0-.8.2-1.4.8-2a3 3 0 0 1 2.2-.7h15.8a3 3 0 0 1 2.2.7c.5.6.8 1.2.8 2 0 .9-.3 1.5-.8 2a3 3 0 0 1-2.2.8h-15.8ZM311 201.3a17 17 0 0 1-17.7-17.7c0-3.6.8-6.6 2.3-9.3 1.5-2.7 3.6-4.8 6.3-6.3 2.6-1.5 5.7-2.3 9.1-2.3 3.4 0 6.4.8 9.1 2.3a16 16 0 0 1 6.2 6.3 18 18 0 0 1 2.3 9.2c0 3.5-.7 6.6-2.2 9.2a16.5 16.5 0 0 1-15.4 8.6Zm0-5.8a10.5 10.5 0 0 0 9.9-5.8c1-1.8 1.4-3.8 1.4-6.2 0-2.3-.5-4.4-1.4-6.2-1-1.8-2.3-3.2-4-4.3-1.7-1-3.7-1.5-5.9-1.5s-4.2.5-5.9 1.5c-1.7 1-3 2.5-4 4.3-1 1.8-1.5 3.9-1.5 6.2 0 2.4.5 4.4 1.5 6.2a11 11 0 0 0 10 5.8ZM346.6 201c-1.8 0-3.5-.5-5-1.5-1.4-1-2.5-2.4-3.3-4.2-.9-1.8-1.3-3.8-1.3-6.1v-35c0-1 .3-1.7 1-2.3.5-.6 1.3-.9 2.2-.9 1 0 1.7.3 2.3 1 .6.5 1 1.3 1 2.2v35c0 1.5.2 2.8.8 3.9.6 1 1.4 1.5 2.3 1.5h1.6c.9 0 1.6.3 2 .9.6.6 1 1.4 1 2.3 0 1-.5 1.7-1.3 2.3-.8.6-1.8.9-3.1.9h-.2ZM361.4 201c-1 0-1.7-.3-2.4-.9-.6-.6-.9-1.4-.9-2.4v-28.4c0-1 .3-1.8 1-2.4.6-.6 1.4-1 2.3-1 1 0 1.8.4 2.4 1 .6.6.9 1.4.9 2.4v28.4c0 1-.3 1.8-1 2.4-.5.6-1.3.9-2.3.9Zm0-40.7c-1.1 0-2.1-.4-3-1.2a4.2 4.2 0 0 1-1.2-3 4 4 0 0 1 1.2-3 4.1 4.1 0 0 1 6 0 4.1 4.1 0 0 1 0 6 4 4 0 0 1-3 1.2ZM392.7 201.3a17 17 0 0 1-17.7-17.7c0-3.6.8-6.6 2.3-9.3 1.5-2.7 3.6-4.8 6.2-6.3 2.7-1.5 5.7-2.3 9.2-2.3 3.4 0 6.4.8 9 2.3a16 16 0 0 1 6.3 6.3 18 18 0 0 1 2.3 9.2c0 3.5-.8 6.6-2.2 9.2a16.5 16.5 0 0 1-15.4 8.6Zm0-5.8a10.5 10.5 0 0 0 9.9-5.8c1-1.8 1.4-3.8 1.4-6.2 0-2.3-.5-4.4-1.4-6.2-1-1.8-2.3-3.2-4-4.3-1.7-1-3.7-1.5-6-1.5-2.1 0-4 .5-5.8 1.5-1.7 1-3 2.5-4 4.3-1 1.8-1.5 3.9-1.5 6.2 0 2.4.5 4.4 1.5 6.2a11 11 0 0 0 9.9 5.8ZM438.9 174.9a4.4 4.4 0 0 1-3.1-7.6c.8-.9 1.9-1.3 3-1.3 1.3 0 2.4.4 3.2 1.3.9.9 1.3 2 1.3 3.2a4.4 4.4 0 0 1-4.4 4.4Zm.7 27.1a4.4 4.4 0 0 1-3.1-7.5c.9-1 1.9-1.4 3-1.4 1.3 0 2.4.5 3.2 1.4.9.8 1.3 1.9 1.3 3.1a4.4 4.4 0 0 1-4.4 4.4ZM450.4 216c-1 0-1.7-.3-2.3-1-.6-.6-1-1.4-1-2.4 0-.5.2-1 .4-1.6a71.2 71.2 0 0 0 6.8-27.5c0-9.1-2.2-18.3-6.7-27.4-.2-.4-.4-1-.4-1.6 0-1 .3-1.8.9-2.4.6-.7 1.4-1 2.3-1 1.4 0 2.5.7 3.1 2.2a71.2 71.2 0 0 1 7.2 30.2c0 5-.6 10.1-1.8 15.1-1.2 5-3 10.1-5.4 15.2-.4.8-.8 1.4-1.3 1.7-.5.3-1 .5-1.8.5Z"/></mask><path d="M25.2 81c-1 0-1.7-.3-2.4-1-.6-.6-1-1.4-1-2.3V31h6.7v46.7c0 1-.3 1.7-1 2.3-.6.7-1.4 1-2.3 1ZM8 37.2c-.9 0-1.6-.3-2.2-.9-.6-.6-.8-1.3-.8-2.2a3 3 0 0 1 3-3h34.3c.9 0 1.6.2 2.1.8.6.6 1 1.3 1 2.2a3 3 0 0 1-3 3H7.9ZM55.3 68.3c-.9 0-1.7-.3-2.3-1-.6-.6-1-1.4-1-2.3V34.3c0-1 .4-1.8 1-2.4.6-.6 1.4-.9 2.3-.9 1 0 1.8.3 2.4 1 .6.5.9 1.3.9 2.3V65c0 1-.3 1.7-.9 2.4-.6.6-1.4.9-2.4.9ZM81.6 81c-.9 0-1.7-.3-2.3-1-.6-.6-1-1.4-1-2.3V62.1c0-2.5-.4-4.5-1.3-6a8.2 8.2 0 0 0-3.6-3.4c-1.5-.8-3.2-1.1-5.2-1.1-1.8 0-3.4.3-4.9 1a9 9 0 0 0-3.4 3 7 7 0 0 0-1.3 4.2h-4a13.4 13.4 0 0 1 7.3-12.3c2.2-1.2 4.8-1.8 7.6-1.8 3 0 5.5.6 7.9 1.9 2.3 1.2 4.1 3 5.5 5.5a18 18 0 0 1 2 9v15.7c0 1-.3 1.7-1 2.4-.6.6-1.3.9-2.3.9Zm-26.3 0c-.9 0-1.7-.3-2.3-1-.6-.6-1-1.4-1-2.3V49.3c0-1 .4-1.8 1-2.4.6-.6 1.4-1 2.3-1 1 0 1.8.4 2.4 1 .6.6.9 1.4.9 2.4v28.5c0 1-.3 1.7-.9 2.4-.6.6-1.4.9-2.4.9ZM110.4 81.3c-3.2 0-6-.8-8.4-2.3a17.2 17.2 0 0 1-8-15.5 17.4 17.4 0 0 1 17.7-17.8 17.1 17.1 0 0 1 15.2 8.7c1.5 2.7 2.3 5.8 2.3 9.1h-2.5c0 3.4-.7 6.4-2.1 9.1a15.6 15.6 0 0 1-14.2 8.6Zm1.2-5.8c2.2 0 4.1-.5 5.9-1.5 1.7-1.1 3-2.5 4-4.3 1-1.9 1.5-4 1.5-6.2 0-2.3-.5-4.3-1.5-6.1a10.9 10.9 0 0 0-9.9-5.9 11.3 11.3 0 0 0-10 5.9c-.9 1.8-1.4 3.8-1.4 6.1s.5 4.3 1.5 6.2a12 12 0 0 0 4.1 4.3c1.8 1 3.7 1.5 5.8 1.5Zm14.4 5.6c-1 0-1.8-.3-2.4-1-.6-.6-.9-1.4-.9-2.3V68l1.2-6.8 5.3 2.3v14.3c0 1-.3 1.7-1 2.4-.5.6-1.3.9-2.2.9ZM168.5 81c-1 0-1.7-.2-2.4-.8-.5-.7-.8-1.5-.8-2.4V62.1c0-2.5-.5-4.5-1.4-6a8.2 8.2 0 0 0-3.6-3.4c-1.5-.8-3.3-1.1-5.2-1.1-1.8 0-3.4.3-4.9 1a9 9 0 0 0-3.4 3 7 7 0 0 0-1.3 4.2h-4a13.4 13.4 0 0 1 7.2-12.3c2.3-1.2 4.8-1.8 7.7-1.8 2.9 0 5.5.6 7.8 1.9 2.4 1.2 4.2 3 5.5 5.5a18 18 0 0 1 2 9v15.7c0 1-.2 1.7-.9 2.4-.6.6-1.3.9-2.3.9Zm-26.3 0c-1 0-1.7-.2-2.4-.8-.6-.7-.9-1.5-.9-2.4V49.3c0-1 .3-1.8 1-2.4.6-.6 1.4-1 2.3-1 1 0 1.8.4 2.4 1 .6.6.9 1.4.9 2.4v28.5c0 1-.3 1.7-1 2.4-.5.6-1.3.9-2.3.9ZM188.7 68.2l-4-4.4 19.7-17.5a2.8 2.8 0 0 1 4.2.2c.6.6.8 1.3.8 2.1a3 3 0 0 1-1 2l-19.7 17.6Zm-3 12.8c-1 0-1.7-.3-2.3-.8-.6-.6-.8-1.4-.8-2.3V34.2c0-1 .3-1.7.8-2.3.6-.6 1.4-.9 2.3-.9 1 0 1.7.3 2.2 1 .6.5 1 1.2 1 2.2v43.7c0 .9-.4 1.7-1 2.3a3 3 0 0 1-2.2.8Zm22.9-.3a3 3 0 0 1-2.3.7c-.9 0-1.5-.4-2.1-1.1l-13-16 4.5-4.3L209 76.4c.6.7.8 1.4.7 2.2 0 .8-.4 1.5-1.1 2ZM253.4 81c-1 0-1.7-.3-2.3-1-.7-.6-1-1.4-1-2.3v-15l-17-26.5c-.6-.9-.8-1.7-.7-2.5a3 3 0 0 1 1-2c.7-.4 1.4-.7 2.2-.7.8 0 1.3.2 1.8.5.4.3.8.8 1.2 1.4l16.2 25.8h-2.5l16.5-26a3.5 3.5 0 0 1 3-1.7c.7 0 1.4.3 1.9.8.5.6.8 1.2.9 2 0 .8-.2 1.6-.7 2.4l-17.2 26.6v14.9c0 1-.3 1.7-1 2.3-.6.7-1.4 1-2.3 1ZM290.1 81.3a17 17 0 0 1-17.7-17.7c0-3.6.8-6.6 2.3-9.3 1.5-2.7 3.6-4.8 6.3-6.3 2.6-1.5 5.7-2.3 9.1-2.3 3.4 0 6.5.8 9.1 2.3a16 16 0 0 1 6.2 6.3 18 18 0 0 1 2.3 9.2c0 3.5-.7 6.6-2.2 9.2a16.5 16.5 0 0 1-15.4 8.6Zm0-5.8a10.5 10.5 0 0 0 9.9-5.8c1-1.8 1.5-3.8 1.5-6.2 0-2.3-.5-4.4-1.5-6.2-1-1.8-2.3-3.2-4-4.3-1.7-1-3.6-1.5-5.9-1.5-2.2 0-4.1.5-5.9 1.5-1.7 1-3 2.5-4 4.3-1 1.8-1.5 3.9-1.5 6.2 0 2.4.5 4.4 1.5 6.2a11 11 0 0 0 10 5.8ZM332.2 81.3c-3 0-5.6-.6-8-1.8a14.1 14.1 0 0 1-5.5-5.6c-1.3-2.4-2-5.4-2-9V49.2c0-1 .3-1.7 1-2.3.6-.7 1.4-1 2.3-1 1 0 1.7.3 2.3 1a3 3 0 0 1 1 2.3v15.7c0 2.4.4 4.4 1.3 6a8.6 8.6 0 0 0 3.7 3.4 12 12 0 0 0 10 0 9 9 0 0 0 3.5-2.9 7.2 7.2 0 0 0 1.2-4.2h4a13.8 13.8 0 0 1-7.3 12.2 15.4 15.4 0 0 1-7.5 2Zm14.1-.3c-1 0-1.7-.3-2.4-.9-.6-.6-.9-1.4-.9-2.4V49.2c0-1 .3-1.8 1-2.4.6-.6 1.4-.9 2.3-.9 1 0 1.8.3 2.4 1 .6.5.9 1.3.9 2.3v28.5c0 1-.3 1.8-1 2.4-.5.6-1.3.9-2.3.9ZM379.8 81c-1 0-1.8-.3-2.4-1-.6-.6-1-1.4-1-2.3V34.3a3 3 0 0 1 1-2.3c.6-.7 1.4-1 2.4-1h28.9c1 0 1.8.3 2.4 1 .6.5.8 1.2.8 2.2 0 .8-.2 1.6-.8 2.1-.6.6-1.4.9-2.4.9H383v15.5h18.4c1 0 1.7.3 2.3 1 .6.5 1 1.2 1 2a3 3 0 0 1-1 2.3c-.6.6-1.4.9-2.3.9H383v18.8c0 1-.3 1.7-1 2.3-.6.7-1.4 1-2.3 1ZM435.7 81.3A17 17 0 0 1 418 63.6c0-3.6.8-6.6 2.3-9.3 1.5-2.7 3.6-4.8 6.2-6.3 2.7-1.5 5.7-2.3 9.2-2.3 3.4 0 6.4.8 9 2.3a16 16 0 0 1 6.3 6.3 18 18 0 0 1 2.3 9.2c0 3.5-.8 6.6-2.2 9.2a16.5 16.5 0 0 1-15.4 8.6Zm0-5.8a10.5 10.5 0 0 0 9.9-5.8c1-1.8 1.4-3.8 1.4-6.2 0-2.3-.5-4.4-1.4-6.2-1-1.8-2.3-3.2-4-4.3-1.7-1-3.7-1.5-6-1.5-2.1 0-4 .5-5.8 1.5-1.7 1-3 2.5-4 4.3-1 1.8-1.5 3.9-1.5 6.2 0 2.4.5 4.4 1.5 6.2a11 11 0 0 0 9.9 5.8ZM466.1 59.1c0-2.5.7-4.8 1.9-6.8a14 14 0 0 1 12.2-6.7c2.5 0 4.4.4 5.7 1.3 1.2.8 1.7 1.8 1.4 3-.1.5-.4 1-.7 1.3-.4.3-.8.5-1.3.6h-1.5a18 18 0 0 0-7.4-.2c-2.1.5-3.9 1.4-5.1 2.6a6.7 6.7 0 0 0-1.9 5h-3.3Zm.1 21.9c-1 0-1.8-.3-2.4-.8-.5-.5-.8-1.3-.8-2.4V49.2c0-1 .3-1.8.8-2.4.6-.5 1.4-.8 2.4-.8s1.9.3 2.4.8.8 1.3.8 2.4v28.6c0 1-.3 1.8-.8 2.4-.5.5-1.3.8-2.4.8ZM524.1 81c-.7 0-1.4-.2-2-.7-.6-.5-1-1.1-1.3-2L508 35.7c-.5-1.4-.4-2.5 0-3.3.5-.9 1.3-1.3 2.5-1.3.7 0 1.3.2 2 .7.5.3 1 1 1.2 1.8l11.2 39h-1.4L534 34c.1-.6.5-1.2 1.1-1.6.6-.4 1.3-.6 2-.6.8 0 1.4.1 2 .5.6.4 1 1 1.2 1.6l10.4 38.8h-1.2l11.2-39.4c.5-1.5 1.5-2.2 3.3-2.2 1.2 0 2 .5 2.3 1.4.3 1 .3 2 0 3.2l-12.9 42.7c-.3.8-.7 1.5-1.3 2a3 3 0 0 1-2 .7c-.8 0-1.5-.3-2.1-.8-.6-.5-1-1.1-1.2-1.8l-10.3-39.8h1.5l-10.4 39.7c-.3.8-.8 1.5-1.4 2a3 3 0 0 1-2 .7ZM580.5 81.3c-3.1 0-6-.8-8.4-2.3a17.2 17.2 0 0 1-8-15.5 17.4 17.4 0 0 1 17.7-17.8 17.1 17.1 0 0 1 15.2 8.7c1.6 2.7 2.4 5.8 2.4 9.1h-2.5c0 3.4-.8 6.4-2.2 9.1a15.6 15.6 0 0 1-14.2 8.6Zm1.3-5.8c2.1 0 4-.5 5.8-1.5 1.7-1.1 3-2.5 4-4.3 1-1.9 1.5-4 1.5-6.2 0-2.3-.5-4.3-1.5-6.1a10.9 10.9 0 0 0-9.8-5.9 11.3 11.3 0 0 0-10 5.9c-1 1.8-1.4 3.8-1.4 6.1s.5 4.3 1.4 6.2A12 12 0 0 0 576 74c1.8 1 3.7 1.5 5.9 1.5Zm14.3 5.6c-1 0-1.7-.3-2.4-1-.6-.6-.9-1.4-.9-2.3V68l1.2-6.8 5.4 2.3v14.3c0 1-.4 1.7-1 2.4-.6.6-1.4.9-2.3.9ZM621.8 81a10.6 10.6 0 0 1-9.8-6c-1-2-1.5-4-1.5-6.4V38c0-1 .3-1.8 1-2.3.5-.6 1.3-1 2.2-1 1 0 1.8.4 2.3 1 .6.5 1 1.3 1 2.3v30.5c0 1.7.4 3.1 1.4 4.3.9 1.1 2 1.7 3.4 1.7h2.2c.8 0 1.4.3 1.9.9.6.6.8 1.4.8 2.3 0 1-.3 1.7-1 2.3a4 4 0 0 1-2.7.9h-1.2Zm-14.2-28.2a3 3 0 0 1-2.2-.8c-.5-.5-.8-1.1-.8-2 0-.8.3-1.4.8-2a3 3 0 0 1 2.2-.7h14.8a3 3 0 0 1 2.2.7c.5.6.8 1.2.8 2 0 .9-.3 1.5-.8 2a3 3 0 0 1-2.2.8h-14.8ZM650.6 81.3c-3.4 0-6.4-.8-9.1-2.3a17.5 17.5 0 0 1-6.3-6.4 18.4 18.4 0 0 1-2.2-9c0-3.5.7-6.6 2.2-9.3a16 16 0 0 1 6.2-6.3c2.6-1.5 5.5-2.3 9-2.3a16 16 0 0 1 12.5 5.8c.6.7.8 1.4.6 2.1-.2.7-.6 1.4-1.4 2-.6.4-1.3.5-2 .4-.7-.2-1.4-.6-2-1.2-2-2.2-4.7-3.3-7.8-3.3a10.8 10.8 0 0 0-9.7 5.7c-.9 1.8-1.4 3.9-1.4 6.3a11.5 11.5 0 0 0 5.4 10.4 13.3 13.3 0 0 0 9.9 1c1.2-.3 2.2-.9 3.2-1.6.7-.6 1.4-.9 2-1 .8 0 1.4.2 2 .6a3 3 0 0 1 1.2 2c.1.8-.2 1.5-.7 2-3.1 3-7 4.4-11.6 4.4ZM676.5 68.3c-1 0-1.8-.3-2.4-1-.6-.6-.9-1.4-.9-2.3V34.3c0-1 .3-1.8.9-2.4.6-.6 1.4-.9 2.4-.9s1.7.3 2.3 1c.6.5 1 1.3 1 2.3V65c0 1-.4 1.7-1 2.4-.6.6-1.4.9-2.3.9ZM702.8 81c-1 0-1.8-.3-2.4-1-.6-.6-.9-1.4-.9-2.3V62.1c0-2.5-.4-4.5-1.3-6a8.2 8.2 0 0 0-3.7-3.4c-1.5-.8-3.2-1.1-5.2-1.1-1.8 0-3.4.3-4.8 1a9 9 0 0 0-3.5 3 7 7 0 0 0-1.3 4.2h-4a13.4 13.4 0 0 1 7.3-12.3c2.3-1.2 4.8-1.8 7.6-1.8 3 0 5.6.6 7.9 1.9 2.3 1.2 4.2 3 5.5 5.5a18 18 0 0 1 2 9v15.7c0 1-.3 1.7-1 2.4-.5.6-1.3.9-2.2.9Zm-26.3 0c-1 0-1.8-.3-2.4-1-.6-.6-.9-1.4-.9-2.3V49.3c0-1 .3-1.8.9-2.4.6-.6 1.4-1 2.4-1s1.7.4 2.3 1c.6.6 1 1.4 1 2.4v28.5c0 1-.4 1.7-1 2.4-.6.6-1.4.9-2.3.9ZM720.8 81c-1 0-1.7-.3-2.4-.9-.6-.6-.9-1.4-.9-2.4V49.3c0-1 .3-1.8 1-2.4.6-.6 1.4-1 2.3-1 1 0 1.8.4 2.4 1 .6.6.9 1.4.9 2.4v28.4c0 1-.3 1.8-1 2.4-.5.6-1.3.9-2.3.9Zm0-40.7c-1.2 0-2.2-.4-3-1.2a4.2 4.2 0 0 1-1.2-3 4 4 0 0 1 1.2-3 4.1 4.1 0 0 1 6 0 4.1 4.1 0 0 1 0 6 4 4 0 0 1-3 1.2ZM765.8 81c-1 0-1.8-.2-2.4-.8-.6-.7-.9-1.5-.9-2.4V62.1c0-2.5-.4-4.5-1.3-6a8.2 8.2 0 0 0-3.7-3.4c-1.5-.8-3.2-1.1-5.2-1.1-1.8 0-3.4.3-4.8 1a9 9 0 0 0-3.5 3 7 7 0 0 0-1.3 4.2h-4a13.4 13.4 0 0 1 7.3-12.3c2.3-1.2 4.8-1.8 7.6-1.8 3 0 5.6.6 7.9 1.9 2.3 1.2 4.2 3 5.5 5.5a18 18 0 0 1 2 9v15.7c0 1-.3 1.7-1 2.4-.5.6-1.3.9-2.2.9Zm-26.3 0c-1 0-1.8-.2-2.4-.8-.6-.7-.9-1.5-.9-2.4V49.3c0-1 .3-1.8.9-2.4.6-.6 1.4-1 2.4-1s1.7.4 2.3 1c.6.6 1 1.4 1 2.4v28.5c0 1-.4 1.7-1 2.4-.6.6-1.4.9-2.3.9ZM794.4 81.3c-3.2 0-6-.8-8.5-2.3a16.3 16.3 0 0 1-5.8-6.3 19.6 19.6 0 0 1-2-9.2c0-3.5.7-6.5 2.2-9.2 1.5-2.7 3.6-4.8 6.2-6.3 2.7-1.5 5.7-2.3 9.2-2.3 3.4 0 6.4.8 9 2.3a16 16 0 0 1 6.3 6.3 18 18 0 0 1 2.3 9.2h-3.8c0 3.5-.6 6.6-2 9.2a13.8 13.8 0 0 1-13.1 8.5Zm1.2 14.2c-3 0-5.9-.6-8.5-1.8a18 18 0 0 1-6.8-5.2c-.5-.7-.7-1.5-.6-2.3a3 3 0 0 1 1.3-1.8c.7-.5 1.5-.7 2.3-.5.9.2 1.6.6 2 1.3 1.2 1.4 2.7 2.5 4.4 3.4a14 14 0 0 0 6 1.2c2 0 4-.5 5.6-1.5 1.8-1 3.2-2.4 4.2-4.4 1-1.9 1.5-4.2 1.5-7v-9l2.1-5.7 4.2 1.3v13.9c0 3.3-.8 6.4-2.2 9.1a17 17 0 0 1-15.5 9Zm0-20a10.5 10.5 0 0 0 9.9-5.8c1-1.8 1.5-3.8 1.5-6.2 0-2.3-.5-4.4-1.5-6.2-.9-1.8-2.2-3.2-4-4.3-1.6-1-3.6-1.5-5.8-1.5-2.2 0-4.2.5-5.9 1.5-1.7 1-3 2.5-4 4.3-1 1.8-1.5 3.9-1.5 6.2 0 2.4.5 4.4 1.5 6.2a11 11 0 0 0 9.9 5.8ZM13.7 201c-1 0-1.7-.3-2.3-1-.7-.6-1-1.4-1-2.3v-43.4a3 3 0 0 1 1-2.3c.6-.7 1.4-1 2.3-1 1.3 0 2.3.6 3 1.8l20 40.1h-2l19.5-40a3.2 3.2 0 0 1 3-1.9c.9 0 1.6.3 2.3 1a3 3 0 0 1 1 2.3v43.4c0 1-.4 1.7-1 2.3-.7.7-1.5 1-2.4 1-1 0-1.7-.3-2.3-1-.7-.6-1-1.4-1-2.3v-34.1l1.3-.4-16.8 34.2a3.3 3.3 0 0 1-2.9 1.7c-1.4 0-2.4-.7-3-2l-16.6-33.2 1.3-.3v34c0 1-.4 1.8-1 2.4-.6.7-1.4 1-2.4 1ZM88.3 201c-1 0-1.7-.3-2.4-1-.6-.6-1-1.4-1-2.3v-15l-17-26.5c-.6-.9-.8-1.7-.6-2.5a3 3 0 0 1 1-2c.7-.4 1.4-.7 2.2-.7.7 0 1.3.2 1.8.5.4.3.8.8 1.2 1.4l16.2 25.8h-2.5l16.5-26a3.5 3.5 0 0 1 3-1.7c.7 0 1.3.3 1.8.8.6.6.8 1.2 1 2 0 .8-.2 1.6-.7 2.4l-17.2 26.6v14.9c0 1-.3 1.7-1 2.3-.6.7-1.4 1-2.3 1ZM138.2 201c-1 0-1.7-.3-2.3-1-.7-.6-1-1.4-1-2.3v-43.4a3 3 0 0 1 1-2.3c.6-.7 1.4-1 2.3-1H151c3.2 0 6 .7 8.5 2.1 2.5 1.4 4.4 3.4 5.8 6a17 17 0 0 1 2.1 8.5c0 3.1-.7 5.9-2.1 8.3a14.5 14.5 0 0 1-5.8 5.7c-2.4 1.4-5.3 2-8.5 2h-9.4v14c0 1-.4 1.8-1 2.4a3 3 0 0 1-2.4 1Zm3.4-23.5h9.4c2 0 3.7-.4 5.2-1.3 1.5-.8 2.7-2 3.5-3.5.9-1.5 1.3-3.2 1.3-5.1 0-2-.4-3.8-1.3-5.4a9.5 9.5 0 0 0-8.7-5h-9.4v20.3ZM188.8 201.3a17 17 0 0 1-17.7-17.7c0-3.6.7-6.6 2.2-9.3 1.6-2.7 3.7-4.8 6.3-6.3 2.7-1.5 5.7-2.3 9.2-2.3 3.4 0 6.4.8 9 2.3a16 16 0 0 1 6.3 6.3 18 18 0 0 1 2.3 9.2c0 3.5-.8 6.6-2.3 9.2a16.5 16.5 0 0 1-15.3 8.6Zm0-5.8a10.5 10.5 0 0 0 9.9-5.8c.9-1.8 1.4-3.8 1.4-6.2 0-2.3-.5-4.4-1.5-6.2-1-1.8-2.2-3.2-4-4.3-1.7-1-3.6-1.5-5.8-1.5-2.3 0-4.2.5-6 1.5-1.6 1-3 2.5-4 4.3-1 1.8-1.4 3.9-1.4 6.2 0 2.4.5 4.4 1.4 6.2a11 11 0 0 0 10 5.8ZM219.2 179.1c0-2.5.6-4.8 1.9-6.8a14 14 0 0 1 12.1-6.7c2.6 0 4.5.4 5.7 1.3 1.3.8 1.8 1.8 1.5 3-.1.5-.4 1-.8 1.3-.3.3-.7.5-1.2.6H237a18 18 0 0 0-7.4-.2c-2.2.5-3.9 1.4-5.2 2.6a6.7 6.7 0 0 0-1.8 5h-3.3Zm0 21.9c-1 0-1.7-.3-2.3-.8-.6-.5-.8-1.3-.8-2.4v-28.6c0-1 .3-1.8.8-2.4.6-.5 1.3-.8 2.4-.8 1 0 1.8.3 2.3.8.6.5.9 1.3.9 2.4v28.6c0 1-.3 1.8-.9 2.4-.5.5-1.3.8-2.3.8ZM260 201a10.6 10.6 0 0 1-9.9-6c-1-2-1.4-4-1.4-6.4V158c0-1 .3-1.8.9-2.3.6-.6 1.3-1 2.3-1 1 0 1.7.4 2.3 1 .6.5.9 1.3.9 2.3v30.5c0 1.7.4 3.1 1.4 4.3 1 1.1 2 1.7 3.4 1.7h2.2c.8 0 1.4.3 2 .9.5.6.8 1.4.8 2.3 0 1-.4 1.7-1.1 2.3a4 4 0 0 1-2.7.9h-1.2Zm-14.3-28.2a3 3 0 0 1-2.2-.8c-.5-.5-.8-1.1-.8-2 0-.8.3-1.4.8-2a3 3 0 0 1 2.2-.7h14.8a3 3 0 0 1 2.2.7c.5.6.8 1.2.8 2 0 .9-.3 1.5-.8 2a3 3 0 0 1-2.2.8h-14.8ZM276.7 201c-.8 0-1.6-.3-2.2-.9a3 3 0 0 1-1-2.4v-31.5c0-3 .6-5.8 1.8-8 1.3-2.3 3-4 5.1-5.3 2.2-1.2 4.7-1.9 7.6-1.9 1 0 1.7.3 2.3.8.6.6 1 1.3 1 2.2 0 .8-.4 1.5-1 2-.6.6-1.4.9-2.3.9-1.6 0-3 .4-4.2 1a7.7 7.7 0 0 0-2.8 3.1 10 10 0 0 0-1 4.5v32.2c0 1-.2 1.8-.8 2.4-.6.6-1.5.9-2.5.9Zm-6-28.2a3 3 0 0 1-2.1-.8c-.6-.5-.8-1.1-.8-2 0-.8.2-1.4.8-2a3 3 0 0 1 2.2-.7h15.8a3 3 0 0 1 2.2.7c.5.6.8 1.2.8 2 0 .9-.3 1.5-.8 2a3 3 0 0 1-2.2.8h-15.8ZM311 201.3a17 17 0 0 1-17.7-17.7c0-3.6.8-6.6 2.3-9.3 1.5-2.7 3.6-4.8 6.3-6.3 2.6-1.5 5.7-2.3 9.1-2.3 3.4 0 6.4.8 9.1 2.3a16 16 0 0 1 6.2 6.3 18 18 0 0 1 2.3 9.2c0 3.5-.7 6.6-2.2 9.2a16.5 16.5 0 0 1-15.4 8.6Zm0-5.8a10.5 10.5 0 0 0 9.9-5.8c1-1.8 1.4-3.8 1.4-6.2 0-2.3-.5-4.4-1.4-6.2-1-1.8-2.3-3.2-4-4.3-1.7-1-3.7-1.5-5.9-1.5s-4.2.5-5.9 1.5c-1.7 1-3 2.5-4 4.3-1 1.8-1.5 3.9-1.5 6.2 0 2.4.5 4.4 1.5 6.2a11 11 0 0 0 10 5.8ZM346.6 201c-1.8 0-3.5-.5-5-1.5-1.4-1-2.5-2.4-3.3-4.2-.9-1.8-1.3-3.8-1.3-6.1v-35c0-1 .3-1.7 1-2.3.5-.6 1.3-.9 2.2-.9 1 0 1.7.3 2.3 1 .6.5 1 1.3 1 2.2v35c0 1.5.2 2.8.8 3.9.6 1 1.4 1.5 2.3 1.5h1.6c.9 0 1.6.3 2 .9.6.6 1 1.4 1 2.3 0 1-.5 1.7-1.3 2.3-.8.6-1.8.9-3.1.9h-.2ZM361.4 201c-1 0-1.7-.3-2.4-.9-.6-.6-.9-1.4-.9-2.4v-28.4c0-1 .3-1.8 1-2.4.6-.6 1.4-1 2.3-1 1 0 1.8.4 2.4 1 .6.6.9 1.4.9 2.4v28.4c0 1-.3 1.8-1 2.4-.5.6-1.3.9-2.3.9Zm0-40.7c-1.1 0-2.1-.4-3-1.2a4.2 4.2 0 0 1-1.2-3 4 4 0 0 1 1.2-3 4.1 4.1 0 0 1 6 0 4.1 4.1 0 0 1 0 6 4 4 0 0 1-3 1.2ZM392.7 201.3a17 17 0 0 1-17.7-17.7c0-3.6.8-6.6 2.3-9.3 1.5-2.7 3.6-4.8 6.2-6.3 2.7-1.5 5.7-2.3 9.2-2.3 3.4 0 6.4.8 9 2.3a16 16 0 0 1 6.3 6.3 18 18 0 0 1 2.3 9.2c0 3.5-.8 6.6-2.2 9.2a16.5 16.5 0 0 1-15.4 8.6Zm0-5.8a10.5 10.5 0 0 0 9.9-5.8c1-1.8 1.4-3.8 1.4-6.2 0-2.3-.5-4.4-1.4-6.2-1-1.8-2.3-3.2-4-4.3-1.7-1-3.7-1.5-6-1.5-2.1 0-4 .5-5.8 1.5-1.7 1-3 2.5-4 4.3-1 1.8-1.5 3.9-1.5 6.2 0 2.4.5 4.4 1.5 6.2a11 11 0 0 0 9.9 5.8ZM438.9 174.9a4.4 4.4 0 0 1-3.1-7.6c.8-.9 1.9-1.3 3-1.3 1.3 0 2.4.4 3.2 1.3.9.9 1.3 2 1.3 3.2a4.4 4.4 0 0 1-4.4 4.4Zm.7 27.1a4.4 4.4 0 0 1-3.1-7.5c.9-1 1.9-1.4 3-1.4 1.3 0 2.4.5 3.2 1.4.9.8 1.3 1.9 1.3 3.1a4.4 4.4 0 0 1-4.4 4.4ZM450.4 216c-1 0-1.7-.3-2.3-1-.6-.6-1-1.4-1-2.4 0-.5.2-1 .4-1.6a71.2 71.2 0 0 0 6.8-27.5c0-9.1-2.2-18.3-6.7-27.4-.2-.4-.4-1-.4-1.6 0-1 .3-1.8.9-2.4.6-.7 1.4-1 2.3-1 1.4 0 2.5.7 3.1 2.2a71.2 71.2 0 0 1 7.2 30.2c0 5-.6 10.1-1.8 15.1-1.2 5-3 10.1-5.4 15.2-.4.8-.8 1.4-1.3 1.7-.5.3-1 .5-1.8.5Z" fill="#F9FAFB"/><path d="M25.2 81c-1 0-1.7-.3-2.4-1-.6-.6-1-1.4-1-2.3V31h6.7v46.7c0 1-.3 1.7-1 2.3-.6.7-1.4 1-2.3 1ZM8 37.2c-.9 0-1.6-.3-2.2-.9-.6-.6-.8-1.3-.8-2.2a3 3 0 0 1 3-3h34.3c.9 0 1.6.2 2.1.8.6.6 1 1.3 1 2.2a3 3 0 0 1-3 3H7.9ZM55.3 68.3c-.9 0-1.7-.3-2.3-1-.6-.6-1-1.4-1-2.3V34.3c0-1 .4-1.8 1-2.4.6-.6 1.4-.9 2.3-.9 1 0 1.8.3 2.4 1 .6.5.9 1.3.9 2.3V65c0 1-.3 1.7-.9 2.4-.6.6-1.4.9-2.4.9ZM81.6 81c-.9 0-1.7-.3-2.3-1-.6-.6-1-1.4-1-2.3V62.1c0-2.5-.4-4.5-1.3-6a8.2 8.2 0 0 0-3.6-3.4c-1.5-.8-3.2-1.1-5.2-1.1-1.8 0-3.4.3-4.9 1a9 9 0 0 0-3.4 3 7 7 0 0 0-1.3 4.2h-4a13.4 13.4 0 0 1 7.3-12.3c2.2-1.2 4.8-1.8 7.6-1.8 3 0 5.5.6 7.9 1.9 2.3 1.2 4.1 3 5.5 5.5a18 18 0 0 1 2 9v15.7c0 1-.3 1.7-1 2.4-.6.6-1.3.9-2.3.9Zm-26.3 0c-.9 0-1.7-.3-2.3-1-.6-.6-1-1.4-1-2.3V49.3c0-1 .4-1.8 1-2.4.6-.6 1.4-1 2.3-1 1 0 1.8.4 2.4 1 .6.6.9 1.4.9 2.4v28.5c0 1-.3 1.7-.9 2.4-.6.6-1.4.9-2.4.9ZM110.4 81.3c-3.2 0-6-.8-8.4-2.3a17.2 17.2 0 0 1-8-15.5 17.4 17.4 0 0 1 17.7-17.8 17.1 17.1 0 0 1 15.2 8.7c1.5 2.7 2.3 5.8 2.3 9.1h-2.5c0 3.4-.7 6.4-2.1 9.1a15.6 15.6 0 0 1-14.2 8.6Zm1.2-5.8c2.2 0 4.1-.5 5.9-1.5 1.7-1.1 3-2.5 4-4.3 1-1.9 1.5-4 1.5-6.2 0-2.3-.5-4.3-1.5-6.1a10.9 10.9 0 0 0-9.9-5.9 11.3 11.3 0 0 0-10 5.9c-.9 1.8-1.4 3.8-1.4 6.1s.5 4.3 1.5 6.2a12 12 0 0 0 4.1 4.3c1.8 1 3.7 1.5 5.8 1.5Zm14.4 5.6c-1 0-1.8-.3-2.4-1-.6-.6-.9-1.4-.9-2.3V68l1.2-6.8 5.3 2.3v14.3c0 1-.3 1.7-1 2.4-.5.6-1.3.9-2.2.9ZM168.5 81c-1 0-1.7-.2-2.4-.8-.5-.7-.8-1.5-.8-2.4V62.1c0-2.5-.5-4.5-1.4-6a8.2 8.2 0 0 0-3.6-3.4c-1.5-.8-3.3-1.1-5.2-1.1-1.8 0-3.4.3-4.9 1a9 9 0 0 0-3.4 3 7 7 0 0 0-1.3 4.2h-4a13.4 13.4 0 0 1 7.2-12.3c2.3-1.2 4.8-1.8 7.7-1.8 2.9 0 5.5.6 7.8 1.9 2.4 1.2 4.2 3 5.5 5.5a18 18 0 0 1 2 9v15.7c0 1-.2 1.7-.9 2.4-.6.6-1.3.9-2.3.9Zm-26.3 0c-1 0-1.7-.2-2.4-.8-.6-.7-.9-1.5-.9-2.4V49.3c0-1 .3-1.8 1-2.4.6-.6 1.4-1 2.3-1 1 0 1.8.4 2.4 1 .6.6.9 1.4.9 2.4v28.5c0 1-.3 1.7-1 2.4-.5.6-1.3.9-2.3.9ZM188.7 68.2l-4-4.4 19.7-17.5a2.8 2.8 0 0 1 4.2.2c.6.6.8 1.3.8 2.1a3 3 0 0 1-1 2l-19.7 17.6Zm-3 12.8c-1 0-1.7-.3-2.3-.8-.6-.6-.8-1.4-.8-2.3V34.2c0-1 .3-1.7.8-2.3.6-.6 1.4-.9 2.3-.9 1 0 1.7.3 2.2 1 .6.5 1 1.2 1 2.2v43.7c0 .9-.4 1.7-1 2.3a3 3 0 0 1-2.2.8Zm22.9-.3a3 3 0 0 1-2.3.7c-.9 0-1.5-.4-2.1-1.1l-13-16 4.5-4.3L209 76.4c.6.7.8 1.4.7 2.2 0 .8-.4 1.5-1.1 2ZM253.4 81c-1 0-1.7-.3-2.3-1-.7-.6-1-1.4-1-2.3v-15l-17-26.5c-.6-.9-.8-1.7-.7-2.5a3 3 0 0 1 1-2c.7-.4 1.4-.7 2.2-.7.8 0 1.3.2 1.8.5.4.3.8.8 1.2 1.4l16.2 25.8h-2.5l16.5-26a3.5 3.5 0 0 1 3-1.7c.7 0 1.4.3 1.9.8.5.6.8 1.2.9 2 0 .8-.2 1.6-.7 2.4l-17.2 26.6v14.9c0 1-.3 1.7-1 2.3-.6.7-1.4 1-2.3 1ZM290.1 81.3a17 17 0 0 1-17.7-17.7c0-3.6.8-6.6 2.3-9.3 1.5-2.7 3.6-4.8 6.3-6.3 2.6-1.5 5.7-2.3 9.1-2.3 3.4 0 6.5.8 9.1 2.3a16 16 0 0 1 6.2 6.3 18 18 0 0 1 2.3 9.2c0 3.5-.7 6.6-2.2 9.2a16.5 16.5 0 0 1-15.4 8.6Zm0-5.8a10.5 10.5 0 0 0 9.9-5.8c1-1.8 1.5-3.8 1.5-6.2 0-2.3-.5-4.4-1.5-6.2-1-1.8-2.3-3.2-4-4.3-1.7-1-3.6-1.5-5.9-1.5-2.2 0-4.1.5-5.9 1.5-1.7 1-3 2.5-4 4.3-1 1.8-1.5 3.9-1.5 6.2 0 2.4.5 4.4 1.5 6.2a11 11 0 0 0 10 5.8ZM332.2 81.3c-3 0-5.6-.6-8-1.8a14.1 14.1 0 0 1-5.5-5.6c-1.3-2.4-2-5.4-2-9V49.2c0-1 .3-1.7 1-2.3.6-.7 1.4-1 2.3-1 1 0 1.7.3 2.3 1a3 3 0 0 1 1 2.3v15.7c0 2.4.4 4.4 1.3 6a8.6 8.6 0 0 0 3.7 3.4 12 12 0 0 0 10 0 9 9 0 0 0 3.5-2.9 7.2 7.2 0 0 0 1.2-4.2h4a13.8 13.8 0 0 1-7.3 12.2 15.4 15.4 0 0 1-7.5 2Zm14.1-.3c-1 0-1.7-.3-2.4-.9-.6-.6-.9-1.4-.9-2.4V49.2c0-1 .3-1.8 1-2.4.6-.6 1.4-.9 2.3-.9 1 0 1.8.3 2.4 1 .6.5.9 1.3.9 2.3v28.5c0 1-.3 1.8-1 2.4-.5.6-1.3.9-2.3.9ZM379.8 81c-1 0-1.8-.3-2.4-1-.6-.6-1-1.4-1-2.3V34.3a3 3 0 0 1 1-2.3c.6-.7 1.4-1 2.4-1h28.9c1 0 1.8.3 2.4 1 .6.5.8 1.2.8 2.2 0 .8-.2 1.6-.8 2.1-.6.6-1.4.9-2.4.9H383v15.5h18.4c1 0 1.7.3 2.3 1 .6.5 1 1.2 1 2a3 3 0 0 1-1 2.3c-.6.6-1.4.9-2.3.9H383v18.8c0 1-.3 1.7-1 2.3-.6.7-1.4 1-2.3 1ZM435.7 81.3A17 17 0 0 1 418 63.6c0-3.6.8-6.6 2.3-9.3 1.5-2.7 3.6-4.8 6.2-6.3 2.7-1.5 5.7-2.3 9.2-2.3 3.4 0 6.4.8 9 2.3a16 16 0 0 1 6.3 6.3 18 18 0 0 1 2.3 9.2c0 3.5-.8 6.6-2.2 9.2a16.5 16.5 0 0 1-15.4 8.6Zm0-5.8a10.5 10.5 0 0 0 9.9-5.8c1-1.8 1.4-3.8 1.4-6.2 0-2.3-.5-4.4-1.4-6.2-1-1.8-2.3-3.2-4-4.3-1.7-1-3.7-1.5-6-1.5-2.1 0-4 .5-5.8 1.5-1.7 1-3 2.5-4 4.3-1 1.8-1.5 3.9-1.5 6.2 0 2.4.5 4.4 1.5 6.2a11 11 0 0 0 9.9 5.8ZM466.1 59.1c0-2.5.7-4.8 1.9-6.8a14 14 0 0 1 12.2-6.7c2.5 0 4.4.4 5.7 1.3 1.2.8 1.7 1.8 1.4 3-.1.5-.4 1-.7 1.3-.4.3-.8.5-1.3.6h-1.5a18 18 0 0 0-7.4-.2c-2.1.5-3.9 1.4-5.1 2.6a6.7 6.7 0 0 0-1.9 5h-3.3Zm.1 21.9c-1 0-1.8-.3-2.4-.8-.5-.5-.8-1.3-.8-2.4V49.2c0-1 .3-1.8.8-2.4.6-.5 1.4-.8 2.4-.8s1.9.3 2.4.8.8 1.3.8 2.4v28.6c0 1-.3 1.8-.8 2.4-.5.5-1.3.8-2.4.8ZM524.1 81c-.7 0-1.4-.2-2-.7-.6-.5-1-1.1-1.3-2L508 35.7c-.5-1.4-.4-2.5 0-3.3.5-.9 1.3-1.3 2.5-1.3.7 0 1.3.2 2 .7.5.3 1 1 1.2 1.8l11.2 39h-1.4L534 34c.1-.6.5-1.2 1.1-1.6.6-.4 1.3-.6 2-.6.8 0 1.4.1 2 .5.6.4 1 1 1.2 1.6l10.4 38.8h-1.2l11.2-39.4c.5-1.5 1.5-2.2 3.3-2.2 1.2 0 2 .5 2.3 1.4.3 1 .3 2 0 3.2l-12.9 42.7c-.3.8-.7 1.5-1.3 2a3 3 0 0 1-2 .7c-.8 0-1.5-.3-2.1-.8-.6-.5-1-1.1-1.2-1.8l-10.3-39.8h1.5l-10.4 39.7c-.3.8-.8 1.5-1.4 2a3 3 0 0 1-2 .7ZM580.5 81.3c-3.1 0-6-.8-8.4-2.3a17.2 17.2 0 0 1-8-15.5 17.4 17.4 0 0 1 17.7-17.8 17.1 17.1 0 0 1 15.2 8.7c1.6 2.7 2.4 5.8 2.4 9.1h-2.5c0 3.4-.8 6.4-2.2 9.1a15.6 15.6 0 0 1-14.2 8.6Zm1.3-5.8c2.1 0 4-.5 5.8-1.5 1.7-1.1 3-2.5 4-4.3 1-1.9 1.5-4 1.5-6.2 0-2.3-.5-4.3-1.5-6.1a10.9 10.9 0 0 0-9.8-5.9 11.3 11.3 0 0 0-10 5.9c-1 1.8-1.4 3.8-1.4 6.1s.5 4.3 1.4 6.2A12 12 0 0 0 576 74c1.8 1 3.7 1.5 5.9 1.5Zm14.3 5.6c-1 0-1.7-.3-2.4-1-.6-.6-.9-1.4-.9-2.3V68l1.2-6.8 5.4 2.3v14.3c0 1-.4 1.7-1 2.4-.6.6-1.4.9-2.3.9ZM621.8 81a10.6 10.6 0 0 1-9.8-6c-1-2-1.5-4-1.5-6.4V38c0-1 .3-1.8 1-2.3.5-.6 1.3-1 2.2-1 1 0 1.8.4 2.3 1 .6.5 1 1.3 1 2.3v30.5c0 1.7.4 3.1 1.4 4.3.9 1.1 2 1.7 3.4 1.7h2.2c.8 0 1.4.3 1.9.9.6.6.8 1.4.8 2.3 0 1-.3 1.7-1 2.3a4 4 0 0 1-2.7.9h-1.2Zm-14.2-28.2a3 3 0 0 1-2.2-.8c-.5-.5-.8-1.1-.8-2 0-.8.3-1.4.8-2a3 3 0 0 1 2.2-.7h14.8a3 3 0 0 1 2.2.7c.5.6.8 1.2.8 2 0 .9-.3 1.5-.8 2a3 3 0 0 1-2.2.8h-14.8ZM650.6 81.3c-3.4 0-6.4-.8-9.1-2.3a17.5 17.5 0 0 1-6.3-6.4 18.4 18.4 0 0 1-2.2-9c0-3.5.7-6.6 2.2-9.3a16 16 0 0 1 6.2-6.3c2.6-1.5 5.5-2.3 9-2.3a16 16 0 0 1 12.5 5.8c.6.7.8 1.4.6 2.1-.2.7-.6 1.4-1.4 2-.6.4-1.3.5-2 .4-.7-.2-1.4-.6-2-1.2-2-2.2-4.7-3.3-7.8-3.3a10.8 10.8 0 0 0-9.7 5.7c-.9 1.8-1.4 3.9-1.4 6.3a11.5 11.5 0 0 0 5.4 10.4 13.3 13.3 0 0 0 9.9 1c1.2-.3 2.2-.9 3.2-1.6.7-.6 1.4-.9 2-1 .8 0 1.4.2 2 .6a3 3 0 0 1 1.2 2c.1.8-.2 1.5-.7 2-3.1 3-7 4.4-11.6 4.4ZM676.5 68.3c-1 0-1.8-.3-2.4-1-.6-.6-.9-1.4-.9-2.3V34.3c0-1 .3-1.8.9-2.4.6-.6 1.4-.9 2.4-.9s1.7.3 2.3 1c.6.5 1 1.3 1 2.3V65c0 1-.4 1.7-1 2.4-.6.6-1.4.9-2.3.9ZM702.8 81c-1 0-1.8-.3-2.4-1-.6-.6-.9-1.4-.9-2.3V62.1c0-2.5-.4-4.5-1.3-6a8.2 8.2 0 0 0-3.7-3.4c-1.5-.8-3.2-1.1-5.2-1.1-1.8 0-3.4.3-4.8 1a9 9 0 0 0-3.5 3 7 7 0 0 0-1.3 4.2h-4a13.4 13.4 0 0 1 7.3-12.3c2.3-1.2 4.8-1.8 7.6-1.8 3 0 5.6.6 7.9 1.9 2.3 1.2 4.2 3 5.5 5.5a18 18 0 0 1 2 9v15.7c0 1-.3 1.7-1 2.4-.5.6-1.3.9-2.2.9Zm-26.3 0c-1 0-1.8-.3-2.4-1-.6-.6-.9-1.4-.9-2.3V49.3c0-1 .3-1.8.9-2.4.6-.6 1.4-1 2.4-1s1.7.4 2.3 1c.6.6 1 1.4 1 2.4v28.5c0 1-.4 1.7-1 2.4-.6.6-1.4.9-2.3.9ZM720.8 81c-1 0-1.7-.3-2.4-.9-.6-.6-.9-1.4-.9-2.4V49.3c0-1 .3-1.8 1-2.4.6-.6 1.4-1 2.3-1 1 0 1.8.4 2.4 1 .6.6.9 1.4.9 2.4v28.4c0 1-.3 1.8-1 2.4-.5.6-1.3.9-2.3.9Zm0-40.7c-1.2 0-2.2-.4-3-1.2a4.2 4.2 0 0 1-1.2-3 4 4 0 0 1 1.2-3 4.1 4.1 0 0 1 6 0 4.1 4.1 0 0 1 0 6 4 4 0 0 1-3 1.2ZM765.8 81c-1 0-1.8-.2-2.4-.8-.6-.7-.9-1.5-.9-2.4V62.1c0-2.5-.4-4.5-1.3-6a8.2 8.2 0 0 0-3.7-3.4c-1.5-.8-3.2-1.1-5.2-1.1-1.8 0-3.4.3-4.8 1a9 9 0 0 0-3.5 3 7 7 0 0 0-1.3 4.2h-4a13.4 13.4 0 0 1 7.3-12.3c2.3-1.2 4.8-1.8 7.6-1.8 3 0 5.6.6 7.9 1.9 2.3 1.2 4.2 3 5.5 5.5a18 18 0 0 1 2 9v15.7c0 1-.3 1.7-1 2.4-.5.6-1.3.9-2.2.9Zm-26.3 0c-1 0-1.8-.2-2.4-.8-.6-.7-.9-1.5-.9-2.4V49.3c0-1 .3-1.8.9-2.4.6-.6 1.4-1 2.4-1s1.7.4 2.3 1c.6.6 1 1.4 1 2.4v28.5c0 1-.4 1.7-1 2.4-.6.6-1.4.9-2.3.9ZM794.4 81.3c-3.2 0-6-.8-8.5-2.3a16.3 16.3 0 0 1-5.8-6.3 19.6 19.6 0 0 1-2-9.2c0-3.5.7-6.5 2.2-9.2 1.5-2.7 3.6-4.8 6.2-6.3 2.7-1.5 5.7-2.3 9.2-2.3 3.4 0 6.4.8 9 2.3a16 16 0 0 1 6.3 6.3 18 18 0 0 1 2.3 9.2h-3.8c0 3.5-.6 6.6-2 9.2a13.8 13.8 0 0 1-13.1 8.5Zm1.2 14.2c-3 0-5.9-.6-8.5-1.8a18 18 0 0 1-6.8-5.2c-.5-.7-.7-1.5-.6-2.3a3 3 0 0 1 1.3-1.8c.7-.5 1.5-.7 2.3-.5.9.2 1.6.6 2 1.3 1.2 1.4 2.7 2.5 4.4 3.4a14 14 0 0 0 6 1.2c2 0 4-.5 5.6-1.5 1.8-1 3.2-2.4 4.2-4.4 1-1.9 1.5-4.2 1.5-7v-9l2.1-5.7 4.2 1.3v13.9c0 3.3-.8 6.4-2.2 9.1a17 17 0 0 1-15.5 9Zm0-20a10.5 10.5 0 0 0 9.9-5.8c1-1.8 1.5-3.8 1.5-6.2 0-2.3-.5-4.4-1.5-6.2-.9-1.8-2.2-3.2-4-4.3-1.6-1-3.6-1.5-5.8-1.5-2.2 0-4.2.5-5.9 1.5-1.7 1-3 2.5-4 4.3-1 1.8-1.5 3.9-1.5 6.2 0 2.4.5 4.4 1.5 6.2a11 11 0 0 0 9.9 5.8ZM13.7 201c-1 0-1.7-.3-2.3-1-.7-.6-1-1.4-1-2.3v-43.4a3 3 0 0 1 1-2.3c.6-.7 1.4-1 2.3-1 1.3 0 2.3.6 3 1.8l20 40.1h-2l19.5-40a3.2 3.2 0 0 1 3-1.9c.9 0 1.6.3 2.3 1a3 3 0 0 1 1 2.3v43.4c0 1-.4 1.7-1 2.3-.7.7-1.5 1-2.4 1-1 0-1.7-.3-2.3-1-.7-.6-1-1.4-1-2.3v-34.1l1.3-.4-16.8 34.2a3.3 3.3 0 0 1-2.9 1.7c-1.4 0-2.4-.7-3-2l-16.6-33.2 1.3-.3v34c0 1-.4 1.8-1 2.4-.6.7-1.4 1-2.4 1ZM88.3 201c-1 0-1.7-.3-2.4-1-.6-.6-1-1.4-1-2.3v-15l-17-26.5c-.6-.9-.8-1.7-.6-2.5a3 3 0 0 1 1-2c.7-.4 1.4-.7 2.2-.7.7 0 1.3.2 1.8.5.4.3.8.8 1.2 1.4l16.2 25.8h-2.5l16.5-26a3.5 3.5 0 0 1 3-1.7c.7 0 1.3.3 1.8.8.6.6.8 1.2 1 2 0 .8-.2 1.6-.7 2.4l-17.2 26.6v14.9c0 1-.3 1.7-1 2.3-.6.7-1.4 1-2.3 1ZM138.2 201c-1 0-1.7-.3-2.3-1-.7-.6-1-1.4-1-2.3v-43.4a3 3 0 0 1 1-2.3c.6-.7 1.4-1 2.3-1H151c3.2 0 6 .7 8.5 2.1 2.5 1.4 4.4 3.4 5.8 6a17 17 0 0 1 2.1 8.5c0 3.1-.7 5.9-2.1 8.3a14.5 14.5 0 0 1-5.8 5.7c-2.4 1.4-5.3 2-8.5 2h-9.4v14c0 1-.4 1.8-1 2.4a3 3 0 0 1-2.4 1Zm3.4-23.5h9.4c2 0 3.7-.4 5.2-1.3 1.5-.8 2.7-2 3.5-3.5.9-1.5 1.3-3.2 1.3-5.1 0-2-.4-3.8-1.3-5.4a9.5 9.5 0 0 0-8.7-5h-9.4v20.3ZM188.8 201.3a17 17 0 0 1-17.7-17.7c0-3.6.7-6.6 2.2-9.3 1.6-2.7 3.7-4.8 6.3-6.3 2.7-1.5 5.7-2.3 9.2-2.3 3.4 0 6.4.8 9 2.3a16 16 0 0 1 6.3 6.3 18 18 0 0 1 2.3 9.2c0 3.5-.8 6.6-2.3 9.2a16.5 16.5 0 0 1-15.3 8.6Zm0-5.8a10.5 10.5 0 0 0 9.9-5.8c.9-1.8 1.4-3.8 1.4-6.2 0-2.3-.5-4.4-1.5-6.2-1-1.8-2.2-3.2-4-4.3-1.7-1-3.6-1.5-5.8-1.5-2.3 0-4.2.5-6 1.5-1.6 1-3 2.5-4 4.3-1 1.8-1.4 3.9-1.4 6.2 0 2.4.5 4.4 1.4 6.2a11 11 0 0 0 10 5.8ZM219.2 179.1c0-2.5.6-4.8 1.9-6.8a14 14 0 0 1 12.1-6.7c2.6 0 4.5.4 5.7 1.3 1.3.8 1.8 1.8 1.5 3-.1.5-.4 1-.8 1.3-.3.3-.7.5-1.2.6H237a18 18 0 0 0-7.4-.2c-2.2.5-3.9 1.4-5.2 2.6a6.7 6.7 0 0 0-1.8 5h-3.3Zm0 21.9c-1 0-1.7-.3-2.3-.8-.6-.5-.8-1.3-.8-2.4v-28.6c0-1 .3-1.8.8-2.4.6-.5 1.3-.8 2.4-.8 1 0 1.8.3 2.3.8.6.5.9 1.3.9 2.4v28.6c0 1-.3 1.8-.9 2.4-.5.5-1.3.8-2.3.8ZM260 201a10.6 10.6 0 0 1-9.9-6c-1-2-1.4-4-1.4-6.4V158c0-1 .3-1.8.9-2.3.6-.6 1.3-1 2.3-1 1 0 1.7.4 2.3 1 .6.5.9 1.3.9 2.3v30.5c0 1.7.4 3.1 1.4 4.3 1 1.1 2 1.7 3.4 1.7h2.2c.8 0 1.4.3 2 .9.5.6.8 1.4.8 2.3 0 1-.4 1.7-1.1 2.3a4 4 0 0 1-2.7.9h-1.2Zm-14.3-28.2a3 3 0 0 1-2.2-.8c-.5-.5-.8-1.1-.8-2 0-.8.3-1.4.8-2a3 3 0 0 1 2.2-.7h14.8a3 3 0 0 1 2.2.7c.5.6.8 1.2.8 2 0 .9-.3 1.5-.8 2a3 3 0 0 1-2.2.8h-14.8ZM276.7 201c-.8 0-1.6-.3-2.2-.9a3 3 0 0 1-1-2.4v-31.5c0-3 .6-5.8 1.8-8 1.3-2.3 3-4 5.1-5.3 2.2-1.2 4.7-1.9 7.6-1.9 1 0 1.7.3 2.3.8.6.6 1 1.3 1 2.2 0 .8-.4 1.5-1 2-.6.6-1.4.9-2.3.9-1.6 0-3 .4-4.2 1a7.7 7.7 0 0 0-2.8 3.1 10 10 0 0 0-1 4.5v32.2c0 1-.2 1.8-.8 2.4-.6.6-1.5.9-2.5.9Zm-6-28.2a3 3 0 0 1-2.1-.8c-.6-.5-.8-1.1-.8-2 0-.8.2-1.4.8-2a3 3 0 0 1 2.2-.7h15.8a3 3 0 0 1 2.2.7c.5.6.8 1.2.8 2 0 .9-.3 1.5-.8 2a3 3 0 0 1-2.2.8h-15.8ZM311 201.3a17 17 0 0 1-17.7-17.7c0-3.6.8-6.6 2.3-9.3 1.5-2.7 3.6-4.8 6.3-6.3 2.6-1.5 5.7-2.3 9.1-2.3 3.4 0 6.4.8 9.1 2.3a16 16 0 0 1 6.2 6.3 18 18 0 0 1 2.3 9.2c0 3.5-.7 6.6-2.2 9.2a16.5 16.5 0 0 1-15.4 8.6Zm0-5.8a10.5 10.5 0 0 0 9.9-5.8c1-1.8 1.4-3.8 1.4-6.2 0-2.3-.5-4.4-1.4-6.2-1-1.8-2.3-3.2-4-4.3-1.7-1-3.7-1.5-5.9-1.5s-4.2.5-5.9 1.5c-1.7 1-3 2.5-4 4.3-1 1.8-1.5 3.9-1.5 6.2 0 2.4.5 4.4 1.5 6.2a11 11 0 0 0 10 5.8ZM346.6 201c-1.8 0-3.5-.5-5-1.5-1.4-1-2.5-2.4-3.3-4.2-.9-1.8-1.3-3.8-1.3-6.1v-35c0-1 .3-1.7 1-2.3.5-.6 1.3-.9 2.2-.9 1 0 1.7.3 2.3 1 .6.5 1 1.3 1 2.2v35c0 1.5.2 2.8.8 3.9.6 1 1.4 1.5 2.3 1.5h1.6c.9 0 1.6.3 2 .9.6.6 1 1.4 1 2.3 0 1-.5 1.7-1.3 2.3-.8.6-1.8.9-3.1.9h-.2ZM361.4 201c-1 0-1.7-.3-2.4-.9-.6-.6-.9-1.4-.9-2.4v-28.4c0-1 .3-1.8 1-2.4.6-.6 1.4-1 2.3-1 1 0 1.8.4 2.4 1 .6.6.9 1.4.9 2.4v28.4c0 1-.3 1.8-1 2.4-.5.6-1.3.9-2.3.9Zm0-40.7c-1.1 0-2.1-.4-3-1.2a4.2 4.2 0 0 1-1.2-3 4 4 0 0 1 1.2-3 4.1 4.1 0 0 1 6 0 4.1 4.1 0 0 1 0 6 4 4 0 0 1-3 1.2ZM392.7 201.3a17 17 0 0 1-17.7-17.7c0-3.6.8-6.6 2.3-9.3 1.5-2.7 3.6-4.8 6.2-6.3 2.7-1.5 5.7-2.3 9.2-2.3 3.4 0 6.4.8 9 2.3a16 16 0 0 1 6.3 6.3 18 18 0 0 1 2.3 9.2c0 3.5-.8 6.6-2.2 9.2a16.5 16.5 0 0 1-15.4 8.6Zm0-5.8a10.5 10.5 0 0 0 9.9-5.8c1-1.8 1.4-3.8 1.4-6.2 0-2.3-.5-4.4-1.4-6.2-1-1.8-2.3-3.2-4-4.3-1.7-1-3.7-1.5-6-1.5-2.1 0-4 .5-5.8 1.5-1.7 1-3 2.5-4 4.3-1 1.8-1.5 3.9-1.5 6.2 0 2.4.5 4.4 1.5 6.2a11 11 0 0 0 9.9 5.8ZM438.9 174.9a4.4 4.4 0 0 1-3.1-7.6c.8-.9 1.9-1.3 3-1.3 1.3 0 2.4.4 3.2 1.3.9.9 1.3 2 1.3 3.2a4.4 4.4 0 0 1-4.4 4.4Zm.7 27.1a4.4 4.4 0 0 1-3.1-7.5c.9-1 1.9-1.4 3-1.4 1.3 0 2.4.5 3.2 1.4.9.8 1.3 1.9 1.3 3.1a4.4 4.4 0 0 1-4.4 4.4ZM450.4 216c-1 0-1.7-.3-2.3-1-.6-.6-1-1.4-1-2.4 0-.5.2-1 .4-1.6a71.2 71.2 0 0 0 6.8-27.5c0-9.1-2.2-18.3-6.7-27.4-.2-.4-.4-1-.4-1.6 0-1 .3-1.8.9-2.4.6-.7 1.4-1 2.3-1 1.4 0 2.5.7 3.1 2.2a71.2 71.2 0 0 1 7.2 30.2c0 5-.6 10.1-1.8 15.1-1.2 5-3 10.1-5.4 15.2-.4.8-.8 1.4-1.3 1.7-.5.3-1 .5-1.8.5Z" stroke="#37B3CA" stroke-width="8" mask="url(#b)"/></svg>