<svg width="108" height="104" fill="none" xmlns="http://www.w3.org/2000/svg"><g filter="url(#a)"><path fill-rule="evenodd" clip-rule="evenodd" d="M8.8 92c-2.8-1.2-4.5-2.5-4.4-4 .2-3.4 12.3-5.6 25.4-5 2.4.1 4.6.3 6.7.6l2.6.3a100.9 100.9 0 0 0 16.5.7H64c13.1.6 25.4 3.8 25.2 7.3 0 2-3.9 3.7-9.7 4.6-8.2 1.6-21.3 2.7-32.5 1.5-14.5.2-33-3.4-38.3-6Z" fill="#B7B7B7"/></g><path fill-rule="evenodd" clip-rule="evenodd" d="M6.7 89.2c-2.8-1.1-4.4-2.5-4.4-3.9.2-3.5 12.4-5.6 25.4-5a84.8 84.8 0 0 1 9.3.8c2.3.3 5.2.7 8.2.8h8.3c1.5-.1 2.8-.2 3.8-.1H62c13 .6 25.3 3.8 25.1 7.3 0 2-3.9 3.7-9.6 4.6-8.3 1.6-21.3 2.7-32.6 1.5-14.5.2-33-3.4-38.3-6Z" fill="#D0B7B7"/><g filter="url(#b)"><path fill-rule="evenodd" clip-rule="evenodd" d="M29 65.8c-1-5.2-.9-11 .9-17C34.3 34 47.5 25.4 58.2 28.5c2 .6 3.7 1.5 5.2 2.7l1.8 1.4c1.7 1.4 3.7 3 6.2 3.8 2.5.8 5.2.5 7.3.2 1.4-.1 2.5-.2 3.4-.1 1.3 0 2.7.2 4 .6 10.7 3.2 17.5 17.3 13.2 32.2-2.6 8.7-8 15.6-14.1 19.2-9 6.3-21.8 10.4-30.2 4.7-12.8 0-24.6-16.3-26-27.4Z" fill="#898989"/></g><path fill-rule="evenodd" clip-rule="evenodd" d="M26 62.1c-1-5.1-.8-11 1-17C31.4 30.4 44.6 21.8 55.3 25c2 .5 3.7 1.5 5.1 2.7l1.9 1.4c1.7 1.4 3.7 3 6.2 3.8 2.5.7 5.1.4 7.3.2 1.4-.2 2.5-.3 3.4-.1 1.3 0 2.7.2 4 .6 10.7 3.1 17.5 17.3 13.1 32.1-2.5 8.8-7.9 15.7-14 19.2-9 6.3-21.8 10.4-30.2 4.8-12.8 0-24.6-16.3-26-27.5Z" fill="#FF8282"/><g filter="url(#c)"><path d="m72.2 37.4-.9-1.6L73.6 23l7-9.4L90 6.8l5.3 3.5-11 4.6-8.4 9-3.5 12.2-.2 1.3Z" fill="#898989"/></g><path d="m67.9 38.4-.9-1.8 3-14.1 7.8-10.9 10-8.2L93 7l-11.6 5.9-9 10.4L68 36.9l-.2 1.5Z" fill="#A26C6C"/><g filter="url(#d)"><path d="M73.9 36.8c-1.8 1.4-3.7 2.9-6.8 1.9a6 6 0 0 1-4.3-5.6c.7-2 1.8 2.7 5 3.7 3 1 6.7-2.1 6 0Z" fill="#AB6969"/></g><defs><filter id="a" x=".4" y="78.9" width="92.9" height="23.6" filterUnits="userSpaceOnUse" color-interpolation-filters="sRGB"><feFlood flood-opacity="0" result="BackgroundImageFix"/><feBlend in="SourceGraphic" in2="BackgroundImageFix" result="shape"/><feGaussianBlur stdDeviation="2" result="effect1_foregroundBlur_12_1046"/></filter><filter id="b" x="24.3" y="23.9" width="80.3" height="76" filterUnits="userSpaceOnUse" color-interpolation-filters="sRGB"><feFlood flood-opacity="0" result="BackgroundImageFix"/><feBlend in="SourceGraphic" in2="BackgroundImageFix" result="shape"/><feGaussianBlur stdDeviation="2" result="effect1_foregroundBlur_12_1046"/></filter><filter id="c" x="67.3" y="2.8" width="32" height="38.6" filterUnits="userSpaceOnUse" color-interpolation-filters="sRGB"><feFlood flood-opacity="0" result="BackgroundImageFix"/><feBlend in="SourceGraphic" in2="BackgroundImageFix" result="shape"/><feGaussianBlur stdDeviation="2" result="effect1_foregroundBlur_12_1046"/></filter><filter id="d" x="62.8" y="32.6" width="11.2" height="7.4" filterUnits="userSpaceOnUse" color-interpolation-filters="sRGB"><feFlood flood-opacity="0" result="BackgroundImageFix"/><feBlend in="SourceGraphic" in2="BackgroundImageFix" result="shape"/><feColorMatrix in="SourceAlpha" values="0 0 0 0 0 0 0 0 0 0 0 0 0 0 0 0 0 0 127 0" result="hardAlpha"/><feOffset dy="2"/><feGaussianBlur stdDeviation=".5"/><feComposite in2="hardAlpha" operator="arithmetic" k2="-1" k3="1"/><feColorMatrix values="0 0 0 0 0 0 0 0 0 0 0 0 0 0 0 0 0 0 0.25 0"/><feBlend in2="shape" result="effect1_innerShadow_12_1046"/></filter></defs></svg>