<svg width="1606" height="905" fill="none" xmlns="http://www.w3.org/2000/svg"><g filter="url(#a)"><path fill-rule="evenodd" clip-rule="evenodd" d="M8.5 15.1h1591.7V751h-1c-97.6-9.7-81.6-65.6-61.5-135.6 19.6-68.4 43.1-150.3-31.3-216-16.6-7.1-36-10.1-57.5-4.4a192.7 192.7 0 0 0-57.4 23.6l-1.5 1.2c-4.5 3.6-16.2 13-20.8 24a37.4 37.4 0 0 0-2.5 9.5c-.2 12.6.4 26 1 39.5 2.5 55.5 5 110.8-44 112.9-51.4-6.8-45-61-38.8-114.8 2.8-23.5 5.5-47 3.4-66.3-.6-2.4-1.4-4.7-3-6.2a24 24 0 0 0-7.1-4.8c-14-4.9-23.8-16.5-23.8-30 0-1 0-2 .2-3l-.2.2c.2-1.1.2-2.4 0-3.8-.7-4-3-14.2-13.9-15.5-12.5-1.5-20.2 11.7-22.2 15.6a88 88 0 0 1-2.9 6.4s-9 20-18.5 37.9c-10 37-7.9 68-6.3 91.2 2 29 3.2 46.1-20.7 49-27.8 3.2-37-7.8-38.8-25.1-3.3-7.4-7.6-16.4-14.4-16.4-17.2 0-24.7 17.6-26.9 24.2-9 68.3-32.7 120-60.7 120-22.7 0-48.1-38.4-58.8-87-8.4-22.8-27.1-61.3-57.6-59.1-14 1.8-24.7 12.8-32 33.2-4.1 27.8-4 59.8-4 92.6 0 54 .2 110-18.4 152.3-9.3 27.5-35.6 86.2-80.4 88.6-33.1-9.6-49.5-55.8-53.7-69.9-.8-2-2.2-5.2-4.4-5.2-2.5-.3-4.5 3.1-5.8 5.3l-.5.8c-1.4 3.1-2.2 6.5-3 9.8-.3 1.9-.7 3.7-1.2 5.4a587.1 587.1 0 0 1-14.3 69H8.5V15.1Z" fill="#C4B2A6"/></g><path fill-rule="evenodd" clip-rule="evenodd" d="M1601 0H0v900h689.5c5.2-17.4 10-40.7 15-72l1.3-5.5a51.5 51.5 0 0 1 3.4-10.8c1.3-2.2 3.3-5.6 5.8-5.3 2.2 0 3.6 3.2 4.5 5.3 4.2 14.3 20.6 61 53.9 70.8 45-2.4 71.5-62 80.9-89.9 18.6-42.8 18.5-99.7 18.4-154.5 0-33.3 0-65.8 4-94 7.4-20.7 18.1-31.8 32.3-33.7 30.6-2.2 49.4 36.8 57.8 60 10.8 49.3 36.3 88.4 59.1 88.4 28.2 0 52-52.6 61.1-122 2.2-6.6 9.7-24.5 27-24.5 6.8 0 11.2 9.1 14.5 16.7 1.7 17.6 11 28.7 39 25.4 24-2.9 22.8-20.3 20.8-49.6-1.6-23.7-3.8-55 6.3-92.6 9.6-18.3 18.7-38.4 18.7-38.4s1.2-2.5 2.8-6.6c2-4 9.8-17.3 22.4-15.8 10.8 1.3 13.2 11.7 14 15.7v4-.3 3c0 13.7 9.8 25.5 23.8 30.4 2.3 1 5 2.6 7.3 5 1.5 1.5 2.3 3.8 2.9 6.3 2.1 19.5-.6 43.3-3.4 67.2-6.3 54.6-12.7 109.7 39 116.5 49.2-2.1 46.7-58.2 44.3-114.6-.7-13.6-1.2-27.2-1.1-40.1.4-3 1.2-6.3 2.5-9.6 4.7-11.2 16.4-20.7 21-24.3l1.5-1.3c13.1-8.8 31.6-17 57.6-24a86.3 86.3 0 0 1 57.8 4.5c74.8 66.7 51.2 149.8 31.5 219.2-20.2 71.1-36.3 127.8 61.7 137.7a185.3 185.3 0 0 0 2.1-.1V0Z" fill="#7AD0E0"/><defs><filter id="a" x="3.5" y="10.1" width="1601.7" height="894.9" filterUnits="userSpaceOnUse" color-interpolation-filters="sRGB"><feFlood flood-opacity="0" result="BackgroundImageFix"/><feBlend in="SourceGraphic" in2="BackgroundImageFix" result="shape"/><feGaussianBlur stdDeviation="2.5" result="effect1_foregroundBlur_57_29"/></filter></defs></svg>