<svg width="1617" height="788" fill="none" xmlns="http://www.w3.org/2000/svg"><g filter="url(#a)"><path fill-rule="evenodd" clip-rule="evenodd" d="M1606.17 151.05a90.22 90.22 0 0 0-3-2.86V10.67H10.33v429.66a22.17 22.17 0 0 1 12.51-3.69c20.51 1.28 29.86 10.07 34.25 19.93 9.1 26.1-.05 66.84-8.87 106.13-12.16 54.15-23.7 105.56 13.97 112.13 46.43.87 36.8-57.63 26.94-117.58-2.23-13.6-4.48-27.27-6.09-40.34-.39-19.63 5.63-54.16 27.36-54.16 16.98 0 26.37 12.2 31.42 23.2 13.79 46.06 1.6 109.82-9.13 165.93-13.16 68.82-24.12 126.13 17.74 125.16 45.54-1.06 39.66-63.23 32.98-133.9-5.15-54.45-10.78-113.95 6.27-154.41 6.78-13.52 18.41-24.23 39.37-26.94 25.88-1.62 56.23 22.94 79.78 42 8.37 6.76 15.88 12.84 22.03 16.8 42.04 36.52 103.8 59.58 172.63 59.58 59.54 0 114.48-56.62 155.97-126.64 75.4-101.28 120.88-119.75 190.35-58.23 57.73 51.12 167.37 29.16 223.03-22.99 37.96-30.13 69.12-87.9 97.39-140.31l3.16-5.87c1.64-2.6 3.66-6.3 6.04-10.64 9-16.42 23.12-42.21 40.84-54.12 39.26-18.05 55.02 36.65 68.71 84.17 9.54 33.1 18.07 62.71 32.84 61.8 15.19-.95 20.6-27.02 26.63-56.12 8.24-39.72 17.65-85.07 54.71-79.8 72.26 35.75 57.38 120.65 45.47 188.56-9.17 52.33-16.57 94.57 19.03 96.46 35.59 1.89 29.94-41.15 22.88-94.94-11.23-85.52-26.03-198.22 115.63-200.88v-9.57Z" fill="#61A5B2"/></g><path fill-rule="evenodd" clip-rule="evenodd" d="M18.55 432.97A22.57 22.57 0 0 0 3 439V7h1600v150.02c-138.8 4.2-124.1 115.9-112.92 200.81 7.08 53.8 12.75 96.83-22.94 94.94-35.7-1.88-28.27-44.13-19.08-96.46 11.94-67.91 26.86-152.81-45.59-188.56-37.15-5.27-46.59 40.08-54.85 79.8-6.05 29.1-11.47 55.17-26.7 56.12-14.81.91-23.37-28.7-32.93-61.8-13.72-47.51-29.52-102.22-68.88-84.16-17.77 11.9-31.93 37.69-40.95 54.11a246.38 246.38 0 0 1-6.05 10.64l-2.11 3.9-1.07 1.97c-28.34 52.4-59.58 110.19-97.64 140.32-55.81 52.15-165.73 74.1-223.62 22.98-69.65-61.52-115.24-43.04-190.84 58.23-41.6 70.02-96.68 126.64-156.38 126.64-69.01 0-130.93-23.06-173.08-59.58-6.16-3.96-13.7-10.03-22.08-16.8-23.62-19.06-54.05-43.62-80-42-21 2.71-32.67 13.42-39.46 26.94-17.1 40.47-11.46 99.96-6.3 154.42 6.7 70.66 12.6 132.83-33.06 133.89-41.97.97-30.98-56.34-17.79-125.16 10.76-56.1 22.98-119.87 9.16-165.92-5.07-11-14.48-23.2-31.5-23.2-21.8 0-27.83 34.53-27.43 54.16 1.6 13.07 3.86 26.74 6.1 40.33C94.9 613.53 104.55 672.03 58 671.17c-37.77-6.58-26.2-57.98-14.01-112.13C52.83 519.74 62 479 52.89 452.9c-4.41-9.86-13.78-18.64-34.34-19.93Z" fill="#FFC6D1"/><path d="M599.94 509.56c-33.56 35.85-86.2 44.94-110.27 44.94 32.5-15.42 23.83-12.1 67.08-42.92 15-13.75 14.09-30.77 36.4-37.74 25.33-7.9 25.1 10.74 6.79 35.72Z" fill="#37B3CA"/><path d="M597.94 506.52c-27.12 28.97-74.24 43.81-93.69 43.81 26.26-12.46 38.33-22.08 58.33-38.33 10.42-8.46 12.5-27.5 29.88-34.35 19.94-7.85 20.27 8.68 5.48 28.87Z" fill="#D8D8D8"/><g filter="url(#b)"><path d="M597.88 507.22c-23.82 26.33-71.13 42.7-88.21 42.7 23.75-9.59 33.75-17.09 59.58-40 10.65-10.1 7.97-23.82 23.82-28.94 17.97-5.81 17.8 7.89 4.8 26.24Z" fill="#FFF4F6"/></g><g filter="url(#c)"><path d="M468.5 550.83c-11.94-6.38-10.73-6.62-30.09-3.45-5.8.95-1.67 3.71.4 6.37 2.76 3.56 21.2 7.22 27.8 4.3 6.37-2.82 8.46-2.66 1.88-7.22Z" fill="#FFF4F6"/></g><path d="M439.99 552.83c.16.2.55.54 1.26.93.7.39 1.58.78 2.65 1.16a46.8 46.8 0 0 0 7.62 1.93c2.83.49 5.75.77 8.34.76 2.63-.01 4.78-.33 6.14-.94l2.22-.95c.62-.25 1.16-.48 1.67-.71.4-.19.7-.34.91-.47l-.03-.03c-.5-.53-1.45-1.28-3.06-2.4l-1.97-1.06c-4.65-2.5-6.83-3.67-9.7-4.04-3.33-.42-7.6.25-17.39 1.85a7.25 7.25 0 0 0-1.63.44c.19.35.57.82 1.15 1.46l.37.4c.47.52 1 1.1 1.45 1.67Z" stroke="#37B3CA" stroke-width="3"/><path d="M927.5 385.97c-11.69-6.53-8.15 2.51-21.95 1.18-13.57-1.3 1.1 5.51 4.04 8.81 3.94 4.43 15.49 2.66 20.94.46 6.6-2.67 4.01-5.4-3.04-10.45Z" fill="#37B3CA"/><path d="M926.11 387.78c-8.89-4.55-6.12 1.26-16.88 1.14-10.46-.12.77 3.96 2.99 6.3 2.97 3.13 11.87 1.7 16.09.05 5.1-2 3.16-3.94-2.2-7.49Z" fill="#C0B8B9"/><g filter="url(#d)"><path d="M925.98 389.05c-7.76-3.71-5.73 1.67-14.93 1.27-10.42-.45 0 2.76 1.05 5.06 2.57 2.62 13.25 2.03 16.7 0 4.2-2.46 1.84-3.41-2.82-6.33Z" fill="#FFF4F6"/></g><path d="M1073.79 344.81c-25.16 38.95-104.84 55.52-122.88 55.52-18.04 0 52.64-8.27 78.45-63.18 5.55-20.43 16.14-40.15 34.19-40.15 18.04 0 23.96 20.68 10.24 47.81Z" fill="#37B3CA"/><path d="M1072.08 341.92c-18.66 35.08-97.41 55.08-112 56.33-16 0 51.67-8.33 72.59-63.13 4.93-18.13 14.32-35.62 30.33-35.62 16 0 21.26 18.34 9.08 42.42Z" fill="#C1BDBE"/><g filter="url(#e)"><path d="M1072.54 342.83c-21 32.57-93.24 53.79-109.12 55-15.06 0 45.41-1.66 72.03-61.41 4.64-17.1 13.48-33.59 28.54-33.59 15.06 0 20 17.3 8.55 40Z" fill="#FFF4F6"/></g><defs><filter id="a" x=".33" y=".67" width="1615.83" height="786.38" filterUnits="userSpaceOnUse" color-interpolation-filters="sRGB"><feFlood flood-opacity="0" result="BackgroundImageFix"/><feBlend in="SourceGraphic" in2="BackgroundImageFix" result="shape"/><feGaussianBlur stdDeviation="5" result="effect1_foregroundBlur_12_577"/></filter><filter id="b" x="507.67" y="477.63" width="101.48" height="74.29" filterUnits="userSpaceOnUse" color-interpolation-filters="sRGB"><feFlood flood-opacity="0" result="BackgroundImageFix"/><feBlend in="SourceGraphic" in2="BackgroundImageFix" result="shape"/><feGaussianBlur stdDeviation="1" result="effect1_foregroundBlur_12_577"/></filter><filter id="c" x="435.44" y="545.39" width="37.08" height="17.72" filterUnits="userSpaceOnUse" color-interpolation-filters="sRGB"><feFlood flood-opacity="0" result="BackgroundImageFix"/><feBlend in="SourceGraphic" in2="BackgroundImageFix" result="shape"/><feColorMatrix in="SourceAlpha" values="0 0 0 0 0 0 0 0 0 0 0 0 0 0 0 0 0 0 127 0" result="hardAlpha"/><feOffset dy="4"/><feGaussianBlur stdDeviation="2"/><feComposite in2="hardAlpha" operator="arithmetic" k2="-1" k3="1"/><feColorMatrix values="0 0 0 0 0 0 0 0 0 0 0 0 0 0 0 0 0 0 0.25 0"/><feBlend in2="shape" result="effect1_innerShadow_12_577"/></filter><filter id="d" x="904.46" y="385.74" width="28.53" height="13.39" filterUnits="userSpaceOnUse" color-interpolation-filters="sRGB"><feFlood flood-opacity="0" result="BackgroundImageFix"/><feBlend in="SourceGraphic" in2="BackgroundImageFix" result="shape"/><feGaussianBlur stdDeviation="1" result="effect1_foregroundBlur_12_577"/></filter><filter id="e" x="959.04" y="300.83" width="121.79" height="99" filterUnits="userSpaceOnUse" color-interpolation-filters="sRGB"><feFlood flood-opacity="0" result="BackgroundImageFix"/><feBlend in="SourceGraphic" in2="BackgroundImageFix" result="shape"/><feGaussianBlur stdDeviation="1" result="effect1_foregroundBlur_12_577"/></filter></defs></svg>