<svg width="1601" height="900" fill="none" xmlns="http://www.w3.org/2000/svg"><path fill-rule="evenodd" clip-rule="evenodd" d="M1601 0H0v900h689.53c5.14-17.38 9.98-40.74 14.89-72.06.5-1.7.92-3.55 1.34-5.47.74-3.31 1.5-6.8 2.9-9.91a20.16 20.16 0 0 0 .5-.83c1.3-2.21 3.33-5.65 5.87-5.35 2.17 0 3.6 3.22 4.44 5.28 4.2 14.3 20.63 61.13 53.9 70.84 45.05-2.41 71.52-61.93 80.92-89.9 18.6-42.83 18.53-99.66 18.45-154.49-.05-33.27-.1-65.8 4.03-94.02 7.31-20.7 18.04-31.83 32.2-33.67 30.62-2.24 49.44 36.79 57.88 60.02 10.73 49.26 36.29 88.31 59.07 88.31 28.15 0 52.04-52.53 61.08-121.89 2.19-6.62 9.73-24.56 27.02-24.56 6.81 0 11.19 9.13 14.45 16.67 1.73 17.6 11.09 28.77 38.96 25.45 24.1-2.88 22.9-20.32 20.89-49.66-1.62-23.62-3.78-54.95 6.31-92.6 9.61-18.23 18.63-38.41 18.63-38.41s1.24-2.46 2.87-6.57c2.05-3.93 9.78-17.28 22.36-15.8 10.86 1.3 13.23 11.67 13.98 15.74.15 1.41.14 2.72-.02 3.9l.14-.24c-.1 1.04-.14 2.03-.14 2.97 0 13.78 9.86 25.58 23.86 30.49a24.06 24.06 0 0 1 7.25 4.93c1.49 1.53 2.35 3.82 2.91 6.3 2.16 19.56-.6 43.35-3.37 67.26v.01c-6.32 54.51-12.7 109.61 38.97 116.43 49.19-2.1 46.74-58.2 44.28-114.53-.6-13.62-1.19-27.25-1.06-40.14.4-2.99 1.16-6.25 2.55-9.62 4.62-11.15 16.37-20.64 20.87-24.28.74-.6 1.28-1.03 1.57-1.3 13.13-8.8 31.63-16.97 57.62-23.91 21.72-5.8 41.2-2.77 57.8 4.41 74.85 66.7 51.22 149.83 31.5 219.24-20.21 71.1-36.32 127.78 61.73 137.63a185.27 185.27 0 0 0 2.07-.08V0Z" fill="#7AD0E0"/></svg>