<svg width="300" height="192" viewBox="0 0 554 359" fill="none" xmlns="http://www.w3.org/2000/svg">
<g filter="url(#filter0_f_3_155)">
<g filter="url(#filter1_f_3_155)">
<path d="M466.255 195L526.988 205.702C537.866 207.619 545.13 217.991 543.214 228.869L541.087 240.94C539.17 251.818 528.797 259.083 517.919 257.166L457.186 246.464L466.255 195Z" fill="#C5C5C5"/>
</g>
<path d="M464.223 191.059L524.956 201.76C535.834 203.677 543.099 214.05 541.182 224.928L538.973 237.461C537.057 248.339 526.684 255.603 515.806 253.686L455.073 242.985L464.223 191.059Z" fill="#C5C5C5"/>
<rect x="236.288" y="44.6338" width="66.7812" height="263.13" transform="rotate(9.99364 236.288 44.6338)" fill="#C5C5C5"/>
<g filter="url(#filter2_f_3_155)">
<rect x="287.459" y="50.4668" width="57.2971" height="269.008" rx="20" transform="rotate(9.99364 287.459 50.4668)" fill="#C5C5C5"/>
</g>
<g filter="url(#filter3_f_3_155)">
<rect x="432.464" y="76" width="57.2971" height="269.008" rx="20" transform="rotate(9.99364 432.464 76)" fill="#C5C5C5"/>
</g>
<rect x="290.737" y="49.627" width="198.455" height="271.482" rx="20" transform="rotate(9.99364 290.737 49.627)" fill="#C5C5C5"/>
<g filter="url(#filter4_f_3_155)">
<rect x="198.61" y="33.1963" width="57.2971" height="270.151" rx="20" transform="rotate(9.99364 198.61 33.1963)" fill="#C5C5C5"/>
</g>
<rect x="56.1128" y="7" width="198.455" height="271.482" rx="20" transform="rotate(9.99364 56.1128 7)" fill="#C5C5C5"/>
</g>
<g filter="url(#filter5_f_3_155)">
<path d="M457.255 189L517.988 199.702C528.866 201.619 536.13 211.991 534.214 222.869L532.087 234.94C530.17 245.818 519.797 253.083 508.919 251.166L448.186 240.464L457.255 189Z" fill="#CC5F75"/>
</g>
<path d="M455.223 185.059L515.956 195.76C526.834 197.677 534.099 208.05 532.182 218.928L529.973 231.461C528.057 242.339 517.684 249.603 506.806 247.686L446.073 236.985L455.223 185.059Z" fill="#F6738D"/>
<rect x="227.288" y="38.6338" width="66.7812" height="263.13" transform="rotate(9.99364 227.288 38.6338)" fill="#DC687F"/>
<g filter="url(#filter6_f_3_155)">
<rect x="278.459" y="44.4668" width="57.2971" height="269.008" rx="20" transform="rotate(9.99364 278.459 44.4668)" fill="#CC5F75"/>
</g>
<g filter="url(#filter7_f_3_155)">
<rect x="423.464" y="70" width="57.2971" height="269.008" rx="20" transform="rotate(9.99364 423.464 70)" fill="#CC5F75"/>
</g>
<rect x="281.737" y="43.627" width="198.455" height="271.482" rx="20" transform="rotate(9.99364 281.737 43.627)" fill="#F6738D"/>
<g filter="url(#filter8_f_3_155)">
<rect x="189.61" y="27.1963" width="57.2971" height="270.151" rx="20" transform="rotate(9.99364 189.61 27.1963)" fill="#CC5F75"/>
</g>
<rect x="47.1128" y="1" width="198.455" height="271.482" rx="20" transform="rotate(9.99364 47.1128 1)" fill="#F6738D"/>
<g filter="url(#filter9_f_3_155)">
<path fill-rule="evenodd" clip-rule="evenodd" d="M262.797 63.106L436.836 93.7737L397.385 317.658L223.346 286.99L262.797 63.106ZM271.508 84.6736C271.52 86.3714 270.1 87.7381 268.336 87.7261C266.573 87.7141 265.133 86.328 265.121 84.6301C265.109 82.9323 266.529 81.5657 268.293 81.5776C270.057 81.5896 271.496 82.9757 271.508 84.6736ZM240.687 242.266C242.451 242.278 243.871 240.911 243.859 239.214C243.847 237.516 242.408 236.13 240.644 236.118C238.88 236.106 237.46 237.472 237.472 239.17C237.484 240.868 238.923 242.254 240.687 242.266ZM268.431 101.048C268.443 102.746 267.023 104.112 265.259 104.1C263.495 104.088 262.055 102.702 262.043 101.004C262.031 99.3065 263.451 97.9398 265.215 97.9518C266.979 97.9638 268.419 99.3499 268.431 101.048ZM237.609 258.64C239.373 258.652 240.793 257.286 240.781 255.588C240.769 253.89 239.33 252.504 237.566 252.492C235.802 252.48 234.382 253.847 234.394 255.544C234.406 257.242 235.845 258.628 237.609 258.64ZM265.36 118.446C265.372 120.144 263.952 121.511 262.188 121.499C260.424 121.487 258.985 120.101 258.973 118.403C258.961 116.705 260.381 115.338 262.145 115.35C263.908 115.362 265.348 116.749 265.36 118.446ZM234.539 276.039C236.302 276.051 237.723 274.684 237.711 272.986C237.699 271.289 236.259 269.902 234.495 269.89C232.731 269.879 231.311 271.245 231.323 272.943C231.335 274.641 232.775 276.027 234.539 276.039Z" fill="#964757"/>
</g>
<g filter="url(#filter10_f_3_155)">
<rect x="66.8596" y="90.4321" width="47.1168" height="23.5584" transform="rotate(9.99364 66.8596 90.4321)" fill="#C65D72"/>
<rect x="56.0786" y="119.289" width="52.7259" height="23.5584" transform="rotate(9.99364 56.0786 119.289)" fill="#C65D72"/>
<rect x="379.802" y="234.427" width="52.7259" height="23.5584" transform="rotate(9.99364 379.802 234.427)" fill="#C65D72"/>
<rect x="390.363" y="109.847" width="67.3097" height="17.9493" transform="rotate(9.99364 390.363 109.847)" fill="#C65D72"/>
<rect x="386.275" y="133.048" width="60.5787" height="17.9493" transform="rotate(9.99364 386.275 133.048)" fill="#C65D72"/>
<rect x="39.9207" y="210.987" width="52.7259" height="16.8274" transform="rotate(9.99364 39.9207 210.987)" fill="#C65D72"/>
</g>
<rect x="63.8596" y="86.4321" width="47.1168" height="23.5584" transform="rotate(9.99364 63.8596 86.4321)" fill="#7AD0E0"/>
<rect x="53.0786" y="115.289" width="52.7259" height="23.5584" transform="rotate(9.99364 53.0786 115.289)" fill="#F9F0E1"/>
<rect x="376.802" y="230.427" width="52.7259" height="23.5584" transform="rotate(9.99364 376.802 230.427)" fill="#7290C4"/>
<rect x="387.363" y="105.847" width="67.3097" height="17.9493" transform="rotate(9.99364 387.363 105.847)" fill="#F9F0E1"/>
<rect x="383.275" y="129.048" width="60.5787" height="17.9493" transform="rotate(9.99364 383.275 129.048)" fill="#7AD0E0"/>
<rect x="36.9207" y="206.987" width="52.7259" height="16.8274" transform="rotate(9.99364 36.9207 206.987)" fill="#7290C4"/>
<g filter="url(#filter11_f_3_155)">
<path fill-rule="evenodd" clip-rule="evenodd" d="M269.547 65L432.836 93.7735L394.289 312.525L231 283.752L269.547 65ZM277.587 85.9902C277.587 87.6471 276.244 88.9902 274.587 88.9902C272.93 88.9902 271.587 87.6471 271.587 85.9902C271.587 84.3334 272.93 82.9902 274.587 82.9902C276.244 82.9902 277.587 84.3334 277.587 85.9902ZM247.587 239.99C249.244 239.99 250.587 238.647 250.587 236.99C250.587 235.333 249.244 233.99 247.587 233.99C245.93 233.99 244.587 235.333 244.587 236.99C244.587 238.647 245.93 239.99 247.587 239.99ZM274.587 101.99C274.587 103.647 273.244 104.99 271.587 104.99C269.93 104.99 268.587 103.647 268.587 101.99C268.587 100.333 269.93 98.9902 271.587 98.9902C273.244 98.9902 274.587 100.333 274.587 101.99ZM244.587 255.99C246.244 255.99 247.587 254.647 247.587 252.99C247.587 251.333 246.244 249.99 244.587 249.99C242.93 249.99 241.587 251.333 241.587 252.99C241.587 254.647 242.93 255.99 244.587 255.99ZM271.587 118.99C271.587 120.647 270.244 121.99 268.587 121.99C266.93 121.99 265.587 120.647 265.587 118.99C265.587 117.333 266.93 115.99 268.587 115.99C270.244 115.99 271.587 117.333 271.587 118.99ZM241.587 272.99C243.244 272.99 244.587 271.647 244.587 269.99C244.587 268.333 243.244 266.99 241.587 266.99C239.93 266.99 238.587 268.333 238.587 269.99C238.587 271.647 239.93 272.99 241.587 272.99Z" fill="#C2C2C2"/>
</g>
<path fill-rule="evenodd" clip-rule="evenodd" d="M266.547 62L429.836 90.7735L391.289 309.525L228 280.752L266.547 62ZM274.587 82.9902C274.587 84.6471 273.244 85.9902 271.587 85.9902C269.93 85.9902 268.587 84.6471 268.587 82.9902C268.587 81.3334 269.93 79.9902 271.587 79.9902C273.244 79.9902 274.587 81.3334 274.587 82.9902ZM244.587 236.99C246.244 236.99 247.587 235.647 247.587 233.99C247.587 232.333 246.244 230.99 244.587 230.99C242.93 230.99 241.587 232.333 241.587 233.99C241.587 235.647 242.93 236.99 244.587 236.99ZM271.587 98.9902C271.587 100.647 270.244 101.99 268.587 101.99C266.93 101.99 265.587 100.647 265.587 98.9902C265.587 97.3334 266.93 95.9902 268.587 95.9902C270.244 95.9902 271.587 97.3334 271.587 98.9902ZM241.587 252.99C243.244 252.99 244.587 251.647 244.587 249.99C244.587 248.333 243.244 246.99 241.587 246.99C239.93 246.99 238.587 248.333 238.587 249.99C238.587 251.647 239.93 252.99 241.587 252.99ZM268.587 115.99C268.587 117.647 267.244 118.99 265.587 118.99C263.93 118.99 262.587 117.647 262.587 115.99C262.587 114.333 263.93 112.99 265.587 112.99C267.244 112.99 268.587 114.333 268.587 115.99ZM238.587 269.99C240.244 269.99 241.587 268.647 241.587 266.99C241.587 265.333 240.244 263.99 238.587 263.99C236.93 263.99 235.587 265.333 235.587 266.99C235.587 268.647 236.93 269.99 238.587 269.99Z" fill="#F8F8F1"/>
<g filter="url(#filter12_f_3_155)">
<path fill-rule="evenodd" clip-rule="evenodd" d="M266.547 64L429.836 92.7735L391.289 311.525L228 282.752L266.547 64ZM274.587 84.9902C274.587 86.6471 273.244 87.9902 271.587 87.9902C269.93 87.9902 268.587 86.6471 268.587 84.9902C268.587 83.3334 269.93 81.9902 271.587 81.9902C273.244 81.9902 274.587 83.3334 274.587 84.9902ZM244.587 238.99C246.244 238.99 247.587 237.647 247.587 235.99C247.587 234.333 246.244 232.99 244.587 232.99C242.93 232.99 241.587 234.333 241.587 235.99C241.587 237.647 242.93 238.99 244.587 238.99ZM271.587 100.99C271.587 102.647 270.244 103.99 268.587 103.99C266.93 103.99 265.587 102.647 265.587 100.99C265.587 99.3334 266.93 97.9902 268.587 97.9902C270.244 97.9902 271.587 99.3334 271.587 100.99ZM241.587 254.99C243.244 254.99 244.587 253.647 244.587 251.99C244.587 250.333 243.244 248.99 241.587 248.99C239.93 248.99 238.587 250.333 238.587 251.99C238.587 253.647 239.93 254.99 241.587 254.99ZM268.587 117.99C268.587 119.647 267.244 120.99 265.587 120.99C263.93 120.99 262.587 119.647 262.587 117.99C262.587 116.333 263.93 114.99 265.587 114.99C267.244 114.99 268.587 116.333 268.587 117.99ZM238.587 271.99C240.244 271.99 241.587 270.647 241.587 268.99C241.587 267.333 240.244 265.99 238.587 265.99C236.93 265.99 235.587 267.333 235.587 268.99C235.587 270.647 236.93 271.99 238.587 271.99Z" fill="#C2C2C2"/>
</g>
<path fill-rule="evenodd" clip-rule="evenodd" d="M263.547 61L426.836 89.7735L388.289 308.525L225 279.752L263.547 61ZM271.587 81.9902C271.587 83.6471 270.244 84.9902 268.587 84.9902C266.93 84.9902 265.587 83.6471 265.587 81.9902C265.587 80.3334 266.93 78.9902 268.587 78.9902C270.244 78.9902 271.587 80.3334 271.587 81.9902ZM241.587 235.99C243.244 235.99 244.587 234.647 244.587 232.99C244.587 231.333 243.244 229.99 241.587 229.99C239.93 229.99 238.587 231.333 238.587 232.99C238.587 234.647 239.93 235.99 241.587 235.99ZM268.587 97.9902C268.587 99.6471 267.244 100.99 265.587 100.99C263.93 100.99 262.587 99.6471 262.587 97.9902C262.587 96.3334 263.93 94.9902 265.587 94.9902C267.244 94.9902 268.587 96.3334 268.587 97.9902ZM238.587 251.99C240.244 251.99 241.587 250.647 241.587 248.99C241.587 247.333 240.244 245.99 238.587 245.99C236.93 245.99 235.587 247.333 235.587 248.99C235.587 250.647 236.93 251.99 238.587 251.99ZM265.587 114.99C265.587 116.647 264.244 117.99 262.587 117.99C260.93 117.99 259.587 116.647 259.587 114.99C259.587 113.333 260.93 111.99 262.587 111.99C264.244 111.99 265.587 113.333 265.587 114.99ZM235.587 268.99C237.244 268.99 238.587 267.647 238.587 265.99C238.587 264.333 237.244 262.99 235.587 262.99C233.93 262.99 232.587 264.333 232.587 265.99C232.587 267.647 233.93 268.99 235.587 268.99Z" fill="#F8F8F1"/>
<g filter="url(#filter13_f_3_155)">
<path fill-rule="evenodd" clip-rule="evenodd" d="M263.547 63L426.836 91.7735L388.289 310.525L225 281.752L263.547 63ZM271.587 83.9902C271.587 85.6471 270.244 86.9902 268.587 86.9902C266.93 86.9902 265.587 85.6471 265.587 83.9902C265.587 82.3334 266.93 80.9902 268.587 80.9902C270.244 80.9902 271.587 82.3334 271.587 83.9902ZM241.587 237.99C243.244 237.99 244.587 236.647 244.587 234.99C244.587 233.333 243.244 231.99 241.587 231.99C239.93 231.99 238.587 233.333 238.587 234.99C238.587 236.647 239.93 237.99 241.587 237.99ZM268.587 99.9902C268.587 101.647 267.244 102.99 265.587 102.99C263.93 102.99 262.587 101.647 262.587 99.9902C262.587 98.3334 263.93 96.9902 265.587 96.9902C267.244 96.9902 268.587 98.3334 268.587 99.9902ZM238.587 253.99C240.244 253.99 241.587 252.647 241.587 250.99C241.587 249.333 240.244 247.99 238.587 247.99C236.93 247.99 235.587 249.333 235.587 250.99C235.587 252.647 236.93 253.99 238.587 253.99ZM265.587 116.99C265.587 118.647 264.244 119.99 262.587 119.99C260.93 119.99 259.587 118.647 259.587 116.99C259.587 115.333 260.93 113.99 262.587 113.99C264.244 113.99 265.587 115.333 265.587 116.99ZM235.587 270.99C237.244 270.99 238.587 269.647 238.587 267.99C238.587 266.333 237.244 264.99 235.587 264.99C233.93 264.99 232.587 266.333 232.587 267.99C232.587 269.647 233.93 270.99 235.587 270.99Z" fill="#C2C2C2"/>
</g>
<path fill-rule="evenodd" clip-rule="evenodd" d="M260.547 60L423.836 88.7735L385.289 307.525L222 278.752L260.547 60ZM268.587 80.9902C268.587 82.6471 267.244 83.9902 265.587 83.9902C263.93 83.9902 262.587 82.6471 262.587 80.9902C262.587 79.3334 263.93 77.9902 265.587 77.9902C267.244 77.9902 268.587 79.3334 268.587 80.9902ZM238.587 234.99C240.244 234.99 241.587 233.647 241.587 231.99C241.587 230.333 240.244 228.99 238.587 228.99C236.93 228.99 235.587 230.333 235.587 231.99C235.587 233.647 236.93 234.99 238.587 234.99ZM265.587 96.9902C265.587 98.6471 264.244 99.9902 262.587 99.9902C260.93 99.9902 259.587 98.6471 259.587 96.9902C259.587 95.3334 260.93 93.9902 262.587 93.9902C264.244 93.9902 265.587 95.3334 265.587 96.9902ZM235.587 250.99C237.244 250.99 238.587 249.647 238.587 247.99C238.587 246.333 237.244 244.99 235.587 244.99C233.93 244.99 232.587 246.333 232.587 247.99C232.587 249.647 233.93 250.99 235.587 250.99ZM262.587 113.99C262.587 115.647 261.244 116.99 259.587 116.99C257.93 116.99 256.587 115.647 256.587 113.99C256.587 112.333 257.93 110.99 259.587 110.99C261.244 110.99 262.587 112.333 262.587 113.99ZM232.587 267.99C234.244 267.99 235.587 266.647 235.587 264.99C235.587 263.333 234.244 261.99 232.587 261.99C230.93 261.99 229.587 263.333 229.587 264.99C229.587 266.647 230.93 267.99 232.587 267.99Z" fill="#F8F8F1"/>
<g filter="url(#filter14_f_3_155)">
<path fill-rule="evenodd" clip-rule="evenodd" d="M256.386 67.3877L93.0295 39.0003L55 257.843L218.356 286.23L256.386 67.3877ZM241.696 84.4003C241.133 85.9587 241.94 87.6781 243.498 88.2408C245.057 88.8034 246.776 87.9962 247.339 86.4378C247.902 84.8794 247.094 83.16 245.536 82.5973C243.978 82.0347 242.258 82.8419 241.696 84.4003ZM217.616 239.436C216.058 238.874 215.25 237.154 215.813 235.596C216.376 234.037 218.095 233.23 219.654 233.793C221.212 234.356 222.019 236.075 221.457 237.633C220.894 239.192 219.174 239.999 217.616 239.436ZM239.084 100.468C238.521 102.027 239.328 103.746 240.887 104.309C242.445 104.871 244.165 104.064 244.727 102.506C245.29 100.947 244.483 99.2279 242.924 98.6653C241.366 98.1026 239.646 98.9098 239.084 100.468ZM215.004 255.504C213.446 254.942 212.639 253.222 213.201 251.664C213.764 250.105 215.483 249.298 217.042 249.861C218.6 250.423 219.407 252.143 218.845 253.701C218.282 255.26 216.563 256.067 215.004 255.504ZM236.133 117.477C235.57 119.035 236.377 120.755 237.935 121.317C239.494 121.88 241.213 121.073 241.776 119.514C242.339 117.956 241.531 116.236 239.973 115.674C238.415 115.111 236.695 115.918 236.133 117.477ZM212.053 272.513C210.495 271.95 209.687 270.231 210.25 268.672C210.813 267.114 212.532 266.307 214.091 266.869C215.649 267.432 216.456 269.151 215.894 270.71C215.331 272.268 213.611 273.075 212.053 272.513Z" fill="#964757"/>
</g>
<g filter="url(#filter15_f_3_155)">
<path fill-rule="evenodd" clip-rule="evenodd" d="M257.386 62.3877L94.0297 34.0003L56.0002 252.843L219.356 281.23L257.386 62.3877ZM242.696 79.4003C242.133 80.9587 242.94 82.6781 244.499 83.2408C246.057 83.8034 247.777 82.9962 248.339 81.4378C248.902 79.8794 248.095 78.16 246.536 77.5973C244.978 77.0347 243.258 77.8419 242.696 79.4003ZM218.616 234.436C217.058 233.874 216.251 232.154 216.813 230.596C217.376 229.037 219.095 228.23 220.654 228.793C222.212 229.356 223.019 231.075 222.457 232.633C221.894 234.192 220.175 234.999 218.616 234.436ZM240.084 95.4682C239.521 97.0266 240.329 98.7461 241.887 99.3087C243.445 99.8714 245.165 99.0642 245.727 97.5058C246.29 95.9474 245.483 94.2279 243.925 93.6653C242.366 93.1026 240.647 93.9098 240.084 95.4682ZM216.005 250.504C214.446 249.942 213.639 248.222 214.202 246.664C214.764 245.105 216.484 244.298 218.042 244.861C219.601 245.423 220.408 247.143 219.845 248.701C219.282 250.26 217.563 251.067 216.005 250.504ZM237.133 112.477C236.57 114.035 237.377 115.755 238.936 116.317C240.494 116.88 242.214 116.073 242.776 114.514C243.339 112.956 242.532 111.236 240.973 110.674C239.415 110.111 237.695 110.918 237.133 112.477ZM213.053 267.513C211.495 266.95 210.688 265.231 211.25 263.672C211.813 262.114 213.532 261.307 215.091 261.869C216.649 262.432 217.456 264.151 216.894 265.71C216.331 267.268 214.612 268.075 213.053 267.513Z" fill="#878282"/>
</g>
<path fill-rule="evenodd" clip-rule="evenodd" d="M255.386 59.3872L92.0297 30.9998L54.0002 249.842L217.356 278.23L255.386 59.3872ZM240.696 76.3998C240.133 77.9582 240.94 79.6776 242.499 80.2403C244.057 80.8029 245.777 79.9957 246.339 78.4373C246.902 76.8789 246.095 75.1595 244.536 74.5968C242.978 74.0342 241.258 74.8414 240.696 76.3998ZM216.616 231.436C215.058 230.873 214.251 229.154 214.813 227.595C215.376 226.037 217.095 225.23 218.654 225.792C220.212 226.355 221.019 228.075 220.457 229.633C219.894 231.191 218.175 231.999 216.616 231.436ZM238.084 92.4677C237.521 94.0261 238.329 95.7456 239.887 96.3082C241.445 96.8709 243.165 96.0637 243.727 94.5053C244.29 92.9469 243.483 91.2274 241.925 90.6648C240.366 90.1021 238.647 90.9093 238.084 92.4677ZM214.005 247.504C212.446 246.941 211.639 245.222 212.202 243.663C212.764 242.105 214.484 241.298 216.042 241.86C217.601 242.423 218.408 244.142 217.845 245.701C217.282 247.259 215.563 248.066 214.005 247.504ZM235.133 109.476C234.57 111.035 235.377 112.754 236.936 113.317C238.494 113.879 240.214 113.072 240.776 111.514C241.339 109.955 240.532 108.236 238.973 107.673C237.415 107.111 235.695 107.918 235.133 109.476ZM211.053 264.512C209.495 263.95 208.688 262.23 209.25 260.672C209.813 259.113 211.532 258.306 213.091 258.869C214.649 259.432 215.456 261.151 214.894 262.709C214.331 264.268 212.612 265.075 211.053 264.512Z" fill="#F8F8F1"/>
<g filter="url(#filter16_f_3_155)">
<path fill-rule="evenodd" clip-rule="evenodd" d="M255.386 61.3877L92.0297 33.0003L54.0002 251.843L217.356 280.23L255.386 61.3877ZM240.696 78.4003C240.133 79.9587 240.94 81.6781 242.499 82.2408C244.057 82.8034 245.777 81.9962 246.339 80.4378C246.902 78.8794 246.095 77.16 244.536 76.5973C242.978 76.0347 241.258 76.8419 240.696 78.4003ZM216.616 233.436C215.058 232.874 214.251 231.154 214.813 229.596C215.376 228.037 217.095 227.23 218.654 227.793C220.212 228.356 221.019 230.075 220.457 231.633C219.894 233.192 218.175 233.999 216.616 233.436ZM238.084 94.4682C237.521 96.0266 238.329 97.7461 239.887 98.3087C241.445 98.8714 243.165 98.0642 243.727 96.5058C244.29 94.9474 243.483 93.2279 241.925 92.6653C240.366 92.1026 238.647 92.9098 238.084 94.4682ZM214.005 249.504C212.446 248.942 211.639 247.222 212.202 245.664C212.764 244.105 214.484 243.298 216.042 243.861C217.601 244.423 218.408 246.143 217.845 247.701C217.282 249.26 215.563 250.067 214.005 249.504ZM235.133 111.477C234.57 113.035 235.377 114.755 236.936 115.317C238.494 115.88 240.214 115.073 240.776 113.514C241.339 111.956 240.532 110.236 238.973 109.674C237.415 109.111 235.695 109.918 235.133 111.477ZM211.053 266.513C209.495 265.95 208.688 264.231 209.25 262.672C209.813 261.114 211.532 260.307 213.091 260.869C214.649 261.432 215.456 263.151 214.894 264.71C214.331 266.268 212.612 267.075 211.053 266.513Z" fill="#C3C3C3"/>
</g>
<path fill-rule="evenodd" clip-rule="evenodd" d="M253.386 58.3872L90.0297 29.9998L52.0002 248.842L215.356 277.23L253.386 58.3872ZM238.696 75.3998C238.133 76.9582 238.94 78.6776 240.499 79.2403C242.057 79.8029 243.777 78.9957 244.339 77.4373C244.902 75.8789 244.095 74.1595 242.536 73.5968C240.978 73.0342 239.258 73.8414 238.696 75.3998ZM214.616 230.436C213.058 229.873 212.251 228.154 212.813 226.595C213.376 225.037 215.095 224.23 216.654 224.792C218.212 225.355 219.019 227.075 218.457 228.633C217.894 230.191 216.175 230.999 214.616 230.436ZM236.084 91.4677C235.521 93.0261 236.329 94.7456 237.887 95.3082C239.445 95.8709 241.165 95.0637 241.727 93.5053C242.29 91.9469 241.483 90.2274 239.925 89.6648C238.366 89.1021 236.647 89.9093 236.084 91.4677ZM212.005 246.504C210.446 245.941 209.639 244.222 210.202 242.663C210.764 241.105 212.484 240.298 214.042 240.86C215.601 241.423 216.408 243.142 215.845 244.701C215.282 246.259 213.563 247.066 212.005 246.504ZM233.133 108.476C232.57 110.035 233.377 111.754 234.936 112.317C236.494 112.879 238.214 112.072 238.776 110.514C239.339 108.955 238.532 107.236 236.973 106.673C235.415 106.111 233.695 106.918 233.133 108.476ZM209.053 263.512C207.495 262.95 206.688 261.23 207.25 259.672C207.813 258.113 209.532 257.306 211.091 257.869C212.649 258.432 213.456 260.151 212.894 261.709C212.331 263.268 210.612 264.075 209.053 263.512Z" fill="#F8F8F1"/>
<g filter="url(#filter17_f_3_155)">
<path fill-rule="evenodd" clip-rule="evenodd" d="M253.386 61.3877L90.0297 33.0003L52.0002 251.843L215.356 280.23L253.386 61.3877ZM238.696 78.4003C238.133 79.9587 238.94 81.6781 240.499 82.2408C242.057 82.8034 243.777 81.9962 244.339 80.4378C244.902 78.8794 244.095 77.16 242.536 76.5973C240.978 76.0347 239.258 76.8419 238.696 78.4003ZM214.616 233.436C213.058 232.874 212.251 231.154 212.813 229.596C213.376 228.037 215.095 227.23 216.654 227.793C218.212 228.356 219.019 230.075 218.457 231.633C217.894 233.192 216.175 233.999 214.616 233.436ZM236.084 94.4682C235.521 96.0266 236.329 97.7461 237.887 98.3087C239.445 98.8714 241.165 98.0642 241.727 96.5058C242.29 94.9474 241.483 93.2279 239.925 92.6653C238.366 92.1026 236.647 92.9098 236.084 94.4682ZM212.005 249.504C210.446 248.942 209.639 247.222 210.202 245.664C210.764 244.105 212.484 243.298 214.042 243.861C215.601 244.423 216.408 246.143 215.845 247.701C215.282 249.26 213.563 250.067 212.005 249.504ZM233.133 111.477C232.57 113.035 233.377 114.755 234.936 115.317C236.494 115.88 238.214 115.073 238.776 113.514C239.339 111.956 238.532 110.236 236.973 109.674C235.415 109.111 233.695 109.918 233.133 111.477ZM209.053 266.513C207.495 265.95 206.688 264.231 207.25 262.672C207.813 261.114 209.532 260.307 211.091 260.869C212.649 261.432 213.456 263.151 212.894 264.71C212.331 266.268 210.612 267.075 209.053 266.513Z" fill="#C3C3C3"/>
</g>
<path fill-rule="evenodd" clip-rule="evenodd" d="M251.386 58.3872L88.0297 29.9998L50.0002 248.842L213.356 277.23L251.386 58.3872ZM236.696 75.3998C236.133 76.9582 236.94 78.6776 238.499 79.2403C240.057 79.8029 241.777 78.9957 242.339 77.4373C242.902 75.8789 242.095 74.1595 240.536 73.5968C238.978 73.0342 237.258 73.8414 236.696 75.3998ZM212.616 230.436C211.058 229.873 210.251 228.154 210.813 226.595C211.376 225.037 213.095 224.23 214.654 224.792C216.212 225.355 217.019 227.075 216.457 228.633C215.894 230.191 214.175 230.999 212.616 230.436ZM234.084 91.4677C233.521 93.0261 234.329 94.7456 235.887 95.3082C237.445 95.8709 239.165 95.0637 239.727 93.5053C240.29 91.9469 239.483 90.2274 237.925 89.6648C236.366 89.1021 234.647 89.9093 234.084 91.4677ZM210.005 246.504C208.446 245.941 207.639 244.222 208.202 242.663C208.764 241.105 210.484 240.298 212.042 240.86C213.601 241.423 214.408 243.142 213.845 244.701C213.282 246.259 211.563 247.066 210.005 246.504ZM231.133 108.476C230.57 110.035 231.377 111.754 232.936 112.317C234.494 112.879 236.214 112.072 236.776 110.514C237.339 108.955 236.532 107.236 234.973 106.673C233.415 106.111 231.695 106.918 231.133 108.476ZM207.053 263.512C205.495 262.95 204.688 261.23 205.25 259.672C205.813 258.113 207.532 257.306 209.091 257.869C210.649 258.432 211.456 260.151 210.894 261.709C210.331 263.268 208.612 264.075 207.053 263.512Z" fill="#F8F8F1"/>
<g filter="url(#filter18_f_3_155)">
<path d="M267.069 81.5885C268.059 74.8456 263.396 68.5764 256.653 67.5859C249.91 66.5954 243.641 71.2587 242.65 78.0016" stroke="#C6C6C6" stroke-width="2"/>
<path d="M240.185 233.185C241.355 226.47 236.86 220.079 230.146 218.91C223.431 217.741 217.04 222.235 215.871 228.95" stroke="#C6C6C6" stroke-width="2"/>
<path d="M264.623 98.2369C265.613 91.494 260.95 85.2249 254.207 84.2344C247.464 83.2439 241.195 87.9071 240.205 94.65" stroke="#C6C6C6" stroke-width="2"/>
<path d="M237.297 249.762C238.467 243.048 233.972 236.657 227.258 235.488C220.544 234.318 214.153 238.813 212.983 245.527" stroke="#C6C6C6" stroke-width="2"/>
<path d="M262.177 114.886C263.167 108.143 258.504 101.874 251.761 100.883C245.018 99.8928 238.749 104.556 237.759 111.299" stroke="#C6C6C6" stroke-width="2"/>
<path d="M234.41 266.34C235.579 259.626 231.084 253.235 224.37 252.065C217.656 250.896 211.265 255.391 210.096 262.105" stroke="#C6C6C6" stroke-width="2"/>
</g>
<path d="M264.069 81.5885C265.059 74.8456 260.396 68.5764 253.653 67.5859C246.91 66.5954 240.641 71.2587 239.65 78.0016" stroke="#747474" stroke-width="2"/>
<path d="M237.185 233.185C238.355 226.47 233.86 220.079 227.146 218.91C220.431 217.741 214.04 222.235 212.871 228.95" stroke="#747474" stroke-width="2"/>
<path d="M261.623 98.2369C262.613 91.494 257.95 85.2249 251.207 84.2344C244.464 83.2439 238.195 87.9071 237.205 94.65" stroke="#747474" stroke-width="2"/>
<path d="M234.297 249.762C235.467 243.048 230.972 236.657 224.258 235.488C217.544 234.318 211.153 238.813 209.983 245.527" stroke="#747474" stroke-width="2"/>
<path d="M259.177 114.886C260.167 108.143 255.504 101.874 248.761 100.883C242.018 99.8928 235.749 104.556 234.759 111.299" stroke="#747474" stroke-width="2"/>
<path d="M231.41 266.34C232.579 259.626 228.084 253.235 221.37 252.065C214.656 250.896 208.265 255.391 207.096 262.105" stroke="#747474" stroke-width="2"/>
<line x1="89.5711" y1="73.7918" x2="225.462" y2="97.7375" stroke="#A8A8A8"/>
<line x1="86.5389" y1="90.9988" x2="222.43" y2="114.945" stroke="#A8A8A8"/>
<line x1="77.4425" y1="142.619" x2="213.334" y2="166.565" stroke="#A8A8A8"/>
<line x1="83.5067" y1="108.205" x2="219.398" y2="132.151" stroke="#A8A8A8"/>
<line x1="80.4747" y1="125.412" x2="216.366" y2="149.358" stroke="#A8A8A8"/>
<line x1="116.444" y1="49.8723" x2="96.9757" y2="160.353" stroke="#A8A8A8" stroke-width="2"/>
<path d="M124.061 63.1006C124.024 63.0941 123.993 63.0554 123.967 62.9846C123.942 62.9138 123.936 62.8416 123.949 62.7681C123.971 62.6394 124.037 62.561 124.146 62.5328C124.616 62.3976 125.039 62.2542 125.416 62.1027C125.794 61.9512 126.225 61.8424 126.711 61.7764C127.156 61.7222 127.633 61.7066 128.14 61.7298C128.657 61.7545 129.113 61.8017 129.509 61.8713L129.977 61.954C130.262 62.0042 130.526 62.0649 130.77 62.1362C131.013 62.2075 131.224 62.3253 131.404 62.4897C131.404 62.4897 131.447 62.5161 131.532 62.5691C131.627 62.6237 131.694 62.6972 131.735 62.7897C131.764 62.8421 131.778 62.8967 131.777 62.9535C131.777 63.0102 131.771 63.0708 131.759 63.1351C131.753 63.1719 131.746 63.2087 131.74 63.2454C131.733 63.2822 131.722 63.3228 131.704 63.3671C131.682 63.439 131.653 63.5239 131.617 63.6218C131.591 63.7121 131.535 63.7875 131.449 63.8481C131.379 63.9211 131.301 63.9641 131.213 63.9771C131.125 63.9901 131.072 63.995 131.054 63.9917L131.026 63.9869C130.944 63.9723 130.888 63.9388 130.859 63.8863C130.84 63.8355 130.836 63.7779 130.847 63.7136C130.867 63.6033 130.904 63.5008 130.958 63.4062C131.024 63.304 131.057 63.2483 131.059 63.2391L131.061 63.2253C131.072 63.161 131.022 63.0715 130.909 62.9569C130.716 62.7618 130.471 62.6237 130.172 62.5427C129.874 62.4617 129.541 62.3888 129.173 62.324C128.842 62.2657 128.457 62.2452 128.018 62.2626C127.59 62.2725 127.137 62.3158 126.659 62.3927C126.19 62.4712 125.732 62.5706 125.284 62.6907C124.847 62.8033 124.454 62.9377 124.104 63.0941C124.094 63.1016 124.079 63.1038 124.061 63.1006ZM125.138 69.5737C124.99 69.5478 124.854 69.4621 124.728 69.3167C124.61 69.1821 124.587 68.9886 124.66 68.736C124.737 68.456 124.87 68.105 125.058 67.6833C125.256 67.2631 125.482 66.8149 125.736 66.3385C126.001 65.8545 126.276 65.3722 126.56 64.8914C126.853 64.4123 127.13 63.9684 127.391 63.5596C127.664 63.1432 127.905 62.7971 128.115 62.5213C128.223 62.3888 128.351 62.3355 128.498 62.3614C128.581 62.376 128.649 62.4212 128.702 62.4968C128.756 62.5633 128.773 62.6563 128.752 62.7758C128.747 62.8034 128.72 62.8745 128.672 62.9891C128.632 63.1054 128.578 63.2284 128.507 63.3582C128.448 63.4804 128.389 63.5742 128.33 63.6396C128.212 63.7705 128.074 63.9073 127.916 64.0501C127.76 64.1837 127.613 64.3473 127.474 64.5409C126.857 65.4082 126.367 66.1985 126.005 66.9118C125.653 67.6174 125.417 68.2014 125.298 68.6637C125.287 68.728 125.302 68.8018 125.344 68.8851C125.396 68.97 125.442 69.054 125.485 69.1373C125.536 69.2222 125.555 69.3014 125.542 69.3749C125.529 69.4484 125.471 69.5093 125.368 69.5574C125.315 69.5861 125.239 69.5915 125.138 69.5737ZM130.469 69.8308C130.414 69.8211 130.359 69.8114 130.304 69.8017C130.25 69.7828 130.197 69.7639 130.143 69.745C129.774 69.6326 129.512 69.4015 129.356 69.0517C129.21 68.6944 129.172 68.3181 129.242 67.9229C129.287 67.6655 129.385 67.4032 129.537 67.1361C129.699 66.8614 129.916 66.6248 130.188 66.4263C130.461 66.2187 130.763 66.068 131.092 65.9744C131.421 65.8808 131.742 65.8615 132.055 65.9166C132.211 65.9441 132.355 65.9884 132.486 66.0495C132.627 66.1121 132.687 66.1986 132.668 66.3089C132.655 66.3825 132.6 66.4487 132.505 66.5077C132.42 66.5591 132.316 66.5596 132.192 66.5094C132.157 66.4937 132.098 66.4786 132.015 66.464C131.794 66.4251 131.559 66.4452 131.308 66.5242C131.057 66.6032 130.822 66.7276 130.602 66.8974C130.384 67.0581 130.213 67.2506 130.088 67.475C129.992 67.6475 129.927 67.8256 129.895 68.0095C129.844 68.2944 129.866 68.5493 129.959 68.7742C130.061 69.0007 130.2 69.1294 130.374 69.1602C130.419 69.1775 130.459 69.1893 130.496 69.1958C130.542 69.2039 130.583 69.2112 130.62 69.2177C131.024 69.2889 131.43 69.2467 131.836 69.0909C132.254 68.9275 132.587 68.7303 132.836 68.4994C132.965 68.361 133.058 68.2352 133.116 68.1222C133.175 68 133.212 67.8975 133.227 67.8148C133.259 67.631 133.226 67.4972 133.127 67.4134C133.028 67.3296 132.932 67.2842 132.838 67.2772C132.688 67.2697 132.541 67.2676 132.399 67.2708C132.258 67.2649 132.132 67.276 132.023 67.3042C131.965 67.3129 131.922 67.3148 131.894 67.3099C131.802 67.2937 131.731 67.2432 131.679 67.1583C131.637 67.075 131.623 66.9921 131.638 66.9093C131.664 66.7623 131.75 66.6779 131.896 66.6562C132.033 66.6329 132.192 66.6183 132.373 66.6123C132.554 66.6063 132.738 66.6103 132.925 66.6243C132.963 66.6216 132.996 66.6227 133.024 66.6276C133.051 66.6324 133.084 66.6381 133.12 66.6446C133.451 66.7029 133.691 66.8493 133.839 67.084C133.989 67.3094 134.039 67.5646 133.988 67.8495C133.958 68.0241 133.883 68.2053 133.765 68.3929C133.646 68.5806 133.479 68.7501 133.263 68.9015C133.06 69.0838 132.812 69.258 132.517 69.424C132.222 69.5901 131.901 69.7183 131.554 69.8087C131.208 69.8899 130.846 69.8972 130.469 69.8308ZM136.634 71.0593C136.128 70.9702 135.703 70.8051 135.356 70.5641C135.02 70.3247 134.77 70.0484 134.607 69.7354C134.455 69.4149 134.407 69.0937 134.464 68.772C134.493 68.6066 134.551 68.4414 134.637 68.2764C134.732 68.1131 134.857 67.9647 135.014 67.8311C135.216 67.6489 135.464 67.4555 135.755 67.2511C136.057 67.0482 136.387 66.8649 136.748 66.701C137.118 66.5387 137.512 66.4234 137.932 66.3552C138.353 66.2778 138.789 66.2787 139.239 66.3581C139.57 66.4164 139.791 66.4837 139.9 66.5599C140.019 66.6377 140.094 66.7266 140.123 66.8266C140.155 66.9175 140.195 67.0099 140.245 67.104C140.417 66.7741 140.61 66.4291 140.826 66.069C141.041 65.7088 141.247 65.3709 141.445 65.0551C141.643 64.7393 141.802 64.483 141.922 64.2861C141.998 64.1764 142.087 64.0452 142.19 63.8927C142.303 63.7327 142.399 63.5932 142.477 63.4742C142.566 63.3476 142.61 63.2844 142.61 63.2844C142.702 63.1395 142.835 63.0824 143.01 63.1132C143.138 63.1358 143.25 63.2028 143.344 63.3142C143.438 63.4256 143.474 63.5456 143.451 63.6743C143.435 63.7662 143.381 63.8562 143.29 63.9444L143.276 63.9419C143.276 63.9419 143.226 63.9806 143.127 64.0579C143.03 64.1261 142.92 64.2156 142.796 64.3265C142.681 64.439 142.591 64.5463 142.526 64.6485C142.367 64.9048 142.172 65.2068 141.94 65.5545C141.719 65.8947 141.487 66.2708 141.243 66.6828C141 67.0949 140.774 67.5193 140.564 67.9562C140.365 68.3856 140.213 68.8184 140.108 69.2548C140.087 69.3175 140.046 69.3624 139.985 69.3894C139.923 69.4165 139.855 69.4235 139.782 69.4106C139.681 69.3927 139.593 69.3536 139.518 69.293C139.445 69.2233 139.426 69.1441 139.461 69.0554C139.529 68.9348 139.579 68.811 139.611 68.6839C139.654 68.5493 139.686 68.4222 139.707 68.3028C139.752 68.0454 139.75 67.8175 139.699 67.6191C139.66 67.4131 139.561 67.2725 139.404 67.1974C139.335 67.1569 139.261 67.1248 139.179 67.101C139.098 67.0772 139.016 67.058 138.934 67.0435C138.64 66.9916 138.329 67.0079 138.001 67.0924C137.675 67.1676 137.356 67.2866 137.043 67.4494C136.74 67.6047 136.46 67.7732 136.2 67.9549C135.941 68.1366 135.73 68.3081 135.569 68.4692C135.41 68.6212 135.312 68.7983 135.277 69.0005C135.235 69.2395 135.309 69.4895 135.5 69.7506C135.692 70.0025 136.065 70.2009 136.618 70.3456C136.662 70.3629 136.707 70.3756 136.753 70.3837C136.799 70.3918 136.849 70.4007 136.905 70.4104C137.282 70.4768 137.68 70.4997 138.101 70.4791C138.532 70.4508 138.916 70.3999 139.251 70.3263C139.517 70.2689 139.758 70.1883 139.976 70.0844C140.193 69.9806 140.387 69.8773 140.556 69.7745C140.641 69.7231 140.725 69.7047 140.808 69.7193C140.891 69.7339 140.954 69.7782 140.998 69.8522C141.052 69.9187 141.073 69.9887 141.06 70.0623C141.044 70.1542 140.988 70.2296 140.892 70.2886C140.723 70.3914 140.507 70.5144 140.244 70.6578C139.993 70.7935 139.7 70.8982 139.365 70.9718C138.971 71.0541 138.521 71.1075 138.014 71.1319C137.508 71.1564 137.048 71.1322 136.634 71.0593ZM142.924 72.0255C142.869 72.0158 142.814 72.0061 142.758 71.9963C142.705 71.9774 142.651 71.9585 142.598 71.9396C142.229 71.8272 141.966 71.5962 141.81 71.2464C141.665 70.8891 141.627 70.5128 141.696 70.1175C141.742 69.8602 141.84 69.5979 141.991 69.3308C142.153 69.0561 142.37 68.8195 142.642 68.621C142.916 68.4133 143.217 68.2627 143.547 68.169C143.876 68.0754 144.197 68.0561 144.509 68.1112C144.665 68.1388 144.809 68.1831 144.941 68.2441C145.081 68.3068 145.142 68.3933 145.122 68.5036C145.109 68.5771 145.055 68.6434 144.959 68.7023C144.875 68.7537 144.77 68.7543 144.646 68.704C144.611 68.6884 144.552 68.6732 144.47 68.6587C144.249 68.6198 144.013 68.6398 143.762 68.7188C143.512 68.7978 143.276 68.9223 143.057 69.0921C142.839 69.2527 142.668 69.4452 142.543 69.6696C142.446 69.8421 142.382 70.0203 142.349 70.2041C142.299 70.4891 142.32 70.744 142.413 70.9689C142.516 71.1954 142.654 71.324 142.829 71.3548C142.873 71.3721 142.914 71.384 142.95 71.3905C142.996 71.3986 143.038 71.4059 143.075 71.4123C143.479 71.4836 143.884 71.4413 144.291 71.2855C144.708 71.1221 145.042 70.925 145.291 70.6941C145.419 70.5556 145.513 70.4299 145.57 70.3169C145.63 70.1947 145.667 70.0922 145.682 70.0095C145.714 69.8256 145.681 69.6918 145.582 69.6081C145.483 69.5243 145.386 69.4789 145.293 69.4719C145.143 69.4643 144.996 69.4622 144.853 69.4655C144.712 69.4596 144.587 69.4707 144.478 69.4988C144.419 69.5075 144.376 69.5094 144.349 69.5046C144.257 69.4884 144.185 69.4378 144.134 69.3529C144.092 69.2697 144.078 69.1867 144.093 69.104C144.118 68.9569 144.204 68.8726 144.35 68.8509C144.487 68.8276 144.646 68.813 144.827 68.807C145.008 68.801 145.192 68.805 145.38 68.819C145.418 68.8163 145.451 68.8174 145.478 68.8222C145.506 68.8271 145.538 68.8327 145.575 68.8392C145.906 68.8975 146.145 69.044 146.294 69.2786C146.443 69.504 146.493 69.7592 146.443 70.0442C146.412 70.2188 146.338 70.3999 146.219 70.5876C146.101 70.7752 145.934 70.9448 145.717 71.0962C145.515 71.2785 145.266 71.4526 144.971 71.6187C144.677 71.7847 144.356 71.9129 144.008 72.0033C143.662 72.0845 143.301 72.0919 142.924 72.0255ZM145.691 75.0293C145.535 75.0017 145.471 74.9052 145.5 74.7398C145.515 74.6571 145.561 74.5846 145.638 74.5224C145.942 74.3012 146.204 74.0819 146.422 73.8645C146.639 73.6563 146.813 73.45 146.943 73.2456C147.021 73.1266 147.075 73.0082 147.106 72.8903C147.147 72.7649 147.163 72.6729 147.154 72.6146C147.15 72.5854 147.152 72.5478 147.16 72.5018C147.178 72.4007 147.228 72.3291 147.311 72.2869C147.396 72.2355 147.485 72.2179 147.577 72.2341C147.742 72.2632 147.829 72.3592 147.839 72.5219C147.856 72.6387 147.852 72.766 147.828 72.9039C147.805 73.0326 147.765 73.1534 147.707 73.2665C147.657 73.3903 147.593 73.5117 147.515 73.6306C147.332 73.9205 147.088 74.1714 146.786 74.3834C146.492 74.5971 146.216 74.7902 145.959 74.9627C145.872 75.0233 145.783 75.0455 145.691 75.0293Z" fill="black"/>
<rect x="259.218" y="183" width="71.797" height="6.73097" transform="rotate(9.99364 259.218 183)" fill="#CFB9BC"/>
<g filter="url(#filter19_f_3_155)">
<rect x="258.716" y="185.399" width="71.797" height="4.12349" transform="rotate(9.99364 258.716 185.399)" fill="#FFE2E5"/>
</g>
<rect x="256.867" y="195" width="133.498" height="28.0457" transform="rotate(9.99364 256.867 195)" fill="#CFB9BC"/>
<g filter="url(#filter20_f_3_155)">
<rect x="256.484" y="197.582" width="133.498" height="25.8381" transform="rotate(9.99364 256.484 197.582)" fill="#FFE2E5"/>
</g>
<rect x="250.218" y="230" width="71.797" height="6.73097" transform="rotate(9.99364 250.218 230)" fill="#CFB9BC"/>
<g filter="url(#filter21_f_3_155)">
<rect x="249.716" y="232.399" width="71.797" height="4.12349" transform="rotate(9.99364 249.716 232.399)" fill="#FFE2E5"/>
</g>
<rect x="247.867" y="242" width="133.498" height="28.0457" transform="rotate(9.99364 247.867 242)" fill="#CFB9BC"/>
<g filter="url(#filter22_f_3_155)">
<rect x="247.484" y="244.582" width="133.498" height="25.8381" transform="rotate(9.99364 247.484 244.582)" fill="#FFE2E5"/>
</g>
<g filter="url(#filter23_f_3_155)">
<rect x="346.849" y="93" width="63.9442" height="74.0407" transform="rotate(9.99364 346.849 93)" fill="#D5D5CF"/>
</g>
<rect x="344.849" y="91" width="63.9442" height="74.0407" transform="rotate(9.99364 344.849 91)" fill="#FCC748"/>
<defs>
<filter id="filter0_f_3_155" x="2.16406" y="0.164062" width="551.356" height="358.102" filterUnits="userSpaceOnUse" color-interpolation-filters="sRGB">
<feFlood flood-opacity="0" result="BackgroundImageFix"/>
<feBlend mode="normal" in="SourceGraphic" in2="BackgroundImageFix" result="shape"/>
<feGaussianBlur stdDeviation="5" result="effect1_foregroundBlur_3_155"/>
</filter>
<filter id="filter1_f_3_155" x="455.186" y="193" width="90.334" height="66.4727" filterUnits="userSpaceOnUse" color-interpolation-filters="sRGB">
<feFlood flood-opacity="0" result="BackgroundImageFix"/>
<feBlend mode="normal" in="SourceGraphic" in2="BackgroundImageFix" result="shape"/>
<feGaussianBlur stdDeviation="1" result="effect1_foregroundBlur_3_155"/>
</filter>
<filter id="filter2_f_3_155" x="241.939" y="51.6309" width="100.783" height="272.542" filterUnits="userSpaceOnUse" color-interpolation-filters="sRGB">
<feFlood flood-opacity="0" result="BackgroundImageFix"/>
<feBlend mode="normal" in="SourceGraphic" in2="BackgroundImageFix" result="shape"/>
<feGaussianBlur stdDeviation="1" result="effect1_foregroundBlur_3_155"/>
</filter>
<filter id="filter3_f_3_155" x="386.945" y="77.1641" width="100.783" height="272.542" filterUnits="userSpaceOnUse" color-interpolation-filters="sRGB">
<feFlood flood-opacity="0" result="BackgroundImageFix"/>
<feBlend mode="normal" in="SourceGraphic" in2="BackgroundImageFix" result="shape"/>
<feGaussianBlur stdDeviation="1" result="effect1_foregroundBlur_3_155"/>
</filter>
<filter id="filter4_f_3_155" x="152.892" y="34.3604" width="100.981" height="273.667" filterUnits="userSpaceOnUse" color-interpolation-filters="sRGB">
<feFlood flood-opacity="0" result="BackgroundImageFix"/>
<feBlend mode="normal" in="SourceGraphic" in2="BackgroundImageFix" result="shape"/>
<feGaussianBlur stdDeviation="1" result="effect1_foregroundBlur_3_155"/>
</filter>
<filter id="filter5_f_3_155" x="446.186" y="187" width="90.334" height="66.4727" filterUnits="userSpaceOnUse" color-interpolation-filters="sRGB">
<feFlood flood-opacity="0" result="BackgroundImageFix"/>
<feBlend mode="normal" in="SourceGraphic" in2="BackgroundImageFix" result="shape"/>
<feGaussianBlur stdDeviation="1" result="effect1_foregroundBlur_3_155"/>
</filter>
<filter id="filter6_f_3_155" x="232.939" y="45.6309" width="100.783" height="272.542" filterUnits="userSpaceOnUse" color-interpolation-filters="sRGB">
<feFlood flood-opacity="0" result="BackgroundImageFix"/>
<feBlend mode="normal" in="SourceGraphic" in2="BackgroundImageFix" result="shape"/>
<feGaussianBlur stdDeviation="1" result="effect1_foregroundBlur_3_155"/>
</filter>
<filter id="filter7_f_3_155" x="377.945" y="71.1641" width="100.783" height="272.542" filterUnits="userSpaceOnUse" color-interpolation-filters="sRGB">
<feFlood flood-opacity="0" result="BackgroundImageFix"/>
<feBlend mode="normal" in="SourceGraphic" in2="BackgroundImageFix" result="shape"/>
<feGaussianBlur stdDeviation="1" result="effect1_foregroundBlur_3_155"/>
</filter>
<filter id="filter8_f_3_155" x="143.892" y="28.3604" width="100.981" height="273.667" filterUnits="userSpaceOnUse" color-interpolation-filters="sRGB">
<feFlood flood-opacity="0" result="BackgroundImageFix"/>
<feBlend mode="normal" in="SourceGraphic" in2="BackgroundImageFix" result="shape"/>
<feGaussianBlur stdDeviation="1" result="effect1_foregroundBlur_3_155"/>
</filter>
<filter id="filter9_f_3_155" x="219.346" y="59.106" width="221.49" height="262.552" filterUnits="userSpaceOnUse" color-interpolation-filters="sRGB">
<feFlood flood-opacity="0" result="BackgroundImageFix"/>
<feBlend mode="normal" in="SourceGraphic" in2="BackgroundImageFix" result="shape"/>
<feGaussianBlur stdDeviation="2" result="effect1_foregroundBlur_3_155"/>
</filter>
<filter id="filter10_f_3_155" x="33.0005" y="86.4321" width="427.651" height="184.346" filterUnits="userSpaceOnUse" color-interpolation-filters="sRGB">
<feFlood flood-opacity="0" result="BackgroundImageFix"/>
<feBlend mode="normal" in="SourceGraphic" in2="BackgroundImageFix" result="shape"/>
<feGaussianBlur stdDeviation="2" result="effect1_foregroundBlur_3_155"/>
</filter>
<filter id="filter11_f_3_155" x="227" y="61" width="209.835" height="255.525" filterUnits="userSpaceOnUse" color-interpolation-filters="sRGB">
<feFlood flood-opacity="0" result="BackgroundImageFix"/>
<feBlend mode="normal" in="SourceGraphic" in2="BackgroundImageFix" result="shape"/>
<feGaussianBlur stdDeviation="2" result="effect1_foregroundBlur_3_155"/>
</filter>
<filter id="filter12_f_3_155" x="224" y="60" width="209.835" height="255.525" filterUnits="userSpaceOnUse" color-interpolation-filters="sRGB">
<feFlood flood-opacity="0" result="BackgroundImageFix"/>
<feBlend mode="normal" in="SourceGraphic" in2="BackgroundImageFix" result="shape"/>
<feGaussianBlur stdDeviation="2" result="effect1_foregroundBlur_3_155"/>
</filter>
<filter id="filter13_f_3_155" x="221" y="59" width="209.835" height="255.525" filterUnits="userSpaceOnUse" color-interpolation-filters="sRGB">
<feFlood flood-opacity="0" result="BackgroundImageFix"/>
<feBlend mode="normal" in="SourceGraphic" in2="BackgroundImageFix" result="shape"/>
<feGaussianBlur stdDeviation="2" result="effect1_foregroundBlur_3_155"/>
</filter>
<filter id="filter14_f_3_155" x="45" y="29.0005" width="221.386" height="267.229" filterUnits="userSpaceOnUse" color-interpolation-filters="sRGB">
<feFlood flood-opacity="0" result="BackgroundImageFix"/>
<feBlend mode="normal" in="SourceGraphic" in2="BackgroundImageFix" result="shape"/>
<feGaussianBlur stdDeviation="5" result="effect1_foregroundBlur_3_155"/>
</filter>
<filter id="filter15_f_3_155" x="52.0002" y="30.0005" width="209.386" height="255.229" filterUnits="userSpaceOnUse" color-interpolation-filters="sRGB">
<feFlood flood-opacity="0" result="BackgroundImageFix"/>
<feBlend mode="normal" in="SourceGraphic" in2="BackgroundImageFix" result="shape"/>
<feGaussianBlur stdDeviation="2" result="effect1_foregroundBlur_3_155"/>
</filter>
<filter id="filter16_f_3_155" x="50.0002" y="29.0005" width="209.386" height="255.229" filterUnits="userSpaceOnUse" color-interpolation-filters="sRGB">
<feFlood flood-opacity="0" result="BackgroundImageFix"/>
<feBlend mode="normal" in="SourceGraphic" in2="BackgroundImageFix" result="shape"/>
<feGaussianBlur stdDeviation="2" result="effect1_foregroundBlur_3_155"/>
</filter>
<filter id="filter17_f_3_155" x="48.0002" y="29.0005" width="209.386" height="255.229" filterUnits="userSpaceOnUse" color-interpolation-filters="sRGB">
<feFlood flood-opacity="0" result="BackgroundImageFix"/>
<feBlend mode="normal" in="SourceGraphic" in2="BackgroundImageFix" result="shape"/>
<feGaussianBlur stdDeviation="2" result="effect1_foregroundBlur_3_155"/>
</filter>
<filter id="filter18_f_3_155" x="207.11" y="64.4531" width="63.0911" height="204.058" filterUnits="userSpaceOnUse" color-interpolation-filters="sRGB">
<feFlood flood-opacity="0" result="BackgroundImageFix"/>
<feBlend mode="normal" in="SourceGraphic" in2="BackgroundImageFix" result="shape"/>
<feGaussianBlur stdDeviation="1" result="effect1_foregroundBlur_3_155"/>
</filter>
<filter id="filter19_f_3_155" x="254" y="181.399" width="79.4233" height="24.5205" filterUnits="userSpaceOnUse" color-interpolation-filters="sRGB">
<feFlood flood-opacity="0" result="BackgroundImageFix"/>
<feBlend mode="normal" in="SourceGraphic" in2="BackgroundImageFix" result="shape"/>
<feGaussianBlur stdDeviation="2" result="effect1_foregroundBlur_3_155"/>
</filter>
<filter id="filter20_f_3_155" x="248" y="193.582" width="143.956" height="56.6133" filterUnits="userSpaceOnUse" color-interpolation-filters="sRGB">
<feFlood flood-opacity="0" result="BackgroundImageFix"/>
<feBlend mode="normal" in="SourceGraphic" in2="BackgroundImageFix" result="shape"/>
<feGaussianBlur stdDeviation="2" result="effect1_foregroundBlur_3_155"/>
</filter>
<filter id="filter21_f_3_155" x="245" y="228.399" width="79.4233" height="24.5205" filterUnits="userSpaceOnUse" color-interpolation-filters="sRGB">
<feFlood flood-opacity="0" result="BackgroundImageFix"/>
<feBlend mode="normal" in="SourceGraphic" in2="BackgroundImageFix" result="shape"/>
<feGaussianBlur stdDeviation="2" result="effect1_foregroundBlur_3_155"/>
</filter>
<filter id="filter22_f_3_155" x="239" y="240.582" width="143.956" height="56.6133" filterUnits="userSpaceOnUse" color-interpolation-filters="sRGB">
<feFlood flood-opacity="0" result="BackgroundImageFix"/>
<feBlend mode="normal" in="SourceGraphic" in2="BackgroundImageFix" result="shape"/>
<feGaussianBlur stdDeviation="2" result="effect1_foregroundBlur_3_155"/>
</filter>
<filter id="filter23_f_3_155" x="332" y="91" width="79.8228" height="88.0142" filterUnits="userSpaceOnUse" color-interpolation-filters="sRGB">
<feFlood flood-opacity="0" result="BackgroundImageFix"/>
<feBlend mode="normal" in="SourceGraphic" in2="BackgroundImageFix" result="shape"/>
<feGaussianBlur stdDeviation="1" result="effect1_foregroundBlur_3_155"/>
</filter>
</defs>
</svg>
