<svg width="1606" height="631" viewBox="0 0 1606 631" fill="none" xmlns="http://www.w3.org/2000/svg">
<g filter="url(#filter0_f_13_210)">
<path fill-rule="evenodd" clip-rule="evenodd" d="M4.66699 461.642C38.4672 496.867 81.841 515 127.172 515C164.152 515 200.129 495.936 230.746 464.076C233.226 463.544 235.88 462.989 238.723 462.414C252.053 459.718 261.134 466.118 268.841 474.022C295.334 537.487 336.331 592.486 419.938 616.269C549.059 652.998 603.372 581.038 660.505 505.34C709.655 440.221 760.892 372.336 863.637 368.503C964.35 376.97 1001.65 422.146 1043.54 472.886C1086.56 524.982 1134.41 582.943 1260.72 613.067C1445.77 657.203 1550.43 479.859 1601.33 321.527V4.1665H4.66699V461.642ZM881.599 141.346L881.799 141.062L881.961 140.833H881.464C881.491 140.935 881.518 141.037 881.545 141.139L881.599 141.346ZM1312.35 541.667C1420.05 541.667 1507.36 454.176 1507.36 346.25C1507.36 238.324 1420.05 150.833 1312.35 150.833C1204.65 150.833 1117.34 238.324 1117.34 346.25C1117.34 454.176 1204.65 541.667 1312.35 541.667Z" fill="#C5C5C5"/>
</g>
<path fill-rule="evenodd" clip-rule="evenodd" d="M3 457.475C36.8708 492.7 80.3351 510.833 125.761 510.833C162.818 510.833 198.87 491.77 229.551 459.91C232.036 459.377 234.696 458.823 237.545 458.248C250.902 455.551 260.002 461.952 267.726 469.856C294.275 533.32 335.357 588.319 419.138 612.102C548.529 648.832 602.955 576.871 660.208 501.174C709.46 436.054 760.804 368.169 863.765 364.337C964.687 372.804 1002.06 417.979 1044.05 468.72C1087.15 520.815 1135.11 578.777 1261.67 608.9C1447.12 653.036 1551.99 475.693 1603 317.361V0H3V457.475ZM881.763 137.179L881.949 136.916L882.125 136.667H881.628C881.653 136.764 881.679 136.861 881.705 136.958L881.763 137.179ZM1313.42 537.5C1421.34 537.5 1508.83 450.009 1508.83 342.083C1508.83 234.158 1421.34 146.667 1313.42 146.667C1205.49 146.667 1118 234.158 1118 342.083C1118 450.009 1205.49 537.5 1313.42 537.5Z" fill="#FFD1D6"/>
<defs>
<filter id="filter0_f_13_210" x="0.666992" y="0.166504" width="1604.67" height="629.992" filterUnits="userSpaceOnUse" color-interpolation-filters="sRGB">
<feFlood flood-opacity="0" result="BackgroundImageFix"/>
<feBlend mode="normal" in="SourceGraphic" in2="BackgroundImageFix" result="shape"/>
<feGaussianBlur stdDeviation="2" result="effect1_foregroundBlur_13_210"/>
</filter>
</defs>
</svg>
