<svg width="1607" height="777" viewBox="0 0 1607 777" fill="none" xmlns="http://www.w3.org/2000/svg">
<g filter="url(#filter0_f_13_285)">
<path fill-rule="evenodd" clip-rule="evenodd" d="M4 525.86C33.0289 582.666 73.6084 612.035 116.302 612.035C138.665 612.035 160.581 599.305 180.622 576.927C197.039 565.395 216.525 561.1 244.37 591.826C246.942 595.644 249.486 599.427 252.005 603.174C314.787 696.552 361.986 766.753 445.391 772.27C541.86 772.27 617 689.726 704.495 593.612C738.554 556.196 774.486 516.725 814.277 479.265C815.204 478.678 816.196 478.037 817.254 477.352C829.339 469.532 850.005 456.16 881.638 456.16C936.355 456.16 972.125 489.609 1008.26 523.404L1008.91 524.006C1032.86 548.422 1055.06 574.872 1075.25 598.936C1103.65 632.774 1128.08 661.893 1147.87 673.998C1258.46 741.658 1391.9 694.911 1475.31 516.777C1531.09 566.46 1572.74 566.281 1603 537.028V84.9014C1602.72 84.6753 1602.45 84.45 1602.17 84.2254V4H1075.72H4V525.86ZM1313.6 541.164C1421.46 541.164 1508.89 453.728 1508.89 345.869C1508.89 238.011 1421.46 150.575 1313.6 150.575C1205.74 150.575 1118.3 238.011 1118.3 345.869C1118.3 453.728 1205.74 541.164 1313.6 541.164Z" fill="#C8C8C9"/>
</g>
<path fill-rule="evenodd" clip-rule="evenodd" d="M2 521.86C31.0289 578.666 71.6084 608.035 114.302 608.035C136.665 608.035 158.581 595.305 178.622 572.927C195.039 561.395 214.525 557.1 242.37 587.826C244.942 591.644 247.486 595.427 250.005 599.174C312.787 692.552 359.986 762.753 443.391 768.27C539.86 768.27 615 685.726 702.495 589.612C736.554 552.196 772.486 512.725 812.277 475.265C813.204 474.678 814.196 474.037 815.254 473.352C827.339 465.532 848.005 452.16 879.638 452.16C934.355 452.16 970.125 485.609 1006.26 519.404L1006.91 520.006C1030.86 544.422 1053.06 570.872 1073.25 594.936C1101.65 628.774 1126.08 657.893 1145.87 669.998C1256.46 737.658 1389.9 690.911 1473.31 512.777C1529.09 562.46 1570.74 562.281 1601 533.028V80.9014C1600.72 80.6753 1600.45 80.45 1600.17 80.2254V0H1073.72H2V521.86ZM1311.6 537.164C1419.46 537.164 1506.89 449.728 1506.89 341.869C1506.89 234.011 1419.46 146.575 1311.6 146.575C1203.74 146.575 1116.3 234.011 1116.3 341.869C1116.3 449.728 1203.74 537.164 1311.6 537.164Z" fill="#C6F1EB"/>
<defs>
<filter id="filter0_f_13_285" x="0" y="0" width="1607" height="776.27" filterUnits="userSpaceOnUse" color-interpolation-filters="sRGB">
<feFlood flood-opacity="0" result="BackgroundImageFix"/>
<feBlend mode="normal" in="SourceGraphic" in2="BackgroundImageFix" result="shape"/>
<feGaussianBlur stdDeviation="2" result="effect1_foregroundBlur_13_285"/>
</filter>
</defs>
</svg>
